<svg version="1.1" xmlns="http://www.w3.org/2000/svg" xmlns:xlink="http://www.w3.org/1999/xlink" width="64.69454" height="60.03723" viewBox="0,0,64.69454,60.03723"><g transform="translate(-203.97057,-147.66262)"><g data-paper-data="{&quot;isPaintingLayer&quot;:true}" fill-rule="nonzero" stroke="none" stroke-width="1" stroke-linecap="butt" stroke-linejoin="miter" stroke-miterlimit="10" stroke-dasharray="" stroke-dashoffset="0" style="mix-blend-mode: normal"><path d="M253.70554,205.1343l-13.66072,-7.71481l-0.0446,-0.0892l-13.78707,-25.58969l42.42405,5.67091l-14.93909,27.71536zM240.5502,196.92895l12.88775,7.28375l14.14382,-26.25119l-40.1423,-5.36618l13.11073,24.34105z" fill="#c6e9f5"/><g><g><path d="M230.89155,198.04598l-8.01968,-7.00011l0.04565,-0.06087l19.02963,-28.51783l0.07609,0.09891l16.76221,22.21773l-0.09891,0.04566zM223.10012,191.01542l7.81424,6.82511l27.59716,-13.12521l-16.56438,-21.95143z" fill="#5f528a"/><path d="M223.6023,191.03065c0,0.34239 -0.27392,0.61632 -0.61632,0.61632c-0.34239,0 -0.61632,-0.27392 -0.61632,-0.61632c0,-0.34239 0.27392,-0.61632 0.61632,-0.61632c0.34239,0 0.61632,0.27392 0.61632,0.61632z" fill="#7565a5"/><path d="M231.26439,197.94706c0,0.19783 -0.15978,0.35761 -0.35762,0.35761c-0.19783,0 -0.35761,-0.15978 -0.35761,-0.35761c0,-0.19783 0.15978,-0.35762 0.35761,-0.35762c0.19783,0 0.35762,0.15978 0.35762,0.35762z" fill="#7565a5"/><path d="M259.37133,184.75338c0,0.40327 -0.32718,0.72285 -0.72285,0.72285c-0.39565,0 -0.72285,-0.32718 -0.72285,-0.72285c0,-0.39565 0.32718,-0.72285 0.72285,-0.72285c0.39565,0 0.72285,0.32718 0.72285,0.72285z" fill="#7565a5"/><path d="M242.44172,162.61934c0,0.27392 -0.22065,0.49457 -0.49457,0.49457c-0.27392,0 -0.49457,-0.22066 -0.49457,-0.49457c0,-0.27392 0.22066,-0.49457 0.49457,-0.49457c0.27392,0 0.49457,0.22065 0.49457,0.49457z" fill="#7565a5"/></g><g><path d="M264.22576,173.33255c-0.06087,0.20544 -0.03805,0.40327 -0.03044,0.60109c0.03044,0.70001 0,1.40001 -0.09892,2.09242c-0.07609,0.5174 -0.1826,1.02719 -0.38043,1.50654c-0.09891,0.24349 -0.21305,0.47174 -0.39566,0.66958c-0.38044,0.40328 -0.62393,0.39565 -1.05763,0.12935c-0.15217,-0.09131 -0.28914,-0.21305 -0.41088,-0.35001c-0.23587,-0.26631 -0.47174,-0.54022 -0.68479,-0.82937c-0.47935,-0.63914 -0.89784,-1.32394 -1.3011,-2.01633c-0.0837,-0.13696 -0.15978,-0.28153 -0.2587,-0.40327c-0.22826,-0.29675 -0.5174,-0.33478 -0.79892,-0.23587c-0.19022,0.06848 -0.35762,0.175 -0.53261,0.26631c-0.97392,0.5174 -1.99351,0.92827 -3.06635,1.18697c-0.42609,0.09891 -0.85979,0.19783 -1.3011,0.18261c-0.18261,0 -0.35761,-0.02282 -0.525,-0.0913c-0.15978,-0.06087 -0.26631,-0.19783 -0.25109,-0.36522c0.02282,-0.22066 0.04565,-0.44131 0.10652,-0.64674c0.06848,-0.22826 0.15978,-0.44892 0.2587,-0.66958c0.20544,-0.45654 0.45654,-0.89024 0.74566,-1.29349c0.22066,-0.31196 0.44131,-0.62393 0.64674,-0.93589c0.09891,-0.15217 0.18261,-0.30435 0.26631,-0.47174c0.0837,-0.175 0.06087,-0.35762 -0.05326,-0.5098c-0.0837,-0.11413 -0.175,-0.22066 -0.26631,-0.31957c-0.31196,-0.33478 -0.63914,-0.66196 -0.95111,-0.99676c-0.27392,-0.28913 -0.525,-0.6087 -0.72285,-0.95871c-0.09891,-0.175 -0.18261,-0.35762 -0.26631,-0.53262c-0.0837,-0.16739 -0.09891,-0.34239 -0.10652,-0.525c-0.00761,-0.19022 0.09891,-0.36522 0.28913,-0.40327c0.25109,-0.06087 0.5098,-0.09891 0.76848,-0.12935c0.15978,-0.01521 0.31957,-0.01521 0.47935,0c0.57827,0.05326 1.15655,0.11413 1.7272,0.16739c0.67719,0.06087 1.33915,0.20544 2.00873,0.33478c0.13696,0.02282 0.24349,-0.02282 0.30435,-0.13696c0.07609,-0.15978 0.15218,-0.32718 0.22826,-0.48696c0.35001,-0.76848 0.72284,-1.51414 1.21741,-2.19894c0.22826,-0.30435 0.46414,-0.60109 0.72285,-0.87501c0.15978,-0.175 0.35762,-0.31956 0.54783,-0.46414c0.15978,-0.12174 0.35001,-0.19022 0.54022,-0.25109c0.2587,-0.07609 0.47174,0.01521 0.66196,0.18261c0.16739,0.14457 0.27392,0.35001 0.35762,0.54783c0.18261,0.42609 0.30435,0.8674 0.38804,1.31633c0.09891,0.53261 0.12935,1.07284 0.15218,1.61307c0.00761,0.18261 0.01521,0.35762 0.03804,0.54022c0.02282,0.16739 0.15217,0.28914 0.31957,0.30435c0.41848,0.03805 0.83698,0.07609 1.25545,0.10652c0.56306,0.03805 1.11089,0.12935 1.65872,0.24349c0.35762,0.07609 0.68479,0.21305 1.00437,0.38804c0.30435,0.16739 0.53261,0.41849 0.65435,0.75327c0.04565,0.11413 0.05326,0.22826 0.02282,0.35001c-0.10652,0.39565 -0.30435,0.73806 -0.57067,1.04241c-0.62393,0.70762 -1.30871,1.34675 -2.13047,1.82612c-0.24348,0.13696 -0.48696,0.28152 -0.73045,0.41848c-0.175,0.09891 -0.35001,0.19783 -0.47935,0.35001zM258.64088,168.1053c-0.54783,0 -1.01958,0.19784 -1.39241,0.58588c-0.42609,0.44131 -0.61632,0.97392 -0.5174,1.59024c0.12174,0.72285 0.5174,1.24023 1.15654,1.58264c0.19783,0.10652 0.40328,0.175 0.62393,0.19783c1.08805,0.11413 1.80329,-0.71523 1.97829,-1.40002c0.09131,-0.35001 0.11413,-0.70762 0.04565,-1.07284c-0.11413,-0.58588 -0.40327,-1.02718 -0.96631,-1.27828c-0.29675,-0.12935 -0.60109,-0.21305 -0.92827,-0.20544zM264.47684,170.53251c0,-0.12174 0.00761,-0.24348 0,-0.35762c-0.05326,-0.59349 -0.32718,-1.05763 -0.83698,-1.36959c-0.19783,-0.12174 -0.40327,-0.16739 -0.62393,-0.15217c-0.33478,0.02282 -0.61632,0.15978 -0.85218,0.39565c-0.64675,0.63153 -0.88263,1.40002 -0.75327,2.29026c0.06848,0.44892 0.26631,0.83697 0.6087,1.1337c0.23587,0.19783 0.49457,0.31957 0.81414,0.32718c0.33478,0 0.62393,-0.09891 0.87501,-0.31957c0.19783,-0.175 0.35762,-0.38044 0.46414,-0.61632c0.19783,-0.41848 0.31956,-0.85979 0.30435,-1.32394zM260.26156,173.1195c0,0 0.02282,0.0913 0.03804,0.15217c0.00761,0.04565 0.11413,0.07609 0.15218,0.03805c0.04565,-0.03805 0.09891,-0.07609 0.12174,-0.12935c0.15978,-0.32718 0.24349,-0.66958 0.29675,-1.01958c0.00761,-0.06087 0,-0.12174 -0.00761,-0.175c-0.01521,-0.05326 -0.05326,-0.09891 -0.0913,-0.13696c-0.04565,-0.04565 -0.18261,0 -0.21305,0.04565c-0.03044,0.05326 -0.06848,0.09891 -0.0837,0.15217c-0.10652,0.34239 -0.19783,0.68479 -0.19783,1.07284z" fill="#fcf38f"/><path d="M225.16212,174.10865c-0.34239,0.25109 -0.57067,0.53261 -0.76848,0.83698c-0.33478,0.5174 -0.67719,1.0348 -1.01197,1.5598c-0.89784,1.42285 -1.85655,2.80004 -2.84569,4.16202c-0.53261,0.73045 -1.08045,1.44568 -1.69677,2.10003c-0.24348,0.26631 -0.50218,0.5174 -0.76848,0.75326c-0.2587,0.22826 -0.54783,0.39565 -0.89024,0.48696c-0.21305,0.05326 -0.39565,0 -0.55544,-0.12935c-0.14457,-0.11413 -0.25109,-0.2587 -0.34239,-0.41088c-0.14457,-0.24349 -0.2587,-0.49457 -0.36522,-0.75326c-0.22826,-0.57827 -0.39565,-1.17176 -0.55544,-1.77286c-0.47174,-1.78046 -0.8674,-3.57614 -1.20981,-5.37944c-0.12935,-0.66958 -0.24349,-1.33915 -0.28913,-2.01634c-0.03044,-0.41848 -0.07609,-0.83698 -0.12174,-1.25545c-0.02282,-0.175 -0.06087,-0.35762 -0.09892,-0.53261c-0.01521,-0.0837 -0.0837,-0.13696 -0.16739,-0.15217c-0.27392,-0.05326 -0.54783,-0.09892 -0.82937,-0.15218c-1.71198,-0.31196 -3.40876,-0.6924 -5.03703,-1.31633c-0.50218,-0.19022 -1.00437,-0.40327 -1.49133,-0.62393c-0.25109,-0.11413 -0.49457,-0.2587 -0.73045,-0.41088c-0.24349,-0.15217 -0.4337,-0.35001 -0.57827,-0.60109c-0.25109,-0.41088 -0.2663,-0.82937 -0.03804,-1.25545c0.15217,-0.28152 0.33479,-0.54783 0.56306,-0.77611c0.20544,-0.21305 0.42609,-0.42609 0.64675,-0.62393c1.54459,-1.33915 3.1957,-2.53373 4.96855,-3.56093c0.2587,-0.15217 0.5174,-0.31196 0.77611,-0.45654c0.41088,-0.22826 0.75327,-0.525 1.06524,-0.88263c0.03805,-0.26631 0.02283,-0.54783 -0.01521,-0.82937c-0.04565,-0.39565 -0.11413,-0.79132 -0.15978,-1.18697c-0.06087,-0.54022 -0.11413,-1.07284 -0.15218,-1.61307c-0.07609,-1.09568 -0.12935,-2.19895 -0.19783,-3.29462c-0.06087,-0.95871 0,-1.91742 0.0837,-2.87613c0.04565,-0.5174 0.14457,-1.02718 0.33478,-1.52175c0.10652,-0.28152 0.23587,-0.55544 0.41088,-0.79892c0.32718,-0.45654 0.76848,-0.61633 1.30871,-0.50218c0.33478,0.06848 0.64674,0.19783 0.95111,0.36522c0.35001,0.19022 0.67719,0.41848 0.99676,0.66196c0.58588,0.44892 1.14894,0.93589 1.66633,1.46849c0.65436,0.66958 1.31633,1.34675 1.94785,2.03916c0.95111,1.05002 1.88698,2.13047 2.82287,3.1957c0.05326,0.06087 0.09891,0.12174 0.15978,0.18261c0.15217,0.15217 0.31196,0.22065 0.54022,0.14457c0.92066,-0.32718 1.84894,-0.64674 2.7696,-0.97392c1.22502,-0.42609 2.45765,-0.84458 3.70549,-1.18697c0.73046,-0.19783 1.46849,-0.38044 2.22177,-0.5098c0.57066,-0.09891 1.14894,-0.15978 1.7348,-0.05326c0.19783,0.03805 0.38805,0.09892 0.56306,0.19783c0.18261,0.10652 0.28913,0.28152 0.28913,0.49457c0,0.13696 -0.01522,0.28153 -0.03805,0.41849c-0.07609,0.41848 -0.21305,0.81414 -0.36522,1.2022c-0.23587,0.59349 -0.5174,1.17176 -0.82175,1.7348c-0.45654,0.84458 -0.95871,1.66633 -1.47612,2.47286c-0.22066,0.33478 -0.4337,0.66959 -0.65436,1.00437c-0.12935,0.20544 -0.26631,0.40328 -0.37283,0.61632c-0.39565,0.82937 -0.50218,0.57066 0.06087,1.43046c0.96632,1.47612 1.90982,2.95982 2.79243,4.47398c0.61632,1.05002 1.17176,2.13808 1.66633,3.25657c0.16739,0.38044 0.31196,0.77611 0.44892,1.17176c0.06848,0.20544 0.11413,0.42609 0.15978,0.63914c0.10652,0.54022 -0.06848,0.98153 -0.46414,1.35436c-0.28152,0.26631 -0.63153,0.4261 -0.99676,0.53262c-0.30435,0.0837 -0.62393,0.15217 -0.9435,0.15217c-0.84458,0.01521 -1.68153,0.00761 -2.51851,-0.07609c-0.5174,-0.05326 -1.03479,-0.10652 -1.5522,-0.15978c-0.23587,-0.02282 -0.47175,-0.06848 -0.71523,-0.09892c-0.73805,-0.09131 -1.46849,-0.175 -2.20655,-0.26631c-0.22066,-0.02282 -0.4337,-0.05326 -0.65436,-0.07609c-0.31957,-0.04565 -0.63914,-0.06848 -0.95871,-0.03044zM219.74463,161.64542c-0.02282,0.54022 0.14457,1.17176 0.42609,1.78046c0.30435,0.64675 0.74566,1.17936 1.36197,1.55981c0.79892,0.49457 1.63589,0.58588 2.52612,0.28152c1.30871,-0.44892 2.21416,-1.77285 2.1609,-3.27178c-0.03044,-0.96632 -0.40327,-1.82612 -1.01957,-2.57178c-0.28913,-0.34239 -0.63914,-0.60109 -1.05002,-0.77611c-0.38804,-0.16739 -0.80653,-0.24348 -1.22502,-0.26631c-0.66958,-0.03044 -1.30871,0.13696 -1.87938,0.5098c-0.57827,0.37283 -0.95871,0.89024 -1.15655,1.5522c-0.10652,0.35001 -0.13696,0.70761 -0.14457,1.2022zM213.86303,164.86394c-0.01521,0.82937 0.19783,1.5522 0.57067,2.22938c0.22826,0.40327 0.525,0.75327 0.88263,1.04241c0.26631,0.22066 0.55544,0.38805 0.88263,0.49457c0.47935,0.15217 0.9435,0.13696 1.40002,-0.0837c0.5174,-0.2587 0.82174,-0.68479 0.96631,-1.23262c0.14457,-0.525 0.15978,-1.06523 0.09131,-1.60546c-0.10652,-0.84458 -0.41088,-1.62067 -0.83698,-2.35112c-0.175,-0.29675 -0.38044,-0.56306 -0.64675,-0.78372c-0.54022,-0.44131 -1.14893,-0.525 -1.80329,-0.29675c-0.49457,0.175 -0.83698,0.53261 -1.09568,0.97392c-0.29675,0.5098 -0.4337,1.07284 -0.41849,1.60546zM220.89357,168.74444c-0.01521,0.06087 -0.00761,0.10652 -0.03043,0.13696c-0.22066,0.40327 -0.175,0.80653 -0.03805,1.21742c0.12935,0.40328 0.33478,0.76848 0.58588,1.11089c0.25109,0.34239 0.57067,0.61632 0.97392,0.77611c0.42609,0.16739 0.82175,0.12935 1.17936,-0.175c0.34239,-0.29675 0.55544,-0.67719 0.63153,-1.1261c0,-0.01521 -0.01522,-0.04565 -0.03044,-0.04565c-0.03805,0 -0.09131,-0.00761 -0.10652,0.01521c-0.06848,0.07609 -0.12174,0.15978 -0.18261,0.23587c-0.12174,0.15978 -0.23587,0.31957 -0.36522,0.47175c-0.11413,0.14457 -0.27392,0.22826 -0.44892,0.28913c-0.11413,0.03805 -0.23587,0.04565 -0.35001,0c-0.19022,-0.06087 -0.36522,-0.15978 -0.5174,-0.29675c-0.5098,-0.44892 -0.83698,-1.01197 -0.99676,-1.67393c-0.00761,-0.03805 0,-0.07609 0.01521,-0.11413c0,-0.01521 0.01522,-0.03804 0.03044,-0.04565c0.01521,0 0.04565,0 0.05326,0.01521c0.09891,0.12174 0.19023,0.25109 0.28914,0.37283c0.19783,0.2587 0.41848,0.48696 0.70761,0.63914c0.35762,0.19022 0.76088,0 0.83698,-0.38804c0.01521,-0.07609 0.03044,-0.15979 0.02282,-0.23587c-0.01521,-0.22066 -0.02282,-0.44131 -0.06848,-0.65435c-0.23587,-1.3011 -0.79892,-2.46525 -1.49894,-3.56854c-0.13696,-0.22066 -0.31196,-0.41848 -0.5098,-0.58588c-0.24348,-0.21305 -0.52501,-0.28152 -0.83698,-0.175c-0.18261,0.06087 -0.30435,0.18261 -0.36522,0.36522c-0.06087,0.175 -0.07609,0.35762 -0.04565,0.53261c0.04565,0.23587 0.09131,0.47175 0.16739,0.70001c0.18261,0.59349 0.41848,1.16415 0.68479,1.72719c0.07609,0.15978 0.15218,0.32718 0.22066,0.47175z" fill="#fcf38f"/><path d="M247.45594,202.7254c-0.03044,-0.06087 -0.04566,-0.09891 -0.06087,-0.13696c-0.22826,-0.74566 -0.47174,-1.48372 -0.79892,-2.19895c-0.02282,-0.05326 0.02282,-0.13696 0.07609,-0.12935c0.12174,0.00761 0.23587,0.02282 0.35762,0.02282c0.07609,0 0.15978,-0.00761 0.23587,-0.02282c0.15217,-0.03044 0.28153,-0.19022 0.28153,-0.35001c0,-0.33478 -0.12174,-0.62393 -0.3424,-0.8674c-0.00761,-0.01521 -0.03805,-0.02283 -0.05326,-0.02283c-0.03044,0.01521 -0.0837,0.03044 -0.0837,0.05326c-0.05326,0.22066 0.02282,0.4337 0.03043,0.65436c0,0.03805 -0.07608,0.11413 -0.11413,0.11413c-0.03805,0 -0.0837,0 -0.11413,0c-0.13696,-0.03805 -0.27392,-0.06848 -0.40328,-0.11413c-0.24348,-0.09131 -0.47935,-0.19022 -0.72285,-0.28913c-0.73805,-0.30435 -1.47612,-0.6087 -2.22177,-0.90544c-0.07609,-0.03044 -0.15217,-0.05327 -0.22826,-0.06848c-0.18261,-0.03805 -0.38044,0.12935 -0.35762,0.30435c0.02282,0.13696 0.05326,0.27392 0.10652,0.40328c0.22826,0.57827 0.45654,1.15655 0.70001,1.71959c0.28913,0.66196 0.59349,1.30871 0.90544,1.99351c-0.03044,0.04565 -0.06848,0.12174 -0.11413,0.175c-0.20544,0.25109 -0.40328,0.49457 -0.61632,0.73805c-0.78372,0.89024 -1.62067,1.71959 -2.57938,2.4196c-0.28913,0.21305 -0.60109,0.39565 -0.91305,0.57827c-0.19022,0.10652 -0.39566,0.19022 -0.60109,0.2587c-0.12935,0.04565 -0.27391,0.05327 -0.41088,0.04566c-0.19022,-0.00761 -0.35001,-0.10653 -0.4337,-0.28153c-0.07609,-0.15978 -0.14457,-0.32718 -0.19022,-0.50218c-0.12935,-0.50218 -0.19783,-1.01958 -0.24348,-1.53699c-0.11413,-1.24023 -0.13696,-2.48047 -0.06848,-3.72071c0.00761,-0.13696 0,-0.28152 0,-0.41848c0,-0.28152 -0.09891,-0.50218 -0.34239,-0.65436c-0.23587,-0.14457 -0.46414,-0.31196 -0.70761,-0.44892c-0.57066,-0.32718 -1.15655,-0.63914 -1.72719,-0.96632c-0.38044,-0.22066 -0.75327,-0.44892 -1.1261,-0.68479c-0.27392,-0.175 -0.525,-0.36522 -0.74566,-0.60109c-0.09891,-0.09891 -0.19783,-0.20544 -0.28152,-0.31196c-0.16739,-0.22826 -0.15218,-0.44892 0.04565,-0.64675c0.24348,-0.24348 0.525,-0.4337 0.82937,-0.58588c0.28913,-0.14457 0.57827,-0.27391 0.87501,-0.38804c0.83698,-0.32718 1.70438,-0.57827 2.56417,-0.84458c0.38044,-0.11413 0.76087,-0.24348 1.14131,-0.36522c0.09131,-0.03044 0.19022,-0.06848 0.28152,-0.10652c0.11413,-0.05326 0.19022,-0.14457 0.22066,-0.26631c0.01521,-0.06087 0.02282,-0.12174 0.03044,-0.175c0.02282,-0.28152 0.06087,-0.55544 0.07609,-0.83698c0.06087,-1.01958 0.23587,-2.02394 0.50218,-3.01308c0.09131,-0.35001 0.20544,-0.6924 0.35001,-1.01958c0.19022,-0.42609 0.45654,-0.79892 0.80653,-1.10329c0.44131,-0.38804 0.92066,-0.44131 1.44568,-0.18261c0.23587,0.11413 0.44892,0.2587 0.65436,0.42609c0.50218,0.40327 0.95111,0.85979 1.30871,1.40002c0.42609,0.63153 0.83697,1.27068 1.24784,1.90982c0.09891,0.15217 0.19022,0.30435 0.28913,0.45654c0.04565,0.06848 0.09131,0.12935 0.15218,0.18261c0.09131,0.0837 0.20544,0.13696 0.32717,0.10652c0.5098,-0.10652 1.01197,-0.22066 1.52176,-0.33479c0.88263,-0.19022 1.77286,-0.31957 2.67069,-0.40328c0.71522,-0.06848 1.43807,-0.07609 2.15329,0.0837c0.23587,0.05326 0.46414,0.12174 0.66958,0.25109c0.14457,0.09131 0.22826,0.22066 0.22066,0.39565c0,0.15978 -0.03043,0.31196 -0.0913,0.46414c-0.13696,0.35762 -0.31196,0.6924 -0.5098,1.01197c-0.41848,0.68479 -0.87501,1.33915 -1.3772,1.96308c-0.44892,0.56306 -0.89784,1.1261 -1.34675,1.69677c-0.12174,0.15978 -0.23587,0.31957 -0.34239,0.49457c-0.12935,0.22066 -0.14457,0.45654 -0.03044,0.6924c0.05326,0.10652 0.11413,0.21305 0.16739,0.31957c0.70001,1.40002 1.27068,2.84569 1.65872,4.35985c0.12174,0.46414 0.21305,0.93589 0.2587,1.41523c0.03805,0.38044 0.04566,0.76088 -0.0913,1.1261c-0.05326,0.13696 -0.20544,0.22826 -0.33479,0.18261c-0.18261,-0.06848 -0.37283,-0.14457 -0.54783,-0.23587c-1.01197,-0.54022 -1.97069,-1.14894 -2.8533,-1.87177c-0.32718,-0.26631 -0.65435,-0.53262 -1.00437,-0.81414zM242.78412,197.77967c0,0 -0.04566,0.0837 -0.07609,0.0913c-0.28913,0.0837 -0.57827,0.16739 -0.8674,0.24349c-0.175,0.04565 -0.3424,0.09892 -0.5174,0.15218c-0.01521,0 -0.03804,0.03804 -0.03804,0.03804c0.02282,0.03044 0.04565,0.07609 0.06848,0.07609c0.525,0.00761 1.02718,-0.12935 1.51414,-0.30435c0.07609,-0.03044 0.12174,-0.10652 0.09131,-0.19022c-0.01521,-0.04565 -0.01521,-0.07609 0.03044,-0.09891c0.03805,-0.01521 0.07609,-0.01522 0.11413,-0.03044c0.40327,-0.09891 0.54783,-0.31196 0.41088,-0.6924c-0.25109,-0.72285 -0.58588,-1.40001 -1.05763,-2.00872c-0.14457,-0.19022 -0.31957,-0.35762 -0.5174,-0.49457c-0.32718,-0.22826 -0.68479,-0.30435 -1.08044,-0.18261c-0.19783,0.06087 -0.36522,0.15978 -0.52501,0.28913c-0.25109,0.20544 -0.45654,0.44892 -0.61632,0.73046c-0.31196,0.57066 -0.50218,1.17176 -0.55544,1.81851c-0.00761,0.12935 0.06087,0.24348 0.19022,0.26631c0.19783,0.03044 0.39565,0.06848 0.59349,0.07609c0.57827,0.03805 1.15655,0.06087 1.7348,0.09131c0.35762,0.01521 0.71522,0.04565 1.07284,0.12174zM244.98308,194.56114c0.02282,0.2587 0.03044,0.5174 0.07609,0.77611c0.10652,0.58588 0.25109,1.17176 0.42609,1.74242c0.06087,0.19022 0.13696,0.37283 0.21305,0.55544c0.06848,0.16739 0.19022,0.30435 0.31196,0.4337c0.06848,0.07609 0.18261,0.07609 0.27392,0.01521c0.09131,-0.07609 0.19022,-0.14457 0.27392,-0.22826c0.44892,-0.42609 0.89023,-0.85979 1.33155,-1.29349c0.18261,-0.18261 0.35761,-0.37283 0.525,-0.57067c0.09891,-0.12174 0.19023,-0.2587 0.2587,-0.39566c0.09891,-0.19022 0.09131,-0.38804 0,-0.57827c-0.04565,-0.09131 -0.09131,-0.175 -0.14457,-0.2587c-0.25109,-0.35762 -0.5174,-0.70762 -0.82175,-1.02719c-0.25109,-0.2587 -0.525,-0.48696 -0.82937,-0.68479c-0.18261,-0.12174 -0.38044,-0.21305 -0.59349,-0.27392c-0.29675,-0.09131 -0.54783,-0.01521 -0.77611,0.19022c-0.15217,0.13696 -0.25109,0.31196 -0.32718,0.49457c-0.15217,0.35762 -0.20544,0.73046 -0.19783,1.11089zM244.69393,192.93285c-0.18261,0.23587 -0.18261,0.5174 -0.22826,0.79132c-0.03805,0.23587 -0.02283,0.47936 0.03804,0.70762c0.00761,0.03805 0.03044,0.07609 0.06087,0.09891c0.03044,0.02282 0.07609,0.03044 0.10652,0.02282c0.03044,-0.00761 0.05326,-0.04565 0.07609,-0.07609c0.00761,-0.01521 0.01522,-0.03805 0.00761,-0.05326c-0.06087,-0.38044 -0.01522,-0.75326 0.02282,-1.1337c0.00761,-0.09891 0,-0.19783 0,-0.29675c0,-0.02282 -0.05326,-0.04566 -0.0837,-0.06087zM243.33196,195.0481c0,-0.04565 0,-0.12935 -0.02282,-0.19783c-0.14457,-0.37283 -0.35761,-0.70001 -0.66196,-0.96632c-0.03044,-0.02282 -0.06848,-0.04565 -0.09892,-0.06087c-0.01521,-0.00761 -0.03805,-0.00761 -0.05326,-0.00761c-0.01521,0 -0.03805,0 -0.05326,0.00761c-0.04565,0.02282 -0.06087,0.05326 -0.03043,0.0913c0.25109,0.37283 0.5174,0.74566 0.72285,1.14894c0.01521,0.03044 0.06087,0.03805 0.09891,0.06087c0.04565,0.02282 0.07609,0 0.10652,-0.07609zM247.06789,198.37316c0.28913,0 0.55543,-0.04566 0.80653,-0.175c0.00761,0 0.01522,-0.03044 0.00761,-0.04565c0,-0.01521 -0.01522,-0.04565 -0.03044,-0.05326c-0.36522,-0.10652 -0.73045,-0.0913 -1.08044,0.06087c-0.01521,0 -0.03044,0.03804 -0.03044,0.04565c0.01521,0.03805 0.03044,0.07609 0.05326,0.09891c0.0837,0.06848 0.18261,0.05326 0.26631,0.05326z" fill="#fcf38f"/><path d="M247.61572,205.98197c0,0.21305 0,0.35762 -0.06087,0.48696c-0.02282,0.03805 -0.12174,0.06848 -0.15217,0.03805c-0.15217,-0.18261 -0.31957,-0.35761 -0.44892,-0.55544c-0.20544,-0.29675 -0.39566,-0.60109 -0.57067,-0.91305c-0.5174,-0.92066 -1.01197,-1.86416 -1.46849,-2.81526c-0.04565,-0.09131 -0.08369,-0.18261 -0.12174,-0.27392c-0.05326,-0.12174 0.03043,-0.22826 0.175,-0.23587c0.15978,0 0.31957,0.00761 0.46414,0.0837c0.22066,0.10652 0.41848,0.23587 0.58588,0.41088c0.18261,0.19022 0.35001,0.38044 0.5174,0.57827c0.19022,0.22826 0.36522,0.47174 0.54783,0.71522c0.04565,0.06087 0.09131,0.12935 0.11413,0.20544c0.22066,0.76848 0.37283,1.5522 0.41848,2.27504z" fill="#f48d95"/><path d="M246.88526,202.6417c-0.06848,-0.06087 -0.12934,-0.10652 -0.16739,-0.15978c-0.11413,-0.13696 -0.22066,-0.28153 -0.3424,-0.41088c-0.175,-0.19022 -0.38043,-0.35001 -0.60109,-0.48696c-0.41848,-0.25109 -0.61632,-0.27392 -1.14894,-0.13696c-0.03044,-0.03805 -0.09131,-0.06848 -0.10652,-0.12174c-0.30435,-0.6924 -0.6087,-1.38481 -0.91305,-2.07721c-0.02282,-0.06087 0,-0.11413 0.06087,-0.14457c0.42609,0.15978 0.85218,0.32718 1.27828,0.48696c0.15217,0.05326 0.29675,0.12174 0.44892,0.16739c0.61632,0.16739 0.47175,0.12935 0.73045,0.66958c0.31957,0.66958 0.56306,1.36197 0.76848,2.0696c0.00761,0.03805 0,0.07609 0,0.15217z" fill="#5b2e2e"/><path d="M230.9296,189.18932c0.10652,-0.175 0.11413,-0.35762 0.13696,-0.53261c0.04565,-0.33478 0.12935,-0.66197 0.26631,-0.98153c0.04565,-0.10652 0.12174,-0.20544 0.19022,-0.30435c0.06848,-0.09131 0.23587,-0.10652 0.32718,-0.03044c0.09891,0.09131 0.20544,0.19022 0.28153,0.30435c0.12174,0.18261 0.22066,0.38044 0.31957,0.57067c0.04565,0.0837 0.0837,0.18261 0.12935,0.26631c0.06087,0.12174 0.16739,0.18261 0.28913,0.15217c0.25109,-0.06087 0.50218,-0.12935 0.75327,-0.19783c0.175,-0.04565 0.35001,-0.0837 0.525,-0.12174c0.13696,-0.02282 0.27392,0 0.41088,0.05326c0.04565,0.01521 0.09131,0.09891 0.0837,0.13696c-0.03805,0.19783 -0.13696,0.37283 -0.24348,0.54022c-0.13696,0.22066 -0.28913,0.4337 -0.42609,0.64675c-0.05326,0.0837 -0.10652,0.16739 -0.15978,0.25109c-0.175,0.2587 -0.19022,0.5174 0.02282,0.76848c0.11413,0.13696 0.22826,0.28153 0.31957,0.4337c0.09891,0.16739 0.19022,0.35001 0.26631,0.53261c0.03044,0.06848 0.03804,0.15217 -0.00761,0.22826c-0.02282,0.04565 -0.14457,0.06848 -0.22065,0.03805c-0.19783,-0.0837 -0.40327,-0.175 -0.60109,-0.27392c-0.15978,-0.0837 -0.30435,-0.19022 -0.46414,-0.28152c-0.0837,-0.05326 -0.175,-0.09892 -0.26631,-0.12935c-0.22066,-0.0837 -0.45654,-0.02282 -0.57827,0.175c-0.19022,0.30435 -0.40327,0.59348 -0.63914,0.8674c-0.10652,0.12174 -0.21305,0.23587 -0.35762,0.31196c-0.10652,0.06087 -0.25109,0 -0.28913,-0.11413c-0.00761,-0.03805 -0.02282,-0.07609 -0.03044,-0.11413c-0.00761,-0.09891 -0.02282,-0.19783 -0.01521,-0.29675c0.01521,-0.22066 0.03805,-0.4337 0.05326,-0.65435c0.01521,-0.13696 0.03804,-0.27391 0.03804,-0.41848c0,-0.23587 -0.09891,-0.4261 -0.30435,-0.54783c-0.13696,-0.0837 -0.28913,-0.13696 -0.42609,-0.21305c-0.21305,-0.10652 -0.43371,-0.21305 -0.6087,-0.38044c-0.05326,-0.05326 -0.10652,-0.12174 -0.14457,-0.19022c-0.01521,-0.02282 0,-0.0837 0.01521,-0.09891c0.0837,-0.05326 0.175,-0.10652 0.26631,-0.12935c0.22826,-0.06087 0.46414,-0.10652 0.70001,-0.16739c0.13696,-0.03805 0.2587,-0.0913 0.38044,-0.12935z" fill="#f4ab4b"/><path d="M225.13168,160.23018c-0.03044,0.0837 -0.0837,0.12934 -0.15978,0.16739c-1.14131,0.525 -2.27504,1.05763 -3.40876,1.59025c-0.34239,0.15978 -0.66958,0.35001 -1.00437,0.525c-0.03044,0.01521 -0.09131,0.03044 -0.11413,0.01522c-0.03805,-0.03805 -0.06087,-0.09131 -0.0837,-0.14457c-0.03044,-0.07609 -0.02282,-0.15978 0.03805,-0.22066c0.03044,-0.02282 0.06087,-0.04565 0.09891,-0.06848c0.47935,-0.24348 0.95871,-0.48696 1.43807,-0.73805c0.29675,-0.15978 0.59349,-0.31957 0.89024,-0.48696c0.03044,-0.01521 0.05326,-0.05326 0.07609,-0.0837c-0.07609,-0.03805 -0.15978,-0.01521 -0.22826,0.00761c-0.29675,0.12174 -0.59349,0.24348 -0.88263,0.36522c-0.40327,0.175 -0.79892,0.35762 -1.2022,0.53261c-0.09131,0.03805 -0.175,0.09891 -0.28153,0.06848c-0.06848,-0.33478 -0.06848,-0.69239 0,-0.99676c0.24348,-1.01197 0.88263,-1.62067 1.87177,-1.89459c0.09131,-0.02282 0.19783,-0.03043 0.29675,-0.03804c0.41848,-0.01521 0.83698,0.03044 1.24023,0.16739c0.63153,0.21305 1.10329,0.63153 1.41523,1.21741z" fill="#f4ab4b"/><path d="M222.05771,164.67372c0.05326,-0.05326 0.09131,-0.10653 0.13696,-0.12935c0.15978,-0.07609 0.33478,-0.12935 0.49457,-0.20544c0.06087,-0.03044 0.10652,-0.09131 0.15978,-0.14457c-0.14457,-0.06087 -0.25109,0.02283 -0.37283,0.03805c-0.11413,0.01521 -0.22826,0.05326 -0.35001,0.0837c-0.15217,0.03044 -0.30435,0.09891 -0.46414,0.05326c-0.01521,0 -0.03805,-0.01522 -0.03805,-0.03044c0,-0.01521 0,-0.04565 0.01522,-0.05326c0.04565,-0.03044 0.09891,-0.06848 0.14457,-0.09131c1.17936,-0.525 2.36634,-1.05002 3.5457,-1.56741c0.06848,-0.03044 0.15217,-0.04566 0.22826,-0.06087c0.02282,0 0.07609,0.05327 0.07609,0.06848c-0.03044,0.15217 -0.06087,0.31196 -0.10652,0.46414c-0.175,0.5174 -0.47174,0.95871 -0.91305,1.3011c-0.48696,0.38044 -1.04241,0.57827 -1.66633,0.54783c-0.31957,-0.01521 -0.62393,-0.0913 -0.90545,-0.27391z" fill="#f4ab4b"/><path d="M214.41086,164.72699c0.03044,-0.37283 0.12174,-0.79893 0.32717,-1.19458c0.12935,-0.25109 0.30435,-0.46414 0.53261,-0.63914c0.25109,-0.19022 0.53261,-0.26631 0.83698,-0.28913c0.07609,0 0.15978,0.00761 0.23587,0.03044c0.23587,0.06848 0.44131,0.19022 0.6087,0.36522c0.22066,0.22826 0.40327,0.49457 0.54022,0.78372c0.03044,0.06848 0,0.16739 -0.06848,0.20544c-0.22826,0.12935 -0.44892,0.26631 -0.68479,0.37283c-0.68479,0.32718 -1.35436,0.68479 -2.01634,1.05763c-0.03805,0.02282 -0.06848,0.03805 -0.10652,0.05326c-0.06087,0.03044 -0.12935,0 -0.12935,-0.05326c0,-0.05326 0,-0.12935 0.03804,-0.15978c0.05326,-0.05326 0.13696,-0.0837 0.20544,-0.12174c0.49457,-0.2587 0.98915,-0.5174 1.48372,-0.77611c0.15978,-0.0837 0.31196,-0.175 0.46414,-0.27391c0.01521,0 0.02282,-0.04566 0.01521,-0.05327c-0.02282,-0.02282 -0.06087,-0.05326 -0.0837,-0.05326c-0.07609,0.01521 -0.15978,0.03044 -0.22826,0.06087c-0.41088,0.20544 -0.82175,0.41849 -1.23262,0.62393c-0.19783,0.09891 -0.39565,0.19022 -0.59349,0.28152c-0.07609,0.03805 -0.16739,-0.03043 -0.15978,-0.11413c0,-0.02282 0,-0.03805 0,-0.12935z" fill="#f4ab4b"/><path d="M215.30109,167.19225c0.04565,-0.02282 0.09131,-0.06087 0.14457,-0.0837c0.83698,-0.41848 1.69677,-0.79893 2.51091,-1.27068c0.02282,-0.01521 0.06848,0.00761 0.10652,0.01522c0,0.01521 0,0.03804 -0.00761,0.04565c-0.06087,0.07609 -0.12174,0.15978 -0.19783,0.22826c-0.26631,0.24348 -0.54022,0.47175 -0.81414,0.70762c-0.19783,0.16739 -0.38804,0.3424 -0.57827,0.5174c-0.02282,0.02282 -0.03044,0.06848 -0.03044,0.10652c0,0.01521 0.03044,0.03804 0.04565,0.03804c0.05326,0 0.12174,-0.00761 0.16739,-0.03804c0.42609,-0.2587 0.83698,-0.54783 1.2022,-0.89024c0.07609,-0.06848 0.15218,-0.12935 0.22826,-0.19022c0.01521,-0.00761 0.03804,-0.00761 0.06087,0c0.01521,0 0.03044,0.02282 0.03044,0.03804c-0.00761,0.34239 -0.06087,0.67719 -0.19022,0.99676c-0.16739,0.42609 -0.50218,0.66197 -0.93589,0.76849c-0.175,0.04565 -0.35762,0.03043 -0.53261,-0.02283c-0.49457,-0.15217 -0.89785,-0.4337 -1.20981,-0.84458c-0.01521,-0.02282 0,-0.07609 0,-0.12174z" fill="#f4ab4b"/><g fill="#ffffff"><path d="M223.17621,161.67586c0.03044,-0.03805 0.05326,-0.0837 0.0837,-0.09892c0.31957,-0.15217 0.63914,-0.30435 0.95871,-0.44892c0.07609,-0.03805 0.15979,0.03044 0.15218,0.11413c-0.02282,0.23587 -0.10652,0.45654 -0.21305,0.66958c-0.11413,0.22066 -0.33479,0.28152 -0.54783,0.14457c-0.0837,-0.05326 -0.15978,-0.10652 -0.23587,-0.175c-0.07609,-0.06087 -0.13696,-0.13696 -0.19783,-0.20544z"/><path d="M216.92177,164.69655c0.175,-0.14457 0.36522,-0.25109 0.56306,-0.33479c0.01521,0 0.04565,-0.01521 0.05326,0c0.01521,0.03044 0.04565,0.06848 0.03804,0.09892c-0.04565,0.15217 -0.0837,0.30435 -0.15217,0.44131c-0.04565,0.09891 -0.02282,0.26631 -0.18261,0.2587c-0.12174,0 -0.16739,-0.14457 -0.22826,-0.24348c-0.03805,-0.06848 -0.06087,-0.13696 -0.09891,-0.21305z"/></g><path d="M222.7349,170.0151c0,0 -0.03805,0.09892 -0.0837,0.16739c-0.01521,0.02282 -0.06848,0.04565 -0.09892,0.03804c-0.05326,-0.00761 -0.11413,-0.03043 -0.15978,-0.06848c-0.34239,-0.2587 -0.59349,-0.58588 -0.72285,-0.99676c-0.19022,-0.59349 -0.2587,-1.2022 -0.19783,-1.82612c0.01521,-0.15978 0.06087,-0.31196 0.16739,-0.44131c0.01521,-0.02282 0.07609,-0.02283 0.10652,-0.01522c0.03044,0.01521 0.06087,0.04565 0.08369,0.0837c0.46414,0.89024 0.78372,1.82612 0.91305,2.82287c0.00761,0.06087 0,0.12174 0,0.22826z" fill="#f48d95"/><path d="M221.56314,166.47701c-0.45654,0.41088 -0.44131,0.9435 -0.45654,1.46849c-0.04565,-0.00761 -0.09891,0 -0.10652,-0.02282c-0.26631,-0.55544 -0.49457,-1.1337 -0.67719,-1.7272c-0.06848,-0.22826 -0.11413,-0.46414 -0.09892,-0.70762c0,-0.09131 0.10652,-0.18261 0.19783,-0.19022c0.12174,-0.01521 0.24349,0 0.33479,0.0837c0.07609,0.06087 0.15217,0.12935 0.22065,0.20544c0.22826,0.25109 0.41849,0.53262 0.57827,0.88263z" fill="#5b2e2e"/><g fill="#ffffff"><path d="M257.13434,169.96184c-0.01521,-0.6087 0.38804,-1.16416 1.04241,-1.3772c0.26631,-0.0837 0.54022,-0.12174 0.82175,-0.03043c1.1261,0.35001 1.50654,1.74242 0.70761,2.61743c-0.4337,0.46414 -1.06523,0.57067 -1.63589,0.29675c-0.50218,-0.24348 -0.97392,-0.91306 -0.93589,-1.49133zM257.65174,169.69554c0.00761,0.05326 0.01521,0.09891 0.02282,0.13696c0,0.01521 0.00761,0.03805 0.02282,0.05326c0.03805,0.04565 0.06848,0.10652 0.11413,0.11413c0.04565,0.00761 0.12174,-0.02283 0.15218,-0.06848c0.15978,-0.20544 0.21304,-0.45654 0.24348,-0.71522c0.00761,-0.0837 -0.06087,-0.19022 -0.15217,-0.23587c-0.06848,-0.03044 -0.22065,0.03044 -0.25109,0.10652c-0.09131,0.19783 -0.15218,0.40327 -0.15218,0.60109z"/><path d="M264.02032,170.50969c0,0.41088 -0.10652,0.79132 -0.28152,1.15654c-0.0837,0.15978 -0.19022,0.29675 -0.31957,0.4337c-0.29675,0.31957 -0.84458,0.30435 -1.14132,0.02282c-0.22066,-0.21305 -0.38043,-0.47174 -0.4337,-0.76848c-0.10652,-0.6087 -0.02283,-1.19458 0.33478,-1.71959c0.11413,-0.16739 0.25109,-0.31196 0.41088,-0.42609c0.11413,-0.0837 0.24349,-0.13696 0.38044,-0.175c0.12935,-0.03044 0.23587,-0.01521 0.34239,0.05326c0.47174,0.33478 0.73805,0.7761 0.70001,1.3772c0,0.02282 0,0.03805 0,0.06087zM262.20942,170.34991c0,0 0.02283,0.08369 0.03805,0.13696c0.02282,0.07609 0.13696,0.10652 0.19022,0.05326c0.22066,-0.20544 0.27392,-0.47935 0.30435,-0.76087c0.00761,-0.0837 -0.09891,-0.18261 -0.19022,-0.20544c-0.04565,-0.00761 -0.19022,0.06087 -0.20544,0.09891c-0.09131,0.20544 -0.16739,0.41088 -0.14457,0.66958z"/><path d="M222.80338,161.78998c0.04565,0.03044 0.0837,0.04566 0.10652,0.06848c0.27392,0.33478 0.62393,0.55544 1.01958,0.70761c0.05326,0.02282 0.11413,0.04565 0.15978,0.0837c0.02282,0.01521 0.01522,0.06848 0.03044,0.12174c-0.21305,0.09131 -0.4337,0.19022 -0.65436,0.28152c-0.71522,0.31196 -1.44568,0.57827 -2.13808,0.93589c-0.06087,0.03044 -0.175,0.00761 -0.21305,-0.05326c-0.11413,-0.15978 -0.24348,-0.31957 -0.34239,-0.49457c-0.26631,-0.49457 -0.30435,-0.48696 0.21305,-0.76088c0.5098,-0.27392 1.02718,-0.53261 1.54459,-0.79132c0.09131,-0.04565 0.18261,-0.07609 0.26631,-0.10652z"/><path d="M217.34786,165.64766c-0.2587,0.19783 -0.53261,0.31196 -0.79892,0.45654c-0.47174,0.2587 -0.95111,0.50218 -1.42285,0.76088c-0.07609,0.03805 -0.15978,0.01521 -0.19783,-0.06848c-0.09891,-0.21305 -0.19783,-0.4337 -0.28913,-0.65435c-0.05326,-0.12935 -0.01521,-0.23587 0.10652,-0.30435c0.45654,-0.25109 0.90544,-0.50218 1.36197,-0.74566c0.13696,-0.07609 0.28152,-0.14457 0.42609,-0.22066c0.06087,-0.03044 0.16739,0 0.21305,0.06087c0.05326,0.0837 0.09892,0.175 0.16739,0.25109c0.12935,0.15217 0.27392,0.28913 0.44131,0.46414z"/><path d="M240.64604,197.11771c0.01521,-0.07609 0.00761,-0.12174 0.03043,-0.14457c0.31196,-0.38804 0.44131,-0.84458 0.49457,-1.33155c0.02282,-0.19783 0.03044,-0.39566 0.04565,-0.60109c0.01521,-0.18261 0.12174,-0.25109 0.28153,-0.175c0.06848,0.03805 0.14457,0.07609 0.20544,0.12174c0.19783,0.13696 0.35762,0.31957 0.49457,0.5174c0.35762,0.5098 0.63153,1.06524 0.85218,1.65111c0.01521,0.04565 -0.04566,0.12174 -0.09131,0.12174c-0.34239,-0.01521 -0.67719,-0.01522 -1.01958,-0.03805c-0.41848,-0.03044 -0.83698,-0.07609 -1.28589,-0.12174z"/><path d="M245.75156,196.60791c0.03805,-0.04565 0.06087,-0.07609 0.0837,-0.09131c0.01521,-0.00761 0.03804,0 0.06087,0c0.23587,0.01521 0.37283,-0.11413 0.45654,-0.31196c0.03805,-0.09131 0.07609,-0.18261 0.09892,-0.28153c0.09131,-0.44892 0.12174,-0.90545 0.06848,-1.36959c-0.04565,-0.39565 -0.14457,-0.78371 -0.24348,-1.16415c0,-0.01521 0.01522,-0.03805 0.03044,-0.05326c0.01521,-0.00761 0.03805,-0.01522 0.05326,-0.00761c0.05326,0.01521 0.11413,0.03044 0.16739,0.06087c0.22826,0.12174 0.4337,0.28153 0.63153,0.45654c0.40327,0.36522 0.73805,0.78371 1.01958,1.24784c0.11413,0.18261 0.0913,0.3424 -0.03044,0.49457c-0.06087,0.07609 -0.12174,0.15978 -0.18261,0.23587c-0.07609,0.09131 -0.15978,0.175 -0.24349,0.2587c-0.49457,0.49457 -0.99676,0.98153 -1.49133,1.47612c-0.06087,0.06087 -0.15978,0.03805 -0.19022,-0.05326c-0.09891,-0.30435 -0.19022,-0.6087 -0.27392,-0.89784z"/></g><g fill="#8fd7f1"><path d="M224.66753,160.94541c0.24348,-0.10652 0.4337,-0.22826 0.65436,-0.24348c0.01521,0 0.03805,0.01521 0.06087,0.02282c0.06848,0.27392 0.06087,0.54783 0.03804,0.82937c-0.03044,0.38804 -0.27392,0.66958 -0.64675,0.76088c-0.15217,0.03805 -0.31196,0.05326 -0.47174,0.01521c-0.04565,-0.00761 -0.0837,-0.04565 -0.06087,-0.0837c0.26631,-0.38804 0.35001,-0.83698 0.42609,-1.30871z"/><path d="M217.79679,164.55959c0.175,0.22066 0.20544,0.44131 0.22826,0.65435c0,0.01521 -0.00761,0.03805 -0.02283,0.05326c-0.06848,0.11413 -0.28152,0.19023 -0.42609,0.15218c-0.03044,-0.00761 -0.04565,-0.06087 -0.06087,-0.09131c-0.00761,-0.01521 0,-0.03805 0,-0.06087c0.0837,-0.22066 0.175,-0.44131 0.28152,-0.71522z"/><path d="M240.91235,195.28397c0.01521,0.40327 -0.0837,0.79132 -0.23587,1.15655c-0.06848,0.16739 -0.16739,0.31196 -0.32717,0.41848c-0.09891,0.06848 -0.24349,0.05326 -0.31957,-0.04565c-0.16739,-0.19783 -0.24349,-0.41848 -0.15218,-0.66196c0.14457,-0.39565 0.33478,-0.76848 0.66196,-1.05002c0.07609,-0.06848 0.15978,-0.11413 0.24349,-0.175c0.04565,-0.03044 0.13696,0 0.13696,0.05326c0,0.09891 0,0.19783 0,0.29675z"/><path d="M246.2233,194.83505c0,0.47935 0,0.82175 -0.12174,1.14131c-0.02282,0.05326 -0.04565,0.10652 -0.07609,0.15978c-0.03044,0.05326 -0.15217,0.0837 -0.21305,0.04565c-0.06087,-0.04565 -0.12174,-0.09891 -0.16739,-0.15978c-0.03044,-0.04565 -0.05326,-0.10652 -0.06087,-0.16739c-0.11413,-0.46414 -0.19783,-0.93589 -0.19022,-1.41523c0,-0.34239 0.06848,-0.66958 0.25109,-0.96632c0.03044,-0.04565 0.07609,-0.09131 0.12935,-0.12174c0.02282,-0.01521 0.0837,0 0.09891,0.01522c0.11413,0.14457 0.16739,0.31196 0.20544,0.48696c0.0837,0.36522 0.15217,0.73806 0.13696,0.97392z"/></g><g fill="#f4ab4b"><path d="M236.17967,172.77711c0.10652,0.54022 -0.06848,0.98153 -0.46414,1.35436c-0.28152,0.27392 -0.63153,0.4337 -0.99676,0.53261c-0.30435,0.0837 -0.61632,0.15218 -0.9435,0.15218c-0.84458,0.01521 -1.68154,0.01522 -2.51852,-0.07609c-0.5174,-0.05326 -1.03479,-0.09892 -1.5522,-0.15979c-0.24348,-0.03044 -0.47935,-0.06848 -0.71522,-0.09891c-0.73806,-0.09131 -1.4685,-0.175 -2.20656,-0.26631c-0.22066,-0.02282 -0.4337,-0.04565 -0.65435,-0.07609c-0.31957,-0.03805 -0.63153,-0.06848 -0.95871,-0.03044c-0.34239,0.25109 -0.57067,0.53261 -0.76849,0.83698c-0.34239,0.5174 -0.67719,1.0348 -1.01197,1.55981c-0.90544,1.42285 -1.85655,2.80004 -2.84569,4.16202c-0.53261,0.72285 -1.08045,1.43807 -1.69677,2.10003c-0.24348,0.2587 -0.50218,0.5174 -0.76848,0.75326c-0.2587,0.22826 -0.55544,0.40327 -0.89024,0.48696c-0.21305,0.06087 -0.38804,0.00761 -0.55544,-0.12935c-0.14457,-0.11413 -0.25109,-0.2587 -0.3424,-0.41088c-0.14457,-0.23587 -0.2587,-0.49457 -0.36522,-0.75326c-0.23587,-0.57827 -0.39565,-1.17176 -0.55544,-1.77286c-0.47174,-1.78046 -0.8674,-3.56854 -1.20981,-5.37944c-0.12174,-0.66958 -0.23587,-1.33915 -0.28913,-2.01634c-0.03044,-0.41848 -0.07609,-0.83698 -0.12174,-1.25545c-0.02282,-0.18261 -0.06087,-0.35762 -0.09891,-0.53261c0,0 2.14569,7.57077 4.51203,7.35772c2.36634,-0.22066 6.66532,-7.03054 6.66532,-7.03054c0,0 6.38378,1.34675 7.27402,0.44131c0.28152,-0.28913 0.25109,-1.41523 0.07609,-2.81526c-0.175,0.13696 -0.38804,0.22826 -0.63153,0.22826c-0.54783,0 -0.99676,-0.44892 -0.99676,-0.99676c0,-0.54783 0.44131,-0.99676 0.99676,-0.99676c0.13696,0 0.2663,0.03044 0.38043,0.07609c-0.06848,-0.41088 -0.14457,-0.82174 -0.22065,-1.23262c-0.06848,0.15217 -0.21305,0.25109 -0.38805,0.25109c-0.23587,0 -0.4337,-0.19783 -0.4337,-0.4337c0,-0.23587 0.19022,-0.4337 0.4337,-0.4337c0.10652,0 0.21305,0.04565 0.28913,0.11413c-0.26631,-1.39241 -0.55544,-2.66308 -0.71522,-3.36309c0.06087,0.0837 0.12935,0.19022 0.21305,0.31957c0.95871,1.46849 1.90221,2.95222 2.79243,4.47398c0.61632,1.05763 1.17936,2.13808 1.66633,3.25657c0.16739,0.38044 0.31196,0.77611 0.44892,1.17176c0.07609,0.20544 0.11413,0.4261 0.15978,0.63914z"/><path d="M232.76331,155.01814c-0.22066,-0.5098 -3.25657,-0.84458 -3.25657,-0.84458c0.57067,-0.09131 3.14244,-0.95871 4.41311,-0.5098c0.19783,0.06848 0.38805,0.09892 0.56306,0.19783c0.18261,0.10652 0.28913,0.28152 0.28913,0.49457c0,0.14457 -0.01522,0.28152 -0.03805,0.41848c-0.06848,0.41848 -0.21305,0.81414 -0.36522,1.2022c-0.23587,0.60109 -0.5174,1.17176 -0.82175,1.7348c-0.45654,0.84458 -0.95871,1.66633 -1.47612,2.47286c-0.22066,0.33478 -0.44131,0.66959 -0.65436,1.00437c-0.12935,0.20544 -0.26631,0.40327 -0.37283,0.61632c-0.12935,0.27392 -0.22826,0.4337 -0.28152,0.54783c0.00761,-0.01521 2.23699,-6.8175 2.00873,-7.32728z"/><path d="M210.78145,169.04118l3.83485,0.13696l-0.95871,2.57939c-6.46749,-0.41088 -8.58275,-2.91418 -8.58275,-2.91418l2.42721,0.0837c-0.04565,-0.06848 -0.06848,-0.15217 -0.06848,-0.23587c0,-0.26631 0.21305,-0.47936 0.47935,-0.47936c0.26631,0 0.47935,0.21305 0.47935,0.47936c0,0.09891 -0.03043,0.19022 -0.0837,0.26631l1.17936,0.03804c-0.01521,-0.03805 -0.01522,-0.08369 -0.01522,-0.12174c0,-0.36522 0.29675,-0.66197 0.66196,-0.66197c0.36522,0 0.66197,0.29675 0.66197,0.66197c0,0.06087 -0.00761,0.11413 -0.02283,0.16739z"/><path d="M230.0774,167.23789c-0.28913,0 -0.5174,-0.22826 -0.5174,-0.5174c0,-0.28913 0.22826,-0.5174 0.5174,-0.5174c0.28913,0 0.5174,0.23587 0.5174,0.5174c0,0.28913 -0.22826,0.5174 -0.5174,0.5174z"/><path d="M228.88282,168.41726c0,-0.175 0.13696,-0.31196 0.31196,-0.31196c0.175,0 0.31196,0.13696 0.31196,0.31196c0,0.175 -0.13696,0.31196 -0.31196,0.31196c-0.175,0 -0.31196,-0.13696 -0.31196,-0.31196z"/><path d="M229.56761,170.5173c0,-0.12187 0.09878,-0.22065 0.22066,-0.22065c0.12187,0 0.22066,0.09878 0.22066,0.22065c0,0.12187 -0.09878,0.22066 -0.22066,0.22066c-0.12187,0 -0.22066,-0.09878 -0.22066,-0.22066z"/><path d="M227.42954,169.7488c0.09131,0 0.16739,0.07609 0.16739,0.16739c0,0.09131 -0.07609,0.16739 -0.16739,0.16739c-0.09131,0 -0.16739,-0.07608 -0.16739,-0.16739c0,-0.09131 0.07608,-0.16739 0.16739,-0.16739z"/><path d="M218.94571,173.75864c0,-0.15217 0.12935,-0.28152 0.28153,-0.28152c0.15217,0 0.28152,0.12935 0.28152,0.28152c0,0.15217 -0.12935,0.28153 -0.28152,0.28153c-0.15217,0 -0.28153,-0.12935 -0.28153,-0.28153z"/><path d="M220.89357,174.04018c0,-0.15217 0.12935,-0.28153 0.28153,-0.28153c0.15217,0 0.28152,0.12935 0.28152,0.28153c0,0.15217 -0.12174,0.28152 -0.28152,0.28152c-0.15217,0 -0.28153,-0.12935 -0.28153,-0.28152z"/><path d="M219.81311,175.32607c0,-0.16739 0.12935,-0.29675 0.29675,-0.29675c0.16739,0 0.29675,0.12935 0.29675,0.29675c0,0.16739 -0.13696,0.29675 -0.29675,0.29675c-0.16739,0 -0.29675,-0.12935 -0.29675,-0.29675z"/><path d="M219.22725,176.29238c0,-0.19751 0.1601,-0.35762 0.35761,-0.35762c0.19751,0 0.35762,0.1601 0.35762,0.35762c0,0.1975 -0.1601,0.35761 -0.35762,0.35761c-0.1975,0 -0.35761,-0.1601 -0.35761,-0.35761z"/><path d="M216.92177,173.8956c0,-0.0837 0.06087,-0.14457 0.14457,-0.14457c0.0837,0 0.14457,0.06087 0.14457,0.14457c0,0.0837 -0.06848,0.14457 -0.14457,0.14457c-0.0837,0 -0.14457,-0.06087 -0.14457,-0.14457z"/><path d="M217.06633,172.43472c0,-0.19022 0.15978,-0.35001 0.35001,-0.35001c0.19022,0 0.35001,0.15978 0.35001,0.35001c0,0.19022 -0.15978,0.35001 -0.35001,0.35001c-0.19022,0 -0.35001,-0.15978 -0.35001,-0.35001z"/><path d="M229.97849,158.61712c0,0.12935 -0.10652,0.23587 -0.23587,0.23587c-0.12935,0 -0.23587,-0.10652 -0.23587,-0.23587c0,-0.12935 0.10652,-0.23587 0.23587,-0.23587c0.12935,0 0.23587,0.10652 0.23587,0.23587z"/><path d="M231.26439,157.47579c-0.21305,0 -0.38044,-0.16739 -0.38044,-0.38043c0,-0.21305 0.16739,-0.38044 0.38044,-0.38044c0.21305,0 0.38044,0.16739 0.38044,0.38044c0,0.21305 -0.16739,0.38043 -0.38044,0.38043z"/><path d="M228.88282,156.95078c0,-0.23952 0.19418,-0.4337 0.4337,-0.4337c0.23952,0 0.4337,0.19418 0.4337,0.4337c0,0.23952 -0.19418,0.4337 -0.4337,0.4337c-0.23952,0 -0.4337,-0.19418 -0.4337,-0.4337z"/><path d="M230.54915,158.49537c0,-0.06304 0.05109,-0.11413 0.11413,-0.11413c0.06304,0 0.11413,0.05109 0.11413,0.11413c0,0.06304 -0.05109,0.11413 -0.11413,0.11413c-0.06304,0 -0.11413,-0.05109 -0.11413,-0.11413z"/><path d="M229.93284,159.62147c0.07609,0 0.14457,0.06848 0.14457,0.14457c0,0.07609 -0.06848,0.14457 -0.14457,0.14457c-0.07609,0 -0.14457,-0.06087 -0.14457,-0.14457c0,-0.07609 0.06848,-0.14457 0.14457,-0.14457z"/><path d="M230.35132,160.78563c0,-0.05463 0.04429,-0.09891 0.09891,-0.09891c0.05463,0 0.09892,0.04429 0.09892,0.09891c0,0.05463 -0.04429,0.09891 -0.09892,0.09891c-0.05463,0 -0.09891,-0.04429 -0.09891,-0.09891z"/><path d="M226.22735,157.56709c0,-0.18261 0.14457,-0.32718 0.32718,-0.32718c0.18261,0 0.32718,0.14457 0.32718,0.32718c0,0.18261 -0.14457,0.32718 -0.32718,0.32718c-0.18261,0 -0.32718,-0.14457 -0.32718,-0.32718z"/><path d="M226.74474,156.01489c0,-0.41848 0.34239,-0.76088 0.76087,-0.76088c0.41848,0 0.76088,0.3424 0.76088,0.76088c0,0.41848 -0.3424,0.76088 -0.76088,0.76088c-0.41848,0 -0.76087,-0.3424 -0.76087,-0.76088z"/><path d="M213.10976,167.95313c0,-0.14457 0.11413,-0.2587 0.2587,-0.2587c0.14457,0 0.2587,0.11413 0.2587,0.2587c0,0.14457 -0.11413,0.2587 -0.2587,0.2587c-0.14457,0 -0.2587,-0.11413 -0.2587,-0.2587z"/><path d="M212.46301,167.58791c0,-0.06087 0.04565,-0.10652 0.10652,-0.10652c0.06087,0 0.10652,0.04565 0.10652,0.10652c0,0.06087 -0.04565,0.10652 -0.10652,0.10652c-0.06087,0 -0.10652,-0.04565 -0.10652,-0.10652z"/><path d="M211.44342,168.64553c0,-0.12174 0.10653,-0.22826 0.22826,-0.22826c0.12174,0 0.22826,0.10652 0.22826,0.22826c0,0.12174 -0.09891,0.22826 -0.22826,0.22826c-0.12174,0 -0.22826,-0.10653 -0.22826,-0.22826z"/><path d="M210.1347,167.46617c0,-0.23532 0.19077,-0.42609 0.42609,-0.42609c0.23532,0 0.4261,0.19077 0.4261,0.42609c0,0.23532 -0.19077,0.42609 -0.4261,0.42609c-0.23532,0 -0.42609,-0.19077 -0.42609,-0.42609z"/><path d="M208.38469,167.67921c0,-0.11413 0.09891,-0.21305 0.21305,-0.21305c0.11413,0 0.21305,0.09891 0.21305,0.21305c0,0.11413 -0.09891,0.21305 -0.21305,0.21305c-0.11413,0 -0.21305,-0.09891 -0.21305,-0.21305z"/></g><path d="M218.69463,166.62158l-0.53261,4.20768l-0.58588,-2.45004c0,0 1.14894,-0.85218 1.1185,-1.75764z" fill="#f4ab4b"/><path d="M224.23383,165.11504l1.61307,1.90982c0,0 -4.29137,-1.97829 -4.07832,-1.90982c0.61632,0.19783 2.46525,0 2.46525,0z" fill="#f4ab4b"/><g fill="#fdf8c7"><path d="M216.36633,149.3648c0,0 -1.03479,0.89024 -1.28589,1.84132c-1.02719,3.78919 -0.59349,10.15776 -0.82937,10.58386c-0.23587,0.42609 -7.73816,3.3631 -7.73816,3.3631c0,0 5.79792,-3.8044 5.84356,-4.28376c0.03805,-0.47174 -0.39565,-8.17187 -0.39565,-8.17187c0,0 -0.31196,-4.23811 1.33915,-4.4055c1.65872,-0.16739 2.81526,0.56306 3.06635,1.06524z"/><path d="M215.29349,157.98557c0,0 0.32718,-8.47622 1.62828,-8.17187c1.3011,0.30435 2.89135,2.88374 2.89135,2.88374c0,0 -4.93051,8.08055 -4.51964,5.28812z"/><path d="M221.06857,169.89337c0,0 0.88263,1.43807 1.92503,1.03479c1.03479,-0.40328 1.3772,-1.39241 1.3772,-1.39241c0,0 -0.41849,2.80004 -1.59025,2.35112c-1.17176,-0.44892 -1.68154,-1.40763 -1.70438,-1.9859z"/></g><g fill="#f4ab4b"><path d="M247.39506,202.58844c-0.0837,-0.28152 -0.175,-0.54783 -0.26631,-0.82175c0.60109,0.27392 2.937,1.3011 3.17287,0.87501c0.26631,-0.48696 -1.30871,-5.3642 -1.30871,-5.3642l4.70224,-4.64138c-0.11413,0.2587 -0.24349,0.5174 -0.39565,0.76088c-0.41848,0.68479 -0.87501,1.33915 -1.3772,1.96307c-0.45654,0.56306 -0.90544,1.13371 -1.34675,1.69677c-0.12174,0.15978 -0.24349,0.32717 -0.3424,0.49457c-0.12935,0.22066 -0.14457,0.45654 -0.03043,0.6924c0.05326,0.10652 0.11413,0.21305 0.16739,0.31957c0.70001,1.39241 1.27068,2.83808 1.65872,4.35985c0.12174,0.46414 0.21305,0.93589 0.2587,1.41523c0.03044,0.38044 0.04565,0.76088 -0.09131,1.1261c-0.05326,0.12935 -0.21305,0.22826 -0.33478,0.18261c-0.18261,-0.06848 -0.37283,-0.14457 -0.54783,-0.23587c-1.00437,-0.54022 -1.97068,-1.14894 -2.8533,-1.87177c-0.31957,-0.26631 -0.65436,-0.52501 -1.00437,-0.81414c-0.03044,-0.06087 -0.04566,-0.09891 -0.06087,-0.13696z"/><path d="M234.55899,197.89379c-0.26631,-0.175 -0.5174,-0.37283 -0.74566,-0.60109c-0.09891,-0.09891 -0.19783,-0.19783 -0.28153,-0.31196l6.50554,2.12286c0,0 -0.0913,5.21204 0.6087,5.30334c0.70001,0.09131 3.64461,-2.28265 3.64461,-2.28265c0.11413,0.25109 0.22826,0.5098 0.35001,0.76849c-0.03044,0.04565 -0.06848,0.11413 -0.11413,0.175c-0.20544,0.25109 -0.40327,0.49457 -0.61632,0.73806c-0.78372,0.89024 -1.62067,1.71959 -2.57939,2.4196c-0.28913,0.21305 -0.60109,0.39566 -0.91305,0.57827c-0.19022,0.10652 -0.39565,0.19022 -0.60109,0.2587c-0.12935,0.04565 -0.27392,0.05326 -0.41088,0.04565c-0.19022,-0.01521 -0.35001,-0.10652 -0.4337,-0.28152c-0.07609,-0.15978 -0.14457,-0.32718 -0.19022,-0.50218c-0.12174,-0.50218 -0.19783,-1.01958 -0.24349,-1.53699c-0.10652,-1.24023 -0.13696,-2.48047 -0.06848,-3.72071c0,-0.13696 0,-0.28152 0,-0.41848c0,-0.28152 -0.09891,-0.50218 -0.34239,-0.65436c-0.23587,-0.14457 -0.46414,-0.31196 -0.70762,-0.44892c-0.57067,-0.32718 -1.15654,-0.63914 -1.7272,-0.96632c-0.38044,-0.22066 -0.75327,-0.44892 -1.1261,-0.68479z"/><path d="M239.9156,197.27749c0,0 3.16526,0.16739 3.1881,0.22826c0.02282,0.06087 -0.22826,0.4337 -0.22826,0.4337l-2.29786,0.63914c0,0 0.58588,-0.57827 0.525,-0.60109c-0.06087,-0.02282 -1.71198,-0.63913 -1.18697,-0.7z"/><path d="M246.18526,197.87097l1.00437,-0.98915l1.30871,-1.1261l-0.42609,2.00111l0.50218,0.50218c0,0 -2.14568,-0.10652 -2.34351,-0.15978c-0.19783,-0.05326 -0.05326,-0.23587 -0.05326,-0.23587z"/><path d="M240.18952,188.47409c0,0 0.84458,-1.24784 2.19894,-1.35436c1.35436,-0.09891 2.16851,1.8109 2.22177,1.89458c0.05326,0.0837 1.77286,2.51091 1.77286,2.51091l3.24136,-0.45654c0,0 -2.87613,1.33915 -3.40115,1.33915c-0.525,0 -3.17287,-2.95982 -4.26094,-3.82724c-1.08805,-0.8674 -1.76525,-0.10652 -1.76525,-0.10652z"/></g><g fill="#f4ab4b"><path d="M247.39506,202.58844c-0.0837,-0.28152 -0.175,-0.54783 -0.26631,-0.82175c0.60109,0.27392 2.937,1.3011 3.17287,0.87501c0.26631,-0.48696 -1.30871,-5.3642 -1.30871,-5.3642l4.70224,-4.64138c-0.11413,0.2587 -0.24349,0.5174 -0.39565,0.76088c-0.41848,0.68479 -0.87501,1.33915 -1.3772,1.96307c-0.45654,0.56306 -0.90544,1.13371 -1.34675,1.69677c-0.12174,0.15978 -0.24349,0.32717 -0.3424,0.49457c-0.12935,0.22066 -0.14457,0.45654 -0.03043,0.6924c0.05326,0.10652 0.11413,0.21305 0.16739,0.31957c0.70001,1.39241 1.27068,2.83808 1.65872,4.35985c0.12174,0.46414 0.21305,0.93589 0.2587,1.41523c0.03044,0.38044 0.04565,0.76088 -0.09131,1.1261c-0.05326,0.12935 -0.21305,0.22826 -0.33478,0.18261c-0.18261,-0.06848 -0.37283,-0.14457 -0.54783,-0.23587c-1.00437,-0.54022 -1.97068,-1.14894 -2.8533,-1.87177c-0.31957,-0.26631 -0.65436,-0.52501 -1.00437,-0.81414c-0.03044,-0.06087 -0.04566,-0.09891 -0.06087,-0.13696z"/><path d="M234.55899,197.89379c-0.26631,-0.175 -0.5174,-0.37283 -0.74566,-0.60109c-0.09891,-0.09891 -0.19783,-0.19783 -0.28153,-0.31196l6.50554,2.12286c0,0 -0.0913,5.21204 0.6087,5.30334c0.70001,0.09131 3.64461,-2.28265 3.64461,-2.28265c0.11413,0.25109 0.22826,0.5098 0.35001,0.76849c-0.03044,0.04565 -0.06848,0.11413 -0.11413,0.175c-0.20544,0.25109 -0.40327,0.49457 -0.61632,0.73806c-0.78372,0.89024 -1.62067,1.71959 -2.57939,2.4196c-0.28913,0.21305 -0.60109,0.39566 -0.91305,0.57827c-0.19022,0.10652 -0.39565,0.19022 -0.60109,0.2587c-0.12935,0.04565 -0.27392,0.05326 -0.41088,0.04565c-0.19022,-0.01521 -0.35001,-0.10652 -0.4337,-0.28152c-0.07609,-0.15978 -0.14457,-0.32718 -0.19022,-0.50218c-0.12174,-0.50218 -0.19783,-1.01958 -0.24349,-1.53699c-0.10652,-1.24023 -0.13696,-2.48047 -0.06848,-3.72071c0,-0.13696 0,-0.28152 0,-0.41848c0,-0.28152 -0.09891,-0.50218 -0.34239,-0.65436c-0.23587,-0.14457 -0.46414,-0.31196 -0.70762,-0.44892c-0.57067,-0.32718 -1.15654,-0.63914 -1.7272,-0.96632c-0.38044,-0.22066 -0.75327,-0.44892 -1.1261,-0.68479z"/></g><g fill="#f4ab4b"><path d="M253.17776,167.26073c0,0 -0.39565,0.36522 0.14457,1.08045c0.54022,0.71522 3.14244,2.86852 3.14244,2.86852c0,0 -0.76088,2.23699 -0.31957,2.57939c0.44131,0.34239 3.40875,-0.175 3.40875,-0.175c0,0 2.48047,4.14681 3.02071,3.50767c0.54022,-0.63914 0.80653,-3.94898 0.80653,-3.94898l4.6642,-2.60982l-3.28701,2.8533l-0.28153,0.175c0,0 -0.03804,5.54683 -1.57501,5.28051c-1.53699,-0.26631 -3.76635,-4.16963 -3.76635,-4.16963c0,0 -5.50117,2.62503 -6.10226,1.3772c-0.60109,-1.25545 2.0696,-4.9229 2.0696,-4.9229h-0.38804c0,0 -3.70548,-3.22613 -1.54459,-3.8881z"/><path d="M263.35073,164.78025c0,0 0.11413,2.72395 0.13696,2.78482c0.02282,0.06087 -2.19895,0.93589 -2.19895,0.93589c0,0 0.22826,-5.31095 0.60109,-5.37944c1.00437,-0.18261 1.46088,1.65872 1.46088,1.65872z"/></g></g><g fill="#561a31"><path d="M268.57799,170.2586c-0.175,0.45654 -0.48696,0.82175 -0.81414,1.17176c-0.74566,0.79132 -1.59785,1.45328 -2.57177,1.94025c-0.10652,0.05326 -0.21305,0.10652 -0.31957,0.16739c-0.06848,0.04565 -0.11413,0.11413 -0.12174,0.19783c0,0.07609 0,0.15978 0,0.23587c0.03044,0.60109 0,1.2022 -0.04565,1.79568c-0.06087,0.70001 -0.19783,1.38481 -0.47175,2.03916c-0.12935,0.31957 -0.29675,0.61632 -0.54783,0.85218c-0.12935,0.12174 -0.27392,0.24348 -0.42609,0.31957c-0.36522,0.19783 -0.73806,0.13696 -1.09568,-0.03804c-0.175,-0.0837 -0.3424,-0.20544 -0.49457,-0.32718c-0.29675,-0.24349 -0.54022,-0.53261 -0.76848,-0.83698c-0.39565,-0.5098 -0.75327,-1.03479 -1.08805,-1.58264c-0.19022,-0.30435 -0.36522,-0.61632 -0.55544,-0.92827c-0.03044,-0.05326 -0.06848,-0.09892 -0.09891,-0.14457c-0.03805,-0.05326 -0.15218,-0.0837 -0.22066,-0.05326c-0.19783,0.09131 -0.40327,0.18261 -0.59349,0.28153c-0.87501,0.44892 -1.78046,0.80653 -2.72395,1.06523c-0.48696,0.12935 -0.97392,0.21305 -1.47612,0.26631c-0.30435,0.03044 -0.60109,-0.01522 -0.89023,-0.0837c-0.42609,-0.10652 -0.67719,-0.44131 -0.6924,-0.8674c-0.00761,-0.22066 0.01522,-0.4337 0.06848,-0.65436c0.09131,-0.35001 0.21305,-0.68479 0.37283,-1.01197c0.25109,-0.525 0.55544,-1.01958 0.89024,-1.49133c0.19783,-0.27392 0.38804,-0.55543 0.58588,-0.83697c0.03044,-0.04565 0.06087,-0.10653 0.0913,-0.15218c0.03805,-0.06848 0.03805,-0.16739 -0.01521,-0.22065c-0.09131,-0.09891 -0.19022,-0.20544 -0.28913,-0.30435c-0.25109,-0.2587 -0.50218,-0.5098 -0.75327,-0.77611c-0.32718,-0.35001 -0.63153,-0.72285 -0.87501,-1.14131c-0.15217,-0.2587 -0.28153,-0.53262 -0.36522,-0.82175c-0.05326,-0.175 -0.07609,-0.35001 -0.06848,-0.53261c0.00761,-0.42609 0.22826,-0.71522 0.6087,-0.88263c0.22066,-0.09131 0.45654,-0.14457 0.70001,-0.15978c0.66196,-0.03805 1.31633,-0.01521 1.97829,0.06848c0.77611,0.09131 1.54459,0.22066 2.30547,0.39565c0.06848,0.01521 0.15217,0 0.21305,0c0.20544,-0.44131 0.38804,-0.85979 0.58588,-1.27068c0.31957,-0.64675 0.70762,-1.24784 1.16416,-1.8109c0.26631,-0.32718 0.54783,-0.63914 0.87501,-0.90545c0.26631,-0.21305 0.55544,-0.38044 0.89784,-0.45654c0.49457,-0.10652 0.90545,0.03043 1.24784,0.38804c0.19783,0.20544 0.32717,0.44892 0.44131,0.70762c0.19783,0.45654 0.31957,0.9435 0.41088,1.43807c0.09891,0.55544 0.12174,1.11089 0.15217,1.67393c0,0.11413 -0.01521,0.23587 0.05326,0.35001c0.12935,0.07609 0.27392,0.04565 0.41088,0.05326c0.72285,0.03044 1.43807,0.10652 2.14569,0.22826c0.4337,0.07609 0.85218,0.20544 1.24784,0.41088c0.39565,0.20544 0.80653,0.44892 0.92827,0.89784c0.21305,0.76848 0,1.33155 0,1.34675zM264.22576,173.32494c0.12935,-0.15217 0.30435,-0.25109 0.47935,-0.35001c0.24349,-0.13696 0.48696,-0.28152 0.73045,-0.41848c0.82175,-0.47935 1.50654,-1.1185 2.13047,-1.82612c0.26631,-0.30435 0.47175,-0.64675 0.57066,-1.04241c0.03044,-0.12174 0.02282,-0.23587 -0.02283,-0.35001c-0.12174,-0.33478 -0.35001,-0.57827 -0.65435,-0.75327c-0.31196,-0.175 -0.64675,-0.31196 -1.00437,-0.38804c-0.54783,-0.11413 -1.09568,-0.21305 -1.65872,-0.24348c-0.41848,-0.02282 -0.83698,-0.06848 -1.25545,-0.10652c-0.16739,-0.01521 -0.29675,-0.13696 -0.31957,-0.30435c-0.02282,-0.175 -0.03043,-0.35761 -0.03804,-0.54022c-0.02282,-0.54022 -0.05327,-1.08045 -0.15218,-1.61307c-0.0837,-0.45654 -0.20544,-0.89785 -0.38804,-1.31633c-0.09131,-0.19783 -0.19022,-0.40328 -0.35762,-0.54783c-0.19022,-0.16739 -0.40328,-0.25109 -0.66196,-0.18261c-0.19783,0.05326 -0.38044,0.12174 -0.54022,0.25109c-0.19022,0.14457 -0.38043,0.28914 -0.54783,0.46414c-0.2587,0.28152 -0.50218,0.57066 -0.72285,0.87501c-0.50218,0.67719 -0.87501,1.43046 -1.21742,2.19895c-0.07609,0.15978 -0.14457,0.32718 -0.22826,0.48696c-0.05326,0.11413 -0.16739,0.16739 -0.30435,0.13696c-0.66958,-0.12935 -1.33155,-0.26631 -2.00873,-0.33478c-0.57827,-0.05326 -1.15655,-0.11413 -1.7272,-0.16739c-0.15978,-0.01521 -0.31957,-0.01521 -0.47935,0c-0.2587,0.03044 -0.5174,0.07609 -0.76848,0.12935c-0.18261,0.04565 -0.29675,0.21305 -0.28913,0.40328c0,0.18261 0.03044,0.35762 0.10652,0.52501c0.09131,0.175 0.16739,0.35762 0.26631,0.53261c0.19783,0.35001 0.44892,0.66196 0.72285,0.95871c0.31196,0.33478 0.63914,0.66196 0.95111,0.99676c0.09891,0.09891 0.19023,0.20544 0.26631,0.31957c0.11413,0.15978 0.13696,0.33479 0.05326,0.5098c-0.07609,0.15978 -0.1674,0.31957 -0.26631,0.47174c-0.21305,0.31957 -0.4337,0.62393 -0.64674,0.93589c-0.28913,0.41088 -0.54023,0.84458 -0.74566,1.29349c-0.09891,0.22066 -0.19783,0.44131 -0.2587,0.66958c-0.06087,0.21305 -0.0837,0.42609 -0.10652,0.64675c-0.01521,0.16739 0.09131,0.30435 0.25109,0.36522c0.16739,0.06848 0.35001,0.0837 0.525,0.09131c0.44131,0.01521 0.87501,-0.0837 1.3011,-0.18261c1.07284,-0.2587 2.09242,-0.66958 3.06634,-1.18697c0.175,-0.09131 0.35001,-0.19783 0.53261,-0.26631c0.28913,-0.09891 0.57066,-0.06087 0.79892,0.23587c0.09891,0.12935 0.175,0.26631 0.2587,0.40327c0.40327,0.6924 0.82175,1.3772 1.3011,2.01634c0.21305,0.28913 0.44892,0.56306 0.68479,0.82937c0.12174,0.12935 0.2587,0.2587 0.41088,0.35001c0.42609,0.26631 0.67719,0.27391 1.05763,-0.12935c0.18261,-0.19022 0.29675,-0.42609 0.39565,-0.66958c0.19783,-0.48696 0.30435,-0.98915 0.38044,-1.50654c0.09891,-0.6924 0.12935,-1.39241 0.09891,-2.09242c-0.00761,-0.19783 -0.03044,-0.40328 0.03044,-0.60109z"/><path d="M212.29562,160.78563c-0.07609,-0.56306 -0.15979,-1.1337 -0.22826,-1.70438c-0.07609,-0.61632 -0.14457,-1.23263 -0.19022,-1.84894c-0.07609,-0.97392 -0.12174,-1.95547 -0.19022,-2.937c-0.07609,-1.04241 -0.03043,-2.08481 0.06848,-3.11961c0.05326,-0.55544 0.14457,-1.11089 0.32718,-1.64351c0.13696,-0.39565 0.31196,-0.78372 0.55544,-1.1261c0.28152,-0.38804 0.66196,-0.63914 1.1337,-0.71522c0.29675,-0.04565 0.60109,-0.03804 0.89024,0.03805c0.32718,0.09131 0.65436,0.19783 0.9435,0.37283c0.32718,0.19783 0.64675,0.39565 0.95871,0.61632c0.68479,0.49457 1.30871,1.05763 1.90982,1.6435c0.9435,0.92827 1.83372,1.90221 2.70874,2.89135c0.67719,0.76088 1.34675,1.53698 2.02394,2.29786c0.18261,0.21305 0.22066,0.22066 0.45654,0.12935c0.56306,-0.21305 1.1185,-0.42609 1.68154,-0.62393c1.18697,-0.41848 2.37395,-0.84458 3.58375,-1.2022c0.95871,-0.28152 1.92504,-0.54783 2.90656,-0.72285c0.33478,-0.06087 0.66958,-0.11413 1.01197,-0.15218c0.47935,-0.05326 0.95871,-0.00761 1.43046,0.10652c0.27392,0.06848 0.53262,0.18261 0.74566,0.37283c0.22826,0.21305 0.36522,0.47174 0.38043,0.78371c0.01521,0.2587 0,0.5174 -0.06087,0.77611c-0.11413,0.48696 -0.28153,0.95871 -0.47175,1.42285c-0.31957,0.76088 -0.7,1.48372 -1.11089,2.19134c-0.58588,1.02719 -1.22502,2.01634 -1.87938,2.99787c-0.14457,0.21305 -0.30435,0.41849 -0.46414,0.62393c-0.15978,0.20544 -0.16739,0.22826 -0.04565,0.41848c0.18261,0.28913 0.35761,0.57827 0.55544,0.85219c0.89024,1.26307 1.68917,2.57938 2.48047,3.89571c0.71522,1.17936 1.33915,2.41199 1.87177,3.68267c0.21305,0.50218 0.38804,1.00437 0.49457,1.53699c0.14457,0.74566 -0.06848,1.38481 -0.6087,1.90982c-0.21305,0.21305 -0.47174,0.37283 -0.74566,0.50218c-0.40328,0.18261 -0.82175,0.30435 -1.26307,0.35001c-0.50218,0.05326 -0.99676,0.07609 -1.49894,0.03804c-0.28152,-0.02282 -0.56306,-0.03043 -0.83698,-0.03804c-0.72285,-0.02282 -1.43807,-0.11413 -2.15329,-0.20544c-0.79132,-0.09891 -1.59025,-0.19022 -2.38156,-0.28913c-0.45654,-0.06087 -0.91305,-0.12174 -1.36959,-0.18261c-0.22066,-0.03044 -0.4337,-0.05326 -0.61632,-0.06848c-0.15217,0.06087 -0.20544,0.175 -0.27392,0.27391c-0.56306,0.89784 -1.1261,1.79568 -1.69677,2.68591c-0.80653,1.26307 -1.65872,2.49569 -2.54895,3.71309c-0.48696,0.66196 -0.98915,1.30871 -1.5522,1.90982c-0.27392,0.29675 -0.55544,0.57827 -0.8674,0.82937c-0.28152,0.22826 -0.59349,0.40328 -0.9435,0.5098c-0.48696,0.15217 -0.90545,0.04565 -1.27828,-0.28913c-0.20544,-0.19022 -0.36522,-0.42609 -0.49457,-0.66958c-0.18261,-0.33478 -0.31957,-0.68479 -0.44892,-1.04241c-0.22826,-0.63914 -0.39565,-1.3011 -0.56306,-1.95547c-0.36522,-1.39241 -0.67719,-2.80004 -0.95111,-4.20768c-0.175,-0.90545 -0.35762,-1.80329 -0.41849,-2.72395c-0.03044,-0.41848 -0.0837,-0.83698 -0.12935,-1.25545c-0.00761,-0.07609 -0.03044,-0.15218 -0.04565,-0.22826c-0.4337,-0.15217 -0.87501,-0.19022 -1.3011,-0.27392c-1.90982,-0.37283 -3.77398,-0.88263 -5.55443,-1.67393c-0.2587,-0.11413 -0.5098,-0.22826 -0.75327,-0.36522c-0.22826,-0.12935 -0.44131,-0.27392 -0.65435,-0.42609c-0.27392,-0.20544 -0.48696,-0.47935 -0.63914,-0.78372c-0.28152,-0.55544 -0.28913,-1.11089 0,-1.67393c0.19783,-0.39565 0.46414,-0.74566 0.77611,-1.06524c0.19783,-0.19783 0.40327,-0.38804 0.6087,-0.57827c1.47612,-1.3011 3.08157,-2.4196 4.77833,-3.40876c0.57066,-0.33478 1.14894,-0.65435 1.71959,-0.98153c0.09131,-0.05326 0.175,-0.09891 0.22066,-0.21305zM225.16212,174.11626c0.32718,-0.03805 0.63914,-0.00761 0.95871,0.03044c0.22066,0.03044 0.4337,0.05326 0.65436,0.07609c0.73805,0.09131 1.46849,0.175 2.20655,0.26631c0.23587,0.03044 0.47175,0.06848 0.71523,0.09891c0.5174,0.06087 1.03479,0.10652 1.5522,0.15978c0.83698,0.09131 1.67393,0.0913 2.51851,0.07609c0.32718,0 0.63914,-0.06848 0.9435,-0.15217c0.36522,-0.09891 0.71522,-0.2587 0.99676,-0.53261c0.39565,-0.37283 0.57067,-0.81414 0.46414,-1.35436c-0.04565,-0.21305 -0.0837,-0.43371 -0.15978,-0.63914c-0.13696,-0.39565 -0.28153,-0.79132 -0.44892,-1.17176c-0.48696,-1.1185 -1.05002,-2.19895 -1.66633,-3.25657c-0.89024,-1.52175 -1.83372,-3.00548 -2.79243,-4.47398c-0.56306,-0.85979 -0.45654,-0.60109 -0.06087,-1.43046c0.10652,-0.21305 0.24348,-0.41088 0.37283,-0.61632c0.21305,-0.33478 0.4337,-0.66958 0.65436,-1.00437c0.5174,-0.80653 1.01958,-1.62828 1.47612,-2.47286c0.30435,-0.56306 0.58588,-1.1337 0.82175,-1.7348c0.15217,-0.38804 0.29675,-0.78372 0.36522,-1.2022c0.02282,-0.13696 0.03805,-0.27391 0.03805,-0.41848c0,-0.21305 -0.10652,-0.38805 -0.28913,-0.49457c-0.175,-0.09891 -0.35762,-0.15978 -0.56306,-0.19783c-0.58588,-0.11413 -1.15655,-0.04565 -1.7348,0.05326c-0.74566,0.12935 -1.48372,0.31196 -2.22177,0.5098c-1.25545,0.34239 -2.48047,0.75326 -3.70549,1.18697c-0.92066,0.32718 -1.84894,0.63914 -2.7696,0.97392c-0.22826,0.0837 -0.38805,0.01521 -0.54022,-0.14457c-0.05326,-0.06087 -0.10652,-0.12174 -0.15978,-0.18261c-0.9435,-1.06524 -1.87177,-2.13808 -2.82287,-3.1957c-0.63153,-0.70001 -1.28589,-1.36959 -1.94785,-2.03916c-0.5174,-0.53261 -1.08045,-1.01197 -1.66633,-1.4685c-0.31957,-0.24348 -0.64675,-0.47174 -0.99676,-0.66196c-0.29675,-0.16739 -0.6087,-0.29675 -0.95111,-0.36522c-0.54783,-0.11413 -0.98153,0.04565 -1.30871,0.50218c-0.175,0.24349 -0.29675,0.5174 -0.41088,0.79892c-0.19022,0.48696 -0.28913,1.00437 -0.33478,1.52175c-0.09131,0.95871 -0.14457,1.91743 -0.0837,2.87613c0.06848,1.09568 0.12174,2.19895 0.19783,3.29462c0.03805,0.54022 0.09131,1.07284 0.15218,1.61307c0.04565,0.39565 0.11413,0.79132 0.15978,1.18697c0.03044,0.27392 0.05326,0.55544 0.01521,0.82937c-0.31196,0.35762 -0.66196,0.65436 -1.06524,0.88263c-0.2587,0.14457 -0.5174,0.30435 -0.77611,0.45654c-1.77286,1.02719 -3.42396,2.21416 -4.96855,3.56093c-0.22826,0.19783 -0.44131,0.41088 -0.64675,0.62393c-0.22066,0.22826 -0.41088,0.49457 -0.56306,0.77611c-0.22826,0.42609 -0.21305,0.84458 0.03804,1.25545c0.14457,0.24348 0.3424,0.44892 0.57827,0.60109c0.23587,0.15217 0.47935,0.29675 0.73045,0.41088c0.49457,0.22066 0.98915,0.4337 1.49133,0.62393c1.62828,0.62393 3.32505,1.00437 5.03703,1.31633c0.27392,0.05326 0.54783,0.09891 0.82937,0.15217c0.0837,0.01521 0.15217,0.06848 0.16739,0.15217c0.03805,0.175 0.07609,0.35001 0.09892,0.53262c0.04565,0.41848 0.0913,0.83698 0.12174,1.25545c0.05326,0.67719 0.16739,1.34675 0.28913,2.01633c0.34239,1.8109 0.73805,3.59896 1.20981,5.37944c0.15978,0.60109 0.31957,1.19458 0.55544,1.77286c0.10652,0.2587 0.22066,0.5174 0.36522,0.75327c0.09131,0.15217 0.19783,0.29675 0.34239,0.41088c0.16739,0.13696 0.34239,0.19022 0.55544,0.12935c0.33478,-0.0837 0.63153,-0.2587 0.89024,-0.48696c0.26631,-0.23587 0.525,-0.49457 0.76848,-0.75327c0.61632,-0.66196 1.16416,-1.3772 1.69677,-2.10003c0.98915,-1.36197 1.94025,-2.73917 2.84569,-4.16202c0.33478,-0.525 0.66958,-1.04241 1.01197,-1.55981c0.19783,-0.30435 0.42609,-0.58587 0.76848,-0.83697z"/><path d="M246.74832,191.29696c0.13696,-0.02282 0.24349,-0.03044 0.33478,-0.06087c1.01958,-0.29675 2.06199,-0.46414 3.11961,-0.60109c0.70001,-0.09131 1.39242,-0.12174 2.09242,-0.09131c0.44131,0.01521 0.87501,0.09891 1.29349,0.23587c0.21305,0.06848 0.41088,0.16739 0.57827,0.30435c0.22826,0.19022 0.35762,0.42609 0.37283,0.72285c0.01521,0.24348 -0.02282,0.47936 -0.09891,0.70762c-0.12935,0.35762 -0.29675,0.7 -0.48696,1.02718c-0.36522,0.62393 -0.76087,1.22502 -1.2098,1.78806c-0.67719,0.8674 -1.3696,1.7272 -2.05437,2.587c-0.03044,0.10652 0.04565,0.18261 0.0837,0.26631c0.42609,0.83698 0.81414,1.69677 1.14894,2.57178c0.36522,0.95111 0.64675,1.93264 0.82937,2.937c0.0837,0.45654 0.07609,0.91305 0.06087,1.3772c-0.00761,0.22066 -0.07609,0.4337 -0.175,0.63153c-0.175,0.37283 -0.57827,0.47935 -0.85219,0.40328c-0.15217,-0.04565 -0.30435,-0.09131 -0.44892,-0.15978c-0.27392,-0.12174 -0.54783,-0.25109 -0.80653,-0.40328c-0.85218,-0.48696 -1.68154,-1.01197 -2.42721,-1.65111c-0.07609,-0.06087 -0.15978,-0.11413 -0.24348,-0.16739c-0.01521,-0.00761 -0.04566,-0.00761 -0.06087,0c-0.02282,0.02282 -0.06848,0.05326 -0.06087,0.07609c0.06848,0.37283 0.15217,0.74566 0.21305,1.1185c0.09131,0.5174 0.14457,1.02719 0.07609,1.5522c-0.01521,0.14457 -0.06848,0.26631 -0.15978,0.38044c-0.13696,0.175 -0.40327,0.22826 -0.59349,0.11413c-0.06848,-0.03805 -0.13696,-0.0837 -0.19022,-0.14457c-0.15978,-0.175 -0.33478,-0.34239 -0.47174,-0.54022c-0.26631,-0.37283 -0.5174,-0.76088 -0.75327,-1.15655c-0.25109,-0.42609 -0.47935,-0.875 -0.72285,-1.31633c-0.06087,-0.10652 -0.11413,-0.20544 -0.175,-0.30435c-0.12935,0.00761 -0.18261,0.0913 -0.24348,0.175c-0.31957,0.44131 -0.67719,0.84458 -1.05002,1.23262c-0.53261,0.54783 -1.07284,1.07284 -1.67393,1.5446c-0.41088,0.31957 -0.83697,0.61632 -1.3011,0.85979c-0.26631,0.14457 -0.54022,0.26631 -0.82937,0.34239c-0.22066,0.05326 -0.4337,0.06087 -0.65436,0.00761c-0.39565,-0.09891 -0.69239,-0.31957 -0.83697,-0.70761c-0.0837,-0.22066 -0.15978,-0.44892 -0.22066,-0.68479c-0.12935,-0.54783 -0.19783,-1.10329 -0.23587,-1.65872c-0.06848,-1.03479 -0.11413,-2.07721 -0.04566,-3.11961c0.02282,-0.33478 0.04565,-0.67719 0.02282,-1.02719c-0.22066,-0.10652 -0.4337,-0.21305 -0.63914,-0.31957c-0.21305,-0.11413 -0.41848,-0.23587 -0.63153,-0.35001c-0.54022,-0.30435 -1.08806,-0.59349 -1.62067,-0.90544c-0.36522,-0.21305 -0.71522,-0.44892 -1.05763,-0.67719c-0.26631,-0.18261 -0.5098,-0.38805 -0.72285,-0.63153c-0.10652,-0.12174 -0.21305,-0.24348 -0.28913,-0.38044c-0.22826,-0.39565 -0.25109,-0.73045 0.06848,-1.17176c0.09131,-0.12935 0.22066,-0.23587 0.34239,-0.33478c0.31196,-0.2587 0.65436,-0.45654 1.01958,-0.62393c0.73046,-0.33478 1.49133,-0.57827 2.25221,-0.80653c0.57827,-0.16739 1.15655,-0.31957 1.7348,-0.48696c0.19022,-0.05326 0.38044,-0.11413 0.58588,-0.175c0.01521,-0.07609 0.05326,-0.15218 0.05326,-0.22826c0,-1.06523 0.14457,-2.11525 0.35762,-3.15765c0.11413,-0.54783 0.26631,-1.08805 0.47935,-1.60546c0.175,-0.42609 0.40328,-0.82937 0.70762,-1.17176c0.12935,-0.15217 0.27392,-0.28913 0.4337,-0.41848c0.54783,-0.44131 1.14893,-0.5174 1.80329,-0.26631c0.28152,0.10652 0.54022,0.26631 0.78372,0.44131c0.60109,0.44131 1.1261,0.96632 1.5522,1.57501c0.40328,0.57066 0.77611,1.16416 1.16415,1.75003c0.15217,0.23587 0.29675,0.47175 0.47175,0.75327zM247.46354,202.71777c0.35001,0.28913 0.68479,0.54783 1.00437,0.81414c0.88263,0.72285 1.84895,1.33155 2.8533,1.87177c0.175,0.09131 0.36522,0.16739 0.54783,0.23587c0.12174,0.04565 0.28153,-0.05326 0.33479,-0.18261c0.13696,-0.36522 0.12174,-0.74566 0.0913,-1.1261c-0.04565,-0.47935 -0.13696,-0.95111 -0.2587,-1.41523c-0.38804,-1.52175 -0.95871,-2.96744 -1.65872,-4.35985c-0.05326,-0.10652 -0.11413,-0.21305 -0.16739,-0.31957c-0.11413,-0.23587 -0.09891,-0.47174 0.03044,-0.6924c0.09891,-0.16739 0.22066,-0.33479 0.34239,-0.49457c0.44131,-0.56306 0.89024,-1.13371 1.34675,-1.69677c0.50218,-0.62393 0.95871,-1.27828 1.3772,-1.96307c0.19783,-0.32718 0.37283,-0.66196 0.5098,-1.01197c0.06087,-0.15217 0.09131,-0.30435 0.09131,-0.46414c0,-0.175 -0.07609,-0.30435 -0.22066,-0.39565c-0.20544,-0.12935 -0.4337,-0.19783 -0.66958,-0.25109c-0.71522,-0.15978 -1.43046,-0.15217 -2.15329,-0.0837c-0.89784,0.0837 -1.78806,0.21305 -2.67069,0.40327c-0.5098,0.10652 -1.01197,0.22066 -1.52176,0.33479c-0.12935,0.03044 -0.23587,-0.02282 -0.32717,-0.10652c-0.06087,-0.05326 -0.10653,-0.12174 -0.15218,-0.18261c-0.09891,-0.15217 -0.19022,-0.30435 -0.28913,-0.45654c-0.41848,-0.63914 -0.82175,-1.27828 -1.24784,-1.90981c-0.35762,-0.53261 -0.80653,-0.99676 -1.30871,-1.40002c-0.20544,-0.15978 -0.41849,-0.31196 -0.65436,-0.42609c-0.525,-0.2587 -1.00437,-0.19783 -1.44568,0.18261c-0.35001,0.31196 -0.61632,0.67719 -0.80653,1.10329c-0.14457,0.32718 -0.2587,0.66958 -0.35001,1.01958c-0.2587,0.98915 -0.4337,1.99351 -0.50218,3.01308c-0.01521,0.28152 -0.04565,0.55544 -0.07609,0.83698c0,0.06087 -0.01522,0.12174 -0.03044,0.175c-0.03044,0.12935 -0.10652,0.21305 -0.22066,0.26631c-0.09131,0.03805 -0.18261,0.07609 -0.28152,0.10652c-0.38044,0.12174 -0.76088,0.25109 -1.14132,0.36522c-0.85979,0.26631 -1.72719,0.5098 -2.56417,0.84458c-0.29675,0.11413 -0.59349,0.24348 -0.87501,0.38805c-0.30435,0.15217 -0.58588,0.34239 -0.82937,0.58588c-0.19783,0.19783 -0.21305,0.41849 -0.04565,0.64675c0.0837,0.11413 0.18261,0.21305 0.28152,0.31196c0.22826,0.22826 0.47935,0.4261 0.74566,0.60109c0.37283,0.23587 0.74566,0.46414 1.1261,0.68479c0.57067,0.32718 1.15655,0.63914 1.72719,0.96632c0.24348,0.13696 0.47174,0.30435 0.70761,0.44892c0.24349,0.15217 0.34239,0.37283 0.34239,0.65436c0,0.13696 0,0.28152 0,0.41848c-0.06848,1.24023 -0.03804,2.48047 0.06848,3.72071c0.04565,0.5174 0.12174,1.0348 0.24349,1.53699c0.04565,0.175 0.11413,0.34239 0.19022,0.50218c0.0837,0.175 0.24349,0.26631 0.4337,0.28153c0.13696,0.00761 0.28153,0 0.41088,-0.04566c0.20544,-0.06848 0.41088,-0.15217 0.60109,-0.2587c0.31196,-0.18261 0.62393,-0.36522 0.91305,-0.57827c0.95871,-0.70001 1.79568,-1.52937 2.57938,-2.4196c0.21305,-0.24349 0.41088,-0.48696 0.61632,-0.73806c0.04565,-0.06087 0.0837,-0.12935 0.11413,-0.175c-0.31196,-0.68479 -0.61632,-1.33155 -0.90544,-1.99351c-0.24348,-0.57066 -0.47175,-1.14893 -0.70001,-1.71959c-0.05326,-0.12935 -0.0837,-0.26631 -0.10652,-0.40327c-0.03044,-0.175 0.175,-0.3424 0.35762,-0.30435c0.07609,0.01521 0.15217,0.03805 0.22826,0.06848c0.73805,0.30435 1.48372,0.60109 2.22177,0.90544c0.24348,0.09891 0.47935,0.19783 0.72285,0.28913c0.12935,0.04565 0.26631,0.07609 0.40328,0.11413c0.03805,0.00761 0.07609,0 0.11413,0c0.03805,0 0.11413,-0.07609 0.11413,-0.11413c-0.00761,-0.22066 -0.0837,-0.4337 -0.03043,-0.65436c0,-0.02282 0.05326,-0.04565 0.08369,-0.05326c0.01521,0 0.03805,0 0.05326,0.02283c0.22066,0.25109 0.33479,0.54022 0.3424,0.8674c0,0.15217 -0.12935,0.31957 -0.28153,0.35001c-0.07609,0.01521 -0.15978,0.02282 -0.23587,0.02282c-0.12174,0 -0.23587,-0.01521 -0.35762,-0.02282c-0.05326,0 -0.09891,0.07609 -0.07609,0.12935c0.32718,0.70762 0.57067,1.44568 0.79892,2.19895c0.01521,0.03805 0.03044,0.07609 0.06087,0.13696zM247.62333,205.97435c-0.04565,-0.72285 -0.20544,-1.50654 -0.41849,-2.27504c-0.02282,-0.07609 -0.06848,-0.14457 -0.11413,-0.20544c-0.18261,-0.24349 -0.35762,-0.47935 -0.54783,-0.71522c-0.16739,-0.19783 -0.33478,-0.39565 -0.5174,-0.57827c-0.16739,-0.175 -0.36522,-0.30435 -0.58588,-0.41088c-0.15217,-0.06848 -0.30435,-0.09131 -0.46414,-0.0837c-0.14457,0 -0.22826,0.11413 -0.175,0.23587c0.03805,0.09131 0.07609,0.18261 0.12174,0.27392c0.46414,0.95111 0.95111,1.89458 1.46849,2.81526c0.175,0.31196 0.36522,0.61632 0.57066,0.91305c0.13696,0.19783 0.29675,0.37283 0.44892,0.55544c0.03044,0.03805 0.12935,0 0.15217,-0.03805c0.06087,-0.12935 0.05326,-0.27391 0.06087,-0.48696zM246.88526,202.6417c0,-0.07609 0.00761,-0.11413 0,-0.15217c-0.21305,-0.70762 -0.44892,-1.40002 -0.76848,-2.0696c-0.2587,-0.54783 -0.11413,-0.50218 -0.73046,-0.66958c-0.15217,-0.03805 -0.29675,-0.10652 -0.44892,-0.16739c-0.42609,-0.15978 -0.85218,-0.32717 -1.27828,-0.48696c-0.06087,0.03805 -0.0837,0.0913 -0.06087,0.14457c0.30435,0.6924 0.60109,1.38481 0.91305,2.07721c0.02282,0.04565 0.07609,0.08369 0.10652,0.12174c0.53261,-0.13696 0.73046,-0.10652 1.14894,0.13696c0.22066,0.13696 0.4261,0.29675 0.60109,0.48696c0.12174,0.12935 0.22826,0.28152 0.34239,0.41088c0.04565,0.05326 0.09892,0.09131 0.16739,0.15978z"/><path d="M233.07528,188.17734c0.11413,-0.04565 0.24348,-0.09892 0.37283,-0.15218c0.34239,-0.13696 0.70001,-0.15978 1.05763,-0.12935c0.14457,0.01521 0.26631,0.07609 0.38804,0.15217c0.14457,0.09891 0.21305,0.24348 0.20544,0.41088c0,0.18261 -0.04565,0.35762 -0.13696,0.5174c-0.12935,0.22066 -0.26631,0.44892 -0.40327,0.66196c-0.15217,0.23587 -0.32718,0.45654 -0.44892,0.71522c0.13696,0.18261 0.26631,0.35001 0.39565,0.52501c0.16739,0.22826 0.29675,0.47174 0.37283,0.74566c0.03044,0.09131 0.03805,0.19783 0.03805,0.29675c0,0.28152 -0.2587,0.53261 -0.54022,0.53261c-0.11413,0 -0.23587,-0.02282 -0.35001,-0.05326c-0.29675,-0.07609 -0.54783,-0.22826 -0.80653,-0.38805c-0.63153,-0.40328 -0.5174,-0.4337 -0.95871,0.16739c-0.12935,0.175 -0.27392,0.34239 -0.41849,0.5098c-0.12174,0.13696 -0.26631,0.24349 -0.42609,0.32718c-0.27392,0.13696 -0.56306,0.03804 -0.72285,-0.22826c-0.06087,-0.10652 -0.10652,-0.22065 -0.10652,-0.33478c0,-0.19783 -0.01521,-0.39566 0,-0.60109c0.00761,-0.2587 0.03805,-0.5174 0.05326,-0.77611c0,-0.12935 -0.04565,-0.22826 -0.16739,-0.28913c-0.18261,-0.0837 -0.35762,-0.175 -0.54022,-0.2587c-0.21305,-0.10652 -0.41849,-0.23587 -0.57827,-0.41849c-0.05326,-0.06087 -0.10652,-0.12174 -0.14457,-0.19022c-0.13696,-0.20544 -0.06848,-0.5098 0.14457,-0.63153c0.15217,-0.09131 0.32718,-0.13696 0.49457,-0.20544c0.2587,-0.09891 0.56306,-0.03044 0.79132,-0.21305c0.11413,-0.23587 0.0837,-0.5098 0.15218,-0.76088c0.07609,-0.28913 0.15978,-0.57827 0.30435,-0.84458c0.05326,-0.10652 0.12935,-0.20544 0.21305,-0.28914c0.15978,-0.16739 0.44892,-0.21304 0.66197,-0.11413c0.18261,0.0837 0.32717,0.22066 0.45653,0.38044c0.19022,0.23587 0.3424,0.49457 0.47175,0.76087c0.03805,0.07609 0.0913,0.12935 0.18261,0.16739zM230.9296,189.18171c-0.11413,0.03805 -0.24348,0.0913 -0.38044,0.12935c-0.22826,0.06087 -0.46414,0.10652 -0.70001,0.16739c-0.09131,0.02282 -0.18261,0.07609 -0.26631,0.12935c-0.02282,0.01521 -0.03044,0.07609 -0.01522,0.09891c0.03805,0.06848 0.09131,0.12935 0.14457,0.19022c0.175,0.16739 0.39565,0.27392 0.6087,0.38044c0.14457,0.07609 0.29675,0.12935 0.42609,0.21305c0.19783,0.12174 0.31196,0.31196 0.30435,0.54783c0,0.13696 -0.02283,0.27391 -0.03805,0.41848c-0.02282,0.22066 -0.04565,0.4337 -0.05326,0.65436c0,0.09891 0,0.19783 0.01522,0.29675c0,0.03805 0.01522,0.07609 0.03044,0.11413c0.03044,0.12174 0.18261,0.175 0.28913,0.11413c0.14457,-0.0837 0.25109,-0.19022 0.35762,-0.31196c0.23587,-0.27392 0.44892,-0.56306 0.63914,-0.8674c0.12174,-0.19783 0.35761,-0.26631 0.57827,-0.175c0.09131,0.03805 0.18261,0.0837 0.26631,0.12935c0.15217,0.09131 0.30435,0.19783 0.46414,0.28152c0.19783,0.09891 0.39565,0.18261 0.60109,0.27392c0.07609,0.03044 0.19783,0 0.22066,-0.03805c0.04565,-0.07609 0.03805,-0.15978 0.00761,-0.22826c-0.0837,-0.18261 -0.16739,-0.36522 -0.26631,-0.53261c-0.09131,-0.15217 -0.20544,-0.29675 -0.31957,-0.4337c-0.21305,-0.25109 -0.19783,-0.5098 -0.02282,-0.76848c0.05326,-0.0837 0.10652,-0.16739 0.15978,-0.25109c0.14457,-0.21305 0.28913,-0.4337 0.42609,-0.64675c0.10652,-0.16739 0.20544,-0.34239 0.24348,-0.54022c0.00761,-0.03805 -0.04565,-0.12174 -0.0837,-0.13696c-0.12935,-0.05326 -0.27392,-0.0837 -0.41088,-0.05326c-0.175,0.03044 -0.35001,0.07609 -0.525,0.12174c-0.25109,0.06087 -0.50218,0.13696 -0.75327,0.19783c-0.12174,0.03044 -0.22826,-0.03044 -0.28913,-0.15218c-0.04565,-0.09131 -0.0837,-0.18261 -0.12935,-0.26631c-0.10652,-0.19022 -0.20544,-0.38804 -0.31957,-0.57066c-0.07609,-0.11413 -0.18261,-0.21305 -0.28152,-0.30435c-0.0837,-0.07609 -0.2587,-0.06087 -0.32718,0.03044c-0.06848,0.09891 -0.14457,0.19783 -0.19022,0.30435c-0.12935,0.31196 -0.22066,0.63914 -0.26631,0.98153c-0.02282,0.175 -0.02282,0.35762 -0.13696,0.53261z"/><path d="M258.64849,168.09768c0.32718,0 0.63153,0.07609 0.92827,0.20544c0.56306,0.25109 0.85218,0.6924 0.96632,1.27828c0.06848,0.36522 0.04566,0.72285 -0.04565,1.07284c-0.18261,0.68479 -0.89024,1.51415 -1.97829,1.40002c-0.22066,-0.02282 -0.42609,-0.09892 -0.62393,-0.19783c-0.63914,-0.34239 -1.04241,-0.85979 -1.15655,-1.58264c-0.09891,-0.61632 0.09131,-1.14893 0.5174,-1.59024c0.38044,-0.38804 0.85218,-0.58588 1.39242,-0.58588zM257.13434,169.96184c-0.03805,0.58588 0.4337,1.25545 0.93589,1.49133c0.57827,0.27392 1.20219,0.175 1.63589,-0.29675c0.79892,-0.8674 0.41849,-2.26742 -0.70761,-2.61743c-0.28152,-0.09131 -0.55544,-0.05326 -0.82175,0.03044c-0.65436,0.21305 -1.05763,0.76849 -1.04241,1.3772z"/><path d="M264.48445,170.5249c0.01521,0.47174 -0.10652,0.90545 -0.30435,1.32394c-0.11413,0.23587 -0.27391,0.44131 -0.46414,0.61632c-0.25109,0.22066 -0.53262,0.32718 -0.87501,0.31957c-0.31957,0 -0.57827,-0.12174 -0.81414,-0.32718c-0.34239,-0.29675 -0.54783,-0.68479 -0.6087,-1.13371c-0.12935,-0.88263 0.10652,-1.65872 0.75326,-2.29025c0.23587,-0.22826 0.5174,-0.36522 0.85219,-0.39565c0.22826,-0.01521 0.4337,0.03044 0.62393,0.15217c0.5174,0.31196 0.78372,0.77611 0.83698,1.36959c0.00761,0.12174 0,0.23587 0,0.35761zM264.02032,170.50969c0,0 0,-0.03805 0,-0.06087c0.03805,-0.59349 -0.22066,-1.04242 -0.70001,-1.3772c-0.09891,-0.07609 -0.21305,-0.0837 -0.34239,-0.05326c-0.13696,0.03805 -0.26631,0.09131 -0.38044,0.175c-0.15978,0.12174 -0.29675,0.26631 -0.41087,0.42609c-0.35762,0.525 -0.44131,1.10329 -0.33479,1.71959c0.05326,0.30435 0.20544,0.55544 0.4337,0.76848c0.28913,0.28152 0.84458,0.29675 1.14131,-0.02282c0.12174,-0.12935 0.23587,-0.27392 0.31957,-0.4337c0.175,-0.36522 0.28152,-0.74566 0.28152,-1.15655z"/><path d="M260.26156,173.1119c0,-0.38044 0.0913,-0.73045 0.19783,-1.07284c0.01521,-0.05326 0.05326,-0.10652 0.0837,-0.15217c0.03044,-0.05326 0.16739,-0.0913 0.21305,-0.04565c0.03805,0.03805 0.07609,0.0837 0.09131,0.13696c0.01521,0.05326 0.02282,0.12174 0.00761,0.175c-0.06087,0.35001 -0.14457,0.70001 -0.29675,1.01958c-0.02282,0.05326 -0.07609,0.0837 -0.12174,0.12935c-0.03044,0.03044 -0.13696,0 -0.15217,-0.03804c-0.01521,-0.05326 -0.03044,-0.11413 -0.03805,-0.15218z"/><path d="M219.75224,161.64542c0.00761,-0.49457 0.03805,-0.85218 0.14457,-1.2022c0.20544,-0.65436 0.58587,-1.17176 1.15654,-1.5522c0.57067,-0.37283 1.20981,-0.54022 1.87938,-0.5098c0.41088,0.02282 0.82937,0.09891 1.22503,0.26631c0.41088,0.175 0.76848,0.4337 1.05002,0.77611c0.61632,0.74566 0.98915,1.60546 1.01958,2.57178c0.04565,1.49894 -0.85979,2.82287 -2.1609,3.27178c-0.89024,0.30435 -1.72719,0.21305 -2.52613,-0.28152c-0.61632,-0.38044 -1.05763,-0.91305 -1.36197,-1.5598c-0.28152,-0.60109 -0.44892,-1.24023 -0.42609,-1.78046zM225.13929,160.23018c-0.31196,-0.58588 -0.78372,-0.99676 -1.41523,-1.21742c-0.40327,-0.13696 -0.81414,-0.18261 -1.24023,-0.16739c-0.09891,0 -0.19783,0.00761 -0.29675,0.03805c-0.98915,0.27392 -1.62828,0.89024 -1.87177,1.89458c-0.07609,0.30435 -0.06848,0.65436 0,0.99676c0.10652,0.03044 0.19022,-0.03044 0.28153,-0.06848c0.40328,-0.175 0.79892,-0.35762 1.2022,-0.53261c0.28913,-0.12935 0.58588,-0.24348 0.88263,-0.36522c0.07609,-0.03044 0.15217,-0.05326 0.22826,-0.00761c-0.02282,0.03044 -0.04565,0.06848 -0.07609,0.0837c-0.29675,0.15978 -0.59349,0.32718 -0.89024,0.48696c-0.47935,0.25109 -0.95871,0.49457 -1.43807,0.73805c-0.03805,0.01521 -0.06848,0.03805 -0.09891,0.06848c-0.06848,0.06087 -0.07609,0.13696 -0.03805,0.22066c0.02282,0.05326 0.04565,0.10652 0.0837,0.14457c0.01521,0.01521 0.07609,0 0.11413,-0.01521c0.33478,-0.175 0.66196,-0.36522 1.00437,-0.52501c1.13371,-0.54022 2.27504,-1.06524 3.40876,-1.59024c0.07609,-0.03805 0.13696,-0.0837 0.15978,-0.16739zM222.06533,164.67372c0.28913,0.18261 0.59349,0.2587 0.90545,0.27391c0.62393,0.03044 1.17936,-0.15978 1.66633,-0.54783c0.4337,-0.34239 0.73045,-0.78372 0.91305,-1.3011c0.05326,-0.15217 0.07609,-0.30435 0.10653,-0.46414c0,-0.02282 -0.05327,-0.07609 -0.07609,-0.06848c-0.07609,0.00761 -0.15978,0.03044 -0.22826,0.06087c-1.17936,0.525 -2.36634,1.04241 -3.5457,1.56741c-0.05326,0.02282 -0.09891,0.05326 -0.14457,0.09131c-0.01521,0.00761 -0.02283,0.03805 -0.01522,0.05326c0,0.01521 0.02283,0.02282 0.03805,0.03044c0.15978,0.03805 0.31196,-0.02282 0.46414,-0.05326c0.11413,-0.02282 0.22826,-0.06848 0.35001,-0.0837c0.11413,-0.01521 0.22066,-0.09892 0.37283,-0.03805c-0.06087,0.05326 -0.09891,0.11413 -0.15978,0.14457c-0.15978,0.07609 -0.33479,0.13696 -0.49457,0.20544c-0.05326,0.02282 -0.0837,0.07609 -0.13696,0.12935zM222.80338,161.78998c-0.0837,0.03044 -0.18261,0.06087 -0.26631,0.10652c-0.5174,0.2587 -1.03479,0.52501 -1.54459,0.79132c-0.5174,0.27392 -0.48696,0.2587 -0.21305,0.76087c0.09131,0.175 0.22066,0.32718 0.34239,0.49457c0.04565,0.06087 0.15217,0.0837 0.21305,0.05326c0.6924,-0.35762 1.42285,-0.63153 2.13808,-0.93589c0.22066,-0.09131 0.44131,-0.19022 0.65436,-0.28153c-0.01521,-0.05326 -0.00761,-0.09891 -0.03044,-0.12174c-0.04565,-0.03805 -0.10652,-0.06087 -0.15978,-0.0837c-0.39565,-0.15217 -0.74566,-0.37283 -1.01958,-0.70762c-0.02282,-0.03044 -0.06087,-0.04565 -0.10652,-0.06848zM224.66753,160.94541c-0.07609,0.47174 -0.15978,0.92066 -0.42609,1.30871c-0.02282,0.03044 0.00761,0.06848 0.06087,0.0837c0.15978,0.03805 0.31957,0.02282 0.47174,-0.01522c0.38044,-0.09131 0.61632,-0.37283 0.64675,-0.76087c0.02282,-0.27392 0.03044,-0.55544 -0.03804,-0.82937c-0.02282,-0.00761 -0.04566,-0.02282 -0.06087,-0.02282c-0.22066,0.01521 -0.40327,0.13696 -0.65436,0.24348zM223.17621,161.66825c0.06848,0.06848 0.12935,0.14457 0.19783,0.20544c0.07609,0.06087 0.15217,0.12174 0.23587,0.175c0.21305,0.12935 0.4337,0.06848 0.54783,-0.14457c0.10652,-0.21305 0.19023,-0.4337 0.21305,-0.66958c0.00761,-0.0837 -0.07609,-0.14457 -0.15218,-0.11413c-0.31957,0.14457 -0.63914,0.29675 -0.95871,0.44892c-0.03044,0.01521 -0.05326,0.06087 -0.0837,0.09891z"/><path d="M213.87064,164.86394c-0.01521,-0.54022 0.12935,-1.09568 0.41848,-1.60546c0.25109,-0.44131 0.59349,-0.80653 1.09568,-0.97392c0.65436,-0.22826 1.26307,-0.14457 1.80329,0.29675c0.26631,0.21305 0.47175,0.48696 0.64675,0.78371c0.42609,0.73046 0.73045,1.50654 0.83697,2.35113c0.06848,0.54022 0.05327,1.07284 -0.0913,1.60546c-0.15217,0.54783 -0.45654,0.97392 -0.96632,1.23263c-0.44892,0.22066 -0.92066,0.23587 -1.40002,0.0837c-0.32718,-0.10652 -0.62393,-0.27392 -0.88263,-0.49457c-0.35762,-0.29675 -0.66196,-0.63914 -0.88263,-1.04241c-0.37283,-0.67719 -0.58587,-1.39241 -0.57067,-2.22938zM214.41086,164.72699c0,0.09131 0,0.10652 0,0.12935c0,0.0837 0.0837,0.14457 0.15978,0.11413c0.19783,-0.09131 0.39565,-0.18261 0.59348,-0.28152c0.41088,-0.20544 0.82175,-0.41849 1.23262,-0.62393c0.06848,-0.03805 0.15218,-0.05326 0.22826,-0.06087c0.02282,0 0.06087,0.03044 0.0837,0.05326c0,0 0,0.04565 -0.01522,0.05326c-0.15217,0.09131 -0.30435,0.19022 -0.46414,0.27391c-0.49457,0.2587 -0.98915,0.5174 -1.48372,0.77611c-0.06848,0.03805 -0.15217,0.06848 -0.20544,0.12174c-0.03044,0.03044 -0.03805,0.10652 -0.03805,0.15978c0,0.05326 0.07609,0.0837 0.12935,0.05326c0.03805,-0.01521 0.07609,-0.03044 0.10652,-0.05326c0.66196,-0.37283 1.33155,-0.73045 2.01634,-1.05763c0.23587,-0.11413 0.45654,-0.24348 0.68479,-0.37283c0.06848,-0.03805 0.09892,-0.14457 0.06848,-0.20544c-0.13696,-0.28913 -0.31957,-0.55544 -0.54022,-0.78372c-0.16739,-0.175 -0.37283,-0.29675 -0.6087,-0.36522c-0.07609,-0.02282 -0.15978,-0.03805 -0.23587,-0.03044c-0.30435,0.02282 -0.58588,0.09891 -0.83698,0.28913c-0.22826,0.175 -0.40328,0.38804 -0.53261,0.63914c-0.21305,0.39565 -0.29675,0.82175 -0.32718,1.19458zM215.30109,167.19225c0,0.04565 -0.01521,0.09891 0,0.12174c0.31196,0.41088 0.71522,0.6924 1.20981,0.84458c0.175,0.05326 0.35762,0.06848 0.53261,0.02283c0.4337,-0.10652 0.76088,-0.3424 0.93589,-0.76849c0.12935,-0.31957 0.18261,-0.65436 0.19022,-0.99676c0,-0.01521 -0.01522,-0.03043 -0.03044,-0.03804c-0.01521,0 -0.04565,0 -0.06087,0c-0.07609,0.06087 -0.15979,0.12174 -0.22826,0.19022c-0.36522,0.34239 -0.77611,0.63153 -1.2022,0.89024c-0.04565,0.03044 -0.10652,0.03043 -0.16739,0.03804c-0.01521,0 -0.04565,-0.02282 -0.04565,-0.03804c0,-0.03805 0.00761,-0.0837 0.03044,-0.10652c0.19022,-0.175 0.38804,-0.35001 0.57827,-0.5174c0.27392,-0.23587 0.54783,-0.47175 0.81414,-0.70762c0.07609,-0.06848 0.12935,-0.15217 0.19783,-0.22826c0.00761,-0.00761 0,-0.03044 0.00761,-0.04565c-0.03805,0 -0.0837,-0.03044 -0.10652,-0.01522c-0.81414,0.46414 -1.67393,0.85219 -2.51091,1.27068c-0.05326,0.02282 -0.09892,0.06087 -0.14457,0.0837zM217.34025,165.64003c-0.16739,-0.175 -0.31196,-0.31196 -0.44131,-0.46414c-0.06848,-0.07609 -0.10652,-0.16739 -0.16739,-0.25109c-0.04565,-0.06087 -0.14457,-0.09131 -0.21305,-0.06087c-0.14457,0.06848 -0.28913,0.14457 -0.42609,0.22066c-0.45654,0.25109 -0.91305,0.49457 -1.36197,0.74566c-0.12174,0.06848 -0.15978,0.175 -0.10652,0.30435c0.09131,0.22066 0.19022,0.4337 0.28913,0.65436c0.03805,0.0837 0.12174,0.10652 0.19783,0.06848c0.47174,-0.25109 0.95111,-0.50218 1.42285,-0.76088c0.2587,-0.14457 0.54022,-0.26631 0.79892,-0.45654zM216.92177,164.68895c0.03044,0.07609 0.06087,0.15217 0.09891,0.21305c0.06087,0.09891 0.10653,0.23587 0.22826,0.24348c0.15978,0.00761 0.13696,-0.16739 0.18261,-0.2587c0.06848,-0.14457 0.10652,-0.29675 0.15217,-0.44131c0.00761,-0.03044 -0.02283,-0.06848 -0.03805,-0.09891c0,0 -0.03805,0 -0.05326,0c-0.19783,0.0837 -0.38804,0.19022 -0.56306,0.33478zM217.78918,164.55198c-0.10652,0.26631 -0.19783,0.48696 -0.28152,0.71522c0,0.01521 0,0.04566 0,0.06087c0.01521,0.03044 0.03805,0.0837 0.06087,0.09131c0.14457,0.04565 0.35001,-0.03805 0.42609,-0.15218c0.00761,-0.01521 0.02282,-0.03805 0.02282,-0.05326c-0.02282,-0.22066 -0.05327,-0.4337 -0.22826,-0.65435z"/><path d="M220.90118,168.74444c-0.06848,-0.14457 -0.14457,-0.30435 -0.22066,-0.47175c-0.2587,-0.56306 -0.50218,-1.1337 -0.68479,-1.7272c-0.06848,-0.22826 -0.12174,-0.46414 -0.16739,-0.70001c-0.03044,-0.175 -0.01521,-0.35762 0.04566,-0.53261c0.06087,-0.18261 0.175,-0.30435 0.36522,-0.36522c0.31196,-0.10652 0.59349,-0.03804 0.83698,0.175c0.19783,0.16739 0.37283,0.36522 0.5098,0.58588c0.70001,1.10329 1.26307,2.26743 1.49894,3.56854c0.03805,0.21305 0.05326,0.4337 0.06848,0.65435c0,0.07609 -0.00761,0.15978 -0.02282,0.23587c-0.07609,0.38804 -0.48696,0.57827 -0.83698,0.38805c-0.28913,-0.15217 -0.5098,-0.38804 -0.70761,-0.63914c-0.09891,-0.12174 -0.19023,-0.25109 -0.28914,-0.37283c-0.00761,-0.01521 -0.03805,-0.01522 -0.05326,-0.01522c-0.01521,0 -0.03043,0.02283 -0.03043,0.04566c-0.00761,0.03805 -0.02283,0.07608 -0.01522,0.11413c0.15978,0.66196 0.48696,1.22502 0.99676,1.67393c0.15217,0.13696 0.32718,0.23587 0.5174,0.29675c0.11413,0.03805 0.23587,0.03805 0.35001,0c0.175,-0.06087 0.32718,-0.15218 0.44892,-0.28914c0.12935,-0.15217 0.24349,-0.31196 0.36522,-0.47174c0.06087,-0.07609 0.11413,-0.15978 0.18261,-0.23587c0.01521,-0.02282 0.06848,-0.01522 0.10652,-0.01522c0.01521,0 0.03044,0.03044 0.03044,0.04566c-0.06848,0.45654 -0.28152,0.82937 -0.63153,1.1261c-0.35001,0.30435 -0.75327,0.35001 -1.17936,0.175c-0.40328,-0.15978 -0.72285,-0.42609 -0.97392,-0.77611c-0.25109,-0.34239 -0.44892,-0.70761 -0.58588,-1.11089c-0.13696,-0.41088 -0.18261,-0.82175 0.03805,-1.21742c0.01521,-0.03044 0.01522,-0.07609 0.03044,-0.13696zM222.74251,170.0151c0,-0.10652 0,-0.16739 0,-0.22826c-0.12935,-0.99676 -0.44892,-1.93264 -0.91305,-2.82287c-0.01521,-0.03044 -0.04565,-0.06848 -0.0837,-0.0837c-0.03044,-0.01521 -0.09131,-0.00761 -0.10652,0.01522c-0.10652,0.12935 -0.15218,0.28152 -0.16739,0.44131c-0.06087,0.62393 0.00761,1.23263 0.19783,1.82612c0.12935,0.41088 0.38044,0.73806 0.72285,0.99676c0.04565,0.03044 0.10652,0.05326 0.15978,0.06848c0.03044,0 0.0837,-0.01522 0.09892,-0.03805c0.04565,-0.06087 0.06848,-0.13696 0.0837,-0.16739zM221.56314,166.47701c-0.15978,-0.35762 -0.35761,-0.63153 -0.57827,-0.88263c-0.06848,-0.07609 -0.14457,-0.13696 -0.22066,-0.20544c-0.09891,-0.0837 -0.21305,-0.09891 -0.33478,-0.0837c-0.09131,0.00761 -0.19022,0.09891 -0.19783,0.19022c-0.01521,0.24348 0.02282,0.47935 0.09891,0.70761c0.19022,0.59349 0.41088,1.16416 0.67719,1.72719c0.00761,0.01521 0.06087,0.01521 0.10652,0.02282c0.01521,-0.525 0,-1.05763 0.45654,-1.46849z"/><path d="M242.78412,197.77206c-0.35762,-0.07609 -0.71522,-0.10652 -1.07284,-0.12174c-0.57827,-0.03044 -1.15655,-0.05326 -1.7348,-0.09131c-0.19783,-0.01521 -0.39565,-0.04565 -0.59349,-0.07609c-0.12174,-0.02282 -0.19783,-0.13696 -0.19022,-0.26631c0.05326,-0.64675 0.25109,-1.25545 0.55544,-1.81851c0.15217,-0.28152 0.36522,-0.52501 0.61632,-0.73045c0.15217,-0.12935 0.32717,-0.22826 0.525,-0.28913c0.39565,-0.12174 0.75327,-0.04565 1.08045,0.18261c0.19783,0.13696 0.37283,0.30435 0.5174,0.49457c0.46414,0.6087 0.80653,1.28589 1.05763,2.00873c0.12935,0.38044 0,0.60109 -0.41087,0.6924c-0.03805,0.00761 -0.07609,0.01522 -0.11413,0.03044c-0.04565,0.02282 -0.04565,0.05326 -0.03044,0.09891c0.03044,0.09131 -0.01522,0.16739 -0.09131,0.19022c-0.49457,0.175 -0.98915,0.31196 -1.51414,0.30435c-0.02282,0 -0.05326,-0.05326 -0.06848,-0.07609c0,0 0.02282,-0.03043 0.03804,-0.03804c0.16739,-0.05326 0.3424,-0.10653 0.5174,-0.15218c0.28913,-0.0837 0.57827,-0.15978 0.8674,-0.24349c0.03044,-0.00761 0.04566,-0.05326 0.07609,-0.0913zM240.64604,197.11009c0.45654,0.04565 0.8674,0.0913 1.28589,0.12174c0.34239,0.02282 0.67719,0.03044 1.01958,0.03805c0.05326,0 0.10652,-0.07609 0.09131,-0.12174c-0.22066,-0.58588 -0.49457,-1.14131 -0.85218,-1.65111c-0.13696,-0.19783 -0.29675,-0.37283 -0.49457,-0.5174c-0.06087,-0.04565 -0.13696,-0.08369 -0.20544,-0.12174c-0.15978,-0.07609 -0.26631,-0.00761 -0.28153,0.175c-0.01521,0.19783 -0.02282,0.40328 -0.04565,0.60109c-0.05326,0.48696 -0.18261,0.9435 -0.49457,1.33155c-0.02282,0.02282 -0.01522,0.06848 -0.03044,0.14457zM240.91235,195.27636c0,-0.09891 0,-0.19783 0,-0.29675c0,-0.05326 -0.0837,-0.0837 -0.13696,-0.05326c-0.0837,0.05326 -0.16739,0.10653 -0.24349,0.175c-0.31957,0.28913 -0.5174,0.65436 -0.66197,1.05002c-0.09131,0.24348 -0.00761,0.47174 0.15218,0.66196c0.07609,0.09131 0.22066,0.11413 0.31957,0.04565c0.15217,-0.10652 0.25109,-0.25109 0.32718,-0.41848c0.15217,-0.37283 0.25109,-0.75327 0.23587,-1.15655z"/><path d="M244.98308,194.55353c-0.00761,-0.38804 0.03804,-0.76087 0.19783,-1.11089c0.0837,-0.18261 0.175,-0.35762 0.32718,-0.49457c0.22826,-0.20544 0.47935,-0.27392 0.77611,-0.19022c0.21305,0.06087 0.41088,0.15978 0.59349,0.27392c0.30435,0.19783 0.57827,0.4261 0.82937,0.68479c0.31196,0.31196 0.57067,0.66196 0.82175,1.02718c0.05326,0.0837 0.10652,0.16739 0.14457,0.2587c0.09131,0.19022 0.09131,0.38804 0,0.57827c-0.07609,0.13696 -0.15979,0.27392 -0.2587,0.39565c-0.16739,0.19783 -0.34239,0.38805 -0.525,0.57067c-0.44131,0.4337 -0.88263,0.8674 -1.33155,1.29349c-0.0837,0.0837 -0.18261,0.15217 -0.27392,0.22826c-0.0837,0.06848 -0.20544,0.06087 -0.27392,-0.01521c-0.12174,-0.12935 -0.24348,-0.26631 -0.31196,-0.4337c-0.07609,-0.18261 -0.15978,-0.36522 -0.21305,-0.55544c-0.175,-0.57066 -0.31957,-1.14894 -0.42609,-1.74242c-0.04565,-0.25109 -0.05326,-0.5174 -0.07609,-0.77611zM245.75156,196.6003c0.09131,0.28913 0.18261,0.60109 0.27392,0.89784c0.03044,0.0837 0.12934,0.11413 0.19022,0.05326c0.49457,-0.49457 0.99676,-0.98153 1.49133,-1.47612c0.0837,-0.0837 0.16739,-0.175 0.24348,-0.2587c0.06848,-0.07609 0.12174,-0.15217 0.18261,-0.23587c0.12174,-0.15978 0.14457,-0.31957 0.03044,-0.49457c-0.28152,-0.46414 -0.61632,-0.88263 -1.01958,-1.24784c-0.19022,-0.175 -0.39566,-0.33479 -0.63153,-0.45654c-0.05326,-0.03044 -0.10652,-0.04566 -0.16739,-0.06087c-0.01521,0 -0.03805,0 -0.05326,0.00761c-0.01521,0.00761 -0.03044,0.03805 -0.03044,0.05326c0.09891,0.38804 0.19022,0.76849 0.24348,1.16416c0.05326,0.46414 0.02282,0.92066 -0.06848,1.36959c-0.02282,0.09891 -0.06087,0.19022 -0.09891,0.28153c-0.0837,0.19783 -0.22066,0.32717 -0.45654,0.31196c-0.02282,0 -0.04566,-0.00761 -0.06087,0c-0.03044,0.02282 -0.04565,0.05326 -0.0837,0.09131zM246.2233,194.82745c0.01521,-0.23587 -0.05326,-0.6087 -0.13696,-0.97392c-0.03805,-0.175 -0.09891,-0.34239 -0.20544,-0.48696c-0.01521,-0.02282 -0.07609,-0.03044 -0.09891,-0.01522c-0.04565,0.03044 -0.09892,0.07609 -0.12935,0.12174c-0.18261,0.29675 -0.25109,0.62393 -0.25109,0.96632c0,0.47935 0.06848,0.95111 0.19022,1.41523c0.01521,0.05326 0.03043,0.12174 0.06087,0.16739c0.04565,0.06087 0.10652,0.11413 0.16739,0.15978c0.05326,0.04565 0.18261,0.01522 0.21305,-0.04565c0.02282,-0.05326 0.05326,-0.10652 0.07609,-0.15978c0.12174,-0.32718 0.11413,-0.66196 0.12174,-1.14131z"/><path d="M244.69393,192.92524c0,0 0.0837,0.03805 0.0837,0.06087c0.00761,0.09891 0.00761,0.19783 0,0.29675c-0.03044,0.37283 -0.07609,0.75326 -0.02282,1.1337c0,0.01521 0,0.04565 -0.00761,0.05326c-0.02282,0.03044 -0.04565,0.06848 -0.07609,0.07609c-0.03044,0.00761 -0.07609,0 -0.10652,-0.02283c-0.03044,-0.02282 -0.05326,-0.06087 -0.06087,-0.09891c-0.06848,-0.23587 -0.08369,-0.47174 -0.03804,-0.70761c0.04565,-0.27392 0.05326,-0.55544 0.22826,-0.79132z"/><path d="M243.33196,195.0405c-0.03044,0.0837 -0.06087,0.09891 -0.10652,0.07609c-0.03805,-0.01521 -0.0837,-0.03043 -0.09891,-0.06087c-0.20544,-0.40327 -0.47174,-0.77611 -0.72285,-1.14894c-0.03044,-0.03805 -0.01521,-0.07609 0.03044,-0.0913c0.01521,0 0.03805,-0.00761 0.05326,-0.00761c0.02282,0 0.03805,0 0.05326,0.00761c0.03805,0.01521 0.06848,0.03805 0.09891,0.06087c0.30435,0.26631 0.5098,0.59348 0.66196,0.96631c0.03044,0.06848 0.02282,0.15218 0.02282,0.19783z"/><path d="M247.06789,198.35794c-0.0837,0 -0.18261,0.01521 -0.26631,-0.05326c-0.03044,-0.02282 -0.03805,-0.06087 -0.05326,-0.09891c0,-0.00761 0.01521,-0.03804 0.03043,-0.04565c0.35001,-0.15217 0.71523,-0.16739 1.08045,-0.06087c0.01521,0 0.02282,0.03044 0.03044,0.05326c0,0.01521 0,0.03804 -0.00761,0.04565c-0.25109,0.12174 -0.5174,0.175 -0.80653,0.175z"/><path d="M257.64413,169.69554c0,-0.20544 0.06087,-0.41088 0.15217,-0.60109c0.03805,-0.07609 0.19022,-0.13696 0.25109,-0.10652c0.0837,0.03805 0.15979,0.15218 0.15218,0.23587c-0.03044,0.25109 -0.0837,0.50218 -0.24349,0.71522c-0.03044,0.03805 -0.10652,0.07609 -0.15217,0.06848c-0.04565,-0.00761 -0.0837,-0.07608 -0.11413,-0.11413c-0.01521,-0.01521 -0.01521,-0.03805 -0.02282,-0.05326c-0.00761,-0.03805 -0.01521,-0.07609 -0.02282,-0.13696z"/><path d="M262.20942,170.34991c-0.02282,-0.2587 0.05326,-0.46414 0.14457,-0.66958c0.01521,-0.03805 0.15978,-0.11413 0.20544,-0.09892c0.09131,0.02282 0.19783,0.12174 0.19022,0.20544c-0.03044,0.28152 -0.09131,0.54783 -0.30435,0.76087c-0.05326,0.05326 -0.16739,0.02282 -0.19022,-0.05326c-0.01521,-0.05326 -0.03804,-0.11413 -0.03804,-0.13696z"/></g></g></g></g></svg>