<svg version="1.1" xmlns="http://www.w3.org/2000/svg" xmlns:xlink="http://www.w3.org/1999/xlink" width="30.04413" height="55.05897" viewBox="0,0,30.04413,55.05897"><g transform="translate(-224.97793,-152.47052)"><g data-paper-data="{&quot;isPaintingLayer&quot;:true}" fill-rule="nonzero" stroke="none" stroke-width="1" stroke-linecap="butt" stroke-linejoin="miter" stroke-miterlimit="10" stroke-dasharray="" stroke-dashoffset="0" style="mix-blend-mode: normal"><g><path d="M253.4406,179.13847c0.26197,-0.1683 0.61125,0.11004 0.36869,0.28481c-0.94114,0.6732 -1.5815,1.44996 -2.05691,2.27851c0.30078,0.9839 1.35834,4.57644 1.28072,7.21743c0.0194,0.00647 0.03881,0.00647 0.05821,0.00647c0.03881,0.01295 0.06792,0.03237 0.09702,0.05178c0.3881,-0.52432 0.87322,-0.99037 1.46507,-1.33345c0.15524,-0.09062 0.44631,0.02589 0.34929,0.16183c-0.44631,0.63436 -1.05756,1.19104 -1.42626,1.85776c-0.0194,0.03237 -0.02911,0.06473 -0.04851,0.0971c0.47542,1.33992 1.28072,4.2981 0.3978,7.14623c0.16494,-0.03884 0.32018,-0.08415 0.48512,-0.12299l0.15524,-0.03237c0.06792,-0.01295 0.15524,-0.00647 0.21345,0.02589c0.05821,0.02589 0.09702,0.07768 0.09702,0.12946c-0.0097,0.36249 -0.33958,8.93279 -7.1992,10.42806c-0.33958,0.07768 -0.69857,0.12946 -1.05756,0.1683c-1.5815,0.16183 -3.75484,-0.43369 -5.81175,-1.59237c-2.53233,-1.43054 -5.27812,-4.00681 -5.36544,-6.95851c0,-0.05178 0.02911,-0.0971 0.08732,-0.12946c0.0194,-0.00647 0.04851,-0.01942 0.06792,-0.01942c-0.69857,-1.01627 -1.33893,-2.45975 -0.815,-3.90971c-0.92173,-0.51784 -1.90168,-0.99037 -2.92043,-1.44349c-0.27167,-0.11651 0.0097,-0.38191 0.28137,-0.27187c0.84411,0.35602 1.67852,0.71851 2.46442,1.10689c-2.24126,-2.67336 -2.55174,-5.64449 -2.59055,-6.39536c-0.86352,-0.53079 -1.70763,-1.06805 -2.53233,-1.61826c-0.23286,-0.14888 0.15524,-0.36249 0.37839,-0.21361c0.7956,0.51137 1.62031,1.00332 2.44501,1.49527c0.10673,0.00647 0.20375,0.01942 0.30078,0.01942c-1.37774,-1.74772 -3.77424,-5.16548 -3.83246,-7.93594c-0.84411,-0.49195 -1.73673,-0.95154 -2.66817,-1.3917c-0.22316,-0.10357 0.0097,-0.32365 0.23286,-0.22656c0.85381,0.38838 1.66882,0.78971 2.44501,1.21693c0,-0.03237 0,-0.06473 0,-0.0971c0,-0.05178 0.03881,-0.0971 0.09702,-0.12299c0.05821,-0.02589 0.13583,-0.03884 0.20375,-0.02589c0,0 0.05821,0.01295 0.13583,0.02589c-0.76649,-0.99685 -1.54269,-2.58921 -0.96054,-4.56349c-0.8053,-0.46606 -1.65911,-0.89975 -2.55174,-1.30108c-0.24256,-0.11004 0.0097,-0.35602 0.26197,-0.25245c0.84411,0.35602 1.64941,0.73793 2.42561,1.1522c0.0097,-0.01942 0.0194,-0.03884 0.0194,-0.05826c0.02911,-0.07768 0.14554,-0.12946 0.26197,-0.12299c0.0097,0 0.04851,0.00647 0.10673,0.00647c-0.97995,-1.43701 -1.97929,-3.63785 -0.87322,-5.70274c-0.65006,-0.58905 -1.33893,-1.1522 -2.09572,-1.68946c-0.15524,-0.10357 0.09702,-0.2395 0.25226,-0.14241c0.73738,0.479 1.42626,0.9839 2.05691,1.52116c0.03881,-0.01295 0.06792,-0.03237 0.10673,-0.03237c-0.57244,-1.32697 -1.29042,-3.46955 -0.815,-5.14606c-0.73738,-0.56963 -1.50388,-1.11336 -2.34799,-1.61826c-0.24256,-0.14888 0.03881,-0.42722 0.29107,-0.28481c0.7859,0.44664 1.53298,0.92564 2.23156,1.43054c0,-0.01942 0.0194,-0.03884 0.0194,-0.05826c0.03881,-0.07768 0.15524,-0.12299 0.27167,-0.11004c0.02911,0.00647 0.10673,0.01295 0.23286,0.03237c-0.71798,-2.52448 -0.57244,-4.93245 0.43661,-6.90026c-0.4075,-0.83502 -0.82471,-1.67004 -1.24191,-2.49859c-0.08732,-0.1683 0.28137,-0.29776 0.3881,-0.12299c0.44631,0.75087 0.86352,1.50822 1.27102,2.27204c0.02911,0 0.04851,0.00647 0.07762,0.01942c0.31048,0.14888 6.32598,3.05527 8.77099,6.34357v0c0.04851,-0.03237 0.10673,-0.04531 0.17464,-0.04531c0.0194,0 0.04851,0.01295 0.06792,0.01295c0.0097,-0.75087 0.08732,-1.49527 0.27167,-2.22672c0.05821,-0.23303 0.57244,-0.20714 0.55304,0.03237c-0.08732,0.94506 -0.04851,1.87718 0,2.81577c1.16429,0.97743 3.43466,3.04233 4.64746,5.21727c0.16494,-0.75735 0.34929,-1.50822 0.52393,-2.25909c0.05821,-0.25892 0.66947,-0.22656 0.62096,0.03884c-0.17464,0.86739 -0.33958,1.72183 -0.47542,2.58274c0.76649,0.84149 3.12418,3.66374 3.1921,6.73196c0.05821,-0.02589 0.10673,-0.05178 0.16494,-0.0712c0.07762,-0.02589 0.16494,-0.02589 0.24256,0c0.18435,-0.59552 0.4172,-1.17809 0.70828,-1.72183c0.07762,-0.15535 0.42691,-0.0971 0.4075,0.05826c-0.07762,0.80913 -0.21345,1.60531 -0.35899,2.40797c1.00905,1.1522 2.74579,3.6249 2.36739,6.68665c0.09702,-0.02589 0.20375,-0.05826 0.30078,-0.08415c0.54334,-0.84149 1.27102,-1.61179 2.23156,-2.23967zM252.55768,189.02927c0.11643,-2.641 -1.00905,-6.45362 -1.28072,-7.33395c-6.63646,1.81892 -8.47992,6.78374 -8.94564,8.70623c1.6106,1.12631 2.56144,2.39502 3.11448,3.46307c1.49417,-1.76714 3.77424,-3.68316 7.12158,-4.82888zM252.86816,189.30113c-5.87967,1.98075 -8.412,6.4342 -9.1785,8.11071c1.43596,1.02274 2.56144,2.38208 2.90103,4.18158c1.02846,-1.41759 3.09507,-3.50191 6.8111,-4.56349c1.13518,-3.32714 -0.18435,-6.90026 -0.53363,-7.73528zM247.54153,207.0243c5.93788,-1.29461 6.75289,-8.51851 6.84991,-9.90374c-6.35509,1.46291 -8.17915,5.98108 -8.19855,6.0264c-0.0194,0.05826 -0.08732,0.10357 -0.18435,0.11651c-0.09702,0.01295 -0.18435,-0.01295 -0.24256,-0.05826c-3.48317,-2.88697 -8.53814,-3.85793 -9.80915,-4.06507c0.20375,2.75751 2.7846,5.16548 5.1811,6.51187c1.94049,1.09394 3.97799,1.66357 5.42366,1.52116c0.33958,-0.03884 0.66947,-0.08415 0.97995,-0.15535zM236.19939,198.84239c1.47477,0.25245 6.21926,1.22988 9.66362,3.92266c0.07762,-0.14888 0.18435,-0.34954 0.32988,-0.58257c-0.51423,-5.81279 -9.39195,-7.20449 -10.86672,-7.39221c-0.63066,1.49527 0.13583,3.03585 0.87322,4.05212zM232.51247,187.87059c0.03881,0.76382 0.36869,3.90971 2.84281,6.59602c0.84411,0.10357 4.92883,0.69909 7.95599,2.67336c0.33958,-0.69909 0.93143,-1.76714 1.85316,-2.92581c-1.07697,-2.33677 -4.11383,-5.89693 -12.65196,-6.35005zM228.83525,174.19954c-0.8053,2.2332 0.23286,3.98092 1.05756,4.93245c1.78525,0.38191 6.19015,1.48233 9.6151,3.52133c0.27167,-0.67967 0.65006,-1.54058 1.1934,-2.46623c-2.51293,-4.85478 -10.46892,-5.8581 -11.85636,-5.99403zM228.42775,168.17315c-1.1837,2.0649 -0.03881,4.35635 0.96054,5.761c1.47477,0.18124 5.02586,0.77676 7.97539,2.45328c0.25226,-0.86739 0.67917,-2.08432 1.32923,-3.39834c-2.54204,-3.43718 -9.05236,-4.62822 -10.26517,-4.82241zM229.0293,155.23355c-1.01875,1.95486 -1.15459,4.37577 -0.3978,6.9132c1.41655,0.22008 4.50193,0.80913 6.75289,1.96133c0.47542,-1.01627 1.14489,-1.96133 2.06662,-2.66042c-2.08602,-2.91287 -7.2089,-5.60565 -8.42171,-6.21411zM243.19484,167.35755c-1.36804,-2.62158 -4.48252,-5.20432 -5.23931,-5.80631c-2.72638,1.92896 -3.2018,6.17528 -3.27942,8.09129c1.6106,0.70556 3.17269,1.66357 4.22056,2.92581c0.96054,-1.83187 2.34799,-3.78673 4.30788,-5.21079zM243.53443,186.60835c1.26132,-1.88365 3.37644,-3.88382 6.89843,-5.01013c0.56274,-3.74141 -2.17334,-6.61544 -2.804,-7.22391c-4.66687,1.97428 -6.86932,6.36299 -7.70373,8.53146c1.5912,1.00979 2.92043,2.2332 3.5996,3.70258zM240.96328,179.74046c1.22251,-1.95486 3.10478,-4.11038 5.95729,-5.43735c0.04851,-3.15884 -2.51293,-6.11702 -3.1921,-6.842c-3.67722,2.56979 -5.34604,7.10739 -5.94759,9.17876c1.29042,0.78971 2.42561,1.80598 3.1921,3.10058zM235.23885,164.4641c-2.51293,-1.33345 -6.29687,-1.93544 -7.22831,-2.0649c-0.70828,1.68299 0.15524,4.1298 0.76649,5.50208c0.93143,0.16183 3.17269,0.61494 5.43336,1.54058c0.04851,-1.2234 0.26197,-3.18473 1.02846,-4.98424zM229.26216,179.33913c-0.10673,2.8093 2.57114,6.53777 3.93919,8.25312c4.0071,0.29776 6.7917,1.30108 8.71278,2.53096c0.20375,-0.75735 0.59185,-1.85129 1.30983,-3.03585c-1.91138,-5.13312 -12.09893,-7.37926 -13.96179,-7.74822z" fill="#914e21"/><path d="M229.0293,155.24002c1.2128,0.60847 6.33568,3.30125 8.42171,6.21411c-0.93143,0.69909 -1.5912,1.64415 -2.06662,2.66042c-2.25096,-1.1522 -5.33633,-1.74125 -6.75289,-1.96133c-0.74709,-2.53743 -0.62096,-4.95834 0.3978,-6.9132z" fill="#f9c942"/><path d="M228.01054,162.38625c0.93143,0.13593 4.72508,0.73145 7.22831,2.0649c-0.75679,1.80598 -0.97024,3.76731 -1.02846,4.98424c-2.26067,-0.92564 -4.50193,-1.37876 -5.43336,-1.54058c-0.61125,-1.37228 -1.47477,-3.81262 -0.76649,-5.50208z" fill="#f9c942"/><path d="M234.69552,169.64253c0.06792,-1.91602 0.55304,-6.16233 3.27942,-8.09129c0.75679,0.60199 3.87127,3.18473 5.23931,5.80631c-1.96959,1.42407 -3.34734,3.37892 -4.30788,5.21079c-1.04786,-1.26224 -2.60995,-2.22025 -4.22056,-2.92581z" fill="#f9c942"/><path d="M237.35398,176.38096c-2.94954,-1.67652 -6.50063,-2.26556 -7.97539,-2.45328c-0.99935,-1.39818 -2.15394,-3.6961 -0.96054,-5.761c1.2128,0.19419 7.72313,1.38523 10.26517,4.82241c-0.64036,1.31403 -1.06727,2.53096 -1.32923,3.39834z" fill="#f9c942"/><path d="M243.73818,167.46111c0.66947,0.71851 3.23091,3.68316 3.1921,6.842c-2.85251,1.32697 -4.74449,3.48249 -5.95729,5.43735c-0.76649,-1.29461 -1.90168,-2.3044 -3.1921,-3.10058c0.59185,-2.07137 2.26067,-6.60897 5.94759,-9.17876z" fill="#f9c942"/><path d="M239.51762,182.65333c-3.42496,-2.03901 -7.82986,-3.13942 -9.6151,-3.52133c-0.82471,-0.95154 -1.86287,-2.69278 -1.05756,-4.93245c1.38745,0.14241 9.34344,1.13925 11.85636,5.99403c-0.54334,0.92564 -0.93143,1.78656 -1.1934,2.46623z" fill="#f9c942"/><path d="M247.61915,174.38079c0.63066,0.60847 3.37644,3.48249 2.804,7.22391c-3.52198,1.12631 -5.63711,3.12648 -6.89843,5.01013c-0.67917,-1.46938 -2.0084,-2.69278 -3.5996,-3.70258c0.83441,-2.16847 3.03686,-6.56366 7.70373,-8.53146z" fill="#f9c942"/><path d="M243.22395,187.08736c-0.71798,1.18457 -1.10608,2.27851 -1.30983,3.03585c-1.92108,-1.22988 -4.70568,-2.2332 -8.71278,-2.53096c-1.36804,-1.71535 -4.04591,-5.44382 -3.93919,-8.25312c1.86287,0.36896 12.06012,2.62158 13.96179,7.74822z" fill="#f9c942"/><path d="M242.34103,190.40802c0.46572,-1.92249 2.30918,-6.88731 8.94564,-8.70623c0.27167,0.88033 1.38745,4.69295 1.28072,7.33395c-3.34734,1.14573 -5.62741,3.06175 -7.12158,4.82888c-0.56274,-1.06805 -1.50388,-2.33677 -3.11448,-3.46307z" fill="#f9c942"/><path d="M235.34558,194.46014c-2.47412,-2.67984 -2.804,-5.8322 -2.84281,-6.59602c8.53814,0.45311 11.57499,4.01328 12.65196,6.35005c-0.93143,1.15867 -1.51358,2.22672 -1.85316,2.92581c-3.02716,-1.9678 -7.11188,-2.56979 -7.95599,-2.67336z" fill="#f9c942"/><path d="M243.68967,197.3989c0.76649,-1.67652 3.29882,-6.12996 9.1785,-8.11071c0.34929,0.83502 1.66882,4.40814 0.53363,7.73528c-3.71603,1.06805 -5.78265,3.1459 -6.8111,4.56349c-0.33958,-1.7995 -1.47477,-3.15884 -2.90103,-4.18158z" fill="#f9c942"/><path d="M236.18969,198.84239c-0.73738,-1.01627 -1.50388,-2.55685 -0.87322,-4.05212c1.47477,0.19419 10.36219,1.57942 10.86672,7.39221c-0.14554,0.23303 -0.25226,0.43369 -0.32988,0.58257c-3.44436,-2.69278 -8.19855,-3.67668 -9.66362,-3.92266z" fill="#f9c942"/><path d="M246.18319,203.13401c0.0097,-0.05178 1.83376,-4.56996 8.19855,-6.0264c-0.09702,1.38523 -0.91203,8.61561 -6.84991,9.90374c-0.32018,0.0712 -0.65006,0.12299 -0.97995,0.15535c-1.44566,0.14241 -3.47347,-0.42075 -5.42366,-1.52116c-2.3965,-1.35286 -4.97734,-3.75436 -5.1811,-6.51187c1.27102,0.20714 6.32598,1.17809 9.80915,4.06507c0.05821,0.05178 0.15524,0.0712 0.24256,0.05826c0.09702,-0.01295 0.16494,-0.05826 0.18435,-0.11651z" fill="#f9c942"/><path d="M237.46071,161.45414c-0.93143,0.69909 -1.5912,1.64415 -2.06662,2.66042c-2.25096,-1.1522 -5.33633,-1.74125 -6.75289,-1.96133c-0.18435,-0.60847 -0.31048,-1.21046 -0.3881,-1.80598c0.46572,0.36896 1.04786,0.68614 1.65911,0.94506c0.83441,0.36249 1.77554,0.6473 2.76519,0.69909c0.99935,0.05178 2.05691,-0.1683 2.68757,-0.68614c0.48512,-0.39486 0.64036,-0.87386 0.70828,-1.38523c0.53363,0.49842 0.99935,1.00979 1.37774,1.53411z" fill="#fba919"/><path d="M243.21425,167.35107c-1.96959,1.42407 -3.34734,3.37892 -4.30788,5.21079c-1.04786,-1.26224 -2.60995,-2.22025 -4.22056,-2.92581c0.0097,-0.45959 0.05821,-1.0551 0.14554,-1.72183c0.57244,0.54373 1.67852,0.86739 2.69727,0.78324c1.45536,-0.12299 2.64876,-0.85444 3.46377,-1.67004c0.43661,-0.44017 0.7956,-0.9127 1.06727,-1.41112c0.43661,0.56315 0.83441,1.1522 1.14489,1.74125z" fill="#fba919"/><path d="M234.19099,169.42892c-2.26067,-0.92564 -4.50193,-1.37876 -5.43336,-1.54058c-0.07762,-0.17477 -0.15524,-0.37544 -0.24256,-0.58257c0.44631,0.00647 0.89262,-0.01295 1.32923,-0.06473c1.23221,-0.14888 2.42561,-0.5761 3.12418,-1.26871c0.65006,-0.63436 0.83441,-1.43054 0.72768,-2.20083c0.54334,0.20066 1.05756,0.42722 1.53298,0.67967c-0.75679,1.80598 -0.97024,3.76731 -1.02846,4.98424z" fill="#fba919"/><path d="M246.83325,173.2739c0.04851,0.3366 0.07762,0.67967 0.07762,1.02921c-2.85251,1.32697 -4.74449,3.48249 -5.95729,5.43735c-0.76649,-1.29461 -1.90168,-2.3044 -3.1921,-3.10058c0.15524,-0.53726 0.3881,-1.23635 0.69857,-2.02606c0.18435,0.3366 0.49482,0.60847 0.98965,0.73145c0.4075,0.0971 0.85381,0.06473 1.27102,0.01295c2.28977,-0.27187 4.43401,-1.01627 6.12223,-2.08432z" fill="#fba919"/><path d="M238.68321,172.98909c-0.64036,1.31403 -1.06727,2.53096 -1.32923,3.39834c-2.94954,-1.67652 -6.50063,-2.26556 -7.97539,-2.45328c-0.16494,-0.23303 -0.33958,-0.49842 -0.50453,-0.77676c0.86352,0.25892 1.74644,0.47253 2.67787,0.60847c1.87257,0.26539 4.15264,0.08415 5.15199,-0.99685c0.36869,-0.40133 0.47542,-0.88681 0.36869,-1.35286c0.62096,0.45959 1.17399,0.9839 1.6106,1.57295z" fill="#fba919"/><path d="M250.48136,180.44602c0.0097,0.37544 -0.0097,0.76382 -0.06792,1.15867c-3.52198,1.12631 -5.63711,3.12648 -6.89843,5.01013c-0.67917,-1.46938 -2.0084,-2.69278 -3.5996,-3.70258c0.20375,-0.54373 0.50453,-1.23635 0.90233,-1.98722c0.32018,0.64083 1.04786,1.19104 1.989,1.43701c1.09637,0.28481 2.32858,0.17477 3.44436,-0.0712c1.62031,-0.35602 3.08537,-1.00332 4.23996,-1.84481z" fill="#fba919"/><path d="M240.71102,180.1871c-0.54334,0.92564 -0.93143,1.78656 -1.1934,2.46623c-3.42496,-2.03901 -7.82986,-3.13942 -9.6151,-3.52133c-0.18435,-0.20714 -0.36869,-0.45311 -0.55304,-0.73793c0.94114,0.32365 1.90168,0.61494 2.92043,0.8156c1.40685,0.27834 2.93013,0.36896 4.32728,0.08415c0.65006,-0.12946 1.29042,-0.35602 1.68822,-0.71851c0.23286,-0.21361 0.37839,-0.47253 0.49482,-0.73145c0.7859,0.66025 1.44566,1.43701 1.92108,2.34971z" fill="#fba919"/><path d="M252.52858,187.81234c0.02911,0.42722 0.04851,0.84149 0.02911,1.22988c-3.34734,1.14573 -5.62741,3.06175 -7.12158,4.82888c-0.56274,-1.06805 -1.50388,-2.33677 -3.11448,-3.46307c0.14554,-0.56315 0.3978,-1.38523 0.85381,-2.31087c0.24256,0.58905 0.86352,1.11336 1.72703,1.32697c0.63066,0.15535 1.31953,0.16183 1.97929,0.11004c2.10543,-0.15535 4.0071,-0.82208 5.65651,-1.7283z" fill="#fba919"/><path d="M241.19614,184.34279c0.92173,0.80266 1.63971,1.71535 2.0181,2.74457c-0.71798,1.18457 -1.10608,2.27851 -1.30983,3.03585c-1.92108,-1.22988 -4.70568,-2.2332 -8.71278,-2.53096c-0.25226,-0.31718 -0.56274,-0.71203 -0.88292,-1.15867c0.99935,0.28481 2.04721,0.5049 3.11448,0.64083c0.97024,0.12299 2.0181,0.17477 2.92043,-0.0971c1.08667,-0.32365 1.75614,-1.04863 2.28007,-1.76067c0.20375,-0.28481 0.3978,-0.5761 0.58215,-0.87386z" fill="#fba919"/><path d="M253.79959,195.20454c-0.06792,0.60199 -0.19405,1.21693 -0.3978,1.81892c-3.71603,1.06805 -5.78265,3.1459 -6.8111,4.56349c-0.33958,-1.7995 -1.47477,-3.15884 -2.90103,-4.18158c0.25226,-0.55668 0.71798,-1.43701 1.42626,-2.42092c0.02911,0.17477 0.07762,0.34954 0.14554,0.51784c0.24256,0.61494 0.82471,1.18457 1.67852,1.45643c0.69857,0.22008 1.52328,0.22008 2.28007,0.11651c1.79495,-0.2395 3.27942,-0.97096 4.56984,-1.87071z" fill="#fba919"/><path d="M235.34558,194.46014c-0.32988,-0.35602 -0.62096,-0.72498 -0.87322,-1.08747c1.14489,0.26539 2.28007,0.56963 3.46377,0.73793c1.6106,0.22656 3.45406,0.14888 4.68627,-0.58257c0.59185,-0.35602 0.97995,-0.80913 1.22251,-1.31403c0.61125,0.69909 1.02846,1.3917 1.30983,2.00017c-0.93143,1.15867 -1.51358,2.22672 -1.85316,2.92581c-3.02716,-1.9678 -7.11188,-2.56979 -7.95599,-2.67336z" fill="#fba919"/><path d="M246.18319,202.18247c-0.14554,0.23303 -0.25226,0.43369 -0.32988,0.58257c-3.44436,-2.69278 -8.19855,-3.67668 -9.66362,-3.92266c-0.22316,-0.31718 -0.45601,-0.67967 -0.65006,-1.081c1.13518,0.49842 2.28977,0.9839 3.55109,1.3205c1.46507,0.38838 3.10478,0.56963 4.62806,0.30423c0.4075,-0.0712 0.8053,-0.18124 1.17399,-0.31718c0.69857,0.86091 1.1837,1.89013 1.29042,3.11353z" fill="#fba919"/><path d="M253.24656,201.86529c-0.94114,2.22025 -2.63906,4.48581 -5.71473,5.15254c-0.32018,0.0712 -0.65006,0.12299 -0.97995,0.15535c-1.44566,0.14241 -3.47347,-0.42075 -5.42366,-1.52116c-1.16429,-0.66025 -2.37709,-1.56647 -3.33763,-2.64747c0.87322,0.54373 1.78525,1.0551 2.74579,1.52116c0.75679,0.36249 1.53298,0.70556 2.3965,0.93859c2.04721,0.55021 4.48252,0.41427 6.36479,-0.35602c1.67852,-0.69261 2.85251,-1.8254 3.77424,-2.99702c0.06792,-0.08415 0.12613,-0.16183 0.18435,-0.24598z" fill="#fba919"/><path d="M232.2408,157.64799c0.21345,0.19419 -0.14554,0.42075 -0.43661,0.33012c-0.47542,-0.15535 -0.8053,-0.41427 -1.13518,-0.68614c-0.3881,-0.31718 -0.77619,-0.62141 -1.2031,-0.90622c-0.24256,-0.1683 0.02911,-0.479 0.35899,-0.34954c0.52393,0.20714 0.94114,0.5049 1.33893,0.80266c0.35899,0.27187 0.76649,0.51784 1.08667,0.80913z" fill="#fcf49a"/><path d="M233.24985,159.21447c-0.14554,-0.07768 -0.27167,-0.1683 -0.3978,-0.27187c-0.25226,-0.20714 0.34929,-0.44664 0.51423,-0.1683c0.04851,0.09062 0.11643,0.1683 0.20375,0.25245c0.14554,0.14241 -0.13583,0.29129 -0.32018,0.18772z" fill="#fcf49a"/><path d="M238.18839,162.69696c0.36869,0.29776 0.82471,0.47253 1.01875,0.86091c0.08732,0.18772 -0.30078,0.39486 -0.51423,0.22656c-0.36869,-0.27834 -0.7859,-0.51137 -1.04786,-0.84149c-0.19405,-0.24598 0.28137,-0.45311 0.54334,-0.2395z" fill="#fcf49a"/><g fill="#fcf49a"><path d="M228.83525,163.15655c-0.15524,-0.02589 0.19405,0.01942 0,0z"/><path d="M229.11662,163.29895c0.10673,0.11651 0.12613,0.25245 0.15524,0.38838c0.04851,0.27187 0.05821,0.51784 0.02911,0.78971c-0.0194,0.21361 -0.44631,0.36249 -0.64036,0.14241c-0.20375,-0.22656 -0.23286,-0.47253 -0.23286,-0.73793c0,-0.12299 -0.0097,-0.2395 -0.0097,-0.35602c0,-0.05826 0,-0.11651 0.0194,-0.1683c0.0097,-0.01295 0.02911,-0.02589 0.03881,-0.04531c0.03881,-0.10357 0.17464,-0.1683 0.33958,-0.14888c0.0194,0 0.02911,0 0.02911,0c0.0097,0 0.0194,0 0.03881,0c0.10673,0.01295 0.19405,0.06473 0.25226,0.12946z"/></g><path d="M229.8443,169.28004c0,0.24598 -0.11643,0.48548 -0.09702,0.73145c0.0194,0.25245 0.12613,0.49195 0.10673,0.7444c-0.0194,0.25892 -0.43661,0.3366 -0.67917,0.14888c-0.32988,-0.25892 -0.32988,-0.62141 -0.29107,-0.95154c0.03881,-0.27834 0.10673,-0.58905 0.4075,-0.80266c0.17464,-0.12946 0.55304,-0.06473 0.55304,0.12946z" fill="#fcf49a"/><path d="M245.28086,170.91124c0.05821,0.22656 -0.48512,0.34307 -0.64036,0.14241c-0.48512,-0.62788 -0.88292,-1.34639 -1.08667,-2.03901c-0.07762,-0.28481 0.47542,-0.42075 0.65006,-0.14241c0.3978,0.65378 0.90233,1.33992 1.07697,2.03901z" fill="#fcf49a"/><path d="M229.20394,175.02162c0.08732,-0.27834 0.64036,-0.21361 0.69857,0.03884c0.12613,0.51784 0.22316,1.081 0.12613,1.60531c-0.03881,0.21361 -0.53363,0.22008 -0.62096,0.01942c-0.23286,-0.52432 -0.37839,-1.13278 -0.20375,-1.67004z" fill="#fcf49a"/><path d="M230.99889,180.74378c0.04851,0.38838 0.12613,0.69909 0.34929,1.06805c0.18435,0.31718 0.44631,0.62788 0.45601,0.97743c0.0097,0.22656 -0.43661,0.33012 -0.63066,0.13593c-0.53363,-0.53079 -1.1934,-1.63768 -0.70828,-2.25909c0.13583,-0.1683 0.51423,-0.11004 0.53363,0.07768z" fill="#fcf49a"/><path d="M232.31842,183.63076c0.08732,0.18124 0.23286,0.37544 0.22316,0.56315c-0.0097,0.15535 -0.27167,0.21361 -0.4172,0.09062c-0.17464,-0.14241 -0.22316,-0.36249 -0.31048,-0.53726c-0.10673,-0.22008 0.3978,-0.33012 0.50453,-0.11004z" fill="#fcf49a"/><path d="M247.98784,175.8178c0.32988,0.479 0.70828,0.95801 0.7956,1.4888c0.04851,0.25245 -0.53363,0.38191 -0.72768,0.15535c-0.3881,-0.45311 -0.64036,-0.97743 -0.82471,-1.48233c-0.12613,-0.34307 0.55304,-0.48548 0.76649,-0.1683z" fill="#fcf49a"/><path d="M248.71552,178.47175c-0.04851,-0.2395 0.55304,-0.31718 0.63066,-0.07768c0.07762,0.20714 0.12613,0.40133 0.02911,0.60199c-0.07762,0.1683 -0.4172,0.19419 -0.51423,0.01942c-0.09702,-0.17477 -0.10673,-0.35602 -0.14554,-0.53726z" fill="#fcf49a"/><path d="M234.25891,189.32703c0.19405,0.24598 0.24256,0.53079 0.34929,0.79618c0.10673,0.27834 0.19405,0.55021 0.23286,0.83502c0.02911,0.25892 -0.48512,0.28481 -0.62096,0.07768c-0.31048,-0.45311 -0.67917,-1.13925 -0.46572,-1.63768c0.05821,-0.13593 0.3881,-0.22008 0.50453,-0.06473z" fill="#fcf49a"/><path d="M234.54998,192.22047c-0.23286,-0.31071 0.50453,-0.47253 0.58215,-0.12946c0.0194,0.0712 0.02911,0.13593 0.04851,0.20714c0.04851,0.1683 -0.36869,0.25892 -0.48512,0.10357c-0.04851,-0.06473 -0.09702,-0.12299 -0.14554,-0.18772z" fill="#fcf49a"/><path d="M250.16118,183.15175c-0.14554,-0.31071 0.55304,-0.45959 0.72768,-0.15535c0.34929,0.62141 0.44631,1.26224 0.32988,1.91602c-0.04851,0.26539 -0.61125,0.19419 -0.65976,-0.03884c-0.11643,-0.5761 -0.12613,-1.16515 -0.3881,-1.72183z" fill="#fcf49a"/><path d="M238.99369,197.25002c-0.88292,-0.4078 -1.55239,-0.97096 -2.46442,-1.35286c-0.32988,-0.14241 -0.08732,-0.45959 0.28137,-0.36249c1.05756,0.27187 1.95989,0.86739 2.66817,1.43701c0.25226,0.20066 -0.21345,0.4078 -0.48512,0.27834z" fill="#fcf49a"/><path d="M250.06416,192.3111c-0.20375,0.30423 -0.56274,0.56315 -0.77619,0.87386c-0.22316,0.32365 -0.3881,0.66025 -0.55304,0.99685c-0.13583,0.29129 -0.815,0.20714 -0.70828,-0.10357c0.22316,-0.67967 0.47542,-1.8254 1.5815,-2.12316c0.32988,-0.09062 0.57244,0.1683 0.45601,0.35602z" fill="#fcf49a"/><path d="M250.97619,190.95823c0.08732,0.00647 0.19405,0.06473 0.21345,0.12946c0.04851,0.16183 -0.04851,0.26539 -0.14554,0.4078c-0.22316,0.32365 -0.98965,0.06473 -0.73738,-0.25245c0.13583,-0.17477 0.33958,-0.32365 0.65976,-0.28481z" fill="#fcf49a"/><path d="M241.55513,202.02712c0.22316,0.16183 -0.02911,0.47253 -0.33958,0.3366c-0.59185,-0.25892 -1.1837,-0.52432 -1.75614,-0.8156c-0.49482,-0.24598 -1.02846,-0.51137 -1.31953,-0.88681c-0.13583,-0.1683 0.14554,-0.36249 0.3881,-0.22656c0.54334,0.31071 1.06727,0.61494 1.66882,0.88033c0.48512,0.21361 0.96054,0.42075 1.35834,0.70556z" fill="#fcf49a"/><path d="M251.52923,198.68703c0.32988,-0.09062 0.73738,0.20066 0.52393,0.4078c-0.3881,0.39486 -0.96054,0.6732 -1.39715,1.04863c-0.4172,0.36249 -0.73738,0.75087 -0.98965,1.17809c-0.13583,0.2395 -0.67917,0.09062 -0.61125,-0.14888c0.29107,-0.97096 1.02846,-2.08432 2.48382,-2.48565z" fill="#fcf49a"/><path d="M253.4212,198.27276c-0.06792,0.14241 -0.18435,0.25892 -0.4172,0.29129c-0.17464,0.02589 -0.34929,-0.01295 -0.4075,-0.13593c-0.04851,-0.10357 0.02911,-0.25245 0.20375,-0.27187c0.09702,-0.01295 0.17464,-0.01942 0.25226,-0.05178c0.16494,-0.07768 0.43661,0.03237 0.36869,0.1683z" fill="#fcf49a"/></g></g></g></svg>