<svg version="1.1" xmlns="http://www.w3.org/2000/svg" xmlns:xlink="http://www.w3.org/1999/xlink" width="27.29781" height="52.357" viewBox="0,0,27.29781,52.357"><g transform="translate(-225.35109,-159.90433)"><g data-paper-data="{&quot;isPaintingLayer&quot;:true}" fill="#ffffff" fill-rule="nonzero" stroke="#ffffff" stroke-width="1" stroke-linecap="butt" stroke-linejoin="miter" stroke-miterlimit="10" stroke-dasharray="" stroke-dashoffset="0" style="mix-blend-mode: normal"><path d="M250.76464,185.19294c0.2293,-0.15766 0.53503,0.10308 0.32272,0.2668c-0.82378,0.63063 -1.3843,1.35828 -1.80043,2.13444c0.26327,0.92169 1.18897,4.28707 1.12102,6.76109c0.01698,0.00606 0.03397,0.00606 0.05096,0.00606c0.03397,0.01212 0.05945,0.03032 0.08493,0.04851c0.3397,-0.49116 0.76434,-0.92775 1.28239,-1.24913c0.13588,-0.08489 0.39066,0.02426 0.30573,0.15159c-0.39066,0.59425 -0.92569,1.11573 -1.24841,1.7403c-0.01698,0.03032 -0.02548,0.06063 -0.04246,0.09096c0.41614,1.2552 1.12102,4.02633 0.34819,6.69438c0.14437,-0.03638 0.28026,-0.07883 0.42463,-0.11521l0.13588,-0.03032c0.05945,-0.01212 0.13588,-0.00606 0.18684,0.02426c0.05096,0.02426 0.08493,0.07277 0.08493,0.12128c-0.00849,0.33957 -0.29724,8.36797 -6.3015,9.7687c-0.29724,0.07277 -0.61147,0.12128 -0.92569,0.15766c-1.3843,0.15159 -3.28663,-0.40627 -5.08706,-1.49168c-2.21657,-1.34009 -4.61998,-3.75346 -4.6964,-6.51853c0,-0.04851 0.02548,-0.09096 0.07644,-0.12128c0.01698,-0.00606 0.04246,-0.01819 0.05945,-0.01819c-0.61147,-0.95201 -1.17198,-2.30423 -0.71338,-3.66251c-0.8068,-0.4851 -1.66455,-0.92775 -2.55627,-1.35222c-0.23779,-0.10915 0.00849,-0.35776 0.24628,-0.25468c0.73885,0.33351 1.46922,0.67307 2.15712,1.0369c-1.96179,-2.50433 -2.23355,-5.28759 -2.26752,-5.99099c-0.75584,-0.49722 -1.4947,-1.00052 -2.21657,-1.51594c-0.20382,-0.13946 0.13588,-0.33957 0.33121,-0.20011c0.69639,0.47904 1.41826,0.93988 2.14013,1.40073c0.09342,0.00606 0.17835,0.01819 0.26327,0.01819c-1.20595,-1.63721 -3.30362,-4.83888 -3.35457,-7.43416c-0.73885,-0.46085 -1.52017,-0.89137 -2.33546,-1.30371c-0.19533,-0.09702 0.00849,-0.30319 0.20382,-0.21223c0.74734,0.36382 1.46072,0.73978 2.14013,1.13998c0,-0.03032 0,-0.06063 0,-0.09096c0,-0.04851 0.03397,-0.09096 0.08493,-0.11521c0.05096,-0.02426 0.11889,-0.03638 0.17835,-0.02426c0,0 0.05096,0.01212 0.11889,0.02426c-0.67092,-0.93381 -1.35032,-2.4255 -0.84076,-4.27495c-0.70489,-0.43659 -1.45223,-0.84286 -2.23355,-1.21882c-0.21231,-0.10308 0.00849,-0.33351 0.2293,-0.23648c0.73885,0.33351 1.44374,0.69127 2.12315,1.07935c0.00849,-0.01819 0.01698,-0.03638 0.01698,-0.05457c0.02548,-0.07277 0.12739,-0.12128 0.2293,-0.11521c0.00849,0 0.04246,0.00606 0.09342,0.00606c-0.85775,-1.34616 -1.73249,-3.40783 -0.76434,-5.34216c-0.56901,-0.5518 -1.17198,-1.07935 -1.8344,-1.58264c-0.13588,-0.09702 0.08493,-0.22436 0.22081,-0.1334c0.64543,0.44872 1.24841,0.92169 1.80043,1.42498c0.03397,-0.01212 0.05945,-0.03032 0.09342,-0.03032c-0.50106,-1.24307 -1.12951,-3.25017 -0.71338,-4.82068c-0.64543,-0.53361 -1.31635,-1.04297 -2.05521,-1.51594c-0.21231,-0.13946 0.03397,-0.40021 0.25478,-0.2668c0.6879,0.4184 1.34183,0.86712 1.95329,1.34009c0,-0.01819 0.01698,-0.03638 0.01698,-0.05457c0.03397,-0.07277 0.13588,-0.11521 0.23779,-0.10308c0.02548,0.00606 0.09342,0.01212 0.20382,0.03032c-0.62845,-2.36486 -0.50106,-4.62058 0.38217,-6.46396c-0.35669,-0.78223 -0.72187,-1.56445 -1.08705,-2.34061c-0.07644,-0.15766 0.24628,-0.27893 0.3397,-0.11521c0.39066,0.70339 0.75584,1.41285 1.11253,2.12838c0.02548,0 0.04246,0.00606 0.06794,0.01819c0.27177,0.13946 5.53718,2.86209 7.67731,5.94248c0.04246,-0.03032 0.09342,-0.04245 0.15287,-0.04245c0.01698,0 0.04246,0.01212 0.05945,0.01212c0.00849,-0.70339 0.07644,-1.40073 0.23779,-2.08593c0.05096,-0.2183 0.50106,-0.19404 0.48408,0.03032c-0.07644,0.88531 -0.04246,1.75849 0,2.63773c1.01911,0.91563 3.00638,2.84996 4.06795,4.88739c0.14437,-0.70946 0.30573,-1.41285 0.4586,-2.11625c0.05096,-0.24255 0.58599,-0.21223 0.54352,0.03638c-0.15287,0.81255 -0.29724,1.61296 -0.41614,2.41943c0.67092,0.78829 2.73462,3.43208 2.79407,6.3063c0.05096,-0.02426 0.09342,-0.04851 0.14437,-0.0667c0.06794,-0.02426 0.14437,-0.02426 0.21231,0c0.16136,-0.55787 0.36518,-1.1036 0.61996,-1.61296c0.06794,-0.14553 0.37368,-0.09096 0.35669,0.05457c-0.06794,0.75797 -0.18684,1.50381 -0.31422,2.25572c0.88323,1.07935 2.40341,3.3957 2.07219,6.26385c0.08493,-0.02426 0.17835,-0.05457 0.26327,-0.07883c0.47559,-0.78829 1.11253,-1.50987 1.95329,-2.09806zM249.99181,194.45835c0.10191,-2.47401 -0.88323,-6.04556 -1.12102,-6.87023c-5.80893,1.70391 -7.42253,6.35481 -7.83017,8.15574c1.40977,1.05509 2.24204,2.24359 2.72612,3.24411c1.30786,-1.65541 3.30362,-3.45028 6.23357,-4.52356zM250.26357,194.71302c-5.14651,1.85551 -7.36308,6.02737 -8.03399,7.59788c1.2569,0.95807 2.24204,2.23146 2.53929,3.91719c0.90022,-1.32796 2.70914,-3.28049 5.9618,-4.27495c0.99364,-3.11677 -0.16136,-6.46396 -0.4671,-7.24619zM245.60114,211.31558c5.19746,-1.21275 5.91084,-7.9799 5.99577,-9.27754c-5.56265,1.3704 -7.15926,5.60291 -7.17624,5.64535c-0.01698,0.05457 -0.07644,0.09702 -0.16136,0.10915c-0.08493,0.01212 -0.16136,-0.01212 -0.21231,-0.05457c-3.04884,-2.70443 -7.47349,-3.614 -8.58602,-3.80804c0.17835,2.58316 2.43737,4.83888 4.53505,6.10013c1.69852,1.02477 3.48196,1.55839 4.74736,1.42498c0.29724,-0.03638 0.58599,-0.07883 0.85775,-0.14553zM235.67329,203.651c1.29088,0.23648 5.44376,1.15211 8.45863,3.67463c0.06794,-0.13946 0.16136,-0.32744 0.28875,-0.54574c-0.45011,-5.44525 -8.22083,-6.74895 -9.51171,-6.9248c-0.55202,1.40073 0.11889,2.8439 0.76434,3.79591zM232.44611,193.37294c0.03397,0.71552 0.32272,3.66251 2.48833,6.17896c0.73885,0.09702 4.31424,0.65489 6.96393,2.50433c0.29724,-0.65489 0.81529,-1.65541 1.62209,-2.74082c-0.94267,-2.18901 -3.60086,-5.52407 -11.07434,-5.94854zM229.22741,180.56629c-0.70489,2.092 0.20382,3.7292 0.92569,4.62058c1.56264,0.35776 5.41828,1.3886 8.41616,3.29868c0.23779,-0.6367 0.56901,-1.44317 1.04459,-2.31029c-2.19958,-4.54781 -9.16351,-5.48769 -10.37795,-5.61503zM228.87072,174.92094c-1.03609,1.93433 -0.03397,4.0809 0.84076,5.39674c1.29088,0.16979 4.39916,0.72765 6.98091,2.29816c0.22081,-0.81255 0.59448,-1.95253 1.16349,-3.18347c-2.22506,-3.21986 -7.92359,-4.33558 -8.98517,-4.51749zM229.39727,162.7995c-0.89172,1.83125 -1.01062,4.0991 -0.34819,6.47609c1.23992,0.20617 3.94057,0.75797 5.91084,1.83732c0.41614,-0.95201 1.00213,-1.83732 1.80892,-2.4922c-1.82591,-2.72868 -6.31,-5.25121 -7.37157,-5.8212zM241.79645,174.1569c-1.19746,-2.45582 -3.92358,-4.87526 -4.586,-5.43918c-2.38642,1.80699 -2.80256,5.78482 -2.87049,7.57969c1.40977,0.66095 2.77708,1.55839 3.69428,2.74082c0.84076,-1.71604 2.05521,-3.54729 3.77071,-4.88132zM242.09369,192.19051c1.10404,-1.76455 2.95542,-3.63825 6.03824,-4.69334c0.49257,-3.50485 -1.90234,-6.19716 -2.45436,-6.76715c-4.08493,1.84944 -6.01275,5.96067 -6.74312,7.99203c1.39279,0.94595 2.55627,2.092 3.15075,3.46846zM239.84316,185.75687c1.07007,-1.83125 2.71763,-3.85048 5.21445,-5.09355c0.04246,-2.95911 -2.19958,-5.73025 -2.79407,-6.40939c-3.2187,2.40731 -4.67942,6.658 -5.20596,8.5984c1.12951,0.73978 2.12315,1.69179 2.79407,2.90453zM234.83252,171.44641c-2.19958,-1.24913 -5.51169,-1.81306 -6.32698,-1.93433c-0.61996,1.57657 0.13588,3.86867 0.67092,5.15419c0.81529,0.15159 2.77708,0.57605 4.75585,1.44317c0.04246,-1.14605 0.2293,-2.98336 0.90022,-4.66909zM229.60109,185.38091c-0.09342,2.63167 2.25054,6.12439 3.44799,7.73129c3.50745,0.27893 5.94482,1.21882 7.62635,2.37092c0.17835,-0.70946 0.51805,-1.73424 1.1465,-2.8439c-1.67304,-4.80856 -10.59027,-6.91268 -12.22085,-7.25831z"/></g></g></svg>