<svg version="1.1" xmlns="http://www.w3.org/2000/svg" xmlns:xlink="http://www.w3.org/1999/xlink" width="111.99522" height="50.55129" viewBox="0,0,111.99522,50.55129"><g transform="translate(-184.00241,-154.72435)"><g data-paper-data="{&quot;isPaintingLayer&quot;:true}" fill-rule="nonzero" stroke="none" stroke-width="1" stroke-linecap="butt" stroke-linejoin="miter" stroke-miterlimit="10" stroke-dasharray="" stroke-dashoffset="0" style="mix-blend-mode: normal"><g><path d="M184.62505,189.11862c1.42006,-4.00564 6.80556,-4.88983 11.19971,-4.97021c2.39802,-8.92225 12.5126,-12.76713 17.76414,-6.95293c-1.36647,-3.95205 0.30812,-8.69452 3.91185,-11.01216c3.60374,-2.31764 8.7883,-1.99612 12.0571,0.73683c-0.62965,-5.82761 4.60849,-11.62841 10.69063,-11.82936c6.08214,-0.20095 11.72219,5.25154 11.49444,11.11933c4.11281,-2.03631 9.1366,-2.97409 13.3566,-1.13873c4.21999,1.83536 6.91274,7.0869 4.71566,11.01216c2.73295,-2.29085 7.00652,-2.67936 10.14137,-0.93778c3.13485,1.75497 4.90323,5.50608 4.21999,8.93565c3.25542,-3.42958 10.06099,-0.99136 11.2533,3.50996" fill="#a9daf0"/><path d="M295.84515,187.48421v0c0.13397,0.45549 -0.57607,0.65645 -0.71003,0.20095c-1.2593,-4.1664 -7.30125,-6.61801 -10.65044,-3.3492c-0.28133,0.26793 -0.66984,-0.0134 -0.61626,-0.36171c1.29949,-7.70315 -7.90411,-12.23126 -13.7451,-7.63616c-0.32152,0.25454 -0.77702,-0.05359 -0.57607,-0.4421c1.90235,-3.71091 -0.33492,-8.21223 -3.79129,-10.11457c-4.28697,-2.35783 -9.60549,-1.2593 -13.78529,0.75022c-0.24114,0.10717 -0.54927,-0.02679 -0.54927,-0.32152c0.06698,-5.841 -5.29173,-10.93178 -11.13273,-10.74422c-5.841,0.18755 -10.81121,5.64005 -10.32892,11.46764c0.02679,0.34832 -0.4153,0.4287 -0.62965,0.25454c-3.22862,-2.57218 -8.15864,-2.96069 -11.61501,-0.68324c-3.45637,2.27745 -4.98361,6.69839 -3.73771,10.61025c0.10717,0.36171 -0.37511,0.62965 -0.61626,0.36171c-2.57218,-2.71955 -6.30988,-3.28221 -9.72606,-1.90235c-3.7511,1.51383 -6.33668,4.87643 -7.43521,8.69452c-0.04019,0.16076 -0.18755,0.26793 -0.34832,0.26793c-3.81808,0.10717 -9.21698,0.57607 -10.8514,4.70227c-0.17416,0.4287 -0.88419,0.24114 -0.71003,-0.20095c1.23251,-3.12145 4.39414,-4.38075 7.5022,-4.88983c0.91098,-0.14736 1.83536,-0.24114 2.75974,-0.29473c1.16552,-0.06698 1.11193,-0.46889 1.51383,-1.47364c0.60286,-1.48704 1.44685,-2.86691 2.50519,-4.07262c3.91185,-4.42094 10.93178,-6.00176 15.29913,-1.35307l-0.61626,0.36171c-1.33968,-4.21999 0.25454,-8.96244 4.07262,-11.42745c3.81808,-2.465 9.00263,-1.98273 12.4992,0.79041l-0.62965,0.25454c-0.52248,-6.21611 4.82284,-12.01691 11.05235,-12.20447c6.2295,-0.18755 11.93653,5.23814 11.86955,11.48104l-0.54927,-0.32152c4.62189,-2.21047 10.75762,-3.41618 15.27233,-0.26793c3.3492,2.34444 5.26494,6.83236 3.29561,10.65044l-0.57607,-0.4421c2.98748,-2.34444 7.27445,-2.81333 10.58346,-0.99136c3.309,1.82196 5.0104,5.66684 4.39414,9.33756l-0.61626,-0.36171c3.7511,-3.65733 10.44949,-1.01816 11.86955,3.67072z" fill="#1e628c"/></g><g><path d="M295.42984,187.59138c1.19232,4.50132 -2.17028,9.27057 -6.59122,11.11933c-4.42094,1.84876 -9.53851,1.35307 -14.18719,0.14736c-5.96157,4.20659 -15.04459,3.61714 -20.36311,-1.32628c-5.37211,5.50608 -15.07138,6.39027 -21.42146,1.95593c-8.42658,8.11845 -24.36875,6.91274 -31.38867,-2.37123c-3.73771,0.88419 -7.72994,1.68799 -11.40066,0.53588c-3.67072,-1.15212 -6.69839,-4.997 -5.45249,-8.52035" fill="#a9daf0"/><path d="M184.26334,189.05164h-0.02679c0.13397,-0.4421 0.844,-0.25454 0.71003,0.20095c-1.08514,3.56355 1.76837,6.83236 4.97021,7.99788c3.67072,1.32628 7.78353,0.38851 11.44085,-0.46889c0.12057,-0.02679 0.28133,-0.0134 0.36171,0.09378c7.15388,9.21698 22.39942,10.34232 30.87959,2.37123c0.10717,-0.10717 0.30812,-0.14736 0.4421,-0.05359c6.36347,4.30037 15.50008,3.53676 20.97936,-1.88895c0.14736,-0.14736 0.37511,-0.13397 0.52248,0c2.96069,2.67936 6.87255,4.03243 10.8514,4.03243c1.99612,0 4.00564,-0.34832 5.8678,-1.05835c1.29949,-0.49569 2.65257,-1.91574 4.03243,-1.59421c4.62189,1.07174 9.83324,1.59421 14.21398,-0.66984c3.71091,-1.92914 6.55103,-6.02855 5.55966,-10.30213c-0.10717,-0.46889 0.60286,-0.65645 0.71003,-0.20095c0.91098,3.93865 -1.11193,7.77013 -4.26018,10.10118c-3.85827,2.85352 -8.97584,3.08126 -13.55755,2.34444c-1.35307,-0.21435 -2.65257,-0.8306 -3.91185,-0.25454c-0.87079,0.4019 -1.67459,0.91098 -2.58558,1.2593c-1.91574,0.72343 -3.99224,1.08514 -6.05535,1.08514c-4.1798,0 -8.26582,-1.44685 -11.37387,-4.24678h0.52248c-4.38075,4.32716 -11.05235,5.8544 -16.96033,4.26018c-1.28609,-0.34832 -2.55878,-0.8574 -3.72431,-1.51383c-0.92438,-0.53588 -0.8574,-0.64305 -1.67459,0.04019c-0.34832,0.29473 -0.71003,0.56267 -1.07174,0.8306c-2.0899,1.50044 -4.47452,2.54539 -6.95293,3.16164c-4.91662,1.23251 -10.26194,0.81721 -14.93741,-1.13873c-2.29085,-0.95117 -4.42094,-2.29085 -6.20271,-4.01903c-0.4287,-0.4019 -1.05835,-1.43345 -1.55402,-1.70139c-0.62965,-0.33492 -1.6344,0.16076 -2.29085,0.29473c-1.6344,0.32152 -3.29561,0.58946 -4.95681,0.58946c-2.97409,0.0134 -5.94817,-0.77702 -8.07826,-2.96069c-1.74158,-1.78177 -2.62577,-4.1798 -1.88895,-6.60461z" fill="#1e628c"/></g><path d="M295.24413,187.40403c1.18429,4.50132 -2.15567,9.27057 -6.54685,11.11933c-4.39118,1.84876 -9.47431,1.35307 -14.0917,0.14736c-5.92144,4.20659 -14.94333,3.61714 -20.22605,-1.32628c-5.33595,5.50608 -14.96993,6.39027 -21.27727,1.95593c-8.36986,8.11845 -24.20472,6.91274 -31.17739,-2.37123c-3.71255,0.88419 -7.67791,1.68799 -11.32392,0.53588c-3.64601,-1.15212 -6.6533,-4.997 -5.41579,-8.52035" fill="#a9daf0"/><path d="M184.8124,189.5201c1.42006,-4.00564 6.80556,-4.88983 11.19971,-4.97021c2.39802,-8.92225 12.5126,-12.76713 17.76414,-6.95293c-1.36647,-3.95205 0.30812,-8.69452 3.91185,-11.01216c3.60374,-2.31764 8.7883,-1.99612 12.0571,0.73683c-0.62965,-5.80081 4.5549,-11.57482 10.59686,-11.82936c-2.59898,1.96933 -4.84964,4.28697 -6.37687,7.14049c-1.70139,3.18843 -2.37123,6.71179 -2.4784,10.26194c-3.26881,-0.0134 -6.61801,0.54927 -9.28397,2.4918c-2.78653,2.02292 -4.1798,5.10418 -4.78265,8.3328c-3.42958,0.06698 -7.51559,0.56267 -10.24854,2.55878c-3.44298,2.51859 -1.11193,6.89934 2.14349,8.46677c4.71566,2.27745 10.77101,-0.24114 15.4331,-1.47364c1.05835,-0.28133 2.21047,-0.62965 3.3224,-0.68324c1.6612,-0.08038 3.21523,0.76362 4.75586,1.23251c2.9071,0.88419 5.62665,0.20095 8.09166,-1.40666c1.67459,-1.09854 2.94729,-1.94254 5.06399,-1.48704c1.51383,0.33492 2.94729,0.93778 4.51471,1.00476c3.68412,0.14736 6.30988,-2.27745 8.49356,-4.82284c4.30037,2.84012 9.88682,3.309 14.09341,0.20095c4.12621,7.22087 16.39767,3.92525 20.28273,-2.65257c1.07174,0.87079 1.90235,1.99612 2.25066,3.309" fill="#a9daf0"/></g></g></svg>