<svg version="1.1" xmlns="http://www.w3.org/2000/svg" xmlns:xlink="http://www.w3.org/1999/xlink" width="27.93426" height="35.00081" viewBox="0,0,27.93426,35.00081"><g transform="translate(-226.0337,-162.49416)"><g data-paper-data="{&quot;isPaintingLayer&quot;:true}" fill-rule="nonzero" stroke-linecap="butt" stroke-linejoin="miter" stroke-miterlimit="10" stroke-dasharray="" stroke-dashoffset="0" style="mix-blend-mode: normal"><path d="M252.9663,179.57584c0.00604,8.88604 -9.54038,16.59415 -12.69914,16.91913c-3.44463,0.35457 -13.22695,-8.01505 -13.23346,-16.9017c-0.00569,-8.88613 5.79452,-16.09413 12.95535,-16.09911c7.16079,-0.00496 12.97119,7.19562 12.97727,16.08169z" fill="none" stroke="#ffffff" stroke-width="2"/><path d="M236.28522,167.93777c0.73264,0.60221 -0.50594,1.53893 -1.75443,3.05783c-1.24849,1.5189 -2.03412,3.04481 -2.76676,2.44259c-0.73264,-0.60221 -0.31447,-2.32171 0.93402,-3.84061c1.24849,-1.5189 2.85453,-2.26202 3.58717,-1.6598z" fill="#ffffff" stroke="#4a4a4a" stroke-width="0"/><path d="M235.89599,171.94701c0.58486,-0.76211 1.35697,-1.15123 1.72457,-0.86912c0.3676,0.28211 -0.27175,0.8247 -0.8566,1.5868c-0.58486,0.76211 -0.89373,1.45514 -1.26133,1.17304c-0.3676,-0.28211 -0.19149,-1.1286 0.39335,-1.89071z" data-paper-data="{&quot;index&quot;:null}" fill="#ffffff" stroke="#4a4a4a" stroke-width="0"/></g></g></svg>