<svg version="1.1" xmlns="http://www.w3.org/2000/svg" xmlns:xlink="http://www.w3.org/1999/xlink" width="39.63821" height="49.30032" viewBox="0,0,39.63821,49.30032"><g transform="translate(-225.1809,-160.34984)"><g data-paper-data="{&quot;isPaintingLayer&quot;:true}" fill-rule="nonzero" stroke-linecap="butt" stroke-linejoin="miter" stroke-miterlimit="10" stroke-dasharray="" stroke-dashoffset="0" style="mix-blend-mode: normal"><path d="M243.12898,176.51222c0.43241,0.35542 -0.2986,0.90828 -1.03546,1.80473c-0.73686,0.89645 -1.20054,1.79704 -1.63294,1.44161c-0.43241,-0.35542 -0.1856,-1.37027 0.55126,-2.26673c0.73686,-0.89645 1.68474,-1.33504 2.11715,-0.97961z" fill="#ffffff" stroke="#4a4a4a" stroke-width="0"/><path d="M242.89926,178.87847c0.34518,-0.4498 0.80088,-0.67945 1.01784,-0.51296c0.21696,0.1665 -0.16039,0.48674 -0.50556,0.93653c-0.34518,0.4498 -0.52748,0.85882 -0.74443,0.69233c-0.21696,-0.1665 -0.11302,-0.6661 0.23216,-1.1159z" data-paper-data="{&quot;index&quot;:null}" fill="#ffffff" stroke="#4a4a4a" stroke-width="0"/><g><path d="M247.50229,204.78809c0,0 2.06082,2.74487 1.72392,3.47207c-0.33769,0.72552 -0.95978,-0.02699 -1.70609,-0.04807c-0.74552,-0.01941 -2.33212,0.79064 -2.81648,-0.07782c0,0 -1.92133,0.43778 -2.06762,-0.79024c-0.14629,-1.22802 0.02295,-1.58995 1.16862,-2.65887l3.69687,0.10127z" fill="#72c2d4" stroke="#643f26" stroke-width="2.78"/><g stroke="none" stroke-width="1"><path d="M254.81436,203.83038c-2.20051,1.03553 -4.60492,1.52473 -7.14755,1.45508c-10.69173,-0.29513 -20.58741,-10.55224 -22.05865,-22.86326c-1.08804,-9.10602 2.67049,-17.08903 9.57512,-20.33828c2.20051,-1.03553 4.60492,-1.52473 7.14755,-1.45508c5.17874,0.14235 10.32636,2.60055 14.49331,6.91734c4.16607,4.31925 6.85292,9.98098 7.56701,15.94514c1.08804,9.10602 -2.67049,17.08903 -9.57512,20.33828v0z" fill="#96d8e9"/><path d="M235.30543,162.34349c-6.58645,3.0995 -10.56002,10.86462 -9.45819,20.08688c1.45617,12.17903 11.20881,22.28866 21.78637,22.58025c2.56824,0.07191 4.94843,-0.4427 7.06018,-1.43647c6.58477,-3.09872 10.55835,-10.86383 9.45651,-20.08609c-1.4537,-12.17814 -11.20713,-22.28945 -21.78469,-22.58104c-2.56657,-0.0727 -4.94675,0.44191 -7.0585,1.43568M235.06517,161.82859v0c2.2273,-1.04814 4.66167,-1.54325 7.23572,-1.47203c5.24327,0.14471 10.45393,2.63257 14.67092,7.00353c4.21699,4.37096 6.93694,10.10303 7.65922,16.14108c1.10193,9.21813 -2.70369,17.30103 -9.69373,20.59046c-2.2273,1.04814 -4.66167,1.54325 -7.23572,1.47203c-10.8258,-0.2975 -20.84264,-10.68168 -22.3326,-23.1455c-1.10193,-9.21813 2.70369,-17.30103 9.69373,-20.59046v0z" fill="#643f26"/></g><path d="M230.06364,166.41391c-0.74473,3.73785 0.11122,8.47339 3.85675,11.19048c4.35186,3.15792 2.30433,6.32244 6.48547,11.08665c4.18114,4.76422 6.08543,1.14754 8.10113,0.22352c2.01403,-0.92323 4.68974,0.12905 6.60684,0.18214c1.91877,0.05231 1.84646,-4.10903 4.66245,-7.20971c1.09089,-1.2027 2.52056,-1.43774 3.86138,-1.27915c0.21928,0.94412 0.39512,1.90458 0.51018,2.87934c1.45617,12.17903 -5.93835,21.81582 -16.5159,21.52423c-10.57756,-0.29159 -20.3302,-10.40122 -21.78637,-22.58025c-0.76503,-6.39839 0.91633,-12.09273 4.2164,-16.01646v0z" fill="#7fc4d3" stroke="none" stroke-width="1"/><path d="M244.97217,162.88165c0,0 7.66572,1.92369 9.26039,6.37298c1.59389,4.4476 -1.79543,6.31259 -5.2944,5.47999c-3.49817,-0.83093 -9.2197,-2.37881 -9.07962,-8.05354c0.13919,-5.67228 5.11363,-3.79941 5.11363,-3.79941z" fill="#ffffff" stroke="none" stroke-width="1"/><path d="M256.51689,173.35685c0,0 3.41966,0.09467 3.83586,3.65234c0.23189,1.97935 -1.24053,3.83616 -3.19387,1.72392c-1.95256,-2.11056 -3.01114,-3.93408 -0.64199,-5.37626z" fill="#ffffff" stroke="none" stroke-width="1"/></g></g></g></svg>