<svg version="1.1" xmlns="http://www.w3.org/2000/svg" xmlns:xlink="http://www.w3.org/1999/xlink" width="49.8" height="51.54" viewBox="0,0,49.8,51.54"><g transform="translate(-215.887,-200.7796)"><g data-paper-data="{&quot;isPaintingLayer&quot;:true}" stroke-linejoin="miter" stroke-miterlimit="10" stroke-dasharray="" stroke-dashoffset="0" style="mix-blend-mode: normal"><path d="" fill="none" fill-rule="nonzero" stroke="#e6ac55" stroke-width="2" stroke-linecap="round"/><g stroke="none" stroke-width="1" stroke-linecap="butt"><path d="M241.957,203.6096c7.44,0 11.67,5.87 15.98,11.2c3.29,4.07 7.67,6.81 7.67,12.45c0,8.54 -3.6,15.04 -10.41,19.19c-3.53,2.19 -7.28,5.87 -11.83,5.87c-8.38,0 -18.87,-4.15 -23.1,-10.73c-2.27,-3.68 -3.68,-9.71 -3.68,-14.33c0,-8.22 4.07,-15.82 10.42,-20.05c3.76,-2.5 10.1,-3.6 14.96,-3.6v0zM241.797,204.7796c6.89,0 10.81,5.4 14.88,10.34c3.05,3.84 7.12,6.42 7.12,11.67c0,7.91 -3.37,14.02 -9.63,17.85c-3.37,2.04 -6.89,5.48 -11.04,5.48c-7.83,0 -17.62,-3.84 -21.53,-10.02c-2.19,-3.37 -3.45,-9 -3.45,-13.31c0,-7.67 3.76,-14.72 9.71,-18.72c3.52,-2.27 9.4,-3.29 13.94,-3.29z" fill="#5c3d2f" fill-rule="evenodd"/><path d="M241.567,201.9696c6.97,0 10.96,5.48 15.11,10.57c3.05,3.84 7.21,6.42 7.21,11.82c0,8.07 -3.37,14.17 -9.79,18.17c-3.37,2.04 -6.97,5.48 -11.2,5.48c-7.99,0 -17.93,-3.84 -21.92,-10.1c-2.19,-3.44 -3.52,-9.16 -3.52,-13.55c0,-7.83 3.91,-15.03 9.94,-19.03c3.52,-2.35 9.55,-3.37 14.17,-3.37v0z" fill="#c68e5c" fill-rule="evenodd"/><path d="M255.747,220.8396c0.63,-0.39 1.33,-0.63 1.8,-1.02c0.47,-0.39 0.79,-0.78 1.1,-1.25c0.16,-0.31 0.47,-0.55 0.7,-0.86c0.31,-0.47 1.02,0.08 1.41,-0.94c0.32,0.23 0.71,0.55 1.02,0.78c-0.7,-0.08 -1.41,0.08 -2.04,0.39c-0.08,0.08 -0.47,0.78 -0.94,1.25c-1.41,1.17 -0.94,0.94 -3.05,1.64v0z" fill="#9f7752" fill-rule="evenodd"/><path d="M255.747,220.8396c0.63,-0.39 1.17,-0.71 1.72,-1.18c0.39,-0.39 0.79,-0.78 1.1,-1.17c0.16,-0.39 0.47,-0.63 0.7,-0.86c0.31,-0.55 1.02,0 1.41,-0.94c0.32,0.23 0.63,0.47 1.02,0.7c-0.78,-0.08 -1.41,0.08 -2.04,0.47c-0.08,0 -0.47,0.63 -1.02,1.02c-1.33,1.25 -0.79,1.25 -2.9,1.96v0z" fill="#693216" fill-rule="evenodd"/><path d="M221.757,222.1596v0c-1.1,1.87 -0.86,1.48 -2.35,2.5c-0.47,0.4 -1.25,0.63 -1.33,0.63c-0.47,0.55 -0.78,1.18 -0.94,1.96c-0.16,-0.39 -0.31,-0.78 -0.47,-1.17c1.01,-0.15 0.7,-0.94 1.25,-1.17c0.32,-0.16 0.63,-0.39 1.02,-0.47c0.47,-0.23 0.94,-0.47 1.41,-0.78c0.55,-0.39 0.94,-1.02 1.41,-1.49z" fill="#9f7752" fill-rule="evenodd"/><path d="M221.837,222.1496v0c-1.17,1.8 -1.17,1.25 -2.58,2.35c-0.55,0.4 -1.25,0.63 -1.33,0.71c-0.47,0.55 -0.7,1.17 -0.86,1.88c-0.16,-0.39 -0.31,-0.78 -0.47,-1.17c1.01,-0.15 0.62,-0.93 1.25,-1.17c0.31,-0.08 0.63,-0.39 0.94,-0.39c0.47,-0.23 1.02,-0.47 1.41,-0.78c0.62,-0.47 1.09,-0.94 1.64,-1.41z" fill="#693216" fill-rule="evenodd"/><path d="M229.357,239.2396l0.31,5.87l-2.74,-1.49z" fill="#9f7752" fill-rule="evenodd"/><path d="M229.357,239.1596l-0.71,5.4l-2.74,-1.56z" fill="#693216" fill-rule="evenodd"/><path d="M237.337,203.9996l-1.17,-2.03l2.27,-0.4l-0.39,4.47z" fill="#9f7752" fill-rule="evenodd"/><path d="M236.867,203.9996l-1.17,-2.03l2.27,-0.32l0.08,4.39z" fill="#693216" fill-rule="evenodd"/><path d="M252.687,236.1196v0c1.64,1.33 1.33,1.01 2.19,2.58c0.31,0.55 0.47,1.41 0.47,1.49c0.47,0.47 1.1,0.87 1.8,1.1c-0.39,0.08 -0.78,0.23 -1.17,0.31c-0.08,-1.02 -0.86,-0.78 -1.02,-1.33c-0.16,-0.32 -0.31,-0.71 -0.39,-1.1c-0.16,-0.47 -0.32,-1.02 -0.55,-1.49c-0.39,-0.55 -0.94,-1.02 -1.33,-1.57z" fill="#9f7752" fill-rule="evenodd"/><path d="M252.687,236.0296c1.64,1.41 1.17,1.26 2.03,2.9c0.31,0.55 0.47,1.25 0.55,1.33c0.47,0.55 1.02,0.87 1.72,1.1c-0.39,0.16 -0.78,0.23 -1.17,0.39c-0.08,-1.1 -0.86,-0.78 -1.02,-1.41c-0.08,-0.31 -0.31,-0.71 -0.31,-1.02c-0.24,-0.55 -0.4,-1.1 -0.63,-1.49c-0.31,-0.63 -0.78,-1.17 -1.17,-1.8z" fill="#693216" fill-rule="evenodd"/><path d="M241.727,200.7896c7.52,0 11.82,5.95 16.21,11.36c3.37,4.15 7.75,6.97 7.75,12.68c0,8.69 -3.6,15.27 -10.49,19.5c-3.6,2.19 -7.44,5.95 -12.06,5.95c-8.53,0 -19.18,-4.15 -23.49,-10.89c-2.35,-3.68 -3.76,-9.87 -3.76,-14.57c0,-8.38 4.15,-16.05 10.65,-20.36c3.84,-2.58 10.26,-3.68 15.19,-3.68v0zM241.567,201.9596c6.97,0 10.96,5.48 15.11,10.57c3.05,3.84 7.21,6.42 7.21,11.82c0,8.07 -3.37,14.17 -9.79,18.17c-3.37,2.04 -6.97,5.48 -11.2,5.48c-7.99,0 -17.93,-3.84 -21.92,-10.1c-2.19,-3.44 -3.52,-9.16 -3.52,-13.55c0,-7.83 3.91,-15.03 9.94,-19.03c3.52,-2.35 9.55,-3.37 14.17,-3.37v0z" fill="#844428" fill-rule="evenodd"/><path d="M248.067,224.7496l-14.48,10.81l-0.32,-21.07z" fill="#ffffff" fill-rule="evenodd"/><path d="M248.377,225.0696l-14.57,10.81l-0.62,0.47v-0.78l-0.31,-21.07v-0.86l0.63,0.47l14.8,10.34l0.47,0.31l-0.39,0.31zM233.967,234.6996l13.39,-9.95l-13.71,-9.47l0.31,19.42z" fill="#5c3d2f" fill-rule="nonzero"/></g></g></g></svg>