<svg version="1.1" xmlns="http://www.w3.org/2000/svg" xmlns:xlink="http://www.w3.org/1999/xlink" width="361.92853" height="121.6" viewBox="0,0,361.92853,121.6"><g transform="translate(60.4,-91.4)"><g data-paper-data="{&quot;isPaintingLayer&quot;:true}" fill-rule="nonzero" stroke-linejoin="miter" stroke-miterlimit="10" stroke-dasharray="" stroke-dashoffset="0" style="mix-blend-mode: normal"><path d="M237.52853,180c0,-17.12083 13.87917,-31 31,-31c17.12083,0 31,13.87917 31,31c0,17.12083 -13.87917,31 -31,31c-17.12083,0 -31,-13.87917 -31,-31z" fill="#b17f00" stroke="#4a4a4a" stroke-width="4" stroke-linecap="butt"/><path d="M-60.4,91.4z" fill="#cccccc" stroke="#404040" stroke-width="4" stroke-linecap="butt"/><path d="M286.62927,178.9948c0.00862,12.6789 -13.61252,23.67708 -18.11955,24.14077c-4.91492,0.50591 -18.87266,-11.43614 -18.88195,-24.11591c-0.00812,-12.67903 8.26781,-22.96364 18.48511,-22.97074c10.21726,-0.00708 18.50773,10.26694 18.5164,22.94589z" fill="#339dff" stroke="#4a4a4a" stroke-width="3" stroke-linecap="butt"/><path d="M284.47528,179.70212c0.00751,11.21984 -12.14596,20.38094 -16.07283,20.79127c0.07131,-0.01791 13.73086,-13.18735 9.98283,-29.24037c-2.22053,-9.51066 -10.43613,-12.95753 -10.32859,-12.99907c9.75918,0.1366 16.41103,9.2283 16.41859,20.44818z" fill="#33baff" stroke="#4a4a4a" stroke-width="0" stroke-linecap="butt"/><path d="M263.46457,164.49861c1.33962,1.10112 -0.92509,2.81389 -3.20792,5.59115c-2.28283,2.77726 -3.71932,5.56732 -5.05893,4.46619c-1.33962,-1.10112 -0.575,-4.24517 1.70783,-7.02243c2.28283,-2.77726 5.21941,-4.13603 6.55902,-3.03489z" fill="#ffffff" stroke="#4a4a4a" stroke-width="0" stroke-linecap="butt"/><path d="M262.75289,171.82936c1.06939,-1.3935 2.48117,-2.10498 3.15332,-1.58916c0.67215,0.51582 -0.49689,1.50793 -1.56626,2.90141c-1.06939,1.3935 -1.63415,2.66068 -2.3063,2.14486c-0.67215,-0.51582 -0.35014,-2.06361 0.71923,-3.45711z" data-paper-data="{&quot;index&quot;:null}" fill="#ffffff" stroke="#4a4a4a" stroke-width="0" stroke-linecap="butt"/><path d="M268.04852,209.28001v-5.05714" fill="none" stroke="#4a4a4a" stroke-width="3" stroke-linecap="round"/></g></g></svg>