<svg version="1.1" xmlns="http://www.w3.org/2000/svg" xmlns:xlink="http://www.w3.org/1999/xlink" width="51.54268" height="22.01375" viewBox="0,0,51.54268,22.01375"><g transform="translate(-216.95601,-166.74817)"><g data-paper-data="{&quot;isPaintingLayer&quot;:true}" fill="#f6c932" fill-rule="nonzero" stroke="#231f20" stroke-width="0.28" stroke-linecap="butt" stroke-linejoin="miter" stroke-miterlimit="10" stroke-dasharray="" stroke-dashoffset="0" style="mix-blend-mode: normal"><path d="M238.953,187.16483c-7.04045,-1.12595 -14.04814,-2.46101 -21.02262,-3.95879c8.36877,-0.63859 16.73697,-1.33519 25.08049,-2.18233c0.4519,-0.05081 0.84092,-0.59981 0.70903,-1.03931c-0.74326,-2.46348 -2.11693,-5.33839 -2.38579,-7.9225c-0.47405,-4.58886 -0.20138,-3.98834 4.48548,-3.92976c5.19732,0.06519 10.3088,-0.34437 15.42723,-1.22958c1.82806,3.07926 4.23322,5.86289 7.0515,8.19008l-0.19502,0.2223c-0.15158,-0.07972 -0.32624,-0.14761 -0.55809,-0.13374c-6.05165,0.34915 -12.09181,0.6866 -18.14346,1.03574c-0.49852,0.02807 -0.79441,0.61095 -0.72062,1.03942c0.30708,1.74856 2.68529,8.89395 1.80557,10.27131c-1.56475,2.49764 -9.32631,-0.01323 -11.53368,-0.36284z"/></g></g></svg>