<svg version="1.1" xmlns="http://www.w3.org/2000/svg" xmlns:xlink="http://www.w3.org/1999/xlink" width="134.81506" height="45.94711" viewBox="0,0,134.81506,45.94711"><g transform="translate(-172.59247,-157.02644)"><g data-paper-data="{&quot;isPaintingLayer&quot;:true}" fill-rule="nonzero" stroke="none" stroke-width="1" stroke-linecap="butt" stroke-linejoin="miter" stroke-miterlimit="10" stroke-dasharray="" stroke-dashoffset="0" style="mix-blend-mode: normal"><g><path d="M226.89344,173.67078l0.70909,-4.07727c2.09504,-2.44958 6.22066,-3.01363 8.9442,-1.2248c-0.14504,-3.27148 2.07893,-6.31734 4.99586,-8.04173c2.90082,-1.72438 6.39793,-2.33677 9.81445,-2.59462c4.77025,-0.37067 9.58882,-0.12893 14.29461,0.69297c4.06115,0.70909 8.25122,1.99834 11.00701,4.9314c2.73967,2.93306 3.41652,7.9128 0.45124,10.66858c11.45824,-10.15288 23.09377,4.17396 18.14626,7.94503c2.77189,-2.09504 7.02644,-2.8847 9.83057,-0.8219c2.80413,2.06281 2.369,7.25206 -1.07975,8.04172c-1.17645,0.27396 -2.49793,0.04835 -3.4971,0.66074c-0.61239,0.37067 -0.98306,0.99918 -1.36983,1.59545c-6.9942,10.71693 -24.15741,13.77891 -34.76152,6.20454c-7.0909,3.38429 -16.05122,2.93306 -22.70699,-1.17645c-5.33429,4.70578 -14.42353,4.89917 -19.98344,0.4029c-4.31901,3.69049 -11.58718,3.67437 -15.90618,-0.03224c-3.83553,5.41487 -11.89336,6.44627 -18.62972,5.22148c-4.75412,-0.85413 -10.33015,-4.19008 -9.13759,-8.65412c-4.25454,-0.45124 -6.31734,-6.09172 -3.98057,-9.50825c2.33678,-3.41652 7.47768,-4.35123 11.52271,-2.96528c-0.24173,-4.60908 -0.41901,-9.47602 1.88554,-13.52106c2.90082,-5.09256 9.05701,-7.67107 14.98758,-8.92808c5.80164,-1.2248 12.15122,-1.45041 17.42105,1.14421c5.26983,2.59462 8.9442,8.68635 7.02644,14.03675z" fill="#a9daf0"/><path d="M227.31245,173.81582c-0.17728,0.54794 -1.04752,0.3062 -0.87024,-0.24173c1.65991,-5.10868 -1.4343,-10.36238 -5.81776,-12.98924c-5.06032,-3.02975 -11.45825,-2.88471 -17.0665,-1.83719c-4.89917,0.91859 -10.12064,2.61074 -13.69833,6.25289c-4.20619,4.30288 -4.14173,10.33015 -3.85165,15.95452c0.01611,0.29007 -0.29007,0.51569 -0.56405,0.43512c-3.78719,-1.19256 -9.07313,-0.67686 -11.24874,3.14256c-1.86942,3.30371 0.20951,7.89668 3.96445,8.46073c0.25786,0.03224 0.37067,0.33843 0.32231,0.54794c-1.32148,6.20454 7.96114,8.28345 12.3446,8.50908c5.31817,0.27396 11.24874,-0.91859 14.60081,-5.41487c0.19339,-0.25786 0.46736,-0.29007 0.70909,-0.09669c4.33511,3.52934 10.94255,3.52934 15.27766,0.03224c0.22562,-0.17728 0.43512,-0.16116 0.64463,0c5.55992,4.31901 13.98841,4.14172 19.35493,-0.4029c0.16116,-0.12893 0.37067,-0.17728 0.54794,-0.06446c3.44876,2.04669 7.30041,3.19091 11.29709,3.35207c1.88554,0.06446 3.77107,-0.08058 5.62437,-0.43512c0.83801,-0.16116 1.65992,-0.37066 2.48182,-0.62852c0.8219,-0.25786 2.11115,-1.16033 2.85247,-1.11198c0.74132,0.04835 1.28926,0.58017 1.96612,0.98306c1.14421,0.67686 2.35289,1.24091 3.5938,1.69215c2.4657,0.90248 5.07644,1.36983 7.70329,1.45041c5.2537,0.14504 10.588,-1.20867 15.03593,-4.04504c2.27231,-1.45041 4.30288,-3.30372 5.8661,-5.49544c0.59628,-0.82191 1.06363,-1.83719 1.96611,-2.38512c1.09586,-0.67686 2.40124,-0.4029 3.5938,-0.70909c2.96529,-0.77356 3.31983,-4.88305 1.36983,-6.86528c-2.62686,-2.65909 -7.12313,-1.41819 -9.7661,0.46735c-0.41901,0.29007 -0.93471,-0.38677 -0.54794,-0.70909c3.06198,-2.54628 -0.95082,-7.17148 -3.15868,-8.71858c-4.68966,-3.28759 -10.1851,-2.14339 -14.35907,1.41819c-0.45124,0.37067 -1.06363,-0.22562 -0.64463,-0.64463c3.70661,-3.78719 1.07975,-9.44379 -2.6752,-11.87725c-3.75495,-2.43346 -8.60577,-3.14256 -12.97312,-3.56156c-4.85082,-0.46735 -10.21734,-0.45124 -14.79419,0.64462c-4.57685,1.09587 -9.39544,4.22231 -9.39544,9.44379c0,0.33843 -0.38677,0.56405 -0.67686,0.38678c-2.14339,-1.25702 -6.92974,-1.61157 -8.3157,1.1281c-0.53182,1.04753 -0.46735,2.75578 -0.67686,3.9161c-0.09669,0.56405 -0.96694,0.32231 -0.87025,-0.24173c0.3062,-1.75661 0.17728,-3.88387 1.64381,-5.06032c2.4657,-1.98222 5.99503,-2.09504 8.67023,-0.51569l-0.67686,0.38677c0,-4.9314 4.02892,-8.38015 8.41238,-9.84668c5.89834,-1.96612 12.8442,-1.69215 18.91981,-0.88636c4.89916,0.64463 10.62024,1.80495 13.94007,5.81776c2.59462,3.12644 3.06198,7.88057 0.09669,10.8942l-0.64463,-0.64463c4.67355,-3.98057 10.91032,-5.09256 15.98675,-1.16032c2.49793,1.91777 6.18842,6.92974 2.80413,9.73387l-0.54794,-0.70909c3.02975,-2.1595 8.13842,-3.30371 11.00701,-0.17728c1.82107,1.99834 1.8533,5.68884 -0.33843,7.44545c-0.64463,0.53182 -1.36984,0.74132 -2.17561,0.87025c-1.74049,0.27396 -2.93306,0.41901 -4.0128,1.94999c-0.90248,1.27314 -1.82107,2.48182 -2.94918,3.57769c-2.5624,2.48182 -5.72106,4.30288 -9.07312,5.47933c-6.81693,2.38512 -14.76196,2.15951 -21.176,-1.32148c-1.17645,-0.62852 -1.56322,-1.20868 -2.88471,-0.83802c-0.83801,0.22562 -1.65992,0.62852 -2.51405,0.87024c-2.09504,0.58017 -4.27066,0.88636 -6.44627,0.9186c-2.40123,0.03224 -4.80246,-0.27397 -7.10701,-0.9186c-1.0314,-0.29007 -2.03057,-0.64463 -3.01363,-1.06363c-0.59628,-0.24173 -1.74049,-1.11198 -2.38512,-1.17645c-0.80578,-0.08057 -1.8533,1.01529 -2.5624,1.40206c-0.75743,0.40289 -1.54711,0.75743 -2.369,1.04752c-1.61157,0.56405 -3.31983,0.87025 -5.02809,0.9347c-3.85165,0.14504 -7.62272,-0.99918 -10.66858,-3.36818h0.64463c-4.75412,3.83553 -11.8128,3.81941 -16.5508,-0.03224l0.70909,-0.09669c-3.91611,5.2537 -10.92644,6.41404 -17.08262,5.72106c-4.73801,-0.53182 -12.8442,-3.2876 -11.50659,-9.50825l0.32231,0.54794c-4.15784,-0.62852 -6.43016,-5.51157 -4.75413,-9.26651c2.06281,-4.60908 8.219,-5.43098 12.52188,-4.07727l-0.56405,0.43512c-0.29007,-5.99503 -0.25786,-12.29626 4.33511,-16.79254c4.15784,-4.09338 10.10453,-5.81776 15.9223,-6.62355c5.81776,-0.80578 12.40907,-0.45124 17.21155,3.30371c3.88387,3.04586 6.31734,8.09007 4.73801,12.97313z" fill="#1e628c"/></g><path d="M298.22143,188.56167c2.03057,-1.32148 5.43099,-4.75412 8.4285,-5.15702c0.75743,2.33678 -0.16116,5.22148 -2.65908,5.78553c-1.17645,0.27396 -2.49793,0.04835 -3.4971,0.66074c-0.61239,0.37067 -0.98306,0.99918 -1.36984,1.59545c-6.9942,10.71693 -24.1574,13.77891 -34.76151,6.20454c-7.0909,3.38429 -16.05122,2.93306 -22.70698,-1.17645c-5.33429,4.70578 -14.42353,4.89917 -19.98345,0.4029c-4.31901,3.69049 -11.58718,3.67437 -15.90618,-0.03224c-3.83553,5.41487 -11.89336,6.44627 -18.62972,5.22148c-4.75412,-0.85413 -10.33015,-4.19008 -9.13759,-8.65412c-4.25454,-0.45124 -6.31733,-6.09172 -3.98057,-9.50825c0.16116,-0.24173 0.33843,-0.46735 0.53182,-0.67686c1.72438,16.21237 25.17269,10.00783 34.63259,2.72355c0.95083,2.70744 2.96529,4.65743 6.23677,4.96363c3.75495,0.35455 7.47767,-1.0314 11.07147,-1.8533c1.70826,-0.38678 3.52934,-0.74132 5.2376,-0.16116c1.98222,0.67686 3.54545,2.11116 5.57603,2.70744c4.57685,1.3376 9.04089,-1.4343 11.97395,-4.7219c1.83719,3.0942 4.85082,4.9314 8.92809,4.43181c3.78719,-0.48347 7.31652,-2.40123 10.26569,-4.68966c3.23925,5.76941 13.31155,5.89834 18.37187,1.95c3.40041,3.14256 7.50991,2.53016 11.40991,-0.01612z" fill="#a9daf0"/></g></g></svg>