<svg version="1.1" xmlns="http://www.w3.org/2000/svg" xmlns:xlink="http://www.w3.org/1999/xlink" width="63" height="63"><g transform="translate(-208.5,-148.5)"><g data-paper-data="{&quot;isPaintingLayer&quot;:true}" fill-rule="nonzero" stroke-linecap="butt" stroke-linejoin="miter" stroke-miterlimit="10" stroke-dasharray="" stroke-dashoffset="0" style="mix-blend-mode: normal"><path d="M210.5,180c0,-16.2924 13.2076,-29.5 29.5,-29.5c16.2924,0 29.5,13.2076 29.5,29.5c0,16.2924 -13.2076,29.5 -29.5,29.5c-16.2924,0 -29.5,-13.2076 -29.5,-29.5z" data-paper-data="{&quot;origPos&quot;:null}" fill="#ffffff" stroke="#575757" stroke-width="4"/><g data-paper-data="{&quot;origPos&quot;:null}" fill="#575757" stroke="none" stroke-width="0"><path d="M222.03118,186.38217c0,-3.32171 0,-7.81253 0,-12.81294c0,-0.9035 0.906,-1.65077 0.906,-1.65077c0,0 1.22213,-0.75927 2.51177,-0.75927c3.8689,0 12.81768,0 12.81768,0v18.06015c0,0 -8.7775,0 -13.04417,0c0,0 -1.28866,-0.27007 -2.0702,-0.91185c-0.68593,-0.56326 -1.12108,-0.96224 -1.12108,-1.92528z" data-paper-data="{&quot;origPos&quot;:null}"/><path d="M231.87527,171.11706c0,0 3.39048,-2.49788 6.07897,-4.56428c1.38103,-1.06147 3.28125,-0.45054 3.28125,1.19854c0,10.47158 0,22.36658 0,24.3377c0,1.34578 -1.82337,2.6442 -3.70711,1.35539c-2.20927,-1.51152 -5.76091,-4.47384 -5.76091,-4.47384z" data-paper-data="{&quot;origPos&quot;:null}"/></g><g data-paper-data="{&quot;origPos&quot;:null}" fill="#575757" stroke="none" stroke-width="0"><path d="M254.29506,170.96337c0,1.03672 -0.84042,1.87715 -1.87714,1.87715c-1.03672,0 -1.87714,-0.84043 -1.87714,-1.87715c0,-1.03672 0.84042,-1.87714 1.87714,-1.87714c1.03672,0 1.87714,0.84042 1.87714,1.87714z" data-paper-data="{&quot;origPos&quot;:null}"/><path d="M254.45349,189.03663c0,1.03672 -0.84043,1.87715 -1.87715,1.87715c-1.03672,0 -1.87714,-0.84043 -1.87714,-1.87715c0,-1.03672 0.84042,-1.87714 1.87714,-1.87714c1.03672,0 1.87715,0.84042 1.87715,1.87714z" data-paper-data="{&quot;origPos&quot;:null}"/><path d="M258.3971,180.11464c0.0992,4.62289 -2.67029,8.5177 -4.54056,10.25616c-0.94239,0.87599 0.22246,-1.35307 -1.06418,-1.35307c-1.23248,0 -2.41925,-0.62497 -1.51176,-1.45891c1.43655,-1.32014 3.54535,-5.00823 3.54535,-7.54338c0,-2.9455 -1.67111,-6.19272 -3.77166,-7.78874c-0.92208,-0.7006 0.63934,-1.41195 1.44049,-1.41195c0,0 0.58038,-1.5777 1.3614,-0.95858c2.34304,1.85733 4.43075,5.12347 4.54094,10.25848z" data-paper-data="{&quot;origPos&quot;:null}"/><g data-paper-data="{&quot;origPos&quot;:null}"><path d="M249.10458,175.91574c0,1.03672 -0.84042,1.87715 -1.87714,1.87715c-1.03672,0 -1.87714,-0.84043 -1.87714,-1.87715c0,-1.03672 0.84042,-1.87714 1.87714,-1.87714c1.03672,0 1.87714,0.84042 1.87714,1.87714z" data-paper-data="{&quot;origPos&quot;:null}"/><path d="M249.2273,184.84615c0,1.03672 -0.84043,1.87715 -1.87715,1.87715c-1.03672,0 -1.87714,-0.84043 -1.87714,-1.87715c0,-1.03672 0.84042,-1.87714 1.87714,-1.87714c1.03672,0 1.87715,0.84042 1.87715,1.87714z" data-paper-data="{&quot;origPos&quot;:null}"/><path d="M251.05292,180.42851c0.05694,2.65322 -1.67605,4.88858 -2.74946,5.88634c-0.54087,0.50276 0.27116,-0.77657 -0.46728,-0.77657c-0.70736,0 -2.31706,-1.57297 -1.79622,-2.0516c0.82448,-0.75767 1.67765,-1.58867 1.67765,-3.04367c0,-1.69052 -0.31625,-2.26849 -1.52182,-3.18449c-0.52921,-0.4021 1.0098,-2.1675 1.4696,-2.1675c0,0 0.3331,-0.90549 0.78135,-0.55016c1.34475,1.06598 2.54295,2.94052 2.60619,5.88767z" data-paper-data="{&quot;origPos&quot;:null}"/></g></g></g></g></svg>