<svg version="1.1" xmlns="http://www.w3.org/2000/svg" xmlns:xlink="http://www.w3.org/1999/xlink" width="45.95372" height="47.48305" viewBox="0,0,45.95372,47.48305"><g transform="translate(-189.02653,-198.16114)"><g data-paper-data="{&quot;isPaintingLayer&quot;:true}" stroke-linejoin="miter" stroke-miterlimit="10" stroke-dasharray="" stroke-dashoffset="0" style="mix-blend-mode: normal"><path d="" fill="none" fill-rule="nonzero" stroke="#e6ac55" stroke-width="2" stroke-linecap="round"/><g stroke="none" stroke-width="1" stroke-linecap="butt"><path d="M213.04445,200.76838c6.85436,0 10.7514,5.40794 14.72214,10.3184c3.03103,3.74963 7.06626,6.27395 7.06626,11.47c0,7.86778 -3.31663,13.85613 -9.51688,17.67947c-3.31663,2.01761 -6.78066,5.40794 -10.9633,5.40794c-7.72037,0 -17.38465,-3.82333 -21.28169,-9.88539c-2.09132,-3.39033 -3.39033,-8.94568 -3.39033,-13.20202c0,-7.57297 3.74963,-14.57473 9.66428,-18.47177c3.39033,-2.30321 9.30498,-3.31663 13.70873,-3.31663v0zM212.89704,201.84628c6.34766,0 9.95909,4.97494 13.70873,9.52609c2.80992,3.53774 6.56876,5.91465 6.56876,10.7514c0,7.28737 -3.03103,12.91642 -8.87198,16.44494c-3.10473,1.87942 -6.28317,5.04864 -10.17099,5.04864c-7.21366,0 -16.23305,-3.53774 -19.84449,-9.23128c-1.94391,-3.10473 -3.17843,-8.29157 -3.17843,-12.26231c0,-7.06626 3.53774,-13.56132 8.94568,-17.24646c3.24292,-2.09132 8.73379,-3.03103 12.84272,-3.03103z" fill="#5c3d2f" fill-rule="evenodd"/><path d="M212.68515,199.24826c6.42136,0 10.09729,5.04864 13.92062,9.73799c2.88362,3.53774 6.64247,5.91465 6.64247,10.88959c0,7.43477 -3.10473,13.05461 -9.01938,16.73975c-3.10473,1.87942 -6.42136,5.04864 -10.3184,5.04864c-7.36107,0 -16.51865,-3.53774 -20.13008,-9.30498c-2.01761,-3.16922 -3.24292,-8.43897 -3.24292,-12.48342c0,-7.21366 3.53774,-13.84692 9.09309,-17.53206c3.24292,-2.16502 8.79828,-3.10473 13.05461,-3.10473v0z" fill="#c68e5c" fill-rule="evenodd"/><path d="M225.81346,216.63291c0.50671,-0.3593 1.15161,-0.58041 1.65831,-0.93971v0c0.3593,-0.3593 0.6449,-0.7186 0.9305,-1.15161c0.14741,-0.2856 0.433,-0.50671 0.6449,-0.79231c0.2856,-0.433 0.93971,0.0737 1.29901,-0.86601c0.3593,0.2119 0.6449,0.50671 0.93971,0.7186c-0.6449,-0.0737 -1.2898,0.0737 -1.87021,0.3593c0,0 0,0 -0.00921,0c-0.08292,0.09213 -0.433,0.7186 -0.8568,1.15161v0c-1.29901,1.0779 -0.86601,0.86601 -2.73622,1.51091v0z" fill="#9f7752" fill-rule="evenodd"/><path d="M225.81346,216.63291c0.50671,-0.3593 1.08712,-0.65411 1.52012,-1.08712c0.433,-0.3593 0.7186,-0.7186 1.01341,-1.0779c0.14741,-0.3593 0.433,-0.58041 0.6449,-0.79231c0.2856,-0.50671 0.93971,0 1.29901,-0.86601c0.2856,0.2119 0.6449,0.433 0.93971,0.6449c-0.6449,-0.0737 -1.29901,0.0737 -1.87942,0.433c-0.0737,0 -0.433,0.58041 -0.86601,0.93971c-1.29901,1.15161 -0.79231,1.15161 -2.67173,1.80572z" fill="#693216" fill-rule="evenodd"/><path d="M194.50819,217.85822c-1.08712,1.7228 -0.79231,1.3635 -2.16502,2.30321c-0.48828,0.35009 -1.17925,0.5712 -1.2898,0.58041c-0.00921,0 -0.01843,0.00921 -0.01843,0.00921c-0.42379,0.49749 -0.70939,1.06869 -0.78309,1.78729c-0.22111,-0.3593 -0.3593,-0.7186 -0.50671,-1.0779c1.0042,-0.13819 0.6449,-0.86601 1.15161,-1.0779c0.29481,-0.14741 0.58041,-0.3593 0.93971,-0.433c0.433,-0.2119 0.86601,-0.433 1.29901,-0.7186c0.50671,-0.3593 0.86601,-0.93971 1.37272,-1.37272z" fill="#9f7752" fill-rule="evenodd"/><path d="M194.50819,217.84901v0c-1.0779,1.65831 -1.0042,1.15161 -2.37692,2.16502c-0.49749,0.36851 -1.15161,0.58041 -1.15161,0.65411c-0.433,0.50671 -0.7186,1.0779 -0.86601,1.73202c-0.13819,-0.35009 -0.27639,-0.69096 -0.41458,-1.04105c-0.00921,-0.01843 0,-0.04606 0.02764,-0.04606c0.87522,-0.16583 0.53435,-0.86601 1.10554,-1.0779c0.2856,-0.0737 0.58041,-0.3593 0.93971,-0.3593c0.433,-0.2119 0.86601,-0.433 1.29901,-0.7186v0c0.49749,-0.433 0.9305,-0.86601 1.43721,-1.29901z" fill="#693216" fill-rule="evenodd"/><path d="M201.50995,233.72276l0.2119,5.20526c0,0 -0.02764,0.04606 -0.05528,0.03685l-2.35849,-1.31744c0,0 -0.02764,-0.03685 -0.01843,-0.05528l2.14659,-3.88782c0,0 0.0737,-0.01843 0.0737,0.01843z" fill="#9f7752" fill-rule="evenodd"/><path d="M201.49153,233.63984l-0.62647,4.7999c0,0 -0.03685,0.04606 -0.05528,0.02764l-2.5059,-1.39114c0,0 -0.02764,-0.03685 -0.00921,-0.05528l3.13237,-3.40876c0,0 0.0737,0 0.06449,0.02764z" fill="#693216" fill-rule="evenodd"/><path d="M222.92984,230.70094c1.58461,1.22531 1.22531,0.9305 2.09132,2.37692c0.27639,0.48828 0.3593,1.24374 0.3593,1.3635c0,0.00921 0.00921,0.01843 0.00921,0.01843c0.49749,0.42379 1.0042,0.78309 1.6491,0.99499c-0.36851,0.0737 -0.72782,0.2119 -1.08712,0.2856c-0.0737,-0.93971 -0.79231,-0.7186 -0.93971,-1.22531c-0.06449,-0.29481 -0.2856,-0.65411 -0.2856,-1.01341c-0.2119,-0.42379 -0.3593,-0.9305 -0.5712,-1.3635v0c-0.29481,-0.49749 -0.86601,-0.9305 -1.22531,-1.43721z" fill="#9f7752" fill-rule="evenodd"/><path d="M222.92984,230.63645v0c1.59382,1.29901 1.08712,1.16082 1.87942,2.67173c0.2856,0.49749 0.433,1.14239 0.50671,1.22531v0c0.433,0.49749 0.93971,0.79231 1.58461,1.0042c-0.36851,0.14741 -0.72782,0.2119 -1.08712,0.3593c0,-1.01341 -0.79231,-0.7186 -0.93971,-1.29901c-0.0737,-0.2856 -0.2856,-0.65411 -0.2856,-0.93971c-0.14741,-0.50671 -0.3593,-1.01341 -0.58041,-1.37272c-0.2856,-0.58041 -0.7186,-1.0779 -1.0779,-1.65831z" fill="#693216" fill-rule="evenodd"/><path d="M212.83255,198.17036c6.92807,0 10.88959,5.48165 14.93404,10.4658c3.10473,3.82333 7.21366,6.42136 7.21366,11.6819c0,8.00597 -3.39033,14.06803 -9.73799,17.96506c-3.31663,2.01761 -6.85436,5.48165 -11.037,5.48165c-7.86778,0 -17.75317,-3.82333 -21.64099,-10.0328c-2.16502,-3.39033 -3.53774,-9.09309 -3.53774,-13.42313c0,-7.72037 3.89704,-14.78663 9.81169,-18.75737c3.53774,-2.37692 9.45239,-3.39033 13.99432,-3.39033v0zM212.68515,199.24826c6.42136,0 10.09729,5.04864 13.92062,9.73799c2.88362,3.53774 6.64247,5.91465 6.64247,10.88959c0,7.43477 -3.10473,13.05461 -9.01938,16.73975c-3.10473,1.87942 -6.42136,5.04864 -10.3184,5.04864c-7.36107,0 -16.51865,-3.53774 -20.13008,-9.30498c-2.01761,-3.16922 -3.24292,-8.43897 -3.24292,-12.48342c0,-7.21366 3.53774,-13.84692 9.09309,-17.53206c3.24292,-2.16502 8.79828,-3.10473 13.05461,-3.10473v0z" fill="#844428" fill-rule="evenodd"/><g><path d="M214.43559,225.293v0c0,-1.56619 1.30823,-2.80992 2.87441,-2.80992h0.39615c0.19347,0.06449 0.32245,0 0.46064,-0.12898c0.12898,-0.12898 0.19347,-0.25796 0.19347,-0.38694v-6.27395c0,-0.19347 -0.06449,-0.33166 -0.19347,-0.39615c-0.12898,-0.12898 -0.26717,-0.19347 -0.46064,-0.19347l-7.96912,0.91207c-0.25796,0.06449 -0.46064,0.25796 -0.46064,0.52513v10.06044v0c-0.06449,1.5017 -1.30823,2.74543 -2.80992,2.74543c-1.5017,0 -2.80992,-1.30823 -2.80992,-2.80992c0,-1.5017 1.24374,-2.87441 2.80992,-2.87441c0.12898,0 0.25796,0.06449 0.38694,0.06449c0.19347,0 0.32245,0 0.46064,-0.12898c0.13819,-0.12898 0.19347,-0.25796 0.19347,-0.38694v-10.15256c0,0 0.01843,-0.03685 0.03685,-0.03685l12.52948,-1.42799c0,0 0.04606,0.01843 0.04606,0.03685v13.49683c0,1.52933 -1.14239,2.90205 -2.66251,2.97575c-1.63068,0.08292 -3.02182,-1.18846 -3.02182,-2.80071v0z" fill="#ffffff" fill-rule="evenodd"/><path d="M214.11314,225.293c0,-0.91207 0.38694,-1.69517 0.91207,-2.2203c0.58962,-0.58962 1.37272,-0.97656 2.28479,-0.97656c0.12898,0 0.25796,0 0.46064,0.06449h0.06449c0.06449,0 0.06449,-0.06449 0.06449,-0.06449c0.06449,0 0.06449,-0.06449 0.06449,-0.06449v0v-6.46742v0l-0.06449,-0.06449h-0.12898l-7.96912,0.91207c-0.043,0 -0.08598,0.02149 -0.12898,0.06449v0l-0.06449,0.06449v10.06044v0c0,0.84758 -0.38694,1.63068 -0.97656,2.2203c-0.52513,0.52513 -1.30823,0.84758 -2.15581,0.84758c-0.91207,0 -1.69517,-0.32245 -2.2203,-0.91207c-0.58962,-0.58962 -0.97656,-1.37272 -0.97656,-2.2203c0,-0.91207 0.39615,-1.69517 0.97656,-2.28479c0.52513,-0.52513 1.30823,-0.91207 2.2203,-0.91207h0.25796l0.19347,0.06449h0.06449c0.06449,0 0.06449,-0.06449 0.06449,-0.06449h0.06449v-10.57636l0.32245,-0.06449l12.66767,-1.43721l0.32245,-0.06449v14.23386c0,0.78309 -0.38694,1.56619 -0.91207,2.15581c-0.58962,0.52513 -1.37272,0.84758 -2.2203,0.84758c-0.91207,0 -1.69517,-0.32245 -2.28479,-0.91207v0c-0.52513,-0.58962 -0.91207,-1.37272 -0.91207,-2.2203v0zM215.55034,223.53334c-0.46064,0.46064 -0.7186,1.04105 -0.7186,1.75966c0,0.65411 0.25796,1.30823 0.7186,1.75966v0c0.33166,0.32245 0.7186,0.55277 1.17925,0.65411c0.90286,0.20268 1.87942,-0.14741 2.46904,-0.8568c0.3593,-0.42379 0.58962,-0.9305 0.58962,-1.49248v0v-13.34021c0,0 -0.01843,-0.03685 -0.04606,-0.03685l-11.87537,1.3635c0,0 -0.03685,0.01843 -0.03685,0.03685v9.83011c0,0.12898 -0.06449,0.25796 -0.06449,0.32245c-0.06449,0.12898 -0.12898,0.25796 -0.25796,0.32245c-0.06449,0.06449 -0.19347,0.12898 -0.32245,0.19347h-0.7186c-0.7186,0 -1.30823,0.25796 -1.76887,0.7186c-0.46064,0.46064 -0.7186,1.04105 -0.7186,1.75966c0,0.65411 0.25796,1.30823 0.7186,1.75966c0.46064,0.38694 1.04105,0.7186 1.76887,0.7186c0.65411,0 1.24374,-0.25796 1.69517,-0.7186c0.46064,-0.46064 0.7186,-1.04105 0.78309,-1.69517v0v-10.06044c0,-0.19347 0.06449,-0.38694 0.19347,-0.52513v0c0.12898,-0.19347 0.32245,-0.32245 0.58962,-0.32245v0l7.96912,-0.91207v0c0.12898,0 0.25796,0 0.38694,0.06449c0.12898,0 0.19347,0.06449 0.33166,0.19347c0.06449,0.06449 0.12898,0.12898 0.19347,0.25796c0.06449,0.12898 0.06449,0.25796 0.06449,0.39615v6.27395c0,0.12898 0,0.25796 -0.06449,0.32245c-0.06449,0.12898 -0.12898,0.25796 -0.25796,0.32245v0c-0.06449,0.06449 -0.19347,0.12898 -0.33166,0.19347v0c-0.12898,0 -0.25796,0.06449 -0.38694,0h-0.32245c-0.7186,0 -1.30823,0.25796 -1.75966,0.7186v0z" fill="#5c3d2f" fill-rule="nonzero"/></g></g></g></g></svg>