<svg version="1.1" xmlns="http://www.w3.org/2000/svg" xmlns:xlink="http://www.w3.org/1999/xlink" width="43.42479" height="44.86356" viewBox="0,0,43.42479,44.86356"><g transform="translate(-235.02916,-205.36617)"><g data-paper-data="{&quot;isPaintingLayer&quot;:true}" stroke-linejoin="miter" stroke-miterlimit="10" stroke-dasharray="" stroke-dashoffset="0" style="mix-blend-mode: normal"><path d="" fill="none" fill-rule="nonzero" stroke="#e6ac55" stroke-width="2" stroke-linecap="round"/><g stroke="none" stroke-width="1" stroke-linecap="butt"><path d="M257.76177,207.82517c6.4178,0 10.10629,5.04879 13.86454,9.76622c2.86883,3.47921 6.69683,5.93821 6.69683,10.8562c0,7.44674 -3.06938,13.11463 -9.01631,16.73337c-3.13914,1.90964 -6.4178,5.04879 -10.30685,5.04879c-7.37698,0 -16.52409,-3.54897 -20.14282,-9.28663c-2.04916,-3.2089 -3.27866,-8.46696 -3.27866,-12.49553c0,-7.16771 3.61873,-13.79478 9.14711,-17.48327c3.27866,-2.18868 8.80704,-3.13914 13.04488,-3.13914v0zM257.5525,208.84539c6.00797,0 9.4959,4.70871 12.97512,9.01631c2.65955,3.34842 6.20852,5.52838 6.20852,10.10629c0,6.96715 -2.86883,12.22521 -8.3972,15.63467c-2.93859,1.77885 -5.93821,4.70871 -9.6267,4.70871c-6.82763,0 -15.36435,-3.27866 -18.77381,-8.66752c-1.83989,-2.93859 -3.00834,-7.85657 -3.00834,-11.67586c0,-6.62708 3.34842,-12.8356 8.53672,-16.25378c2.99962,-2.04916 8.19665,-2.86883 12.08569,-2.86883z" fill="#5c3d2f" fill-rule="evenodd"/><path d="M257.35194,206.39511c6.14748,0 9.6267,4.77847 13.17567,9.21687c2.72931,3.34842 6.34804,5.59814 6.34804,10.24581c0,7.09795 -2.93859,12.42577 -8.60648,15.84394c-2.93859,1.84861 -6.00797,4.84823 -9.76622,4.84823c-6.89739,0 -15.63467,-3.34842 -19.05284,-8.80704c-1.90964,-2.99962 -3.06938,-8.05713 -3.06938,-11.88514c0,-6.75787 3.34842,-13.04488 8.60648,-16.52409c3.13914,-2.04916 8.3972,-2.93859 12.35601,-2.93859v0z" fill="#c68e5c" fill-rule="evenodd"/><path d="M269.78643,222.84944c0.47959,-0.34007 1.08998,-0.54935 1.56957,-0.95918c0.34007,-0.27903 0.61911,-0.68015 0.95918,-1.02894c0.13952,-0.27031 0.40983,-0.47959 0.54935,-0.74991c0.34007,-0.40983 0.88942,0.06976 1.29926,-0.81966c0.27031,0.20928 0.54935,0.40983 0.81966,0.68015c-0.61039,-0.06976 -1.2295,0.06976 -1.77885,0.34007c-0.06976,0.06976 -0.34007,0.68015 -0.81966,1.02022c-1.2295,1.08998 -0.81966,0.88942 -2.59851,1.49981v0z" fill="#9f7752" fill-rule="evenodd"/><path d="M269.78643,222.84944c0.47959,-0.34007 1.02022,-0.68015 1.49981,-1.02022c0.34007,-0.34007 0.61039,-0.68887 0.88942,-1.02894c0.13952,-0.34007 0.40983,-0.54935 0.61039,-0.81966c0.27031,-0.40983 0.88942,0.06976 1.2295,-0.81966c0.34007,0.27903 0.61911,0.47959 0.88942,0.68887c-0.61039,-0.06976 -1.2295,0.06976 -1.77885,0.34007c-0.06976,0.06976 -0.40983,0.61039 -0.81966,0.95046c-1.2295,1.02894 -0.74991,1.08998 -2.52875,1.70909v0z" fill="#693216" fill-rule="evenodd"/><path d="M240.1477,224.00918c-1.02894,1.57829 -0.74991,1.23822 -2.04916,2.18868c-0.47959,0.34879 -1.15974,0.47959 -1.2295,0.54935c-0.40983,0.47959 -0.68015,1.02894 -0.74991,1.63933c-0.13952,-0.27903 -0.27903,-0.61911 -0.47959,-0.95918c0.95046,-0.13952 0.61039,-0.88942 1.08998,-1.02894c0.27031,-0.13952 0.54935,-0.34007 0.88942,-0.40983c0.40983,-0.20056 0.88942,-0.40983 1.2295,-0.68015c0.47959,-0.34007 0.81966,-0.88942 1.29926,-1.29926z" fill="#9f7752" fill-rule="evenodd"/><path d="M240.13898,224.00918v0c-1.02022,1.56957 -0.95046,1.0987 -2.24972,2.04916c-0.47087,0.34007 -1.02022,0.54063 -1.08998,0.61039c-0.40983,0.47959 -0.68015,1.02894 -0.81966,1.63933c-0.13952,-0.34007 -0.27031,-0.68015 -0.40983,-1.02022c0.88942,-0.13952 0.61039,-0.82838 1.08998,-1.02894c0.27031,-0.13952 0.54935,-0.34007 0.88942,-0.40983c0.40983,-0.20056 0.81966,-0.40983 1.2295,-0.68015c0.47959,-0.34007 0.88942,-0.74991 1.36901,-1.15974z" fill="#693216" fill-rule="evenodd"/><path d="M246.77478,238.89394l0.20056,5.05751l-2.31948,-1.29926z" fill="#9f7752" fill-rule="evenodd"/><path d="M246.77478,238.82419l-0.61911,4.71743l-2.45899,-1.36901z" fill="#693216" fill-rule="evenodd"/><path d="M253.67217,208.16524l-1.02894,-1.77013l1.9794,-0.40983l-0.34007,3.95881z" fill="#9f7752" fill-rule="evenodd"/><path d="M253.26234,208.16524l-1.02894,-1.77013l1.9794,-0.34879l0.06976,3.89777z" fill="#693216" fill-rule="evenodd"/><path d="M267.05712,236.1036v0c1.49981,1.2295 1.15974,0.8807 1.9794,2.31948c0.27031,0.47959 0.34007,1.2295 0.40983,1.29926c0.40983,0.40983 0.8807,0.75863 1.49981,0.95918c-0.34879,0.06976 -0.68887,0.20056 -1.02894,0.27031c0,-0.88942 -0.74991,-0.68015 -0.88942,-1.15974c-0.06976,-0.34879 -0.27031,-0.61911 -0.27031,-0.95918c-0.13952,-0.40983 -0.34879,-0.88942 -0.54935,-1.29926c-0.27031,-0.54935 -0.81966,-0.88942 -1.15974,-1.43877z" fill="#9f7752" fill-rule="evenodd"/><path d="M267.0484,236.09488c1.50853,1.2295 1.02894,1.0987 1.77885,2.52875c0.34007,0.47959 0.40983,1.08998 0.47959,1.15974c0.40983,0.40983 0.95046,0.75863 1.56957,0.95918c-0.34007,0.06104 -0.74991,0.20056 -1.08998,0.27031c0,-0.88942 -0.74991,-0.68015 -0.88942,-1.15974c-0.06976,-0.34879 -0.27031,-0.61911 -0.27031,-0.95918c-0.13952,-0.40983 -0.27903,-0.88942 -0.54935,-1.29926c-0.27903,-0.47087 -0.68887,-0.95046 -1.02894,-1.49981z" fill="#693216" fill-rule="evenodd"/><path d="M257.49146,205.36617c6.62708,0 10.30685,5.1883 14.13486,9.89701c2.93859,3.61873 6.82763,6.07773 6.82763,11.06547c0,7.50778 -3.13914,13.31519 -9.14711,17.00368c-3.2089,1.90964 -6.55732,5.1883 -10.51612,5.1883c-7.43802,0 -16.79441,-3.61873 -20.4829,-9.4959c-2.04916,-3.27866 -3.27866,-8.60648 -3.27866,-12.69608c0,-7.30722 3.61873,-14.0651 9.21687,-17.82335c3.34842,-2.18868 9.01631,-3.13914 13.24543,-3.13914zM257.35194,206.38639c6.14748,0 9.6267,4.77847 13.17567,9.21687c2.72931,3.34842 6.34804,5.59814 6.34804,10.24581c0,7.09795 -2.93859,12.42577 -8.60648,15.84394c-2.93859,1.84861 -6.00797,4.84823 -9.76622,4.84823c-6.89739,0 -15.63467,-3.34842 -19.05284,-8.80704c-1.90964,-2.99962 -3.06938,-8.05713 -3.06938,-11.88514c0,-6.75787 3.34842,-13.04488 8.60648,-16.52409c3.13914,-2.04916 8.3972,-2.93859 12.35601,-2.93859v0z" fill="#844428" fill-rule="evenodd"/><path d="M255.43358,231.92679h0.20056v-2.52875h-0.20056c-0.27031,0 -0.47959,-0.20928 -0.47959,-0.40983c0,-0.1308 0.06976,-0.27031 0.13952,-0.34007c0.20928,0.06976 0.34879,0.06976 0.54935,0.13952v0v-0.68015c-1.49981,-0.34007 -2.66827,-1.56957 -2.86883,-3.13914c-0.54063,0 -1.08998,-0.27903 -1.49981,-0.68887c-1.43877,-1.49981 -1.36901,-4.77847 -1.36901,-4.91799c0,-0.27903 0.20928,-0.47959 0.47959,-0.47959h2.38924v-1.02022c0,-0.1308 0.06104,-0.20056 0.20056,-0.20056h7.23746c0.1308,0 0.27031,0.06104 0.27031,0.20056v1.02022h2.38924c0.27903,0 0.47959,0.20056 0.47959,0.47959c0,0.13952 0,3.41818 -1.43005,4.91799c-0.40983,0.41855 -0.88942,0.68887 -1.49981,0.68887c-0.20056,1.56957 -1.36901,2.79907 -2.86883,3.13914v0.61039c0.13952,0 0.27031,0 0.40983,-0.06976c0.06976,0.06976 0.13952,0.20056 0.13952,0.34007c0,0.20928 -0.20928,0.40983 -0.47959,0.40983h-0.13952v2.52875h0.13952c0.27903,0 0.47959,0.20928 0.47959,0.40983v0.13952h-3.13914v-0.13952c0,-0.20056 0.20928,-0.40983 0.47959,-0.40983zM257.21242,221.27987h1.9794l-1.56957,1.02894h-0.06976v0.06976l0.61911,1.63933l-1.56957,-1.02022h-0.06976l-1.56957,1.02022l0.61911,-1.63933v-0.06976v0l-1.63933,-1.02894h2.04916l0.61911,-1.70909l0.61039,1.70909zM259.87197,235.14441v0c0,0.06976 -0.06976,0.13952 -0.13952,0.13952h-6.4178c-0.06976,0 -0.13952,-0.06976 -0.13952,-0.13952v-1.56957c0,-0.1308 0.06976,-0.20056 0.13952,-0.20056h0.47959c0.13952,0 0.20928,-0.06976 0.20928,-0.13952v-0.27031c0,-0.06976 0.06976,-0.13952 0.13952,-0.13952h4.77847c0.06976,0 0.13952,0.06976 0.13952,0.13952v0.27031c0,0.06976 0.06104,0.13952 0.20056,0.13952h0.47959c0.06976,0 0.13952,0.06104 0.13952,0.20056v1.56957zM250.73359,220.32941c0.06976,1.02894 0.34007,2.93859 1.15974,3.75825c0.20056,0.27031 0.47959,0.40983 0.74991,0.40983v-4.16808zM260.36028,220.32941v4.16808c0.34007,0 0.61911,-0.1308 0.81966,-0.40983c0.81966,-0.81966 1.08998,-2.73803 1.08998,-3.75825z" fill="#ffffff" fill-rule="evenodd"/><path d="M254.83191,231.796c0.13952,-0.06976 0.27031,-0.20056 0.40983,-0.20056v-1.83989c-0.13952,0 -0.27031,-0.06976 -0.40983,-0.20928v0c-0.13952,-0.13952 -0.20056,-0.34007 -0.20056,-0.54935c0,-0.13952 0,-0.20928 0.06976,-0.34007v0c0,-0.06976 0.06976,-0.20056 0.20056,-0.27031l0.06976,-0.06976c-0.54935,-0.27031 -1.08998,-0.61039 -1.49981,-1.08998c-0.47959,-0.47959 -0.81966,-1.15974 -0.95918,-1.90964c-0.27031,0 -0.47959,-0.13952 -0.68015,-0.20056c-0.27031,-0.13952 -0.54935,-0.34007 -0.81966,-0.54935c-1.49981,-1.56957 -1.49981,-4.98775 -1.49981,-5.1883v0c0,-0.27903 0.13952,-0.47959 0.27031,-0.61911v0c0.13952,-0.13952 0.34007,-0.20928 0.61911,-0.20928h1.9794v-0.68015c0,-0.13952 0.06976,-0.27031 0.20928,-0.40983c0.13952,-0.13952 0.27031,-0.20928 0.40983,-0.20928h7.23746c0.20056,0 0.34007,0.06976 0.40983,0.20928c0.13952,0.13952 0.20056,0.27031 0.20056,0.40983v0.68015h2.04916c0.20056,0 0.40983,0.06976 0.54935,0.20928c0.20056,0.13952 0.27031,0.34007 0.27031,0.61911v0c0,0.06976 0,1.56957 -0.40983,3.06938c-0.20056,0.74991 -0.54935,1.49981 -1.08998,2.11892c-0.27031,0.20056 -0.54935,0.40983 -0.81966,0.54935c-0.20056,0.06976 -0.40983,0.20056 -0.61039,0.20056c-0.20056,0.74991 -0.54935,1.43005 -1.02894,1.90964c-0.40983,0.47959 -0.95918,0.88942 -1.63933,1.08998l0.13952,0.06976c0.06976,0.06976 0.13952,0.20056 0.13952,0.27031v0c0.06976,0.13952 0.06976,0.20928 0.06976,0.34007c0,0.20056 -0.06976,0.40983 -0.20056,0.54935v0c-0.13952,0.13952 -0.27031,0.20928 -0.40983,0.20928v1.83989c0.13952,0 0.27031,0.13952 0.40983,0.20056v0c0.13952,0.13952 0.20056,0.34007 0.20056,0.54935v0.13952h0.47959c0.13952,0 0.20928,0 0.34007,0.06976v0c0.06976,0.13952 0.13952,0.27031 0.13952,0.40983v0.06976h0.34007c0.13952,0 0.27031,0.06976 0.34007,0.13952v0c0.13952,0.06976 0.20928,0.20928 0.20928,0.40983v1.56957c0,0.13952 -0.06976,0.27031 -0.20928,0.40983v0c-0.06976,0.06976 -0.20056,0.13952 -0.34007,0.13952h-6.4178c-0.13952,0 -0.27031,-0.06976 -0.34007,-0.13952c-0.13952,-0.13952 -0.20056,-0.27031 -0.20056,-0.40983v-1.56957c0,-0.20056 0.06976,-0.34007 0.20056,-0.40983v0c0.06976,-0.06976 0.20056,-0.13952 0.34007,-0.13952h0.27031v-0.06976c0,-0.13952 0.06976,-0.27031 0.20056,-0.40983c0.06976,-0.06976 0.20928,-0.06976 0.34007,-0.06976h0.47959v-0.13952c0,-0.20056 0.06976,-0.40983 0.20056,-0.54935v0zM255.99165,232.13607h1.08998v-3.0781h0.13952v-1.2295l0.27031,-0.06976c0.68015,-0.13952 1.29926,-0.47959 1.70909,-1.02894c0.47959,-0.47959 0.74991,-1.08998 0.88942,-1.77013h-0.06976v-4.98775h2.65955v0.34007c-0.06976,0.68015 -0.13952,1.56957 -0.40983,2.38924c-0.13952,0.47959 -0.34007,0.88942 -0.54935,1.29926c0.40983,-0.47959 0.68015,-1.08998 0.88942,-1.77013c0.40983,-1.36901 0.34007,-2.79907 0.34007,-2.86883v0v-0.06976c0,-0.06976 -0.06976,-0.06976 -0.06976,-0.06976h-2.79907v-1.2295h-6.96715v1.2295h-2.72931c-0.0465,0 -0.09301,0.02326 -0.13952,0.06976v0v0.06976v0c0,0.13952 0,1.90964 0.54935,3.34842c-0.27031,-0.81966 -0.34007,-1.70909 -0.40983,-2.38924v-0.34007h2.65955v4.64767l0.06976,0.06976v0.27031c0.13952,0.68015 0.40983,1.29926 0.88942,1.77013c0.47959,0.54935 1.02022,0.88942 1.70909,1.02894l0.27031,0.06976v1.36029v0v2.93859zM256.88107,221.34091l-0.27031,-0.74991l-0.27031,0.74991v0.06976h-0.06976l-0.06976,0.20056h-1.02022l0.61039,0.40983v0l0.20056,0.13952l-0.06976,0.27031v0l-0.27031,0.68015l0.74991,-0.40983v0l0.20928,-0.20928l0.20056,0.20928l0.68015,0.40983l-0.27031,-0.68015v0l-0.06976,-0.27031l0.20056,-0.13952h0.06976l0.54935,-0.40983h-1.02022l-0.06976,-0.20056zM256.95083,219.43127l0.47959,1.49981h1.77885l0.20056,0.61039l-1.36901,0.88942l0.47959,1.49981l-0.47959,0.40983l-1.43005,-0.95918l-1.43005,0.95918l-0.54935,-0.40983l0.54935,-1.49981l-1.43877,-0.88942l0.20928,-0.61039h1.77885l0.54935,-1.49981h0.68015zM259.54934,234.93514v-1.15974h-0.27031c-0.13952,0 -0.27031,-0.06976 -0.40983,-0.13952v0c-0.06976,-0.13952 -0.13952,-0.27031 -0.13952,-0.40983v-0.06976h-4.36864v0.06976c0,0.13952 -0.06976,0.27031 -0.20056,0.40983v0c-0.06976,0.06976 -0.20056,0.13952 -0.34007,0.13952h-0.27031v1.15974h6.00797zM252.31188,220.66077h-1.15974c0.06976,0.54935 0.13952,1.2295 0.34007,1.83989c0.13952,0.54935 0.34007,1.02022 0.68015,1.29926c0,0.06976 0.06976,0.13952 0.13952,0.20056v-3.34842zM261.5985,222.50065c0.20056,-0.61039 0.27031,-1.29926 0.34007,-1.83989h-1.15974v3.34842c0.06976,-0.06976 0.06976,-0.13952 0.13952,-0.20056c0.27031,-0.27031 0.54935,-0.74991 0.68015,-1.29926v0z" fill="#5c3d2f" fill-rule="nonzero"/></g></g></g></svg>