<svg version="1.1" xmlns="http://www.w3.org/2000/svg" xmlns:xlink="http://www.w3.org/1999/xlink" width="126.89406" height="57.27619" viewBox="0,0,126.89406,57.27619"><g transform="translate(-176.55296,-151.36189)"><g data-paper-data="{&quot;isPaintingLayer&quot;:true}" fill-rule="nonzero" stroke="none" stroke-width="1" stroke-linecap="butt" stroke-linejoin="miter" stroke-miterlimit="10" stroke-dasharray="" stroke-dashoffset="0" style="mix-blend-mode: normal"><g><path d="M177.25846,190.33168c1.60896,-4.53851 7.71092,-5.54032 12.68962,-5.6314c2.71703,-10.10919 14.17716,-14.46556 20.12731,-7.87788c-1.54825,-4.47779 0.34912,-9.85115 4.43226,-12.47711c4.08315,-2.62596 9.95741,-2.26166 13.66107,0.83484c-0.71341,-6.60286 5.22156,-13.17534 12.11282,-13.40303c6.89125,-0.22769 13.2816,5.95016 13.02355,12.59855c4.65994,-2.3072 10.35206,-3.36973 15.13344,-1.29021c4.78137,2.07952 7.83235,8.02968 5.34299,12.47711c3.09651,-2.5956 7.9386,-3.03579 11.49048,-1.06253c3.55188,1.98844 5.5555,6.23856 4.78137,10.12437c3.68849,-3.88581 11.39941,-1.12325 12.75034,3.9769" fill="#a9daf0"/><path d="M303.27426,188.47984v0c0.15179,0.51608 -0.6527,0.74377 -0.80449,0.22769c-1.42683,-4.72066 -8.27254,-7.49841 -12.06728,-3.79474c-0.31876,0.30358 -0.75895,-0.01518 -0.69824,-0.40983c1.47236,-8.7279 -8.95559,-13.8584 -15.57363,-8.65201c-0.3643,0.2884 -0.88038,-0.06071 -0.6527,-0.5009c2.15541,-4.20458 -0.37948,-9.30471 -4.29565,-11.46012c-4.85727,-2.6715 -10.88332,-1.42683 -15.61916,0.85002c-0.27322,0.12143 -0.62234,-0.03036 -0.62234,-0.3643c0.07589,-6.61804 -5.99569,-12.38604 -12.61373,-12.17354c-6.61804,0.21251 -12.24943,6.39035 -11.70298,12.99319c0.03036,0.39465 -0.47055,0.48573 -0.71341,0.2884c-3.65814,-2.91436 -9.244,-3.35455 -13.16016,-0.77413c-3.91618,2.58042 -5.64657,7.58948 -4.23493,12.02174c0.12143,0.40983 -0.42501,0.71341 -0.69824,0.40983c-2.91436,-3.08133 -7.1493,-3.71885 -11.01993,-2.15541c-4.25011,1.71522 -7.17965,5.52515 -8.42433,9.85115c-0.04554,0.18215 -0.21251,0.30358 -0.39465,0.30358c-4.32601,0.12143 -10.44313,0.6527 -12.29497,5.32781c-0.19733,0.48573 -1.00182,0.27322 -0.80449,-0.22769c1.39647,-3.5367 4.9787,-4.96352 8.50022,-5.54032c1.03218,-0.16696 2.07952,-0.27322 3.12686,-0.33394c1.32057,-0.07589 1.25985,-0.53126 1.71522,-1.66969c0.68306,-1.68487 1.63932,-3.2483 2.83847,-4.6144c4.43226,-5.00906 12.38604,-6.80018 17.33439,-1.53307l-0.69824,0.40983c-1.51789,-4.78137 0.2884,-10.15472 4.6144,-12.94766c4.32601,-2.79293 10.20026,-2.24649 14.16198,0.89556l-0.71341,0.2884c-0.59199,-7.04305 5.46443,-13.61554 12.52266,-13.82804c7.05822,-0.21251 13.52446,5.93498 13.44856,13.00837l-0.62234,-0.3643c5.23674,-2.50453 12.18872,-3.87064 17.30402,-0.30358c3.79474,2.65632 5.96534,7.74127 3.73403,12.06728l-0.6527,-0.5009c3.38491,-2.65632 8.24218,-3.18759 11.99138,-1.12325c3.74921,2.06434 5.67693,6.4207 4.9787,10.57974l-0.69824,-0.40983c4.25011,-4.14386 11.8396,-1.1536 13.44856,4.15904z" fill="#1e628c"/></g><g><path d="M302.8037,188.60128c1.35094,5.10013 -2.459,10.50384 -7.46805,12.59855c-5.00906,2.0947 -10.80742,1.53307 -16.07452,0.16696c-6.75464,4.7662 -17.04598,4.09833 -23.07203,-1.50271c-6.08676,6.23856 -17.07634,7.24036 -24.27117,2.21613c-9.54758,9.19846 -27.61054,7.83235 -35.56433,-2.68667c-4.23493,1.00182 -8.75827,1.91255 -12.91731,0.60716c-4.15904,-1.30539 -7.58948,-5.66175 -6.17785,-9.65383" fill="#a9daf0"/><path d="M176.84863,190.25579h-0.03036c0.15179,-0.5009 0.95628,-0.2884 0.80449,0.22769c-1.2295,4.03761 2.00362,7.74127 5.6314,9.06184c4.15904,1.50271 8.81898,0.44019 12.96284,-0.53126c0.13661,-0.03036 0.31876,-0.01518 0.40983,0.10625c8.10557,10.44313 25.37923,11.71816 34.98753,2.68667c0.12143,-0.12143 0.34912,-0.16696 0.5009,-0.06071c7.21,4.87245 17.56207,4.00725 23.77027,-2.14024c0.16696,-0.16696 0.42501,-0.15179 0.59199,0c3.35455,3.03579 7.78681,4.56886 12.29497,4.56886c2.26166,0 4.53851,-0.39465 6.64839,-1.19914c1.47236,-0.56162 3.00544,-2.17059 4.56886,-1.8063c5.23674,1.21432 11.14136,1.8063 16.10488,-0.75895c4.20458,-2.18577 7.42251,-6.83054 6.29927,-11.67262c-0.12143,-0.53126 0.68306,-0.74377 0.80449,-0.22769c1.03218,4.46261 -1.25985,8.80381 -4.82691,11.44495c-4.37154,3.23312 -10.1699,3.49116 -15.36112,2.65632c-1.53307,-0.24287 -3.00544,-0.9411 -4.43226,-0.2884c-0.98664,0.45537 -1.89737,1.03218 -2.92954,1.42683c-2.17059,0.81966 -4.52333,1.2295 -6.86089,1.2295c-4.73584,0 -9.36542,-1.63932 -12.88695,-4.81173h0.59199c-4.96352,4.9028 -12.52266,6.63321 -19.21658,4.82691c-1.45718,-0.39465 -2.89919,-0.97146 -4.21975,-1.71522c-1.04735,-0.60716 -0.97146,-0.72859 -1.89737,0.04554c-0.39465,0.33394 -0.80449,0.63752 -1.21432,0.9411c-2.36791,1.70005 -5.06978,2.88401 -7.87788,3.58224c-5.57068,1.39647 -11.62709,0.92592 -16.92455,-1.29021c-2.5956,-1.07771 -5.00906,-2.5956 -7.02787,-4.55369c-0.48573,-0.45537 -1.19914,-1.62414 -1.76076,-1.92772c-0.71341,-0.37948 -1.85183,0.18215 -2.5956,0.33394c-1.85183,0.3643 -3.73403,0.66788 -5.61622,0.66788c-3.36973,0.01518 -6.73946,-0.88038 -9.15292,-3.35455c-1.97326,-2.0188 -2.97508,-4.73584 -2.14024,-7.48323z" fill="#1e628c"/></g><path d="M177.25846,191.03112c1.60896,-4.53851 7.71092,-5.54032 12.68962,-5.6314c2.71703,-10.10919 14.17716,-14.46556 20.12731,-7.87788c-1.54825,-4.47779 0.34912,-9.85115 4.43226,-12.47711c4.08315,-2.62596 9.95741,-2.26166 13.66107,0.83484c-0.71341,-6.5725 5.16085,-13.11462 12.00656,-13.40303c-2.94472,2.23131 -5.49479,4.85727 -7.22518,8.09039c-1.92772,3.6126 -2.68667,7.60466 -2.80811,11.62709c-3.70367,-0.01518 -7.49841,0.62234 -10.51902,2.82329c-3.15722,2.29202 -4.73584,5.78319 -5.4189,9.44132c-3.88581,0.07589 -8.5154,0.63752 -11.61191,2.89919c-3.90099,2.85365 -1.25985,7.81717 2.42864,9.59311c5.34299,2.58042 12.2039,-0.27322 17.48617,-1.66969c1.19914,-0.31876 2.50453,-0.71341 3.76439,-0.77413c1.88219,-0.09107 3.64296,0.8652 5.38853,1.39647c3.29384,1.00182 6.37517,0.22769 9.1681,-1.59379c1.89737,-1.24468 3.33937,-2.20095 5.73765,-1.68487c1.71522,0.37948 3.33937,1.06253 5.11531,1.13843c4.17422,0.16696 7.1493,-2.58042 9.62347,-5.46443c4.87245,3.21795 11.20208,3.74921 15.96827,0.22769c4.67512,8.18146 18.57906,4.44743 22.98096,-3.00544c1.21432,0.98664 2.15541,2.26166 2.55007,3.74921" fill="#a9daf0"/></g></g></svg>