<svg version="1.1" xmlns="http://www.w3.org/2000/svg" xmlns:xlink="http://www.w3.org/1999/xlink" width="345.41201" height="123.1015" viewBox="0,0,345.41201,123.1015"><g transform="translate(60.4,-91.4)"><g data-paper-data="{&quot;isPaintingLayer&quot;:true}" fill-rule="nonzero" stroke-linejoin="miter" stroke-miterlimit="10" stroke-dasharray="" stroke-dashoffset="0" style="mix-blend-mode: normal"><path d="M221.01201,181.5015c0,-17.12083 13.87917,-31 31,-31c17.12083,0 31,13.87917 31,31c0,17.12083 -13.87917,31 -31,31c-17.12083,0 -31,-13.87917 -31,-31z" fill="#b17f00" stroke="#4a4a4a" stroke-width="4" stroke-linecap="butt"/><path d="M225.66202,188.56817c0,0 15.93477,-1.71439 25.74516,-5.21432c7.32479,-2.61318 14.3015,-7.18055 16.32706,-7.59478c2.84672,-0.58216 6.64991,-0.49053 6.29111,5.19965c-0.12813,2.0321 -1.87254,2.77362 -4.52628,2.52588c-1.70274,-0.15896 -1.83705,-2.91642 -1.83705,-2.91642" fill="none" stroke="#4a4a4a" stroke-width="9" stroke-linecap="round"/><path d="M228.16201,194.56817c0,0 19.22513,-1.43657 29.01916,-5.81605c1.9006,-0.84987 6.31984,-1.41871 7.83707,1.03923c0.63731,1.03245 1.73097,3.81816 -1.36261,5.86675c-2.58098,1.70915 -4.82696,-2.08994 -4.82696,-2.08994" fill="none" stroke="#4a4a4a" stroke-width="9" stroke-linecap="round"/><path d="M254.32867,168.90149c0,0 -6.78356,-1.50453 -1.61959,-5.92623c5.55183,-4.75381 10.80619,3.93143 6.30932,9.28956c-3.41555,5.71852 -34.18973,9.47001 -34.18973,9.47001" fill="none" stroke="#4a4a4a" stroke-width="9" stroke-linecap="round"/><path d="M-60.4,91.4z" fill="#cccccc" stroke="#404040" stroke-width="4" stroke-linecap="butt"/><path d="M225.66201,188.56816c0,0 15.93477,-1.71439 25.74516,-5.21432c7.32479,-2.61318 14.3015,-7.18055 16.32706,-7.59478c2.84672,-0.58216 6.64991,-0.49053 6.29111,5.19965c-0.12813,2.0321 -1.87254,2.77362 -4.52628,2.52588c-1.70274,-0.15896 -1.83705,-2.91642 -1.83705,-2.91642" fill="none" stroke="#ffffff" stroke-width="3.5" stroke-linecap="round"/><path d="M228.16201,194.56816c0,0 19.22514,-1.43656 29.01917,-5.81604c1.9006,-0.84987 6.31984,-1.41871 7.83707,1.03923c0.63731,1.03245 1.73097,3.81816 -1.36261,5.86675c-2.58098,1.70915 -4.82696,-2.08994 -4.82696,-2.08994" fill="none" stroke="#ffffff" stroke-width="3.5" stroke-linecap="round"/><path d="M254.32867,168.90149c0,0 -6.78356,-1.50453 -1.61959,-5.92623c5.55183,-4.75381 10.80619,3.93143 6.30932,9.28956c-3.41555,5.71852 -34.18972,9.47001 -34.18972,9.47001" fill="none" stroke="#ffffff" stroke-width="3.5" stroke-linecap="round"/></g></g></svg>