<svg version="1.1" xmlns="http://www.w3.org/2000/svg" xmlns:xlink="http://www.w3.org/1999/xlink" width="152.14082" height="51.85202" viewBox="0,0,152.14082,51.85202"><g transform="translate(-163.92959,-154.07399)"><g data-paper-data="{&quot;isPaintingLayer&quot;:true}" fill-rule="nonzero" stroke="none" stroke-width="1" stroke-linecap="butt" stroke-linejoin="miter" stroke-miterlimit="10" stroke-dasharray="" stroke-dashoffset="0" style="mix-blend-mode: normal"><g><path d="M225.20901,172.85735l0.80021,-4.60126c2.36428,-2.76439 7.0201,-3.40093 10.09367,-1.3822c-0.16369,-3.69192 2.3461,-7.12922 5.63791,-9.07521c3.27362,-1.94598 7.22015,-2.63708 11.07575,-2.92807c5.38328,-0.41831 10.82113,-0.1455 16.13168,0.78203c4.58307,0.80022 9.31163,2.25516 12.42158,5.56516c3.09175,3.31 3.8556,8.92971 0.50923,12.03965c12.9308,-11.45767 26.06167,4.71037 20.47832,8.96608c3.12813,-2.36429 7.92944,-3.25543 11.09394,-0.92752c3.1645,2.32791 2.67346,8.18405 -1.21851,9.0752c-1.32764,0.30917 -2.81895,0.05456 -3.94653,0.74566c-0.6911,0.41831 -1.1094,1.12759 -1.54587,1.80049c-7.89306,12.09421 -27.26199,15.5497 -39.2289,7.00191c-8.00219,3.81923 -18.11404,3.31 -25.62517,-1.32764c-6.01983,5.31054 -16.27717,5.52878 -22.55162,0.45467c-4.87405,4.16477 -13.0763,4.14658 -17.95036,-0.03638c-4.32846,6.11076 -13.42184,7.27471 -21.02392,5.89251c-5.3651,-0.96389 -11.65772,-4.72856 -10.3119,-9.7663c-4.80132,-0.50923 -7.12922,-6.8746 -4.49214,-10.7302c2.63708,-3.8556 8.43867,-4.91043 13.00354,-3.34637c-0.2728,-5.20142 -0.47286,-10.69383 2.12786,-15.25871c3.27362,-5.74703 10.22097,-8.65691 16.91371,-10.07547c6.54725,-1.3822 13.71283,-1.63681 19.65992,1.29126c5.94708,2.92807 10.09367,9.80267 7.92944,15.84068z" fill="#a9daf0"/><path d="M225.68187,173.02103c-0.20005,0.61836 -1.18214,0.34555 -0.98208,-0.2728c1.87324,-5.76522 -1.61863,-11.6941 -6.56543,-14.65855c-5.71065,-3.41912 -12.9308,-3.25543 -19.25981,-2.07329c-5.52878,1.03664 -11.42129,2.94626 -15.45877,7.05648c-4.74675,4.85587 -4.67399,11.65773 -4.34664,18.00491c0.01818,0.32735 -0.32736,0.58197 -0.63654,0.49104c-4.2739,-1.34582 -10.23915,-0.76384 -12.69438,3.54643c-2.10966,3.72828 0.23642,8.91153 4.47394,9.54806c0.29098,0.03638 0.41831,0.38193 0.36373,0.61836c-1.49132,7.00191 8.98428,9.34801 13.93108,9.60262c6.00164,0.30917 12.69438,-1.03664 16.47722,-6.11076c0.21824,-0.29099 0.52742,-0.32736 0.80022,-0.10912c4.89224,3.9829 12.34883,3.9829 17.24108,0.03638c0.25461,-0.20005 0.49104,-0.18188 0.72747,0c6.27444,4.87405 15.78613,4.67399 21.84232,-0.45467c0.18188,-0.1455 0.41831,-0.20006 0.61836,-0.07274c3.89198,2.30972 8.23862,3.60098 12.74894,3.78286c2.12785,0.07275 4.25571,-0.09093 6.34719,-0.49104c0.94572,-0.18188 1.87324,-0.4183 2.80077,-0.70929c0.92752,-0.29098 2.38246,-1.30944 3.21906,-1.25489c0.83659,0.05456 1.45495,0.65473 2.21879,1.1094c1.29126,0.76384 2.65527,1.40038 4.05566,1.90961c2.78257,1.01846 5.72884,1.54587 8.69329,1.63681c5.92888,0.16368 11.94872,-1.36401 16.96827,-4.56488c2.56434,-1.63681 4.85587,-3.72828 6.61999,-6.20169c0.67291,-0.92753 1.20032,-2.07329 2.21879,-2.69164c1.23669,-0.76384 2.70984,-0.45467 4.05566,-0.80022c3.34637,-0.87297 3.74647,-5.5106 1.54587,-7.74757c-2.96445,-3.00082 -8.03856,-1.60044 -11.02118,0.52741c-0.47286,0.32735 -1.05484,-0.43648 -0.61836,-0.80021c3.45549,-2.87352 -1.07301,-8.09312 -3.56461,-9.83904c-5.29235,-3.7101 -11.49404,-2.41884 -16.20442,1.60044c-0.50923,0.41831 -1.20032,-0.25461 -0.72747,-0.72747c4.18296,-4.2739 1.21852,-10.65746 -3.019,-13.40366c-4.23751,-2.7462 -9.71174,-3.54643 -14.64036,-4.01928c-5.47423,-0.52741 -11.53042,-0.50923 -16.69547,0.72746c-5.16505,1.2367 -10.6029,4.76494 -10.6029,10.65746c0,0.38193 -0.43649,0.63654 -0.76384,0.43649c-2.41884,-1.41857 -7.82031,-1.81868 -9.38439,1.27307c-0.60016,1.18215 -0.52741,3.10994 -0.76384,4.41938c-0.10912,0.63654 -1.09121,0.36373 -0.98208,-0.2728c0.34555,-1.98236 0.20005,-4.38301 1.85505,-5.71065c2.78257,-2.23697 6.76548,-2.36428 9.78449,-0.58197l-0.76384,0.43648c0,-5.56516 4.54669,-9.45713 9.4935,-11.11212c6.65636,-2.21879 14.49487,-1.90961 21.35129,-1.00027c5.52878,0.72747 11.9851,2.03692 15.73157,6.56543c2.92807,3.52823 3.45549,8.89334 0.10912,12.29426l-0.72747,-0.72747c5.27418,-4.49214 12.31246,-5.74703 18.04129,-1.30944c2.81895,2.16423 6.98373,7.82032 3.1645,10.98481l-0.61836,-0.80022c3.41912,-2.43703 9.18434,-3.72828 12.42158,-0.20006c2.0551,2.25515 2.09149,6.41994 -0.38193,8.4023c-0.72747,0.60016 -1.54587,0.83659 -2.45521,0.98209c-1.96417,0.30917 -3.31,0.47286 -4.52851,2.2006c-1.01846,1.43676 -2.05511,2.80077 -3.32819,4.03747c-2.8917,2.80077 -6.45631,4.85587 -10.23915,6.18351c-7.69301,2.69164 -16.65909,2.43704 -23.89743,-1.49131c-1.32764,-0.70929 -1.76412,-1.36401 -3.25543,-0.94572c-0.94571,0.25461 -1.87324,0.70929 -2.83714,0.98209c-2.36428,0.65473 -4.8195,1.00027 -7.27471,1.03664c-2.70983,0.03638 -5.41965,-0.30918 -8.02037,-1.03664c-1.16395,-0.32736 -2.29153,-0.72747 -3.40093,-1.20033c-0.67291,-0.2728 -1.96418,-1.25489 -2.69164,-1.32764c-0.90934,-0.09093 -2.09148,1.14577 -2.8917,1.58225c-0.85478,0.45467 -1.74593,0.85478 -2.67346,1.18215c-1.81868,0.63654 -3.74648,0.98209 -5.67428,1.05483c-4.34664,0.16369 -8.60235,-1.12759 -12.03965,-3.80104h0.72747c-5.3651,4.32846 -13.33092,4.31027 -18.67783,-0.03638l0.80022,-0.10912c-4.41939,5.92889 -12.33064,7.23834 -19.27799,6.45631c-5.34691,-0.60016 -14.49487,-3.7101 -12.98536,-10.7302l0.36373,0.61836c-4.69219,-0.70929 -7.25654,-6.21988 -5.36511,-10.4574c2.32791,-5.20142 9.27527,-6.12894 14.13114,-4.60126l-0.63654,0.49104c-0.32735,-6.76548 -0.29099,-13.87651 4.89224,-18.95063c4.69219,-4.61944 11.40312,-6.56543 17.96855,-7.47477c6.56542,-0.90934 14.00383,-0.50923 19.42349,3.72828c4.38302,3.4373 7.12922,9.12976 5.34691,14.64037z" fill="#1e628c"/></g><path d="M305.7037,189.66194c2.29153,-1.49131 6.12895,-5.3651 9.51169,-5.81977c0.85478,2.63709 -0.18188,5.89251 -3.00082,6.52905c-1.32764,0.30917 -2.81895,0.05456 -3.94653,0.74566c-0.6911,0.41831 -1.1094,1.12759 -1.54587,1.80049c-7.89306,12.09421 -27.26198,15.5497 -39.22889,7.00191c-8.00219,3.81923 -18.11404,3.31 -25.62518,-1.32764c-6.01982,5.31054 -16.27717,5.52878 -22.55161,0.45467c-4.87405,4.16477 -13.0763,4.14658 -17.95037,-0.03638c-4.32846,6.11076 -13.42184,7.27471 -21.02392,5.89251c-5.3651,-0.96389 -11.65773,-4.72856 -10.3119,-9.7663c-4.80132,-0.50923 -7.12921,-6.8746 -4.49214,-10.7302c0.18188,-0.2728 0.38193,-0.52741 0.60016,-0.76384c1.94599,18.2959 28.40776,11.29399 39.08341,3.07357c1.07302,3.05538 3.34637,5.25598 7.03828,5.60153c4.23751,0.40011 8.43867,-1.16395 12.49431,-2.09148c1.9278,-0.43649 3.98291,-0.83659 5.91071,-0.18187c2.23698,0.76384 4.00109,2.38247 6.29263,3.05538c5.16505,1.5095 10.20278,-1.61863 13.51278,-5.32873c2.07329,3.49186 5.47423,5.56516 10.07548,5.00137c4.27389,-0.5456 8.2568,-2.70983 11.58498,-5.29235c3.65555,6.51087 15.02228,6.65637 20.73293,2.20061c3.83741,3.54643 8.47505,2.85532 12.87625,-0.01819z" fill="#a9daf0"/></g></g></svg>