<svg version="1.1" xmlns="http://www.w3.org/2000/svg" xmlns:xlink="http://www.w3.org/1999/xlink" width="79.2299" height="33.10908" viewBox="0,0,79.2299,33.10908"><g transform="translate(-200.55542,-163.06677)"><g data-paper-data="{&quot;isPaintingLayer&quot;:true}" fill-rule="nonzero" stroke-linecap="butt" stroke-linejoin="miter" stroke-miterlimit="10" stroke-dasharray="" stroke-dashoffset="0" style="mix-blend-mode: normal"><g><g stroke="none" stroke-width="1"><path d="M266.00566,171.54137c0.1398,0.09036 0.04786,0.27771 -0.08134,0.2972c-1.31674,0.22741 -2.60525,-0.10599 -3.92342,-0.26424c-1.13778,-0.14272 -2.28856,-0.18112 -3.43378,-0.24314c-2.30456,-0.12928 -4.62672,-0.15918 -6.93162,0.00668c-2.27145,0.16222 -4.53023,0.51528 -6.71325,1.16604c-1.06741,0.31666 -2.11803,0.70051 -3.13283,1.15223c-0.51231,0.23045 -1.01084,0.47565 -1.50081,0.74969c-0.5047,0.28784 -1.88378,1.38434 -2.45329,0.90355c-0.11587,-0.09432 -0.2468,-0.16533 -0.27944,-0.32828c-0.01648,-0.07671 -0.03264,-0.16295 -0.04913,-0.23966c-0.05769,-0.26852 0.101,-0.60122 0.32973,-0.75069c3.973,-2.64757 8.64512,-3.84841 13.38838,-4.1852c2.50985,-0.1733 5.02128,-0.10852 7.53126,0.14187c1.30961,0.1294 2.61572,0.36341 3.92246,0.57841c1.19784,0.19708 2.30677,0.34834 3.33167,1.02046z" fill="#f9b8be"/><path d="M243.39097,167.03525c-1.12208,-0.18503 -2.19882,-0.58753 -3.32455,-0.806c-1.28186,-0.24749 -2.59637,-0.37228 -3.89773,-0.46333c-0.43685,-0.03362 -0.38578,-0.70792 0.02017,-0.74674c2.34024,-0.22657 5.39693,0.04684 7.41818,1.39013c0.3121,0.2056 0.17686,0.69142 -0.21608,0.62594z" fill="#f9b8be"/><path d="M229.63887,166.14305c0.18877,0.19196 -0.09292,0.50152 -0.30689,0.35156c-0.30686,-0.21971 -1.95873,0.63444 -2.33535,0.79325c-0.65197,0.27816 -1.29077,0.59008 -1.91611,0.92624c-0.61059,0.32238 -1.20342,0.68344 -1.77328,1.06907c-0.49187,0.33111 -0.95807,0.74876 -1.52618,0.93927c-0.21177,0.0691 -0.44318,-0.12905 -0.30273,-0.34335c0.49664,-0.7594 1.43662,-1.25169 2.19955,-1.71657c0.75801,-0.46028 1.53837,-0.87696 2.34995,-1.23072c0.88894,-0.38926 1.91024,-0.89312 2.88936,-0.98898c0.30561,-0.02788 0.49581,-0.02153 0.71677,0.20482z" fill="#f9b8be"/><path d="M243.91301,180.06333c-2.85207,0.29994 -5.8135,0.16777 -8.68411,0.02436c-0.26138,-0.01348 -0.29924,-0.44796 -0.03199,-0.46761c2.87903,-0.25143 5.84364,-0.50001 8.73627,-0.30349c0.43685,0.03362 0.38578,0.70792 -0.02017,0.74674z" fill="#f9b8be"/><path d="M245.83975,190.22958c-0.80609,1.47268 -2.29992,2.5844 -3.76792,3.34947c-1.10944,0.57708 -2.61673,1.37892 -3.91047,1.05963c-0.29752,-0.07182 -0.35171,-0.44496 -0.12202,-0.62295c0.60061,-0.45126 1.377,-0.60624 2.07096,-0.85919c0.64086,-0.23092 1.25478,-0.51035 1.85127,-0.83797c1.26573,-0.69565 2.35251,-1.59245 3.55024,-2.39033c0.2094,-0.14059 0.45951,0.0677 0.33286,0.29674z" fill="#f9b8be"/><path d="M230.29967,188.99207c0.25425,0.08465 0.25074,0.47491 0.04657,0.60139c-1.07885,0.65904 -2.75776,0.46971 -3.97907,0.40514c-0.99798,-0.05235 -2.49668,-0.07858 -3.34246,-0.69711c-0.18149,-0.12507 -0.11157,-0.36553 0.08085,-0.42575c1.02938,-0.31793 2.4363,0.0337 3.51654,0.04596c1.17043,0.02003 2.56185,-0.30486 3.68217,0.0753z" fill="#f9b8be"/><path d="M264.94913,187.93486c0.14361,-0.02376 0.22651,0.20275 0.10033,0.2747c-1.95654,1.13913 -4.03603,1.39819 -6.27054,1.45216c-0.23348,0.00649 -0.28895,-0.32861 -0.0496,-0.36823c2.0879,-0.36829 4.10925,-1.02443 6.21031,-1.35895z" fill="#f9b8be"/><path d="M277.77635,180.73654c-0.0593,0.35031 -0.00573,0.74246 -0.27173,1.00969c-0.05897,0.05516 -0.17801,0.05595 -0.23808,0.00158c-0.37518,-0.31243 -0.25088,-0.8986 -0.1372,-1.30898c0.09735,-0.34904 0.28345,-0.79031 0.60396,-0.97956c0.14092,-0.08575 0.30465,0.00065 0.29894,0.17184c-0.00747,0.36631 -0.18645,0.73642 -0.25098,1.10084z" fill="#f9b8be"/><path d="M237.08868,173.28976c-0.01126,0.19481 -0.15267,0.43764 -0.37236,0.45887c-0.63515,0.05973 -0.8076,-0.19358 -1.28485,-0.58559c-0.48644,-0.40184 -1.02203,-0.75772 -1.57364,-1.06176c-1.0333,-0.56292 -2.17329,-0.92468 -3.33404,-1.09195c-1.10862,-0.16078 -2.22848,-0.12674 -3.33187,-0.016c-1.1129,0.11043 -2.24594,0.39634 -3.37056,0.2874c-0.0997,-0.00809 -0.16673,-0.13887 -0.0645,-0.20686c1.9957,-1.31396 5.12483,-1.64274 7.45951,-1.27442c1.17914,0.18693 2.31786,0.58674 3.38001,1.1411c0.82359,0.42738 2.55703,1.26597 2.49722,2.34462z" fill="#f3787a"/><path d="M236.70214,186.43987c-0.39187,0.90095 -1.43996,1.49437 -2.2964,1.90852c-0.95806,0.46313 -1.95603,0.69641 -3.0198,0.76087c-0.36727,0.02107 -0.48533,-0.57794 -0.11648,-0.64657c0.89115,-0.1702 1.74869,-0.47483 2.53461,-0.91513c0.82459,-0.45806 1.40777,-1.24313 2.2173,-1.67788c0.33461,-0.18402 0.84136,0.18042 0.67618,0.56527z" fill="#f3787a"/><path d="M256.11392,188.92057c0.30972,0.13411 0.35028,0.63057 0.00837,0.74769c-1.82558,0.63887 -3.68441,0.27692 -5.56843,-0.04303c-1.75611,-0.30141 -3.49955,-0.69759 -5.21064,-1.20696c-1.78194,-0.52601 -3.54597,-1.16091 -5.23866,-1.93626c-1.62248,-0.73967 -3.61886,-1.5442 -4.57065,-3.12315c-0.08543,-0.15043 0.07214,-0.30703 0.2148,-0.30227c1.64469,0.07394 3.19234,1.05865 4.68944,1.70371c1.64737,0.70718 3.3307,1.33463 5.04607,1.85842c1.79082,0.54536 3.6189,0.97294 5.46092,1.26768c1.76627,0.28269 3.51288,0.29815 5.16911,1.02466z" fill="#f3787a"/><path d="M250.75226,175.69288c-0.69765,1.07642 -0.595,2.56514 -1.46399,3.49778c-0.15297,0.16152 -0.37551,-0.01729 -0.3839,-0.19371c-0.05019,-1.49174 0.34726,-2.98757 1.28125,-4.15607c0.57637,-0.72341 1.91679,-2.08781 2.95977,-1.67216c0.08005,0.02648 0.11919,0.13728 0.08353,0.20749c-0.22446,0.44952 -0.72045,0.61863 -1.11104,0.91027c-0.53705,0.401 -0.9996,0.85212 -1.36594,1.41592z" fill="#f3787a"/><path d="M244.5336,176.01851c0.58965,0.01968 0.64763,0.84995 0.05511,0.91587c-1.57226,0.18079 -3.14721,0.29961 -4.73105,0.39908c-1.49332,0.09774 -3.22315,0.43513 -4.68682,0.07208c-0.16992,-0.04376 -0.20923,-0.29261 -0.0542,-0.37313c1.3182,-0.69865 3.16641,-0.73217 4.64199,-0.86859c1.59984,-0.15131 3.17259,-0.20355 4.77987,-0.14991z" fill="#f3787a"/><path d="M229.3861,179.84984c0.21715,0.05486 0.20905,0.44019 -0.02934,0.45128c-1.69796,0.09567 -3.41065,-0.08051 -5.11336,-0.12781c-0.88939,-0.02492 -1.78006,-0.0118 -2.67532,-0.0036c-0.68571,0.00568 -1.39299,0.08681 -2.04651,-0.15876c-0.08924,-0.03631 -0.09399,-0.17927 -0.01632,-0.22429c0.60141,-0.33221 1.29694,-0.34708 1.97441,-0.39112c0.89226,-0.06067 1.79244,-0.07348 2.68737,-0.07217c1.74266,-0.00849 3.53556,0.0466 5.22398,0.52188z" fill="#f3787a"/><path d="M229.07771,193.08347c0.22413,0.13126 0.14359,0.5475 -0.14078,0.50944c-1.67734,-0.23688 -3.24433,-0.92709 -4.7419,-1.70069c-1.41815,-0.72809 -3.09516,-1.54576 -4.19833,-2.72512c-0.2712,-0.28993 0.01334,-0.68508 0.37062,-0.54939c1.49536,0.55453 2.87973,1.58142 4.31755,2.29113c1.46602,0.72017 2.99261,1.33764 4.39744,2.17953z" fill="#f3787a"/><path d="M266.88264,180.21109c-0.06928,0.22144 -0.34254,0.13614 -0.3985,-0.04186c-0.41175,-1.35623 -0.16283,-2.8237 0.13475,-4.18005c0.28158,-1.30452 0.59106,-3.16035 1.51933,-4.15765c0.13331,-0.14312 0.33715,0.02554 0.33667,0.18262c-0.0005,0.72836 -0.3277,1.40295 -0.50795,2.09674c-0.27331,1.05725 -0.46166,2.13637 -0.60247,3.21709c-0.12811,0.98593 -0.1838,1.94094 -0.48675,2.8877z" fill="#e15a59"/><path d="M267.04483,186.90512c-0.59482,-1.43374 -0.76341,-2.94371 -0.67394,-4.48316c0.02093,-0.34206 0.53419,-0.31541 0.52767,0.02237c-0.02463,1.45116 0.26158,2.86031 0.65272,4.26347c0.08527,0.298 -0.38742,0.48217 -0.50645,0.19732z" fill="#e15a59"/><path d="M268.11744,176.16296c-0.30368,-0.60045 -0.1854,-1.29154 0.01133,-1.90862c0.1709,-0.55605 0.52204,-1.52024 1.20014,-1.58331c0.06689,-0.00729 0.11713,0.05627 0.12474,0.11366c0.0507,0.47775 -0.33053,0.91728 -0.49238,1.34509c-0.24555,0.65353 -0.20708,1.35462 -0.41951,2.014c-0.06341,0.1883 -0.33494,0.19353 -0.42434,0.01917z" fill="#e15a59"/><path d="M268.70553,186.92721c-0.51656,-0.64088 -0.65143,-1.3071 -0.7484,-2.11011c-0.06782,-0.53545 -0.24198,-1.45053 0.19964,-1.84521c0.04883,-0.03645 0.1295,-0.029 0.16628,0.01031c0.40704,0.35635 0.35881,1.23069 0.44201,1.73332c0.12805,0.72788 0.30618,1.38127 0.25748,2.12705c-0.00539,0.16168 -0.22572,0.20193 -0.31702,0.08463z" fill="#e15a59"/><path d="M231.72966,168.68357c-0.01317,0.25187 -0.30594,0.32302 -0.49884,0.2547c-0.70139,-0.23763 -0.80503,-1.12656 -0.58895,-1.7525c0.237,-0.68237 0.84285,-1.14773 1.55804,-1.18099c0.43875,-0.02344 0.55286,0.55163 0.171,0.72455c-0.32384,0.14629 -0.61805,0.40307 -0.70128,0.75733c-0.08877,0.37788 0.07827,0.79286 0.05543,1.19199z" fill="#e15a59"/><path d="M242.98521,169.92089c-0.82394,0.1534 -1.76676,0.44566 -2.43158,0.96617c-0.4253,0.33333 -0.69574,1.01934 -1.24197,1.12489c-0.1341,0.02408 -0.23554,-0.0745 -0.26978,-0.1899c-0.23202,-0.75039 0.97918,-1.52402 1.52193,-1.81059c0.81444,-0.43935 1.53678,-0.54379 2.41856,-0.29061c0.08956,0.0268 0.11301,0.17991 0.00776,0.19544z" fill="#e15a59"/><path d="M243.04815,188.57494c-0.53372,0.7296 -1.84681,0.41918 -2.58498,0.14223c-0.89794,-0.33941 -1.83788,-0.98965 -2.21668,-1.90681c-0.0878,-0.22192 0.13587,-0.50485 0.36364,-0.34014c0.73451,0.52914 1.39389,1.02719 2.31562,1.22458c0.66653,0.14126 1.44545,-0.0898 2.02336,0.28176c0.191,0.12538 0.22903,0.41228 0.09937,0.58887z" fill="#e15a59"/><path d="M232.24016,192.61299c0.34871,0.39249 0.05686,1.00638 -0.48239,0.90269c-0.8607,-0.17154 -1.2184,-1.29269 -0.88011,-2.01454c0.31768,-0.67493 1.3878,-1.21524 1.99851,-0.54266c0.14249,0.15234 0.06798,0.38787 -0.12905,0.44319c-0.3508,0.09779 -0.69316,0.08636 -0.83046,0.49119c-0.10559,0.31067 0.12124,0.50391 0.31889,0.7152z" fill="#e15a59"/></g><g stroke="none" stroke-width="1"><path d="M257.84024,174.13946c-1.68211,0.19141 -3.1133,0.42451 -4.49998,1.46365c-0.60061,0.45126 -1.1234,0.99555 -1.55822,1.61419c-0.39455,0.55334 -0.58623,1.30388 -1.06415,1.78779c-0.10351,0.10604 -0.24363,0.0252 -0.26313,-0.104c-0.1087,-0.73676 0.42598,-1.49489 0.83068,-2.06693c0.49933,-0.69743 1.13356,-1.29989 1.83055,-1.78601c1.29141,-0.89473 3.12872,-1.59987 4.736,-1.26059c0.20336,0.04011 0.17022,0.31988 -0.02093,0.34206z" fill="#7d999f"/><path d="M260.26655,185.3126c-0.99676,1.33779 -3.35459,1.37809 -4.84155,0.99998c-1.79367,-0.45976 -3.61917,-1.82032 -4.06625,-3.68711c-0.0458,-0.1967 0.18198,-0.31764 0.31464,-0.15612c1.09873,1.3125 2.17766,2.50533 3.88638,2.94321c0.8542,0.22369 1.75897,0.21581 2.60843,0.01089c0.63833,-0.15483 1.21974,-0.45917 1.86632,-0.57563c0.26328,-0.04358 0.35188,0.29738 0.22713,0.46935z" fill="#7d999f"/><path d="M258.27654,176.04398c-0.62056,-0.09212 -1.16805,-0.23417 -1.79687,-0.07902c-0.677,0.1726 -1.08281,0.6351 -1.62382,1.01218c-0.12189,0.08638 -0.3132,-0.02949 -0.2842,-0.18562c0.27223,-1.45241 2.82124,-2.08619 3.84945,-1.08547c0.12903,0.12808 0.05911,0.36854 -0.14457,0.33794z" fill="#7d999f"/><path d="M261.20301,181.93051c-0.10447,0.13457 -0.36981,0.09715 -0.38248,-0.09369c-0.04451,-0.80602 0.30488,-1.5751 0.20363,-2.39254c-0.0572,-0.42561 -0.19636,-0.82061 -0.45615,-1.16728c-0.15042,-0.2002 -0.28498,-0.30467 -0.35313,-0.54498c-0.01679,-0.06721 0.03758,-0.12727 0.09528,-0.14439c0.71045,-0.17623 1.22904,0.83127 1.38182,1.3886c0.25913,0.93696 0.0706,2.16366 -0.49816,2.94446z" fill="#7d999f"/><path d="M259.25208,181.90349c-0.40485,0.43398 -1.16745,0.60371 -1.72509,0.766c-0.61534,0.1794 -1.28839,0.37594 -1.9332,0.29728c-0.21352,-0.02141 -0.22333,-0.29785 -0.05388,-0.38263c0.58047,-0.27579 1.26349,-0.34344 1.88771,-0.50351c0.55241,-0.14818 1.17188,-0.45123 1.74616,-0.39874c0.11413,0.00381 0.14772,0.13823 0.07861,0.21209z" fill="#9bbec3"/><path d="M259.55474,180.10933c-1.186,0.73163 -2.64811,1.17793 -3.98832,1.53785c-0.2449,0.06324 -0.38628,-0.2652 -0.14962,-0.36679c1.27507,-0.54776 2.71214,-1.09963 4.10767,-1.26251c0.04787,-0.00792 0.06927,0.06421 0.03028,0.09146z" fill="#9bbec3"/><path d="M258.50072,178.59837c0.22065,-0.04976 0.3086,0.31021 0.10142,0.38422c-0.70348,0.25263 -1.41551,0.47642 -2.11439,0.73397c-0.91588,0.34075 -1.79785,0.80642 -2.74368,1.0462c-0.19211,0.05072 -0.39278,-0.21306 -0.18862,-0.33954c1.41997,-0.8952 3.31814,-1.42692 4.94986,-1.81996z" fill="#9bbec3"/><path d="M257.7632,178.01677c-0.80525,0.44918 -1.71036,1.03784 -2.60832,1.26971c-0.13441,0.0336 -0.20479,-0.14013 -0.12554,-0.23269c0.64263,-0.71168 1.72606,-1.08017 2.64209,-1.28286c0.14392,-0.03328 0.21795,0.17389 0.09177,0.24585z" fill="#9bbec3"/></g><g stroke="none" stroke-width="1"><path d="M233.47504,175.58277c0.08385,0.19797 -0.08768,0.48741 -0.32385,0.43193c-0.63768,-0.14982 -1.16945,-0.61982 -1.81569,-0.7985c-0.69347,-0.18977 -1.42991,-0.09057 -2.10864,-0.29413c-0.1696,-0.05326 -0.24726,-0.29388 -0.10507,-0.41767c1.05365,-0.90267 3.79204,-0.22096 4.34867,1.07345z" fill="#ffcf73"/><path d="M223.32051,177.44324c0.15597,0.17659 -0.02443,0.44667 -0.24096,0.3728c-1.01666,-0.34812 -1.93314,-0.84526 -2.99229,-1.06151c-0.53893,-0.1132 -1.08927,-0.16965 -1.64088,-0.18805c-0.45191,-0.01032 -0.86214,0.01407 -1.25332,-0.24654c-0.1303,-0.09004 -0.13868,-0.26646 -0.03058,-0.36759c0.66989,-0.67269 2.07776,-0.34958 2.91388,-0.15506c1.15758,0.26238 2.4315,0.74764 3.25366,1.64625z" fill="#ffcf73"/><path d="M229.02874,177.86227c-0.99321,-0.19501 -1.72185,-1.0429 -2.54163,-1.58441c-0.4844,-0.32084 -1.00255,-0.62853 -1.55273,-0.83256c-0.32906,-0.12524 -0.97608,-0.42295 -1.32687,-0.32517c-0.298,0.08527 -0.63751,-0.29738 -0.48993,-0.58286c0.4892,-0.96436 2.17856,-0.23196 2.89152,0.08698c1.15393,0.51457 2.92888,1.53544 3.34349,2.80607c0.0691,0.21177 -0.07325,0.48313 -0.32385,0.43192z" fill="#ffcf73"/><path d="M229.03579,183.64184c-0.64912,0.4782 -1.29173,0.90424 -2.11614,0.92909c-0.24792,0.01077 -0.36202,-0.27867 -0.21334,-0.45462c0.50599,-0.6115 1.23626,-0.9537 1.87523,-1.41319c0.71204,-0.50942 1.319,-1.15087 2.06259,-1.60688c0.23333,-0.14455 0.46222,0.12968 0.369,0.35507c-0.3922,0.91046 -1.19159,1.61215 -1.97735,2.19051z" fill="#ffcf73"/><path d="M223.85144,183.07368c0.2636,-0.05308 0.37518,0.31244 0.15198,0.43829c-1.16476,0.6657 -2.46455,1.09837 -3.8027,1.25364c-0.86007,0.09507 -2.52127,0.23004 -2.98598,-0.68045c-0.04897,-0.10161 0.01254,-0.23285 0.10891,-0.26771c0.52086,-0.2016 1.05472,0.06377 1.59095,0.11499c0.55525,0.05185 1.11828,0.01352 1.67338,-0.07268c1.1007,-0.17273 2.16083,-0.55627 3.25851,-0.78146z" fill="#ffcf73"/><path d="M217.10119,182.21047c-1.00622,0.19492 -2.09819,-0.03671 -3.11392,-0.12774c-0.99671,-0.0904 -2.0042,-0.14306 -2.99899,-0.29051c-0.24632,-0.03679 -0.30051,-0.40992 -0.03263,-0.44858c0.9853,-0.1385 1.99468,-0.14289 2.98775,-0.08595c1.05503,0.05426 2.254,0.07523 3.20852,0.57362c0.18244,0.09654 0.14566,0.34287 -0.05074,0.37915z" fill="#ffcf73"/><path d="M233.84024,183.18332c0.02852,0.28658 -0.37854,0.50151 -0.55004,0.21967c-0.21651,-0.3595 -0.27958,-0.75199 -0.21806,-1.16887c0.0306,-0.20368 0.09893,-0.39659 0.18595,-0.57935c0.05073,-0.09351 0.107,-0.21065 0.17644,-0.29403c0.02457,-0.02299 0.05405,-0.05056 0.07862,-0.07355l-0.00982,0.00919c0.01475,-0.01379 0.02948,-0.02758 0.04422,-0.04137c0.00492,-0.0046 0.01475,-0.0138 0.01475,-0.0138c0.06784,-0.03582 0.08259,-0.04961 0.05802,-0.02662c0.22651,-0.0829 0.51468,0.12668 0.40086,0.39898c-0.21322,0.54035 -0.22878,1.00636 -0.17174,1.57954z" fill="#ffcf73"/><path d="M209.67462,180.35829c-1.42406,0.44757 -3.06669,0.169 -4.50405,-0.12652c-0.73769,-0.14839 -3.17382,-0.61531 -2.85833,-1.79492c0.00983,-0.00919 0.01997,-0.0279 0.03439,-0.03218c0.49772,-0.0786 0.98846,0.33767 1.45923,0.4962c0.65907,0.22194 1.35478,0.34513 2.03667,0.45358c1.26442,0.19931 2.58892,0.16734 3.82957,0.50866c0.25947,0.07055 0.23822,0.42212 0.00251,0.49518z" fill="#f58868"/><path d="M215.49138,174.24466c-0.28436,-0.03806 -0.51008,-0.12176 -0.78573,0.0071c-0.20322,0.09795 -0.45319,0.31335 -0.56479,0.5191c-0.12174,0.22445 -0.55401,0.19574 -0.54384,-0.1086c0.01572,-0.61358 0.42421,-1.01412 1.03606,-1.08892c0.38724,-0.04896 0.86514,0.03839 1.062,0.41628c0.07164,0.13569 -0.07577,0.27359 -0.2037,0.25504z" fill="#f58868"/><path d="M223.26698,172.91414c-0.40008,0.00569 -0.77384,-0.20672 -1.18311,-0.21086c-0.47125,-0.00145 -0.73661,0.24677 -1.06981,0.53081c-0.08814,0.07323 -0.24331,0.01568 -0.27785,-0.0902c-0.19447,-0.59204 0.42548,-1.05217 0.93794,-1.14456c0.5987,-0.10856 1.35256,0.12607 1.77545,0.57816c0.1379,0.14741 -0.02061,0.33255 -0.18262,0.33667z" fill="#f58868"/><path d="M231.74787,172.98774c0.18053,0.15361 0.02899,0.41514 -0.19245,0.34587c-0.72533,-0.23368 -1.40944,-0.56119 -2.15602,-0.72892c-0.45365,-0.10083 -0.89573,-0.12034 -1.35081,-0.03556c-0.22033,0.04025 -1.33499,0.3458 -1.296,0.60418c0.01157,0.08131 -0.02378,0.14203 -0.10082,0.16801c-0.00951,-0.00032 -0.02393,0.00397 -0.02884,0.00856c-0.10556,0.02503 -0.23808,0.00157 -0.28183,-0.11414c-0.36738,-0.9739 1.41936,-1.44745 2.0729,-1.48753c1.22116,-0.0735 2.42295,0.43314 3.33879,1.23493z" fill="#f58868"/><path d="M232.09072,184.11037c-0.22973,1.03489 -0.77012,1.96422 -1.43463,2.76086c-0.12903,0.15755 -0.40435,-0.00873 -0.30781,-0.19117c0.46304,-0.89381 0.88043,-1.84629 1.4045,-2.71426c0.10049,-0.1585 0.37677,-0.02076 0.33762,0.15408z" fill="#f58868"/><path d="M223.10486,186.75726c-0.09748,-0.07467 -0.15834,-0.24807 -0.12109,-0.36584c0.28361,-0.93789 1.17683,-1.59836 2.15325,-1.47056c0.10889,0.01792 0.11857,0.15629 0.03137,0.20099c-0.32479,0.17482 -0.67606,0.42969 -0.93254,0.69725c-0.25156,0.26296 -0.63901,1.31639 -1.13101,0.93816z" fill="#f58868"/></g><g stroke="#010101"><path d="M279.46083,180.61661c-1.57884,1.94674 -4.33132,4.82549 -8.5324,7.03223c-6.09547,3.19561 -11.65741,3.10043 -15.70161,3.0321c0,0 -9.3966,-0.16604 -17.79406,-5.16405c-1.0455,-0.62521 -2.42782,-1.57109 -3.10522,-3.24086c-0.88455,-2.16702 -0.10317,-4.32605 0.15349,-5.02681c1.81419,-5.00471 10.47813,-7.848 16.99846,-8.51109c1.99692,-0.20946 16.18119,-1.42606 25.21677,8.2729c0.49643,0.53071 0.95386,1.08869 0.95386,1.08869c0.33856,0.41119 0.76778,0.9587 1.23092,1.63111c0.24076,0.34603 0.43524,0.65244 0.57979,0.88578z" fill="#f69799" stroke-width="0.53"/><path d="M262.96925,182.78448c-1.58399,3.81273 -6.64623,5.43375 -10.05994,3.16326c-3.22273,-2.1451 -3.74355,-6.93734 -1.54902,-9.9299c1.63591,-2.23047 4.77525,-3.43486 7.57004,-2.44659c3.56182,1.25666 5.50417,5.67742 4.0294,9.21291z" fill="#b5c6cc" stroke-width="0.53"/><path d="M257.64741,176.20864c1.88308,0.34849 3.13205,2.2944 3.12356,4.11742c-0.01579,2.04176 -1.60984,4.15938 -3.80901,4.15264c-2.2372,-0.00802 -3.97247,-2.21772 -3.87188,-4.37566c0.1063,-2.32913 2.33837,-4.30646 4.55732,-3.8944z" fill="#e2f4fd" stroke-width="0.27"/><path d="M268.02128,171.05641c6.38101,2.65515 9.63376,7.03871 9.63376,7.03871c-0.92337,1.27833 -1.18105,3.72144 -0.14238,4.69394c0,0 -5.31868,4.88298 -9.60927,6.20604c-1.60176,0.49401 -2.9932,-6.02683 -2.80033,-8.9529c0.19287,-2.92608 1.53763,-9.55553 2.91331,-8.98119z" fill="#f26c6e" stroke-width="0.27"/><g stroke-width="0.27"><path d="M236.51134,174.32734l-1.13056,1.63799l-0.88533,1.27961l-0.58298,3.34627l1.16318,2.94754c0,0 -1.27497,1.82835 -4.21827,3.86286c-2.93869,2.03941 1.3624,-4.02006 -1.58518,-1.71435c-2.94758,2.30571 -6.82283,2.30967 -7.29974,1.33688c-0.47691,-0.9728 3.5081,-2.83924 1.13895,-1.46157c-2.36914,1.37767 -7.17669,0.50312 -10.52485,-0.59406c-3.34815,-1.09718 5.13882,-2.34684 1.67901,-1.81011c-3.45981,0.53673 -8.3738,1.28199 -7.07551,-0.81695c1.29369,-2.10384 4.29171,-1.49916 0.03762,-1.26982c-4.24918,0.22475 -7.38623,-3.63129 -6.33168,-3.41995c11.56635,2.33788 13.58783,-1.74588 13.58783,-1.74588c0,0 -1.77246,0.33121 -1.71072,-1.66141c0.06174,-1.99262 7.67248,0.33225 7.67248,0.33225c0,0 -1.63435,-0.81148 0.0773,-2.45864c1.71165,-1.64716 5.29879,0.84809 5.02837,0.6772c-0.27041,-0.17089 2.56784,-3.47996 10.95057,1.53183z" fill="#f3723f"/><path d="M235.01432,175.53417l-1.07343,4.06302l0.84868,3.24172c0,0 -3.01196,2.52256 -1.92562,0.92593c1.08634,-1.59663 -1.88989,-0.28682 -1.88989,-0.28682c0,0 -2.37868,1.94862 -4.3585,2.78705c-1.97983,0.83843 -2.36956,0.10657 -0.99047,-1.27557c1.37909,-1.38214 -0.36562,-1.45466 -3.27322,-0.34727c-2.90758,1.10739 -5.44369,0.07063 -6.5981,-0.28686c-1.15441,-0.35749 1.59734,-0.6465 4.18407,-1.26949c2.58643,-0.61348 -0.6717,-1.55532 -1.51943,-0.97426c-0.84773,0.58106 -5.11161,-0.32295 -8.83264,0.33836c-3.72104,0.6613 1.61938,-1.16466 1.61938,-1.16466c0,0 4.41218,-1.39993 0.84305,-2.1522c-3.57373,-0.75719 6.49165,-1.08774 6.49165,-1.08774c0,0 -3.01589,-1.92396 -1.14068,-2.76588c1.87521,-0.84192 5.41084,1.05654 5.41084,1.05654c0,0 -1.27909,-1.89932 0.08634,-2.8725c1.36545,-0.97318 5.47451,2.28689 5.47451,2.28689c0,0 -1.81362,-1.00313 -0.74838,-2.39574c1.07016,-1.39722 4.81011,0.51282 7.38756,2.16507z" fill="#fdc13b"/></g><path d="M248.11113,169.2446c0,0 -7.9826,1.25697 -11.6093,5.08244c-0.9129,0.96449 -0.195,-2.85809 -7.27672,-3.06114c-3.41001,-0.09953 -9.04996,0.43107 -11.76688,1.95899c-2.71692,1.52792 -0.61327,-0.02523 -0.61327,-0.02523c0,0 1.23296,-1.85356 4.43733,-4.1507c9.55018,-6.86021 15.17311,-5.88229 18.74859,-5.32022c3.58007,0.56698 5.76455,3.01066 8.08518,5.51124z" fill="#f69799" stroke-width="0.53"/><path d="M248.21821,189.57108c-2.16646,2.57933 -4.20246,5.10113 -7.74344,5.78749c-3.53638,0.69126 -9.09298,1.86258 -19.04886,-4.65369c-3.3405,-2.18234 -4.68474,-3.98387 -4.68474,-3.98387c0,0 -2.19292,-1.47756 0.6109,-0.04626c2.80382,1.4313 8.47227,1.75855 11.87373,1.54359c7.06067,-0.44987 5.9522,-4.03825 7.08964,-3.31477c5.71475,3.64692 11.90276,4.66751 11.90276,4.66751z" fill="#f69799" stroke-width="0.53"/><g fill="#f26c6e" stroke-width="0.27"><path d="M244.25407,170.27268c0,0 -3.10063,0.61536 -4.65344,1.78224c-1.26939,0.94784 -2.90884,-2.99151 -0.88525,-4.28549c2.27166,-1.45232 4.35311,0.94031 5.5341,2.49835z"/><path d="M243.68664,188.27253c-1.22582,1.49675 -3.36342,3.78189 -5.60103,2.21716c-1.99082,-1.39941 -0.24847,-5.24968 0.99356,-4.23708c1.52005,1.24087 4.60747,2.01993 4.60747,2.01993z"/><path d="M231.10017,166.14897c0.7599,-0.71081 1.96038,-0.66221 2.68135,0.10854c0.72097,0.77075 0.6894,1.97181 -0.07049,2.68262c-0.7599,0.71081 -1.96038,0.66221 -2.68134,-0.10854c-0.72097,-0.77075 -0.6894,-1.97181 0.07049,-2.68262z"/><path d="M232.54221,194.1179c-1.04585,-0.04443 -1.86831,-0.93355 -1.8383,-1.97511c0.03492,-1.04617 0.90469,-1.85976 1.95053,-1.81533c1.04585,0.04443 1.86832,0.93354 1.83831,1.97511c-0.03492,1.04617 -0.90469,1.85976 -1.95054,1.81533z"/></g><path d="M247.8135,179.16046c0.11659,1.64153 -2.33411,1.32646 -4.49445,1.44003c-2.16032,0.11356 -23.8186,-0.09992 -25.86177,-0.50135c-2.04317,-0.40144 -4.88685,-0.21071 -1.55289,-0.68499l3.33395,-0.47428c0,0 24.30357,-1.73576 26.73428,-1.10717c1.90685,0.4921 1.84119,1.31824 1.84119,1.31824z" fill="#f69799" stroke-width="0.53"/></g></g></g></g></svg>