<svg version="1.1" xmlns="http://www.w3.org/2000/svg" xmlns:xlink="http://www.w3.org/1999/xlink" width="45.24348" height="46.74917" viewBox="0,0,45.24348,46.74917"><g transform="translate(-195.97811,-195.48337)"><g data-paper-data="{&quot;isPaintingLayer&quot;:true}" stroke-linejoin="miter" stroke-miterlimit="10" stroke-dasharray="" stroke-dashoffset="0" style="mix-blend-mode: normal"><path d="" fill="none" fill-rule="nonzero" stroke="#e6ac55" stroke-width="2" stroke-linecap="round"/><g stroke-linecap="butt"><g stroke="none" stroke-width="1"><path d="M219.62482,198.05031c6.74843,0 10.58523,5.32436 14.4946,10.15892c2.98418,3.69168 6.95705,6.17699 6.95705,11.29273c0,7.74618 -3.26537,13.64198 -9.36979,17.40622c-3.26537,1.98643 -6.67586,5.32436 -10.79385,5.32436c-7.60105,0 -17.11597,-3.76424 -20.95278,-9.73261c-2.059,-3.33793 -3.33793,-8.80742 -3.33793,-12.99798c0,-7.45592 3.69168,-14.34948 9.51492,-18.18628c3.33793,-2.26762 9.16117,-3.26537 13.49685,-3.26537v0zM219.47969,199.11155c6.24955,0 9.80517,4.89805 13.49685,9.37886c2.76649,3.48306 6.46724,5.82324 6.46724,10.58523c0,7.17474 -2.98418,12.71679 -8.73486,16.19078c-3.05675,1.85037 -6.18606,4.97062 -10.01379,4.97062c-7.10217,0 -15.98216,-3.48306 -19.53778,-9.08861c-1.91387,-3.05675 -3.12931,-8.16342 -3.12931,-12.07279c0,-6.95705 3.48306,-13.35173 8.80742,-16.97991c3.1928,-2.059 8.5988,-2.98418 12.64423,-2.98418z" fill="#5c3d2f" fill-rule="evenodd"/><path d="M219.27107,196.55368c6.32211,0 9.94123,4.97062 13.70547,9.58748c2.83906,3.48306 6.53981,5.82324 6.53981,10.72129c0,7.31987 -3.05675,12.85285 -8.87999,16.48104c-3.05675,1.85037 -6.32211,4.97062 -10.15892,4.97062c-7.2473,0 -16.26334,-3.48306 -19.81897,-9.16117c-1.98643,-3.12024 -3.1928,-8.30855 -3.1928,-12.29048c0,-7.10217 3.48306,-13.63291 8.95255,-17.2611c3.1928,-2.13156 8.66229,-3.05675 12.85285,-3.05675v0z" fill="#c68e5c" fill-rule="evenodd"/><path d="M232.19648,213.66965c0.49888,-0.35375 1.13381,-0.57144 1.63268,-0.92519v0c0.35375,-0.35375 0.63493,-0.7075 0.91612,-1.13381c0.14513,-0.28118 0.42631,-0.49888 0.63493,-0.78006c0.28118,-0.42631 0.92519,0.07256 1.27894,-0.85262c0.35375,0.20862 0.63493,0.49888 0.92519,0.7075c-0.63493,-0.07256 -1.26987,0.07256 -1.8413,0.35375c0,0 0,0 -0.00907,0c-0.08163,0.0907 -0.42631,0.7075 -0.84355,1.13381v0c-1.27894,1.06124 -0.85262,0.85262 -2.69393,1.48756v0z" fill="#9f7752" fill-rule="evenodd"/><path d="M232.19648,213.66965c0.49888,-0.35375 1.07031,-0.644 1.49663,-1.07031c0.42631,-0.35375 0.7075,-0.7075 0.99775,-1.06124c0.14513,-0.35375 0.42631,-0.57144 0.63493,-0.78006c0.28118,-0.49888 0.92519,0 1.27894,-0.85262c0.28118,0.20862 0.63493,0.42631 0.92519,0.63493c-0.63493,-0.07256 -1.27894,0.07256 -1.85037,0.42631c-0.07256,0 -0.42631,0.57144 -0.85262,0.92519c-1.27894,1.13381 -0.78006,1.13381 -2.63043,1.77781z" fill="#693216" fill-rule="evenodd"/><path d="M201.37504,214.88509c-1.07031,1.69618 -0.78006,1.34243 -2.13156,2.26762c-0.48073,0.34468 -1.16102,0.56237 -1.26987,0.57144c-0.00907,0 -0.01814,0.00907 -0.01814,0.00907c-0.41724,0.48981 -0.69843,1.05217 -0.77099,1.75967c-0.21769,-0.35375 -0.35375,-0.7075 -0.49888,-1.06124c0.98868,-0.13606 0.63493,-0.85262 1.13381,-1.06124c0.29025,-0.14513 0.57144,-0.35375 0.92519,-0.42631c0.42631,-0.20862 0.85262,-0.42631 1.27894,-0.7075c0.49888,-0.35375 0.85262,-0.92519 1.3515,-1.3515z" fill="#9f7752" fill-rule="evenodd"/><path d="M201.37504,214.87602v0c-1.06124,1.63268 -0.98868,1.13381 -2.34018,2.13156c-0.48981,0.36282 -1.13381,0.57144 -1.13381,0.644c-0.42631,0.49888 -0.7075,1.06124 -0.85262,1.70525c-0.13606,-0.34468 -0.27211,-0.68028 -0.40817,-1.02496c-0.00907,-0.01814 0,-0.04535 0.02721,-0.04535c0.86169,-0.16327 0.52609,-0.85262 1.08846,-1.06124c0.28118,-0.07256 0.57144,-0.35375 0.92519,-0.35375c0.42631,-0.20862 0.85262,-0.42631 1.27894,-0.7075v0c0.48981,-0.42631 0.91612,-0.85262 1.41499,-1.27894z" fill="#693216" fill-rule="evenodd"/><path d="M208.2686,230.49536l0.20862,5.12481c0,0 -0.02721,0.04535 -0.05442,0.03628l-2.32204,-1.29708c0,0 -0.02721,-0.03628 -0.01814,-0.05442l2.11342,-3.82774c0,0 0.07256,-0.01814 0.07256,0.01814z" fill="#9f7752" fill-rule="evenodd"/><path d="M208.25045,230.41373l-0.61679,4.72571c0,0 -0.03628,0.04535 -0.05442,0.02721l-2.46717,-1.36964c0,0 -0.02721,-0.03628 -0.00907,-0.05442l3.08396,-3.35607c0,0 0.07256,0 0.06349,0.02721z" fill="#693216" fill-rule="evenodd"/><path d="M216.0692,200.23629l-0.63493,-1.8413v0l-1.03403,-1.79595c-0.00907,-0.01814 0.02721,-0.05442 0.02721,-0.05442l1.95922,-0.33561c0.02721,-0.00907 0.04535,0.03628 0.04535,0.03628l-0.35375,4.00008z" fill="#9f7752" fill-rule="evenodd"/><path d="M216.0692,200.24536l-1.06124,-1.85037l-1.03403,-1.79595c-0.00907,-0.01814 0.02721,-0.05442 0.02721,-0.05442l1.95922,-0.27211c0.02721,0 0.04535,0.03628 0.04535,0.03628l0.07256,3.93658z" fill="#693216" fill-rule="evenodd"/><path d="M229.35743,227.52025c1.56012,1.20637 1.20637,0.91612 2.059,2.34018c0.27211,0.48073 0.35375,1.22451 0.35375,1.34243c0,0.00907 0.00907,0.01814 0.00907,0.01814c0.48981,0.41724 0.98868,0.77099 1.62361,0.97961c-0.36282,0.07256 -0.71657,0.20862 -1.07031,0.28118c-0.07256,-0.92519 -0.78006,-0.7075 -0.92519,-1.20637c-0.06349,-0.29025 -0.28118,-0.644 -0.28118,-0.99775c-0.20862,-0.41724 -0.35375,-0.91612 -0.56237,-1.34243v0c-0.29025,-0.48981 -0.85262,-0.91612 -1.20637,-1.41499z" fill="#9f7752" fill-rule="evenodd"/><path d="M229.35743,227.46583v0c1.56919,1.27894 1.07031,1.14288 1.85037,2.63043c0.28118,0.48981 0.42631,1.12474 0.49888,1.20637v0c0.42631,0.48981 0.92519,0.78006 1.56012,0.98868c-0.36282,0.14513 -0.71657,0.20862 -1.07031,0.35375c0,-0.99775 -0.78006,-0.7075 -0.92519,-1.27894c-0.07256,-0.28118 -0.28118,-0.644 -0.28118,-0.92519c-0.14513,-0.49888 -0.35375,-0.99775 -0.57144,-1.3515c-0.28118,-0.57144 -0.7075,-1.06124 -1.06124,-1.63268z" fill="#693216" fill-rule="evenodd"/><path d="M219.4162,195.49244c6.82099,0 10.72129,5.39693 14.70322,10.30405c3.05675,3.76424 7.10217,6.32211 7.10217,11.50135c0,7.88223 -3.33793,13.8506 -9.58748,17.68741c-3.26537,1.98643 -6.74843,5.39693 -10.86642,5.39693c-7.74618,0 -17.47879,-3.76424 -21.30652,-9.87774c-2.13156,-3.33793 -3.48306,-8.95255 -3.48306,-13.21567c0,-7.60105 3.83681,-14.5581 9.66005,-18.46747c3.48306,-2.34018 9.3063,-3.33793 13.77804,-3.33793v0zM219.27107,196.55368c6.32211,0 9.94123,4.97062 13.70547,9.58748c2.83906,3.48306 6.53981,5.82324 6.53981,10.72129c0,7.31987 -3.05675,12.85285 -8.87999,16.48104c-3.05675,1.85037 -6.32211,4.97062 -10.15892,4.97062c-7.2473,0 -16.26334,-3.48306 -19.81897,-9.16117c-1.98643,-3.12024 -3.1928,-8.30855 -3.1928,-12.29048c0,-7.10217 3.48306,-13.63291 8.95255,-17.2611c3.1928,-2.13156 8.66229,-3.05675 12.85285,-3.05675v0z" fill="#844428" fill-rule="evenodd"/><g><path d="M220.99446,222.19589v0c0,-1.54198 1.28801,-2.76649 2.82999,-2.76649h0.39003c0.19048,0.06349 0.31747,0 0.45352,-0.12699c0.12699,-0.12699 0.19048,-0.25397 0.19048,-0.38096v-6.17699c0,-0.19048 -0.06349,-0.32654 -0.19048,-0.39003c-0.12699,-0.12699 -0.26304,-0.19048 -0.45352,-0.19048l-7.84595,0.89798c-0.25397,0.06349 -0.45352,0.25397 -0.45352,0.51702v9.90495v0c-0.06349,1.47849 -1.28801,2.703 -2.76649,2.703c-1.47849,0 -2.76649,-1.28801 -2.76649,-2.76649c0,-1.47849 1.22451,-2.82999 2.76649,-2.82999c0.12699,0 0.25397,0.06349 0.38096,0.06349c0.19048,0 0.31747,0 0.45352,-0.12699c0.13606,-0.12699 0.19048,-0.25397 0.19048,-0.38096v-9.99565c0,0 0.01814,-0.03628 0.03628,-0.03628l12.33583,-1.40592c0,0 0.04535,0.01814 0.04535,0.03628v13.28823c0,1.5057 -1.12474,2.8572 -2.62136,2.92976c-1.60547,0.08163 -2.97511,-1.17009 -2.97511,-2.75742v0z" fill="#ffffff" fill-rule="evenodd"/><path d="M220.67699,222.19589c0,-0.89798 0.38096,-1.66897 0.89798,-2.18598c0.58051,-0.58051 1.3515,-0.96147 2.24948,-0.96147c0.12699,0 0.25397,0 0.45352,0.06349h0.06349c0.06349,0 0.06349,-0.06349 0.06349,-0.06349c0.06349,0 0.06349,-0.06349 0.06349,-0.06349v0v-6.36747v0l-0.06349,-0.06349h-0.12699l-7.84595,0.89798c-0.04233,0 -0.08465,0.02116 -0.12699,0.06349v0l-0.06349,0.06349v9.90495v0c0,0.83448 -0.38096,1.60547 -0.96147,2.18598c-0.51702,0.51702 -1.28801,0.83448 -2.12249,0.83448c-0.89798,0 -1.66897,-0.31747 -2.18598,-0.89798c-0.58051,-0.58051 -0.96147,-1.3515 -0.96147,-2.18598c0,-0.89798 0.39003,-1.66897 0.96147,-2.24948c0.51702,-0.51702 1.28801,-0.89798 2.18598,-0.89798h0.25397l0.19048,0.06349h0.06349c0.06349,0 0.06349,-0.06349 0.06349,-0.06349h0.06349v-10.41289l0.31747,-0.06349l12.47189,-1.41499l0.31747,-0.06349v14.01387c0,0.77099 -0.38096,1.54198 -0.89798,2.12249c-0.58051,0.51702 -1.3515,0.83448 -2.18598,0.83448c-0.89798,0 -1.66897,-0.31747 -2.24948,-0.89798v0c-0.51702,-0.58051 -0.89798,-1.3515 -0.89798,-2.18598v0zM222.09198,220.46343c-0.45352,0.45352 -0.7075,1.02496 -0.7075,1.73246c0,0.644 0.25397,1.28801 0.7075,1.73246v0c0.32654,0.31747 0.7075,0.54423 1.16102,0.644c0.88891,0.19955 1.85037,-0.14513 2.43088,-0.84355c0.35375,-0.41724 0.58051,-0.91612 0.58051,-1.46942v0v-13.13403c0,0 -0.01814,-0.03628 -0.04535,-0.03628l-11.69183,1.34243c0,0 -0.03628,0.01814 -0.03628,0.03628v9.67819c0,0.12699 -0.06349,0.25397 -0.06349,0.31747c-0.06349,0.12699 -0.12699,0.25397 -0.25397,0.31747c-0.06349,0.06349 -0.19048,0.12699 -0.31747,0.19048h-0.7075c-0.7075,0 -1.28801,0.25397 -1.74153,0.7075c-0.45352,0.45352 -0.7075,1.02496 -0.7075,1.73246c0,0.644 0.25397,1.28801 0.7075,1.73246c0.45352,0.38096 1.02496,0.7075 1.74153,0.7075c0.644,0 1.22451,-0.25397 1.66897,-0.7075c0.45352,-0.45352 0.7075,-1.02496 0.77099,-1.66897v0v-9.90495c0,-0.19048 0.06349,-0.38096 0.19048,-0.51702v0c0.12699,-0.19048 0.31747,-0.31747 0.58051,-0.31747v0l7.84595,-0.89798v0c0.12699,0 0.25397,0 0.38096,0.06349c0.12699,0 0.19048,0.06349 0.32654,0.19048c0.06349,0.06349 0.12699,0.12699 0.19048,0.25397c0.06349,0.12699 0.06349,0.25397 0.06349,0.39003v6.17699c0,0.12699 0,0.25397 -0.06349,0.31747c-0.06349,0.12699 -0.12699,0.25397 -0.25397,0.31747v0c-0.06349,0.06349 -0.19048,0.12699 -0.32654,0.19048v0c-0.12699,0 -0.25397,0.06349 -0.38096,0h-0.31747c-0.7075,0 -1.28801,0.25397 -1.73246,0.7075v0z" fill="#5c3d2f" fill-rule="nonzero"/></g></g><path d="M208.47722,228.72662l20.22714,-21.76912" fill="none" fill-rule="nonzero" stroke="none" stroke-width="1"/><path d="M230.6545,207.1117l-20.65345,20.40855" fill="none" fill-rule="nonzero" stroke="#5c3d2f" stroke-width="2.83"/></g><path d="" fill="none" fill-rule="nonzero" stroke="#e6ac55" stroke-width="2" stroke-linecap="round"/></g></g></svg>