<svg version="1.1" xmlns="http://www.w3.org/2000/svg" xmlns:xlink="http://www.w3.org/1999/xlink" width="9.02749" height="16.46657" viewBox="0,0,9.02749,16.46657"><g transform="translate(-235.48625,-171.3984)"><g data-paper-data="{&quot;isPaintingLayer&quot;:true}" fill="#ffffff" fill-rule="nonzero" stroke="#ffffff" stroke-width="1.5" stroke-linecap="butt" stroke-linejoin="miter" stroke-miterlimit="10" stroke-dasharray="" stroke-dashoffset="0" style="mix-blend-mode: normal"><path d="M239.82748,184.70072c0.1386,-0.5343 0.4811,-0.962 0.9224,-1.2215c0.4413,-0.2594 0.9816,-0.3506 1.5159,-0.212c0.5333,0.1385 0.961,0.4809 1.2214,0.9225c0.2595,0.4413 0.3507,0.9816 0.212,1.5159c-0.1387,0.5342 -0.4811,0.9619 -0.9225,1.2214c-0.4423,0.2592 -0.9825,0.3504 -1.5158,0.212c-0.5343,-0.1387 -0.962,-0.4811 -1.2215,-0.9225c-0.2594,-0.4413 -0.3506,-0.9815 -0.2119,-1.5158z"/><path d="M239.86818,185.05662l-0.14,-12.26"/><path d="M236.54818,179.71662c-0.666,-1.797 -0.247,-3.817 1.08,-5.2c0.593,-0.654 1.265,-1.232 2,-1.72v2c-0.815,0.391 -1.548,0.934 -2.16,1.6c-0.611,0.999 -0.93,2.149 -0.92,3.32z"/></g></g></svg>