<svg version="1.1" xmlns="http://www.w3.org/2000/svg" xmlns:xlink="http://www.w3.org/1999/xlink" width="200.77447" height="108.43178" viewBox="0,0,200.77447,108.43178"><g transform="translate(-65.03799,-247.12012)"><g data-paper-data="{&quot;isPaintingLayer&quot;:true}" fill="#9f5fff" fill-rule="nonzero" stroke="none" stroke-width="0" stroke-linecap="butt" stroke-linejoin="miter" stroke-miterlimit="10" stroke-dasharray="" stroke-dashoffset="0" style="mix-blend-mode: normal"><path d="M125.61234,257.93966c0.99053,1.82867 1.75247,3.73351 2.20962,5.71456c0.45717,1.98105 0.68575,4.03829 0.60956,6.01935c0,1.98105 -0.38098,3.8859 -0.99053,5.71456c-0.60956,1.82867 -1.44769,3.42874 -2.59059,4.87643c-2.66679,3.35254 -6.17173,5.02881 -10.4386,5.02881c-1.60009,0 -3.35254,-0.22858 -5.18121,-0.76194c-1.75247,-0.45717 -3.42874,-0.76194 -4.95262,-0.76194c-1.52388,0 -2.74299,0.22858 -3.8097,0.60956c-1.06672,0.38098 -1.90486,0.91433 -2.4382,1.44769c-0.38098,0.38098 -0.60956,0.68575 -0.68575,0.99053c-0.07619,0.30477 -0.15239,0.45717 -0.07619,0.53336c0,0.07619 0.22858,0.15239 0.60956,0.30477c0.38098,0.07619 0.91433,0.15239 1.60009,0.15239c0.53336,0 1.21911,0 1.98105,-0.15239c0.76194,-0.07619 1.67628,-0.22858 2.74299,-0.53336c0.38098,-0.07619 0.68575,-0.15239 1.06672,-0.15239c0.38098,0 0.60956,0 0.91433,0c0.76194,0 1.44769,0.07619 1.98105,0.30477c0.53336,0.22858 0.99053,0.45717 1.2953,0.76194c0.68575,0.53336 1.14292,1.21911 1.52388,2.13344c0.38098,0.83814 0.53336,1.82867 0.45717,2.89537c0,0.83814 -0.15239,1.60009 -0.38098,2.36201c-0.22858,0.76194 -0.60956,1.3715 -1.14292,1.98105c-0.53336,0.60956 -1.06672,1.06672 -1.75247,1.3715c-0.68575,0.30477 -1.44769,0.53336 -2.36201,0.53336c-0.53336,0 -1.06672,0 -1.52388,-0.15239c-0.76194,-0.22858 -1.52388,-0.38098 -2.20962,-0.45717c-0.68575,-0.07619 -1.2953,-0.15239 -1.90486,-0.15239c-1.52388,0 -2.4382,0.15239 -2.66679,0.53336c0,0.22858 0,0.53336 0.15239,0.99053c0.15239,0.45717 0.30477,0.99053 0.45717,1.67628c0.22858,0.76194 0.45717,1.67628 0.68575,2.66679c0.22858,1.06672 0.53336,2.28582 0.76194,3.73351c0.22858,1.44769 0.38098,3.12395 0.53336,5.02881c0.15239,1.90486 0.15239,4.11449 0.07619,6.55269c0,2.59059 -0.45717,4.95262 -1.3715,6.85746c-0.91433,1.98105 -2.05725,3.58112 -3.50493,4.95262c-1.44769,1.3715 -3.04776,2.36201 -4.87643,3.04776c-1.82867,0.68575 -3.65732,1.14292 -5.56218,1.21911c-0.15239,0 -0.38098,0 -0.53336,0h-0.53336c-1.82867,0 -3.73351,-0.30477 -5.56218,-0.83814c-1.82867,-0.60956 -3.58112,-1.44769 -5.18121,-2.66679c-1.60009,-1.21911 -2.97157,-2.74299 -4.03829,-4.64785c-1.14292,-1.90486 -1.90486,-4.11449 -2.20962,-6.70508c-0.15239,-1.2953 -0.38098,-2.89537 -0.60956,-4.80023c-0.22858,-1.90486 -0.38098,-3.8859 -0.60956,-6.09554c-0.22858,-2.20962 -0.30477,-4.57165 -0.38098,-7.00986c-0.07619,-2.5144 -0.15239,-5.02881 -0.15239,-7.54322c0,-2.5144 0,-5.10501 0.15239,-7.54322c0.15239,-2.5144 0.30477,-4.87643 0.60956,-7.16225c0.60956,-4.57165 1.52388,-8.53374 2.81918,-11.81009c1.21911,-3.27634 2.74299,-6.01935 4.49545,-8.22897c1.75247,-2.20962 3.65732,-3.9621 5.86696,-5.3336c2.13344,-1.3715 4.49545,-2.4382 6.93367,-3.20015c2.4382,-0.76194 5.02881,-1.3715 7.69561,-1.75247c2.66679,-0.38098 5.40979,-0.76194 8.15278,-1.06672c0.68575,0 1.3715,-0.15239 1.98105,-0.22858c0.68575,0 1.2953,-0.15239 1.98105,-0.22858c0.53336,0 1.06672,-0.07619 1.60009,-0.15239c0.53336,0 1.06672,0 1.52388,0c3.65732,0 6.93367,0.83814 9.75285,2.4382c2.81918,1.60009 5.18121,3.9621 6.93367,7.00986zM76.08614,284.45523c0.53336,0 0.91433,-0.15239 1.2953,-0.53336c0.38098,-0.38098 0.53336,-0.76194 0.53336,-1.2953v-1.21911c0,-0.53336 0,-0.99053 -0.38098,-1.3715c-0.30477,-0.38098 -0.76194,-0.60956 -1.2953,-0.68575c-0.53336,-0.07619 -0.99053,0 -1.3715,0.38098c-0.38098,0.30477 -0.60956,0.76194 -0.68575,1.2953v1.52388c0,0.53336 0.15239,0.99053 0.53336,1.2953c0.38098,0.38098 0.76194,0.53336 1.2953,0.53336v0zM87.51527,263.57803c0.53336,-0.15239 0.91433,-0.38098 1.21911,-0.76194c0.30477,-0.38098 0.38098,-0.83814 0.30477,-1.3715c-0.07619,-0.53336 -0.30477,-0.91433 -0.76194,-1.21911c-0.38098,-0.30477 -0.91433,-0.38098 -1.3715,-0.30477c-1.3715,0.22858 -2.81918,0.83814 -4.19068,1.67628c-1.44769,0.91433 -2.74299,1.98105 -3.8859,3.35254c-1.14292,1.3715 -2.13344,2.97157 -2.89537,4.72404c-0.76194,1.75247 -1.21911,3.65732 -1.2953,5.63837c0,0.53336 0.15239,0.99053 0.45717,1.3715c0.38098,0.38098 0.76194,0.60956 1.2953,0.60956h0.07619c0.53336,0 0.91433,-0.15239 1.2953,-0.53336c0.38098,-0.38098 0.53336,-0.76194 0.60956,-1.2953c0,-0.15239 0,-0.60956 0.15239,-1.14292c0.15239,-0.60956 0.30477,-1.2953 0.53336,-2.13344c0.22858,-0.83814 0.60956,-1.67628 1.06672,-2.59059c0.45717,-0.91433 0.99053,-1.75247 1.67628,-2.59059c0.68575,-0.83814 1.44769,-1.60009 2.36201,-2.20962c0.91433,-0.60956 1.98105,-1.06672 3.20015,-1.3715z"/><path d="M190.61797,323.85514c1.06672,1.2953 1.98105,2.74299 2.59059,4.41926c0.60956,1.67628 1.06672,3.27634 1.21911,5.02881c0.15239,1.75247 0.15239,3.50493 -0.15239,5.2574c-0.30477,1.75247 -0.83814,3.50493 -1.60009,5.10501c-1.75247,3.8097 -4.57165,6.70508 -8.30516,8.76233c-3.73351,2.05725 -8.22897,3.12395 -13.41017,3.12395h-2.13344c-0.68575,0 -1.3715,0 -2.13344,0h-3.8859c-2.5144,0 -4.95262,0 -7.31463,-0.22858c-2.36201,-0.22858 -4.57165,-0.53336 -6.70508,-1.06672c-2.13344,-0.60956 -4.03829,-1.44769 -5.86696,-2.5144c-1.82867,-1.06672 -3.42874,-2.59059 -4.80023,-4.49545c-1.3715,-1.90486 -2.59059,-4.26687 -3.58112,-7.08605c-0.99053,-2.81918 -1.75247,-6.17173 -2.20962,-10.13383c-0.22858,-2.20962 -0.45717,-4.64785 -0.53336,-7.39083c-0.15239,-2.74299 -0.22858,-5.56218 -0.22858,-8.53374c0,-2.97157 0,-5.94315 0,-8.99091c0,-3.04776 0.15239,-5.94315 0.30477,-8.68613c0.15239,-2.74299 0.30477,-5.2574 0.45717,-7.54322c0.15239,-2.28582 0.38098,-4.19068 0.60956,-5.71456c0.38098,-2.59059 1.14292,-4.80023 2.20962,-6.70508c1.06672,-1.90486 2.4382,-3.42874 3.9621,-4.64785c1.52388,-1.21911 3.20015,-2.13344 5.02881,-2.66679c1.82867,-0.60956 3.65732,-0.83814 5.40979,-0.83814c2.36201,0 4.49545,0.38098 6.4765,1.21911c1.98105,0.83814 3.65732,1.98105 5.02881,3.42874c1.3715,1.44769 2.4382,3.20015 3.27634,5.18121c0.76194,1.98105 1.21911,4.11449 1.21911,6.4765c0,3.04776 0,5.94315 -0.15239,8.83853c-0.15239,2.89537 -0.38098,5.56218 -0.68575,8.15278c-0.30477,2.59059 -0.60956,4.87643 -0.91433,6.93367c-0.30477,2.05725 -0.60956,3.8097 -0.76194,5.18121c-0.22858,1.21911 -0.38098,2.13344 -0.38098,2.66679c-0.15239,1.3715 0.22858,2.36201 0.99053,3.04776c0.91433,0.76194 2.36201,1.14292 4.41926,1.14292c0.91433,0 1.90486,-0.07619 3.04776,-0.22858c1.14292,-0.15239 2.36201,-0.38098 3.58112,-0.76194c1.67628,-0.45717 3.20015,-0.60956 4.72404,-0.60956c2.28582,0 4.34307,0.45717 6.24793,1.2953c1.90486,0.83814 3.58112,2.13344 5.02881,3.8859zM141.70131,300.92071c0,-0.53336 -0.15239,-0.99053 -0.53336,-1.2953c-0.38098,-0.38098 -0.83814,-0.53336 -1.2953,-0.53336c-0.45717,0 -0.99053,0.15239 -1.2953,0.53336c-0.38098,0.38098 -0.53336,0.83814 -0.53336,1.2953v1.44769c0,0.53336 0.15239,0.99053 0.53336,1.2953c0.38098,0.30477 0.83814,0.53336 1.2953,0.53336c0.45717,0 0.99053,-0.15239 1.2953,-0.53336c0.38098,-0.38098 0.53336,-0.83814 0.53336,-1.2953zM145.66343,279.81491c0.45717,-0.22858 0.76194,-0.60956 0.91433,-1.06672c0.15239,-0.45717 0.07619,-0.99053 -0.15239,-1.44769c-0.30477,-0.68575 -0.91433,-0.99053 -1.67628,-0.99053c-0.30477,0 -0.53336,0.07619 -0.83814,0.22858c-1.14292,0.60956 -2.05725,1.52388 -2.81918,2.81918c-0.76194,1.2953 -1.3715,2.74299 -1.82867,4.41926c-0.45717,1.67628 -0.76194,3.42874 -0.91433,5.3336c-0.15239,1.90486 -0.22858,3.73351 -0.15239,5.48598c0,0.53336 0.15239,0.91433 0.60956,1.2953c0.38098,0.30477 0.83814,0.53336 1.3715,0.53336c0.53336,0 0.91433,-0.15239 1.2953,-0.53336c0.38098,-0.38098 0.53336,-0.83814 0.45717,-1.2953c0,-1.82867 0,-3.50493 0.15239,-5.10501c0.15239,-1.60009 0.38098,-3.12395 0.76194,-4.41926c0.38098,-1.2953 0.76194,-2.4382 1.21911,-3.35254c0.45717,-0.91433 0.99053,-1.52388 1.60009,-1.82867z"/><path d="M261.23793,253.74898c2.28582,2.66679 3.65732,6.01935 4.26687,10.05764c0.60956,4.03829 0.30477,8.38136 -0.83814,12.95301c-0.76194,3.04776 -1.82867,5.86696 -3.20015,8.60994c-1.3715,2.74299 -3.04776,5.2574 -4.95262,7.61941c-1.90486,2.28582 -4.03829,4.41926 -6.40032,6.24793c-2.36201,1.82867 -4.95262,3.35254 -7.69561,4.57165c0.45717,2.13344 0.76194,4.34307 0.91433,6.62888c0.15239,2.36201 0.15239,4.64785 -0.07619,6.93367c-0.22858,2.28582 -0.68575,4.49545 -1.44769,6.70508c-0.68575,2.13344 -1.75247,4.11449 -3.04776,5.79077c-3.20015,4.03829 -7.61941,6.09554 -13.33398,6.09554c-2.5144,0 -4.80023,-0.45717 -6.85746,-1.44769c-2.05725,-0.99053 -3.8097,-2.4382 -5.3336,-4.26687c-1.2953,-1.67628 -2.36201,-3.58112 -3.04776,-5.71456c-0.76194,-2.13344 -1.2953,-4.41926 -1.52388,-6.70508c-0.22858,-2.28582 -0.30477,-4.72404 -0.22858,-7.08605c0.15239,-2.36201 0.45717,-4.64785 0.91433,-6.85746c-2.74299,-1.21911 -5.3336,-2.74299 -7.69561,-4.57165c-2.36201,-1.82867 -4.57165,-3.8859 -6.4765,-6.24793c-1.90486,-2.28582 -3.58112,-4.80023 -4.95262,-7.54322c-1.3715,-2.74299 -2.4382,-5.63837 -3.20015,-8.68613c-0.60956,-2.28582 -0.91433,-4.49545 -1.06672,-6.70508c-0.15239,-2.20962 0,-4.26687 0.22858,-6.24793c0.30477,-1.98105 0.76194,-3.8097 1.52388,-5.56218c0.68575,-1.75247 1.60009,-3.27634 2.74299,-4.57165c1.82867,-2.20962 3.8859,-3.8859 6.17173,-4.95262c2.28582,-1.14292 4.64785,-1.67628 7.08605,-1.67628c2.59059,0 5.10501,0.60956 7.46702,1.90486c1.44769,0.76194 2.81918,1.75247 4.11449,3.04776c1.2953,1.2953 2.36201,2.74299 3.12395,4.41926c0.83814,1.67628 1.2953,3.58112 1.52388,5.63837c0.22858,2.05725 0,4.26687 -0.60956,6.55269c-0.53336,1.82867 -0.60956,3.65732 -0.30477,5.48598c0.30477,1.82867 0.99053,3.35254 2.05725,4.72404c0.60956,0.76194 1.3715,1.44769 2.13344,1.82867c0.76194,0.38098 1.52388,0.68575 2.36201,0.68575c1.06672,0 1.98105,-0.30477 2.89537,-0.99053c0.91433,-0.60956 1.67628,-1.3715 2.20962,-2.13344c0.99053,-1.3715 1.60009,-2.81918 1.82867,-4.49545c0.22858,-1.67628 0.15239,-3.35254 -0.30477,-5.10501c-0.60956,-2.28582 -0.83814,-4.49545 -0.60956,-6.55269c0.22858,-2.05725 0.68575,-3.9621 1.52388,-5.63837c0.83814,-1.67628 1.82867,-3.12395 3.12395,-4.41926c1.2953,-1.2953 2.66679,-2.28582 4.11449,-3.04776c2.4382,-1.2953 4.95262,-1.90486 7.46702,-1.90486c2.5144,0 4.87643,0.53336 7.16225,1.67628c2.28582,1.14292 4.34307,2.81918 6.17173,4.95262zM199.06351,260.98742c0.45717,-0.22858 0.83814,-0.53336 0.99053,-0.99053c0.15239,-0.45717 0.15239,-0.91433 0,-1.44769c-0.15239,-0.38098 -0.38098,-0.60956 -0.68575,-0.83814c-0.30477,-0.22858 -0.60956,-0.30477 -0.99053,-0.30477c-0.22858,0 -0.45717,0 -0.76194,0.15239c-1.06672,0.45717 -1.98105,1.21911 -2.66679,2.20962c-0.68575,0.99053 -1.2953,2.13344 -1.60009,3.42874c-0.38098,1.2953 -0.53336,2.59059 -0.60956,4.03829c0,1.3715 0.07619,2.74299 0.38098,4.03829c0.07619,0.45717 0.30477,0.76194 0.60956,1.06672c0.30477,0.30477 0.68575,0.38098 1.14292,0.38098c0.15239,0 0.30477,0 0.38098,0c0.53336,-0.15239 0.91433,-0.38098 1.21911,-0.76194c0.30477,-0.38098 0.38098,-0.91433 0.22858,-1.3715c-0.22858,-0.99053 -0.30477,-2.05725 -0.30477,-3.04776c0,-0.99053 0.15239,-1.98105 0.38098,-2.81918c0.22858,-0.83814 0.53336,-1.60009 0.91433,-2.28582c0.38098,-0.68575 0.83814,-1.06672 1.3715,-1.2953zM196.93007,278.58827c0.53336,-0.15239 0.91433,-0.45717 1.14292,-0.91433c0.22858,-0.45717 0.30477,-0.91433 0.15239,-1.3715l-0.22858,-0.83814c-0.15239,-0.45717 -0.45717,-0.83814 -0.91433,-1.06672c-0.45717,-0.22858 -0.91433,-0.30477 -1.44769,-0.15239c-0.45717,0.15239 -0.83814,0.45717 -1.06672,0.91433c-0.22858,0.45717 -0.30477,0.91433 -0.15239,1.44769l0.22858,0.76194c0.15239,0.45717 0.38098,0.76194 0.68575,0.99053c0.30477,0.22858 0.68575,0.30477 1.06672,0.30477c0.22858,0 0.45717,0 0.53336,-0.07619zM243.63708,259.00638c0.53336,0 0.91433,-0.30477 1.2953,-0.68575c0.30477,-0.38098 0.45717,-0.83814 0.38098,-1.3715c0,-0.53336 -0.30477,-0.91433 -0.60956,-1.21911c-0.38098,-0.30477 -0.76194,-0.45717 -1.21911,-0.45717c-0.76194,0 -1.44769,0.22858 -2.13344,0.68575c-0.68575,0.45717 -1.21911,0.91433 -1.67628,1.52388c-0.76194,0.99053 -1.21911,2.13344 -1.52388,3.58112c-0.30477,1.44769 -0.30477,2.74299 0,4.03829c0.07619,0.45717 0.30477,0.76194 0.68575,1.06672c0.38098,0.30477 0.76194,0.45717 1.14292,0.45717h0.15239h0.15239c0.53336,-0.15239 0.91433,-0.38098 1.21911,-0.76194c0.30477,-0.38098 0.38098,-0.91433 0.22858,-1.3715c-0.15239,-0.76194 -0.15239,-1.60009 0,-2.5144c0.15239,-0.91433 0.45717,-1.60009 0.83814,-2.20962c0.30477,-0.38098 0.60956,-0.60956 0.99053,-0.68575zM242.1894,269.90214c0,-0.53336 -0.15239,-0.99053 -0.53336,-1.2953c-0.38098,-0.30477 -0.83814,-0.53336 -1.2953,-0.53336c-0.45717,0 -0.99053,0.15239 -1.2953,0.53336c-0.38098,0.38098 -0.53336,0.83814 -0.53336,1.2953v0.60956c0,0.53336 0.15239,0.91433 0.53336,1.2953c0.38098,0.38098 0.83814,0.53336 1.2953,0.53336c0.45717,0 0.99053,-0.15239 1.2953,-0.53336c0.38098,-0.38098 0.53336,-0.76194 0.53336,-1.2953z"/></g></g></svg>