<svg version="1.1" xmlns="http://www.w3.org/2000/svg" xmlns:xlink="http://www.w3.org/1999/xlink" width="16.22511" height="16.53203" viewBox="0,0,16.22511,16.53203"><g transform="translate(-231.80503,-171.65156)"><g data-paper-data="{&quot;isPaintingLayer&quot;:true}" fill="#ffffff" fill-rule="nonzero" stroke="#ffffff" stroke-width="1.5" stroke-linecap="butt" stroke-linejoin="miter" stroke-miterlimit="10" stroke-dasharray="" stroke-dashoffset="0" style="mix-blend-mode: normal"><path d="M235.52765,185.4393l-2.74,-10.54"/><path d="M240.62765,172.8593l2.74,10.54"/><path d="M232.71985,174.6082l7.8384,-2.0418l0.5041,1.9354l-7.8384,2.0418z"/><path d="M243.28025,183.3619c0.0052,-0.552 0.2339,-1.0498 0.5993,-1.4084c0.3654,-0.3586 0.8675,-0.5779 1.4195,-0.5727c0.5519,0.0052 1.0498,0.2339 1.4084,0.5993c0.3585,0.3654 0.5778,0.8675 0.5726,1.4195c-0.0052,0.552 -0.2339,1.0498 -0.5993,1.4084c-0.3654,0.3586 -0.8675,0.5779 -1.4194,0.5727c-0.552,-0.0052 -1.0499,-0.234 -1.4085,-0.5993c-0.3585,-0.3654 -0.5778,-0.8675 -0.5726,-1.4195z"/><path d="M235.44535,185.4148c0.0052,-0.552 0.2339,-1.0499 0.5993,-1.4085c0.3654,-0.3585 0.8675,-0.5778 1.4194,-0.5726c0.552,0.0052 1.0499,0.2339 1.4085,0.5993c0.3585,0.3654 0.5778,0.8675 0.5726,1.4195c-0.0052,0.5519 -0.2339,1.0498 -0.5993,1.4084c-0.3654,0.3585 -0.8675,0.5778 -1.4195,0.5726c-0.5519,-0.0052 -1.0498,-0.2339 -1.4084,-0.5993c-0.3585,-0.3654 -0.5778,-0.8675 -0.5726,-1.4194z"/></g></g></svg>