<svg version="1.1" xmlns="http://www.w3.org/2000/svg" xmlns:xlink="http://www.w3.org/1999/xlink" width="453.85269" height="104.25083" viewBox="0,0,453.85269,104.25083"><g transform="translate(-15.29521,-128.15559)"><g data-paper-data="{&quot;isPaintingLayer&quot;:true}" fill="#ff38b1" fill-rule="nonzero" stroke="none" stroke-width="0" stroke-linecap="butt" stroke-linejoin="miter" stroke-miterlimit="10" stroke-dasharray="" stroke-dashoffset="0" style="mix-blend-mode: normal"><path d="M78.25542,128.58246c1.70731,0.30488 3.41462,1.34146 5.06094,3.04875c1.64633,1.76827 3.10973,3.96339 4.51215,6.70726c1.40242,2.6829 2.62193,5.79263 3.78046,9.20724c1.09754,3.41461 2.01217,7.01213 2.74388,10.67063c0.7317,3.71948 1.21951,7.37799 1.52438,11.09748c0.30488,3.71948 0.30488,7.19507 0,10.48772c-0.4878,6.09751 -1.9512,10.73162 -4.26826,13.90233c-2.31705,3.17071 -5.42679,4.81703 -9.32919,4.81703c-4.3902,0 -7.98775,-1.40243 -10.67065,-4.14631c-1.40243,-1.40243 -2.49998,-3.04875 -3.29266,-4.99995c-0.79268,-1.89022 -1.40243,-3.90241 -1.82926,-5.91458c-0.42683,-2.01219 -0.67072,-4.08534 -0.79267,-6.15848c-0.12195,-2.07315 -0.12195,-3.96337 -0.12195,-5.67068c-0.4878,1.21951 -0.97559,2.49998 -1.58535,3.78045c-0.60975,1.28047 -1.28047,2.43901 -2.07315,3.47558c-0.79268,1.03658 -1.70731,1.89022 -2.6829,2.49998c-1.03658,0.67073 -2.19511,0.97561 -3.47558,0.97561c-1.28047,0 -2.43901,-0.30488 -3.41461,-0.97561c-0.97559,-0.67073 -1.95121,-1.46341 -2.74389,-2.49998c-0.79268,-1.03658 -1.4634,-2.19511 -2.07315,-3.47558c-0.60975,-1.28047 -1.15852,-2.49998 -1.58535,-3.78045c0,1.70731 0,3.59753 -0.12195,5.67068c-0.12195,2.07315 -0.36585,4.08534 -0.79268,6.15848c-0.42683,2.07315 -1.03658,4.02436 -1.82926,5.91458c-0.79268,1.89022 -1.89022,3.53656 -3.29266,4.99995c-2.6829,2.80485 -6.28044,4.14631 -10.67065,4.14631c-3.90241,0 -7.01213,-1.58535 -9.32919,-4.81703c-2.31706,-3.23168 -3.84143,-7.86579 -4.39021,-13.90233c-0.2439,-2.43901 -0.2439,-5.06094 -0.18293,-7.80482c0.12195,-2.74388 0.36585,-5.48777 0.7317,-8.23165c0.36585,-2.80485 0.85364,-5.54874 1.4634,-8.29261c0.60975,-2.74388 1.34146,-5.42678 2.13414,-7.92677c0.79268,-2.49998 1.70731,-4.878 2.74388,-7.07312c0.97559,-2.1951 2.07315,-4.14631 3.17071,-5.85362c1.15852,-1.70731 2.31706,-3.04875 3.53656,-4.08534c1.21951,-1.03658 2.49998,-1.7073 3.78046,-1.89022c0.4878,-0.06098 0.97561,-0.12195 1.40243,-0.18293c0.42683,-0.06098 0.85364,-0.06098 1.28047,-0.06098c1.58535,0 2.98779,0.24389 4.26826,0.73169c1.28047,0.4878 2.49998,1.09756 3.53656,1.89024c1.09754,0.79268 2.07315,1.70731 2.9268,2.74389c0.85366,1.03658 1.64633,2.13414 2.37804,3.29266c0.7317,1.15852 1.40243,2.31705 1.95121,3.47558c0.54878,1.15852 1.15852,2.25609 1.64633,3.35363c0.2439,0.4878 0.48779,1.09756 0.79267,1.64633c0.30488,0.60975 0.60975,1.15852 0.85366,1.7073c0.30488,0.54878 0.54878,0.97559 0.85366,1.34146c0.30488,0.36585 0.4878,0.60975 0.67073,0.67073c0.18293,-0.06098 0.42683,-0.30488 0.7317,-0.67073c0.30488,-0.36585 0.54878,-0.79268 0.85366,-1.34146c0.30488,-0.54878 0.60975,-1.09754 0.85364,-1.7073c0.30488,-0.60975 0.54878,-1.15852 0.79268,-1.64633c0.4878,-1.03658 1.03657,-2.13414 1.64632,-3.35363c0.60975,-1.15852 1.21951,-2.31705 1.95121,-3.47558c0.7317,-1.15852 1.52437,-2.25608 2.37803,-3.29266c0.85366,-1.03658 1.82926,-1.95121 2.92682,-2.74389c1.09754,-0.79268 2.25608,-1.40243 3.53656,-1.89024c1.28047,-0.4878 2.74388,-0.73169 4.26825,-0.73169c0.42683,0 0.85366,0 1.28048,0.06098c0.42683,0 0.91463,0.12195 1.40243,0.18293zM26.73146,156.57005c0.18293,-0.36585 0.18293,-0.79267 0,-1.15852c-0.18293,-0.36585 -0.42683,-0.67073 -0.79268,-0.85366c-0.18293,-0.06098 -0.36585,-0.12195 -0.60975,-0.12195c-0.60975,0 -1.09756,0.30488 -1.34146,0.85364c-0.18293,0.4878 -0.30488,0.79267 -0.36585,0.97559c0,0.18293 -0.06098,0.30488 -0.06098,0.4878c0,0.42683 0.12195,0.79268 0.42683,1.03658c0.30488,0.2439 0.60975,0.42681 1.03658,0.42681c0.36585,0 0.67073,-0.12194 0.97561,-0.30486c0.30488,-0.18293 0.42683,-0.4878 0.4878,-0.85366c0,0 0,-0.12195 0.06098,-0.18293c0,-0.06098 0,-0.12195 0.06098,-0.18293c0,0 0,-0.12195 0.06098,-0.18293zM35.02407,137.48483c0.36585,-0.18293 0.67073,-0.42683 0.79268,-0.85364c0.12195,-0.36585 0.12195,-0.7317 0,-1.15852c-0.12195,-0.2439 -0.30488,-0.4878 -0.54876,-0.60975c-0.2439,-0.12195 -0.54878,-0.2439 -0.85366,-0.2439c-0.18293,0 -0.36585,0 -0.60975,0.12195c-0.85366,0.36585 -1.64632,1.03658 -2.37803,1.89022c-0.7317,0.85366 -1.40242,1.82926 -2.01217,2.86583c-0.60975,1.09754 -1.15852,2.1951 -1.64633,3.35363c-0.4878,1.15852 -0.91463,2.31706 -1.21951,3.35363c-0.36585,1.03658 -0.60975,2.01217 -0.85366,2.80485c-0.2439,0.79268 -0.36585,1.40243 -0.42683,1.76829c-0.06098,0.42683 0,0.79267 0.2439,1.09754c0.2439,0.30488 0.54878,0.54878 0.97561,0.60975c0.42683,0 0.79268,-0.06098 1.09756,-0.2439c0.30488,-0.18293 0.54878,-0.4878 0.60975,-0.97561c0.12195,-0.54878 0.2439,-1.28047 0.48779,-2.07315c0.2439,-0.85366 0.4878,-1.70731 0.85366,-2.6829c0.36585,-0.97559 0.7317,-1.89024 1.15852,-2.86583c0.42683,-0.97559 0.85364,-1.89022 1.34146,-2.6829c0.4878,-0.85366 0.97561,-1.58535 1.46341,-2.1951c0.4878,-0.60975 1.03658,-1.03658 1.52438,-1.28048zM67.40186,149.07011c0.18293,-0.36585 0.18293,-0.7317 0,-1.09756c-0.12195,-0.36585 -0.42683,-0.67072 -0.79268,-0.85364c-0.18293,-0.06098 -0.36584,-0.12195 -0.60974,-0.12195c-0.2439,0 -0.54878,0.06098 -0.79268,0.2439c-0.2439,0.18293 -0.42683,0.36585 -0.54878,0.60975c-0.18293,0.4878 -0.30486,0.79268 -0.36584,0.97561c0,0.18293 -0.12195,0.30488 -0.12195,0.4878c0,0.42683 0.12195,0.79268 0.42683,1.03658c0.30488,0.30488 0.67073,0.42683 1.03658,0.42683c0.36585,0 0.67072,-0.12195 0.97559,-0.30488c0.2439,-0.2439 0.42683,-0.4878 0.4878,-0.85366l0.2439,-0.54876zM74.53595,138.15556c0.36585,-0.12195 0.67072,-0.36584 0.85364,-0.7317c0.18293,-0.36585 0.2439,-0.7317 0.12195,-1.15853c-0.12195,-0.42683 -0.36585,-0.7317 -0.7317,-0.91463c-0.36585,-0.18293 -0.7317,-0.18293 -1.15852,-0.06098c-0.91463,0.30488 -1.76827,0.79268 -2.56095,1.52438c-0.79268,0.7317 -1.52438,1.52437 -2.13414,2.37803c-0.60975,0.85366 -1.15852,1.76829 -1.64633,2.62194c-0.42683,0.85366 -0.79268,1.58535 -0.97561,2.1951c-0.12195,0.36585 -0.12195,0.79267 0,1.15852c0.18293,0.36585 0.4878,0.60975 0.85366,0.7317c0.06098,0 0.12195,0.06098 0.2439,0.06098h0.2439c0.30488,0 0.60975,-0.06098 0.85364,-0.2439c0.2439,-0.18293 0.42683,-0.42683 0.54878,-0.7317c0.18293,-0.60975 0.48779,-1.28047 0.85364,-2.01217c0.36585,-0.7317 0.85366,-1.40243 1.34146,-2.07316c0.4878,-0.67073 1.03658,-1.28047 1.52438,-1.76827c0.4878,-0.4878 1.09756,-0.85366 1.64633,-1.03658z"/><path d="M157.82796,179.90683c1.34144,2.74388 2.37803,5.60971 3.04875,8.59749c0.7317,2.98778 1.03658,5.97556 1.09756,8.96335c0,2.98778 -0.2439,5.97556 -0.85366,8.96334c-0.60975,2.98778 -1.58535,5.79265 -2.86583,8.53652c-1.52438,3.29266 -3.41461,5.97556 -5.60971,8.1097c-2.19511,2.13414 -4.51216,3.90241 -7.01214,5.18288c-2.49999,1.34146 -5.06093,2.31705 -7.68286,2.9268c-2.62193,0.60975 -5.06093,1.03658 -7.37799,1.21951c-6.52434,0 -12.13406,-1.4634 -16.82913,-4.45119c-4.69508,-2.98778 -8.41457,-7.31702 -11.09748,-13.04869c-1.28048,-2.74388 -2.1951,-5.60972 -2.86583,-8.53652c-0.67073,-2.9268 -0.91463,-5.97556 -0.91463,-8.96334c0,-2.98778 0.42683,-5.97556 1.09756,-8.96334c0.67073,-2.98778 1.70731,-5.85362 3.04875,-8.5975c1.21951,-2.56095 2.80485,-4.81703 4.69508,-6.82921c1.89024,-2.01219 4.02436,-3.78046 6.4024,-5.18288c2.37803,-1.40243 4.93898,-2.49998 7.68286,-3.29266c2.74388,-0.79268 5.60971,-1.15853 8.65847,-1.15853c2.98778,0 5.85361,0.4878 8.65847,1.28048c2.80485,0.79268 5.36581,1.89024 7.74384,3.35363c2.37803,1.4634 4.51216,3.17071 6.4024,5.18288c1.89024,2.01219 3.41461,4.20729 4.6341,6.70726zM110.14542,188.99212c0.18293,-0.36585 0.2439,-0.7317 0.12195,-1.15852c-0.12195,-0.36585 -0.36585,-0.67072 -0.7317,-0.85364c-0.18293,-0.12195 -0.42681,-0.18293 -0.73169,-0.18293c-0.2439,0 -0.4878,0 -0.7317,0.18293c-0.2439,0.18293 -0.42683,0.30488 -0.54878,0.54876c-0.12195,0.12195 -0.18293,0.30488 -0.2439,0.4878c0,0.18293 -0.12194,0.42683 -0.18291,0.67073c-0.12195,0.36585 -0.12195,0.79267 0,1.15852c0.18293,0.36585 0.48779,0.60975 0.85364,0.79268c0.18293,0 0.36585,0.06096 0.4878,0.06096c0.30488,0 0.60975,-0.12195 0.85364,-0.2439c0.2439,-0.12195 0.42683,-0.42683 0.54878,-0.7317c0,0 0,0 0,-0.12195c0,0 0,-0.06098 0,-0.12195c0,0 0,-0.12195 0.06098,-0.2439c0,-0.12195 0,-0.18293 0.12195,-0.2439zM122.70629,174.48005c0.36585,-0.12195 0.7317,-0.36585 0.97561,-0.60975c0.2439,-0.30488 0.36585,-0.67072 0.30488,-1.09754c-0.06098,-0.42683 -0.2439,-0.7317 -0.60975,-0.97559c-0.30488,-0.2439 -0.73169,-0.30488 -1.09754,-0.2439c-1.52438,0.2439 -2.98779,0.79268 -4.39021,1.64633c-1.40242,0.85366 -2.62193,1.82926 -3.78045,2.9268c-1.09754,1.09754 -2.07315,2.25609 -2.86583,3.53656c-0.79268,1.28047 -1.40243,2.37803 -1.76829,3.41461c-0.12195,0.36585 -0.12195,0.79267 0,1.15852c0.18293,0.36585 0.42683,0.60975 0.85366,0.7317c0.18293,0.06098 0.36584,0.12195 0.48779,0.12195c0.67073,0 1.15853,-0.30488 1.40243,-0.97561c0.06098,-0.18293 0.2439,-0.4878 0.4878,-0.97561c0.2439,-0.42683 0.60975,-0.97559 1.03658,-1.58535c0.42683,-0.60975 0.91463,-1.28047 1.52438,-1.95121c0.60975,-0.67073 1.28047,-1.34146 2.01217,-2.01219c0.7317,-0.67073 1.58536,-1.21951 2.49998,-1.76827c0.91463,-0.54878 1.89024,-0.97559 2.86583,-1.21949zM136.05985,198.01645c0,-0.97559 -0.12195,-2.01217 -0.36585,-2.9268c-0.2439,-0.97559 -0.60975,-1.82926 -1.09756,-2.56095c-0.4878,-0.7317 -1.03657,-1.34146 -1.76827,-1.82926c-0.67073,-0.4878 -1.52438,-0.67072 -2.43901,-0.67072c-1.03657,0 -1.9512,0.2439 -2.6829,0.79268c-0.7317,0.54878 -1.28048,1.15852 -1.76827,1.95121c-0.42683,0.79268 -0.79268,1.64633 -0.97561,2.62193c-0.18293,0.97559 -0.30488,1.82925 -0.30488,2.6829c0,1.09754 0.12195,2.13414 0.42683,3.10973c0.2439,0.97559 0.60975,1.76827 1.09754,2.43901c0.4878,0.67073 1.03658,1.21949 1.70731,1.58535c0.67073,0.36585 1.40242,0.54878 2.1951,0.54878c1.09754,0 2.01217,-0.2439 2.74389,-0.7317c0.7317,-0.4878 1.34144,-1.09756 1.82925,-1.82926c0.4878,-0.7317 0.79268,-1.58535 1.03658,-2.49998c0.2439,-0.91463 0.30488,-1.82926 0.30488,-2.74389z"/><path d="M234.41272,134.74095c1.40242,3.53656 2.439,7.43895 3.10973,11.70722c0.67073,4.26826 1.03658,8.71945 0.97561,13.35355c0,4.63411 -0.42683,9.32919 -1.15853,14.14623c-0.7317,4.81704 -1.82926,9.45114 -3.29266,13.9633c-0.4878,1.52438 -1.15852,2.86584 -1.9512,4.14631c-0.85366,1.28047 -1.76829,2.31705 -2.92682,3.23168c-1.09754,0.91463 -2.37803,1.58535 -3.78046,2.13412c-1.40242,0.4878 -2.9268,0.7317 -4.51216,0.7317c-1.4634,0 -2.9268,-0.18293 -4.32922,-0.60975c-1.40242,-0.42683 -2.80487,-1.03658 -4.08534,-1.82926c-1.28048,-0.79268 -2.49999,-1.76827 -3.65851,-2.9268c-1.15852,-1.15852 -2.13412,-2.49999 -2.98778,-3.96339c-1.15852,-1.95121 -2.37804,-4.02436 -3.53656,-6.09751c-1.21951,-2.07315 -2.31705,-4.14631 -3.41461,-6.09751c-0.7317,-1.34146 -1.52438,-2.6829 -2.31705,-4.02436c-0.79268,-1.34146 -1.4634,-2.56095 -2.13412,-3.65851v0.18293c0,1.03658 0.12195,2.13414 0.12195,3.41461c0,1.21951 0.06098,2.56095 0.06098,3.90241c0,1.34146 0.00001,2.80485 -0.12194,4.20729c-0.12195,1.4634 -0.2439,2.86583 -0.4878,4.26826c-0.30488,1.82926 -0.85364,3.53656 -1.64632,5.18288c-0.79268,1.58535 -1.82926,2.98778 -3.10973,4.20727c-1.28048,1.21951 -2.6829,2.13414 -4.32924,2.80487c-1.64632,0.67073 -3.41461,1.03658 -5.30484,1.03658c-1.4634,0 -2.86583,-0.2439 -4.20727,-0.67073c-1.34144,-0.4878 -2.49999,-1.09754 -3.59753,-1.9512c-1.09754,-0.85366 -2.01219,-1.89024 -2.80487,-3.10974c-0.79268,-1.21951 -1.40242,-2.62193 -1.82925,-4.14631c-0.60975,-2.13414 -1.03658,-4.51216 -1.40243,-7.25604c-0.36585,-2.6829 -0.60975,-5.54874 -0.67073,-8.53652c-0.06098,-2.98778 0,-6.03655 0.12195,-9.14628c0.18293,-3.10973 0.48779,-6.15848 0.97559,-9.20724c0.4878,-3.04875 1.09756,-5.85362 1.89024,-8.59749c0.79268,-2.74388 1.70731,-5.18289 2.80485,-7.37799c1.09754,-2.1951 2.37803,-4.08534 3.84143,-5.60972c1.4634,-1.52438 3.04875,-2.56095 4.878,-3.17071c0.97561,-0.30488 1.89024,-0.54876 2.74389,-0.67072c0.85366,-0.12195 1.7073,-0.18293 2.49998,-0.18293c1.64632,0 3.10974,0.2439 4.45119,0.79267c1.34144,0.54878 2.56095,1.21949 3.65851,2.07315c1.09754,0.85366 2.07316,1.89024 2.98778,2.98778c0.91463,1.15852 1.7073,2.31706 2.439,3.59753c0.7317,1.21951 1.40243,2.43901 1.95121,3.71948c0.54878,1.21951 1.09756,2.37804 1.58536,3.47558l0.67073,1.58535c0,0 0.2439,0.60975 0.42683,0.97561c0.18293,0.36585 0.30488,0.79268 0.54876,1.21951c0.18293,0.4878 0.42683,1.09756 0.7317,1.82926c0.30488,0.7317 0.60974,1.4634 0.97559,2.31705c0.36585,0.79268 0.7317,1.64633 1.09756,2.43901c0.36585,0.85366 0.73169,1.58535 1.09754,2.31705c0,-0.2439 0,-0.54878 0,-0.79268c0,-0.2439 0,-0.4878 0,-0.79268c0,-1.03658 0.12195,-2.1951 0.12195,-3.41461c0,-1.21951 0.12195,-2.439 0.2439,-3.78045c0.12195,-1.34146 0.2439,-2.62193 0.36585,-4.02436c0.12195,-1.34146 0.36584,-2.6829 0.60974,-4.02436c0.30488,-1.82926 0.85366,-3.53656 1.64633,-5.12192c0.79268,-1.58535 1.76827,-2.9268 3.04875,-4.08532c1.28048,-1.15852 2.62193,-2.07316 4.20729,-2.68292c1.58536,-0.67073 3.35363,-0.97559 5.24385,-0.97559c1.21951,0 2.43901,0.12195 3.59753,0.42683c1.15852,0.30488 2.25608,0.7317 3.23168,1.34146c0.97561,0.60975 1.89022,1.28047 2.6829,2.07315c0.79268,0.79268 1.40243,1.76829 1.89024,2.74388zM176.79123,152.60666c0.12195,-0.42683 0.06098,-0.79268 -0.12195,-1.15853c-0.18293,-0.36585 -0.54876,-0.54876 -0.97559,-0.67072c-0.06098,0 -0.18293,0 -0.30488,0c-0.60975,0 -1.03658,0.24389 -1.28048,0.73169c-0.2439,0.4878 -0.36585,1.03658 -0.36585,1.58536c0,0.42683 0.12195,0.79268 0.42683,1.09756c0.30488,0.30488 0.67073,0.48779 1.03658,0.48779c0.36585,0 0.7317,-0.12195 1.03658,-0.42683c0.30488,-0.30488 0.42683,-0.60975 0.42683,-1.03658l0.12195,-0.54876zM182.33997,138.58238c0.30488,-0.2439 0.48779,-0.60975 0.54876,-0.97561c0.06098,-0.36585 0,-0.7317 -0.30488,-1.09756c-0.30488,-0.36585 -0.73169,-0.60975 -1.15852,-0.60975c-0.30488,0 -0.60975,0.12195 -0.91463,0.30488c-0.4878,0.36585 -0.97559,0.91462 -1.58535,1.76827c-0.60975,0.79268 -1.15853,1.70731 -1.70731,2.6829c-0.54878,0.97559 -1.03658,2.07316 -1.46341,3.17071c-0.42683,1.09754 -0.67072,2.19511 -0.79267,3.17071c0,0.42683 0,0.79267 0.30488,1.09754c0.2439,0.30488 0.60974,0.4878 1.03657,0.54878c0,0 0.06098,0 0.18293,0c0.36585,0 0.67072,-0.12195 0.97559,-0.36585c0.30488,-0.2439 0.42683,-0.54876 0.4878,-0.91463c0.12195,-0.85366 0.30488,-1.76829 0.7317,-2.6829c0.36585,-0.91463 0.79267,-1.82925 1.21949,-2.6829c0.42683,-0.85366 0.91463,-1.58535 1.40243,-2.1951c0.4878,-0.60975 0.85366,-1.03658 1.15853,-1.28047zM216.48603,149.25303c0,-0.42683 -0.12195,-0.79268 -0.42683,-1.03658c-0.30488,-0.2439 -0.67072,-0.42683 -1.03657,-0.42683c-0.36585,0 -0.79268,0.12195 -1.03658,0.42683c-0.30488,0.30488 -0.42683,0.67073 -0.42683,1.03658v0.60974c0,0.42683 0.12195,0.79268 0.42683,1.03658c0.30488,0.30488 0.67073,0.42683 1.03658,0.42683c0.36585,0 0.79267,-0.12195 1.03657,-0.42683c0.30488,-0.30488 0.42683,-0.67073 0.42683,-1.03658zM220.02259,137.85068c0.36585,-0.2439 0.54876,-0.54876 0.67073,-0.91463c0.06098,-0.42683 0,-0.79268 -0.2439,-1.09756c-0.30488,-0.42683 -0.73169,-0.67072 -1.21949,-0.67072c-0.30488,0 -0.54878,0.06098 -0.79268,0.2439c-1.28048,0.85366 -2.31705,2.07315 -3.04877,3.65851c-0.7317,1.58535 -1.15852,3.41459 -1.21949,5.42678c0,0.42683 0.12195,0.79268 0.36585,1.03658c0.30488,0.30488 0.60975,0.42681 1.03658,0.48779c0.42683,0 0.79268,-0.12195 1.03658,-0.42683c0.2439,-0.30488 0.42683,-0.60975 0.4878,-1.03658c0,-1.52438 0.36585,-2.9268 0.85366,-4.08532c0.4878,-1.15852 1.21951,-2.07316 2.07315,-2.68292z"/><path d="M290.93666,208.66063c0.79268,1.52438 1.34146,3.10973 1.52438,4.69509c0.2439,1.58535 0.18293,3.17071 -0.18293,4.75605c-0.36585,1.58535 -0.97561,3.04877 -1.82926,4.51216c-0.91463,1.4634 -2.01219,2.74388 -3.47558,3.96337c-1.58536,1.34146 -3.53654,2.37803 -5.73166,3.04875c-2.19511,0.67073 -4.57313,1.03658 -7.13409,1.03658c-2.25609,0 -4.57314,-0.2439 -6.89019,-0.79268c-2.37803,-0.4878 -4.69509,-1.28048 -7.01214,-2.37803c-2.9268,-1.34146 -5.54873,-2.98778 -7.86578,-4.99995c-2.31705,-1.95121 -4.26826,-4.20729 -5.85362,-6.6463c-1.58536,-2.43901 -2.80485,-5.1219 -3.65851,-7.98773c-0.85366,-2.86583 -1.28047,-5.85362 -1.28047,-8.90238c0,-3.96339 0.42681,-7.62188 1.28047,-10.97551c0.85366,-3.35363 2.01219,-6.34142 3.41461,-9.08529c1.4634,-2.74388 3.17071,-5.12192 5.18289,-7.25604c2.01217,-2.13414 4.14631,-3.9024 6.46336,-5.42678c2.31705,-1.52438 4.75605,-2.6829 7.31702,-3.59753c2.56097,-0.91463 5.12192,-1.52438 7.74384,-1.76827c0.4878,0 0.91462,-0.06098 1.34144,-0.12195c0.42683,-0.06098 0.85364,0 1.28048,0c3.10973,0 5.91458,0.60975 8.3536,1.89022c2.43901,1.28047 4.39021,3.10973 5.85361,5.54873c0.79268,1.28047 1.34144,2.6829 1.76827,4.14631c0.36585,1.4634 0.60975,2.9268 0.60975,4.45119c0,1.52438 -0.18291,2.9268 -0.60975,4.32924c-0.42683,1.40243 -0.97561,2.6829 -1.76827,3.90241c-0.36585,0.54878 -0.85364,1.15852 -1.4634,1.76827c-0.60975,0.67073 -1.34146,1.28048 -2.25608,1.82926c-0.91463,0.54878 -1.95121,1.03658 -3.10973,1.40243c-1.15852,0.36585 -2.56095,0.54876 -4.14631,0.54876c-0.4878,0 -0.97561,0 -1.4634,0c-0.4878,0 -1.03658,-0.12195 -1.58536,-0.18293c-0.60975,-0.12195 -1.21951,-0.18291 -1.76827,-0.2439c-0.54878,0 -1.09756,0 -1.58536,0c-1.03657,0 -2.01217,0.12195 -2.86583,0.36584c-0.85366,0.2439 -1.58535,0.60975 -2.25608,1.09756c-0.60975,0.4878 -1.09756,1.15852 -1.46341,1.95121c-0.36585,0.79268 -0.54878,1.76829 -0.60975,2.86583c0,0.91463 0.18293,1.82925 0.54878,2.62193c0.36585,0.85366 0.91462,1.52438 1.64632,2.07315c1.09754,0.85366 2.43901,1.34146 4.08534,1.34146c0.91463,0 1.89022,-0.12195 2.86583,-0.42683c0.7317,-0.18293 1.4634,-0.36585 2.13414,-0.42683c0.7317,-0.12195 1.40242,-0.12195 2.07315,-0.12195c1.4634,0 2.80485,0.18293 4.08534,0.60975c1.28048,0.42683 2.43901,0.91462 3.47558,1.58535c1.03657,0.67073 2.01217,1.4634 2.80485,2.37803c0.79268,0.91463 1.52438,1.82926 2.01217,2.86583zM259.77837,176.77063c0.36585,-0.2439 0.54878,-0.54876 0.60975,-0.97559c0.06098,-0.42683 0,-0.79268 -0.2439,-1.09756c-0.30488,-0.42683 -0.67072,-0.60975 -1.21949,-0.60975c-0.36585,0 -0.79268,0.18293 -1.15853,0.4878c-0.36585,0.30488 -0.60975,0.67072 -0.7317,0.97559c-0.12195,0.36585 -0.12195,0.79267 0.06098,1.15852c0.18293,0.36585 0.42681,0.60975 0.85364,0.7317c0.12195,0 0.18293,0 0.2439,0c0.06098,0 0.12195,0 0.2439,0c0.4878,0 0.85364,-0.18293 1.15852,-0.54878l0.12195,-0.12195c0,0 0,0 0.06098,0zM262.94909,174.1487c0.36585,0 0.7317,-0.12195 0.97561,-0.36585c0.54878,-0.4878 1.28048,-0.97559 2.07315,-1.40242c0.85366,-0.42683 1.76827,-0.85364 2.74388,-1.15852c0.97561,-0.30488 2.01217,-0.60975 3.04875,-0.79268c1.03657,-0.18293 2.07316,-0.30488 3.04877,-0.30488c0.67073,0 1.34144,0.06098 2.01217,0.18293c0.42683,0.06098 0.79268,0 1.09756,-0.2439c0.30488,-0.2439 0.54876,-0.54876 0.67072,-0.97559c0.06098,-0.42683 0,-0.79268 -0.2439,-1.09756c-0.2439,-0.30488 -0.54878,-0.54876 -0.97561,-0.60975c-0.79268,-0.12195 -1.64633,-0.2439 -2.56095,-0.2439c-1.09754,0 -2.25608,0.12195 -3.41461,0.30488c-1.15852,0.18293 -2.31706,0.48779 -3.47558,0.91462c-1.15852,0.36585 -2.19511,0.85366 -3.23168,1.40243c-1.03657,0.54878 -1.9512,1.15852 -2.6829,1.76827c-0.30488,0.2439 -0.4878,0.60975 -0.54878,1.03658c-0.06098,0.42683 0.06098,0.79268 0.36585,1.09756c0.30488,0.36585 0.67073,0.4878 1.15852,0.4878z"/><path d="M352.82641,145.47257c1.34144,2.74388 2.37803,5.60971 3.04875,8.59749c0.67073,2.98778 1.03658,5.97556 1.09756,8.96335c0,2.98778 -0.2439,5.97556 -0.85366,8.96334c-0.60975,2.98778 -1.58536,5.79265 -2.86583,8.53652c-1.52438,3.29266 -3.41461,5.97556 -5.60971,8.1097c-2.19511,2.13414 -4.51215,3.90241 -7.01214,5.18288c-2.49999,1.34146 -5.06094,2.31705 -7.68287,2.9268c-2.62193,0.60975 -5.06093,1.03658 -7.37799,1.21951c-6.52434,0 -12.13404,-1.4634 -16.82913,-4.45119c-4.69508,-2.9268 -8.41457,-7.31702 -11.09748,-13.04869c-1.28048,-2.74388 -2.1951,-5.60972 -2.86583,-8.53652c-0.60975,-2.98778 -0.91463,-5.97556 -0.91463,-8.96334c0,-2.98778 0.42683,-5.97556 1.09756,-8.96334c0.67073,-2.98778 1.7073,-5.85362 3.04875,-8.5975c1.21951,-2.56095 2.80485,-4.81703 4.69509,-6.82921c1.89024,-2.01219 4.02436,-3.78046 6.40239,-5.18288c2.37803,-1.40243 4.93899,-2.49998 7.68287,-3.29266c2.74388,-0.79268 5.60971,-1.15853 8.65847,-1.15853c2.98778,0 5.85361,0.4878 8.65847,1.28048c2.80485,0.79268 5.36581,1.89024 7.74383,3.35363c2.37803,1.4634 4.51216,3.17071 6.4024,5.18288c1.89024,2.01219 3.41461,4.20729 4.63411,6.70726zM305.14386,154.55786c0.18293,-0.36585 0.2439,-0.7317 0.12195,-1.15852c-0.12195,-0.36585 -0.36585,-0.67072 -0.7317,-0.85364c-0.18293,-0.12195 -0.42683,-0.18293 -0.7317,-0.18293c-0.2439,0 -0.4878,0 -0.7317,0.18293c-0.2439,0.18293 -0.42683,0.30488 -0.54878,0.54876c-0.12195,0.12195 -0.18291,0.30488 -0.2439,0.4878c0,0.18293 -0.12195,0.42683 -0.18293,0.67073c-0.12195,0.36585 -0.12195,0.79267 0,1.15852c0.18293,0.36585 0.48779,0.60975 0.85364,0.79268c0.18293,0 0.36585,0.06096 0.4878,0.06096c0.30488,0 0.60975,-0.12195 0.85364,-0.2439c0.2439,-0.12195 0.42683,-0.42683 0.54878,-0.7317c0,0 0,0 0,-0.12195c0,0 0,-0.06098 0,-0.12195c0,0 0,-0.12195 0.06098,-0.2439c0.06098,-0.12195 0,-0.18293 0.12195,-0.2439zM317.70475,140.04579c0.36585,-0.12195 0.73169,-0.36585 0.97559,-0.60975c0.2439,-0.30488 0.36585,-0.67072 0.30488,-1.09754c-0.06098,-0.42683 -0.2439,-0.7317 -0.60975,-0.97559c-0.30488,-0.2439 -0.67072,-0.30488 -1.09754,-0.2439c-1.52438,0.2439 -2.98778,0.79268 -4.39021,1.64633c-1.40242,0.85366 -2.62193,1.82926 -3.78046,2.9268c-1.09754,1.09754 -2.07315,2.25609 -2.86583,3.53656c-0.79268,1.21951 -1.40242,2.37803 -1.76827,3.41461c-0.12195,0.36585 -0.12195,0.79267 0,1.15852c0.18293,0.36585 0.42683,0.60975 0.85366,0.7317c0.18293,0.06098 0.36584,0.12195 0.48779,0.12195c0.67073,0 1.15853,-0.30488 1.40243,-0.97561c0.06098,-0.18293 0.2439,-0.4878 0.48779,-0.97561c0.2439,-0.42683 0.60975,-0.97559 1.03658,-1.58535c0.42683,-0.60975 0.91462,-1.28047 1.52437,-1.95121c0.60975,-0.67073 1.28048,-1.34146 2.01219,-2.01219c0.7317,-0.67073 1.58535,-1.21951 2.49998,-1.76827c0.91463,-0.54878 1.89024,-0.97559 2.86584,-1.21949zM331.0583,163.58219c0,-0.97559 -0.12195,-2.01217 -0.36585,-2.9268c-0.2439,-0.97559 -0.60975,-1.82926 -1.09754,-2.56095c-0.4878,-0.7317 -1.03657,-1.34146 -1.76827,-1.82926c-0.67073,-0.4878 -1.52438,-0.67072 -2.43901,-0.67072c-1.03657,0 -1.9512,0.2439 -2.62193,0.79268c-0.7317,0.54878 -1.28048,1.15852 -1.76827,1.95121c-0.42683,0.79268 -0.79268,1.64633 -0.97561,2.62193c-0.18293,0.97559 -0.30488,1.82925 -0.30488,2.6829c0,1.09754 0.12195,2.13414 0.42683,3.10973c0.2439,0.97559 0.67073,1.76827 1.09756,2.43901c0.4878,0.67073 1.03657,1.21949 1.7073,1.58535c0.67073,0.36585 1.40242,0.54878 2.1951,0.54878c1.09754,0 2.01217,-0.2439 2.74389,-0.7317c0.7317,-0.4878 1.34144,-1.09756 1.82925,-1.82926c0.4878,-0.7317 0.79268,-1.58535 1.03658,-2.49998c0.2439,-0.91463 0.30488,-1.82926 0.30488,-2.74389z"/><path d="M407.6908,209.77142c0.79268,1.52438 1.34146,3.10973 1.52438,4.69509c0.2439,1.58535 0.18293,3.17071 -0.18293,4.75605c-0.36585,1.58535 -0.97559,3.04877 -1.82925,4.51216c-0.91463,1.4634 -2.01219,2.74388 -3.47558,3.96337c-1.58536,1.34146 -3.53656,2.37803 -5.73166,3.04875c-2.19511,0.67073 -4.57314,1.03658 -7.13409,1.03658c-2.25609,0 -4.57313,-0.2439 -6.89019,-0.79268c-2.37803,-0.4878 -4.69509,-1.28048 -7.01214,-2.37803c-2.9268,-1.34146 -5.54873,-2.98778 -7.86578,-4.99995c-2.31705,-1.95121 -4.26826,-4.20729 -5.85362,-6.6463c-1.58536,-2.43901 -2.80485,-5.1219 -3.65851,-7.98773c-0.85366,-2.86583 -1.28047,-5.85362 -1.28047,-8.90238c0,-3.96339 0.42681,-7.62188 1.28047,-10.97551c0.85366,-3.35363 2.01219,-6.34142 3.41461,-9.08529c1.4634,-2.74388 3.17071,-5.12192 5.18288,-7.25604c2.01217,-2.13414 4.14631,-3.9024 6.46337,-5.42678c2.31705,-1.52438 4.75605,-2.6829 7.317,-3.59753c2.56097,-0.91463 5.12192,-1.52438 7.74384,-1.76827c0.4878,0 0.91463,-0.06098 1.34146,-0.12195c0.42683,-0.06098 0.85364,0 1.28048,0c3.10973,0 5.91458,0.60975 8.3536,1.89022c2.43901,1.28047 4.39021,3.10973 5.85361,5.54873c0.79268,1.28047 1.34144,2.6829 1.76827,4.14631c0.36585,1.4634 0.60975,2.9268 0.60975,4.45119c0,1.52438 -0.18293,2.9268 -0.60975,4.32924c-0.42683,1.40243 -0.97561,2.6829 -1.76827,3.90241c-0.36585,0.54878 -0.85364,1.15852 -1.4634,1.76827c-0.60975,0.67073 -1.34146,1.28048 -2.25609,1.82926c-0.91463,0.54878 -1.9512,1.03658 -3.10973,1.40243c-1.15852,0.36585 -2.56095,0.54876 -4.14631,0.54876c-0.4878,0 -0.97561,0 -1.4634,0c-0.4878,0 -1.03658,-0.12195 -1.58536,-0.18293c-0.60975,-0.12195 -1.21951,-0.18291 -1.76827,-0.2439c-0.54878,0 -1.09756,0 -1.58536,0c-1.03657,0 -2.01217,0.12195 -2.86583,0.36584c-0.85366,0.2439 -1.58536,0.60975 -2.25609,1.09756c-0.60975,0.4878 -1.09754,1.15852 -1.4634,1.95121c-0.36585,0.79268 -0.54878,1.76829 -0.60975,2.86583c0,0.91463 0.18293,1.82925 0.54878,2.62193c0.36585,0.85366 0.91462,1.52438 1.64632,2.07315c1.09754,0.85366 2.43901,1.34146 4.08534,1.34146c0.91463,0 1.89024,-0.12195 2.86583,-0.42683c0.7317,-0.18293 1.4634,-0.36585 2.13414,-0.42683c0.7317,-0.12195 1.40242,-0.12195 2.07315,-0.12195c1.4634,0 2.80485,0.18293 4.08532,0.60975c1.28048,0.42683 2.43901,0.91462 3.47558,1.58535c1.03657,0.67073 2.01217,1.4634 2.80485,2.37803c0.79268,0.91463 1.52438,1.82926 2.01217,2.86583zM376.53251,177.88142c0.36585,-0.2439 0.54878,-0.54876 0.60975,-0.97559c0.06098,-0.42683 0,-0.79268 -0.2439,-1.09756c-0.30488,-0.42683 -0.67073,-0.60975 -1.21951,-0.60975c-0.36585,0 -0.79267,0.18293 -1.15852,0.4878c-0.36585,0.30488 -0.60975,0.67072 -0.7317,0.97559c-0.12195,0.36585 -0.12195,0.79267 0.06098,1.15852c0.18293,0.36585 0.42683,0.60975 0.85366,0.7317c0.12195,0 0.18291,0 0.2439,0c0.06098,0 0.12195,0 0.2439,0c0.4878,0 0.85366,-0.18293 1.15853,-0.54878l0.12195,-0.12195c0,0 -0.00001,0 0.06096,0zM379.70321,175.25949c0.36585,0 0.7317,-0.12195 0.97561,-0.36585c0.54878,-0.4878 1.28048,-0.97559 2.07315,-1.40242c0.85366,-0.42683 1.76827,-0.85364 2.74388,-1.15852c0.97561,-0.30488 2.01219,-0.60975 3.04875,-0.79268c1.03657,-0.18293 2.07316,-0.30488 3.04877,-0.30488c0.67073,0 1.34144,0.06098 2.01217,0.18293c0.42683,0.06098 0.79268,0 1.09756,-0.2439c0.30488,-0.2439 0.54876,-0.54876 0.67072,-0.97559c0.06098,-0.42683 0,-0.79268 -0.2439,-1.09756c-0.2439,-0.30488 -0.54878,-0.54876 -0.97561,-0.60975c-0.79268,-0.12195 -1.64632,-0.2439 -2.56095,-0.2439c-1.09754,0 -2.25608,0.12195 -3.41461,0.30488c-1.15852,0.18293 -2.31706,0.48779 -3.47558,0.91462c-1.15852,0.36585 -2.19511,0.85366 -3.23168,1.40243c-1.03657,0.54878 -1.9512,1.15852 -2.6829,1.76827c-0.30488,0.2439 -0.4878,0.60975 -0.54878,1.03658c-0.06098,0.42683 0.06098,0.79268 0.36585,1.09756c0.30488,0.36585 0.67073,0.4878 1.15853,0.4878z"/><path d="M467.45965,178.64304c0.85366,0.97559 1.40243,2.07315 1.58535,3.29266c0.18293,1.21951 0.12195,2.43901 -0.18293,3.71948c-0.30488,1.28047 -0.85366,2.49999 -1.58535,3.78046c-0.7317,1.21951 -1.58536,2.37803 -2.56095,3.41461c-0.7317,0.7317 -1.4634,1.4634 -2.31706,2.13414c-0.85366,0.67073 -1.70731,1.21951 -2.62194,1.76827c-0.91462,0.4878 -1.82926,0.91463 -2.80485,1.15852c-0.97561,0.30488 -1.89024,0.42683 -2.86583,0.42683c-0.85366,0 -1.64633,-0.12195 -2.43901,-0.36585c-0.79268,-0.2439 -1.58535,-0.67073 -2.31705,-1.21951c-1.09754,-0.85366 -2.07316,-1.89022 -2.86584,-3.10973c-0.79268,-1.21951 -1.64632,-2.62193 -2.49998,-4.14631c-0.36585,-0.60975 -0.7317,-1.28048 -1.09756,-1.89024c-0.36585,-0.67073 -0.79268,-1.28047 -1.21951,-2.01217c-0.30488,2.1951 -0.85366,4.14631 -1.76827,5.79263c-0.91462,1.64633 -1.95121,2.92682 -3.23168,4.02436c-1.28048,1.09754 -2.62194,1.82925 -4.14631,2.31705c-1.46341,0.4878 -2.98778,0.7317 -4.51216,0.7317c-1.52437,0 -2.9268,-0.2439 -4.45117,-0.79268c-1.52438,-0.54878 -2.9268,-1.28048 -4.14631,-2.37803c-1.21951,-1.09754 -2.37803,-2.43901 -3.23168,-4.02436c-0.91463,-1.64633 -1.4634,-3.53656 -1.7073,-5.79263c-0.12195,-1.21951 -0.2439,-2.9268 -0.36585,-5.06093c-0.12195,-2.13414 -0.18293,-4.45119 -0.2439,-7.01214c0,-2.56095 -0.12195,-5.24387 -0.12195,-8.1097c0,-2.86583 0,-5.60972 0.06098,-8.3536c0,-2.6829 0.18293,-5.24385 0.30488,-7.62189c0.12195,-2.37803 0.30488,-4.45119 0.4878,-6.09751c0.2439,-1.95121 0.73169,-3.84143 1.4634,-5.67068c0.7317,-1.82926 1.7073,-3.41461 2.86583,-4.75605c1.21951,-1.34146 2.62194,-2.439 4.32924,-3.23168c1.7073,-0.79268 3.59753,-1.21951 5.73166,-1.21951c1.4634,0 2.9268,0.36585 4.45119,0.91463c1.46341,0.60975 2.86583,1.46341 4.08534,2.6829c1.21949,1.21951 2.31706,2.62193 3.23168,4.3902c0.91462,1.76827 1.4634,3.84143 1.7073,6.21947c0.60975,-0.85366 1.15853,-1.70731 1.64633,-2.49999c0.4878,-0.79268 1.03657,-1.58535 1.52438,-2.37803c0.97559,-1.52438 1.82925,-2.9268 2.62193,-4.08532c0.79268,-1.21951 1.70731,-2.19511 2.6829,-2.92682c1.64633,-1.28047 3.47558,-1.9512 5.36582,-1.9512c1.28048,0 2.56095,0.30488 3.84143,0.85364c1.28048,0.60975 2.439,1.46341 3.59753,2.6829c1.09756,1.09754 2.01219,2.439 2.74389,3.9024c0.79268,1.4634 1.28048,2.98778 1.58535,4.51216c0.30488,1.52438 0.36585,3.04875 0.12195,4.51216c-0.2439,1.4634 -0.85366,2.74389 -1.76827,3.90241c-0.7317,0.85366 -1.58536,1.76827 -2.49999,2.6829c-0.91462,0.91463 -1.89024,1.76829 -2.98778,2.6829c-1.09756,0.91463 -2.13412,1.76827 -3.23168,2.6829c-1.09754,0.85366 -2.25608,1.76827 -3.35363,2.62193c-0.4878,0.42683 -1.03657,0.79268 -1.52437,1.21951c-0.4878,0.42683 -0.97561,0.79267 -1.46341,1.15852c-0.12195,0.12195 -0.12195,0.18293 -0.12195,0.30488c0,0.4878 0.30488,1.03658 0.85366,1.76829c0.54878,0.7317 1.28048,1.52437 2.13412,2.37803c0.85366,0.85366 1.82926,1.70731 2.80485,2.62194c1.03657,0.91463 2.01219,1.76827 2.9268,2.56095c1.34144,1.15852 2.6829,2.31705 4.02436,3.53656c1.34146,1.21951 2.43901,2.31705 3.41461,3.35363zM422.39903,154.74079c0,-0.42683 -0.12194,-0.79268 -0.42681,-1.03658c-0.30488,-0.30488 -0.60975,-0.42683 -1.03658,-0.42683c-0.42683,0 -0.79267,0.12195 -1.03657,0.42683c-0.30488,0.30488 -0.42683,0.67072 -0.42683,1.03658v1.15853c0,0.42683 0.12195,0.79268 0.42683,1.03658c0.30488,0.2439 0.67072,0.42683 1.03657,0.42683c0.36585,0 0.7317,-0.12195 1.03658,-0.42683c0.30488,-0.30488 0.42681,-0.67072 0.42681,-1.03658zM425.93559,138.21653c0.36585,-0.18293 0.60975,-0.4878 0.7317,-0.91463c0.12195,-0.42683 0.06098,-0.79268 -0.12195,-1.09756c-0.12195,-0.2439 -0.30488,-0.4878 -0.54878,-0.60975c-0.2439,-0.12195 -0.48779,-0.18293 -0.79268,-0.18293c-0.2439,0 -0.4878,0 -0.67073,0.12195c-0.91463,0.4878 -1.64632,1.21951 -2.31705,2.1951c-0.60975,0.97559 -1.15852,2.13414 -1.52438,3.41461c-0.36585,1.28047 -0.67073,2.6829 -0.85364,4.14631c-0.18293,1.4634 -0.2439,2.9268 -0.18293,4.32924c0,0.42683 0.12195,0.7317 0.42683,1.03658c0.30488,0.30488 0.67073,0.42683 1.03658,0.42683c0.36585,0 0.79267,-0.12195 1.03657,-0.42683c0.30488,-0.30488 0.42683,-0.67073 0.42683,-1.03658c0,-1.40243 0,-2.6829 0.18293,-3.9024c0.18293,-1.21951 0.36585,-2.25609 0.60975,-3.23168l0.30488,-1.03658c0.30488,-0.85366 0.67073,-1.52438 1.03658,-2.07315c0.36585,-0.54878 0.7317,-0.91463 1.15852,-1.15852z"/></g></g></svg>