<svg version="1.1" xmlns="http://www.w3.org/2000/svg" xmlns:xlink="http://www.w3.org/1999/xlink" width="56.7163" height="62.27484" viewBox="0,0,56.7163,62.27484"><g transform="translate(-216.64186,-153.86258)"><g data-paper-data="{&quot;isPaintingLayer&quot;:true}" fill-rule="nonzero" stroke-linecap="butt" stroke-linejoin="miter" stroke-miterlimit="10" stroke-dasharray="" stroke-dashoffset="0" style="mix-blend-mode: normal"><g><path d="M252.4664,211.63153c0,0 0.55949,2.70222 0.06547,3.11589c-0.49402,0.41218 -0.68895,-0.34819 -1.22463,-0.61901c-0.53568,-0.26933 -1.96715,-0.2232 -2.02221,-1.02077c0,0 -1.54753,-0.33927 -1.23356,-1.28266c0.31397,-0.9434 0.56098,-1.14874 1.76031,-1.53414l2.65461,1.33921z" fill="#72c2d4" stroke="#643f26" stroke-width="2.78"/><g stroke="none" stroke-width="1"><path d="M258.11339,213.43797c-1.95524,0 -3.8718,-0.46724 -5.69758,-1.38831c-7.67663,-3.87477 -11.36392,-14.72384 -8.21976,-24.18311c2.32576,-6.99662 7.7927,-11.51718 13.92776,-11.51718c1.95524,0 3.8718,0.46724 5.69758,1.38831c3.71853,1.87638 6.62164,5.42677 8.17512,9.99347c1.55199,4.56819 1.56836,9.60658 0.04613,14.18965c-2.32576,6.99662 -7.7927,11.51718 -13.92776,11.51718v0z" fill="#96d8e9"/><path d="M258.12381,176.58001c-5.85234,0 -11.40112,4.28844 -13.75664,11.37433c-3.10994,9.35808 0.52378,20.05091 8.11857,23.88402c1.84364,0.93149 3.75127,1.37194 5.62765,1.37194c5.85085,0 11.39963,-4.28844 13.75515,-11.37433c3.11143,-9.3566 -0.52229,-20.05091 -8.11709,-23.88402c-1.84215,-0.93149 -3.74978,-1.37194 -5.62616,-1.37194M258.1253,176.12319v0c1.97905,0 3.91941,0.47318 5.76752,1.40617c3.76466,1.90019 6.70348,5.49373 8.27482,10.11697c1.57134,4.62324 1.5877,9.72413 0.04613,14.36374c-2.35403,7.08292 -7.88942,11.66003 -14.10037,11.66003c-1.97905,0 -3.91941,-0.47318 -5.76752,-1.40617c-7.77336,-3.92239 -11.50528,-14.90538 -8.32243,-24.4822c2.35403,-7.08292 7.88942,-11.66003 14.10037,-11.66003v0z" fill="#643f26"/></g><path d="M252.91727,177.74661c-1.82132,2.46414 -2.81978,6.20202 -1.02524,9.46076c2.0847,3.78698 -0.48807,5.38808 0.92256,10.28511c1.41063,4.89704 4.03399,2.91799 5.81662,2.93584c1.78115,0.01786 3.36736,1.69931 4.74377,2.3942c1.3779,0.6949 2.74984,-2.357 5.85978,-3.64859c1.20529,-0.50146 2.32576,-0.18302 3.24683,0.39135c-0.16368,0.76186 -0.36456,1.52075 -0.61455,2.26921c-3.10994,9.35808 -11.788,13.83699 -19.38279,10.00388c-7.59479,-3.83311 -11.22851,-14.52594 -8.11857,-23.88402c1.63383,-4.91638 4.80627,-8.48314 8.55009,-10.20773v0z" fill="#7fc4d3" stroke="none" stroke-width="1"/><path d="M264.97162,180.28068c0,0 4.91787,4.02358 4.55479,7.80609c-0.36307,3.78103 -3.46706,3.97744 -5.72734,2.17398c-2.26029,-1.80198 -5.89252,-4.88662 -3.84799,-8.96674c2.04304,-4.07863 5.02054,-1.01333 5.02054,-1.01333z" fill="#ffffff" stroke="none" stroke-width="1"/><path d="M269.78385,191.85292c0,0 2.45521,1.23951 1.54009,3.97c-0.5089,1.51925 -2.21565,2.36594 -2.91352,0.16071c-0.69788,-2.20374 -0.8437,-3.89263 1.37343,-4.13071z" fill="#ffffff" stroke="none" stroke-width="1"/></g><g><path d="M245.14094,195.05214c0,0 1.33177,2.65461 0.91512,3.29892c-0.41664,0.64431 -0.82882,-0.08928 -1.47462,-0.15475c-0.6458,-0.06696 -2.1591,0.57288 -2.43438,-0.25594c0,0 -1.74395,0.27528 -1.66508,-0.86156c0.07887,-1.13535 0.28719,-1.45676 1.46271,-2.36296z" fill="#72c2d4" stroke="#643f26" stroke-width="3.1"/><g stroke="none" stroke-width="1"><path d="M246.65275,195.59675c-0.48063,0 -0.9687,-0.0253 -1.45081,-0.07589c-9.24499,-0.97167 -16.12555,-11.0321 -15.3369,-22.42429c0.73805,-10.63926 8.09477,-18.97359 16.74902,-18.97359c0.48063,0 0.9687,0.0253 1.45081,0.07589c4.4789,0.47021 8.54117,3.06232 11.43683,7.29868c2.89566,4.23487 4.281,9.60807 3.89858,15.12709c-0.73656,10.63926 -8.09477,18.97359 -16.74902,18.97359v0z" fill="#f389b7"/><path d="M246.61406,154.37743c-8.53819,0 -15.80116,8.06203 -16.5407,18.73849c-0.77972,11.27018 6.00114,21.18626 15.14643,22.14752c0.48212,0.05208 0.95976,0.07589 1.43295,0.07589c8.53819,0 15.80116,-8.06203 16.5407,-18.73849c0.77972,-11.27018 -5.99965,-21.18626 -15.14643,-22.14752c-0.48212,-0.05208 -0.95976,-0.07589 -1.43295,-0.07589M246.61556,153.86258v0c0.48658,0 0.97911,0.02678 1.46718,0.07737c9.35957,0.98506 16.32494,11.16899 15.52588,22.70255c-0.36605,5.27201 -2.31088,10.14078 -5.48033,13.70902c-3.15011,3.54592 -7.22428,5.49968 -11.47552,5.49968v0c-0.48807,0 -0.98208,-0.02678 -1.46866,-0.07737c-9.35957,-0.98357 -16.32494,-11.16899 -15.52588,-22.70255c0.36605,-5.27201 2.31088,-10.14078 5.48033,-13.70753c3.15011,-3.54592 7.22428,-5.49968 11.47552,-5.49968v0v0.51336v-0.51336z" fill="#643f26"/></g><path d="M236.42865,158.69861c-1.27671,3.38075 -1.32731,7.78228 1.47313,10.52171c3.25278,3.18285 0.94191,5.95203 3.77656,10.5976c2.83466,4.64556 5.09792,1.4523 7.00554,0.73656c1.90614,-0.71424 4.05482,0.42706 5.71395,0.60115c1.65913,0.1741 2.29451,-3.64711 5.26457,-6.30916c1.15023,-1.03119 2.43289,-1.1547 3.57271,-0.91959c0.03125,0.8809 0.02232,1.77371 -0.04018,2.67544c-0.7812,11.27018 -8.82687,19.62683 -17.97365,18.66409c-9.1453,-0.96126 -15.92615,-10.87734 -15.14643,-22.14752c0.41069,-5.92078 2.8287,-11.03507 6.35528,-14.4188v0z" fill="#df71a7" stroke="none" stroke-width="1"/><path d="M249.98143,156.43832c0,0 6.34189,2.26921 6.98025,6.45498c0.63836,4.18577 -2.62038,5.67378 -5.52349,4.68128c-2.90161,-0.99101 -7.61563,-2.78853 -6.54128,-7.98465c1.07583,-5.19612 5.08453,-3.15011 5.08453,-3.15011v0z" fill="#ffffff" stroke="none" stroke-width="1"/><path d="M258.25922,166.80528c0,0 2.95667,0.31099 2.72008,3.60247c-0.13095,1.83025 -1.72311,3.4373 -3.0653,1.37194c-1.34218,-2.06536 -1.95673,-3.80781 0.34522,-4.97441z" fill="#ffffff" stroke="none" stroke-width="1"/></g><g><path d="M236.49561,204.46082c0,0 1.84513,2.13827 1.57878,2.89269c-0.26636,0.75442 -0.81989,0.18005 -1.45676,0.32141c-0.63687,0.14285 -1.96417,1.24397 -2.40611,0.53122c0,0 -1.62639,0.82435 -1.79007,-0.2976c-0.16368,-1.12196 -0.02976,-1.49843 0.91512,-2.74984l3.15755,-0.69788v0z" fill="#99bd53" stroke="#643f26" stroke-width="3.1"/><g stroke="none" stroke-width="1"><path d="M233.66244,205.22119c-8.14685,0 -15.10328,-7.18261 -16.54367,-17.07936c-0.79311,-5.45206 0.18302,-10.95918 2.75133,-15.50504c2.5683,-4.54735 6.41778,-7.58884 10.84312,-8.56497c0.98804,-0.21874 1.99393,-0.32885 2.98941,-0.32885c8.14685,0 15.10328,7.18261 16.54367,17.07936c0.79311,5.45206 -0.18302,10.95918 -2.75133,15.50504c-2.5683,4.54735 -6.41778,7.58884 -10.84312,8.56497c-0.98804,0.21874 -1.99393,0.32885 -2.98941,0.32885h-0.00149z" fill="#a6d168"/><path d="M233.70262,163.9974c-0.97464,0 -1.96268,0.10565 -2.9537,0.32587c-9.03519,1.99542 -15.04674,12.63914 -13.4263,23.77242c1.44188,9.91162 8.44444,16.86806 16.33982,16.86806c0.97316,0 1.96119,-0.10713 2.95221,-0.32587c9.03519,-1.99542 15.04674,-12.63914 13.4263,-23.77242c-1.44188,-9.91014 -8.44594,-16.86806 -16.33982,-16.86806M233.70262,163.48404c8.24803,0 15.29078,7.27338 16.74902,17.29215c0.80203,5.52051 -0.186,11.09459 -2.78555,15.697c-2.59955,4.60241 -6.49813,7.68259 -10.97704,8.67211c-1.00143,0.22171 -2.01923,0.33331 -3.02661,0.33331c-8.24654,0 -15.29078,-7.27338 -16.74902,-17.29215c-0.80203,-5.52051 0.186,-11.09459 2.78555,-15.697c2.59955,-4.60241 6.49813,-7.68259 10.97704,-8.67211c0.99994,-0.22171 2.01923,-0.33331 3.02661,-0.33331z" fill="#643f26"/></g><path d="M220.42215,172.13979c-0.5208,3.67241 0.35861,7.94001 3.63818,9.68991c3.81228,2.03411 2.16356,5.4476 5.87763,9.02626c3.71556,3.57866 5.22886,-0.22915 6.91924,-1.52967c1.69038,-1.30052 4.00572,-0.88388 5.6455,-1.24695c1.6383,-0.36159 1.44783,-4.25719 3.75424,-7.77782c0.8928,-1.3645 2.10553,-1.89275 3.25725,-2.03113c0.21576,0.84073 0.39581,1.70526 0.52527,2.59658c1.62044,11.13328 -4.39111,21.777 -13.4263,23.77242c-9.03519,1.99691 -17.67159,-5.4104 -19.29352,-16.54367c-0.85114,-5.84936 0.40623,-11.56182 3.09952,-15.9574h0.00149z" fill="#99bd53" stroke="none" stroke-width="1"/><path d="M233.0345,165.62082c0,0 6.6023,0.16219 8.09923,3.99976c1.49843,3.83757 -1.33623,6.3166 -4.34796,6.28684c-3.01173,-0.02976 -7.9415,-0.25742 -7.99804,-5.61872c-0.05654,-5.36129 4.24529,-4.66788 4.24529,-4.66788v0z" fill="#ffffff" stroke="none" stroke-width="1"/><path d="M243.21099,172.98498c0,0 2.91947,-0.6458 3.38671,2.60848c0.25892,1.81091 -0.94042,3.8718 -2.67097,2.30641c-1.73204,-1.56539 -2.69181,-3.0519 -0.71424,-4.91489v0z" fill="#ffffff" stroke="none" stroke-width="1"/></g></g></g></svg>