<svg version="1.1" xmlns="http://www.w3.org/2000/svg" xmlns:xlink="http://www.w3.org/1999/xlink" width="331.21328" height="160.39629" viewBox="0,0,331.21328,160.39629"><g transform="translate(-139.03894,-128.15562)"><g data-paper-data="{&quot;isPaintingLayer&quot;:true}" fill-rule="nonzero" stroke="none" stroke-width="0" stroke-linecap="butt" stroke-linejoin="miter" stroke-miterlimit="10" stroke-dasharray="" stroke-dashoffset="0" style="mix-blend-mode: normal"><path d="M184.83294,128.4661c1.24181,0.22175 2.48362,0.97571 3.68107,2.2175c1.19746,1.28615 2.26186,2.88276 3.2819,4.87851c1.02005,1.9514 1.90706,4.21326 2.74971,6.69687c0.79829,2.48361 1.46355,5.10026 1.99576,7.76126c0.5322,2.70536 0.88701,5.36637 1.10876,8.07173c0.22175,2.70536 0.22175,5.23332 0,7.62822c-0.3548,4.43501 -1.4192,7.80562 -3.10451,10.11184c-1.6853,2.30621 -3.94717,3.50366 -6.78557,3.50366c-3.1932,0 -5.80988,-1.02005 -7.76128,-3.01581c-1.02005,-1.02005 -1.81836,-2.2175 -2.39491,-3.6367c-0.57655,-1.37485 -1.02005,-2.83841 -1.33051,-4.30196c-0.31045,-1.46356 -0.48785,-2.97146 -0.57655,-4.47936c-0.0887,-1.5079 -0.0887,-2.88275 -0.0887,-4.12456c-0.3548,0.88701 -0.70959,1.81836 -1.1531,2.7497c-0.4435,0.93135 -0.93135,1.77401 -1.5079,2.52796c-0.57655,0.75395 -1.24181,1.37485 -1.9514,1.81836c-0.75395,0.48785 -1.59661,0.70961 -2.52796,0.70961c-0.93135,0 -1.77401,-0.22175 -2.48361,-0.70961c-0.70959,-0.48785 -1.41921,-1.06441 -1.99576,-1.81836c-0.57655,-0.75395 -1.0644,-1.59661 -1.5079,-2.52796c-0.4435,-0.93135 -0.84265,-1.81836 -1.1531,-2.7497c0,1.24181 0,2.61666 -0.0887,4.12456c-0.0887,1.5079 -0.2661,2.97146 -0.57655,4.47936c-0.31045,1.5079 -0.75395,2.92711 -1.33051,4.30196c-0.57655,1.37485 -1.37485,2.57231 -2.39491,3.6367c-1.9514,2.0401 -4.56807,3.01581 -7.76128,3.01581c-2.83841,0 -5.10026,-1.1531 -6.78557,-3.50366c-1.68531,-2.35056 -2.79406,-5.72117 -3.19321,-10.11184c-0.1774,-1.77401 -0.1774,-3.68107 -0.13305,-5.67682c0.0887,-1.99576 0.2661,-3.99152 0.5322,-5.98728c0.2661,-2.0401 0.62089,-4.03587 1.0644,-6.03162c0.4435,-1.99576 0.97571,-3.94716 1.55226,-5.76552c0.57655,-1.81836 1.24181,-3.548 1.99576,-5.14462c0.70959,-1.5966 1.5079,-3.01581 2.30621,-4.25762c0.84265,-1.24181 1.68531,-2.2175 2.57231,-2.97146c0.88701,-0.75395 1.81836,-1.2418 2.74971,-1.37485c0.3548,-0.04435 0.70961,-0.0887 1.02005,-0.13305c0.31045,-0.04435 0.62089,-0.04435 0.93135,-0.04435c1.1531,0 2.17316,0.17739 3.10451,0.53219c0.93135,0.3548 1.81836,0.79831 2.57231,1.37486c0.79829,0.57655 1.5079,1.24181 2.1288,1.99576c0.62091,0.75395 1.19746,1.55226 1.72966,2.39491c0.5322,0.84265 1.02005,1.6853 1.41921,2.52796c0.39915,0.84265 0.84265,1.64096 1.19746,2.43926c0.1774,0.3548 0.35479,0.79831 0.57655,1.19746c0.22175,0.4435 0.4435,0.84265 0.62091,1.2418c0.22175,0.39915 0.39915,0.70959 0.62091,0.97571c0.22175,0.2661 0.3548,0.4435 0.48785,0.48785c0.13305,-0.04435 0.31045,-0.22175 0.5322,-0.48785c0.22175,-0.2661 0.39915,-0.57655 0.62091,-0.97571c0.22175,-0.39915 0.4435,-0.79829 0.62089,-1.2418c0.22175,-0.4435 0.39915,-0.84265 0.57655,-1.19746c0.3548,-0.75395 0.75395,-1.55226 1.19745,-2.43926c0.4435,-0.84265 0.88701,-1.6853 1.41921,-2.52796c0.5322,-0.84265 1.10875,-1.64096 1.72966,-2.39491c0.62091,-0.75395 1.33051,-1.41921 2.12882,-1.99576c0.79829,-0.57655 1.64096,-1.02005 2.57231,-1.37486c0.93135,-0.3548 1.99576,-0.53219 3.1045,-0.53219c0.31045,0 0.62091,0 0.93135,0.04435c0.31045,0 0.66525,0.0887 1.02005,0.13305zM147.35708,148.82282c0.13305,-0.2661 0.13305,-0.57655 0,-0.84265c-0.13305,-0.2661 -0.31045,-0.48785 -0.57655,-0.62091c-0.13305,-0.04435 -0.2661,-0.0887 -0.4435,-0.0887c-0.4435,0 -0.79831,0.22175 -0.97571,0.62089c-0.13305,0.3548 -0.22175,0.57655 -0.2661,0.70959c0,0.13305 -0.04435,0.22175 -0.04435,0.3548c0,0.31045 0.0887,0.57655 0.31045,0.75395c0.22175,0.1774 0.4435,0.31044 0.75395,0.31044c0.2661,0 0.48785,-0.08869 0.70961,-0.22174c0.22175,-0.13305 0.31045,-0.3548 0.3548,-0.62091c0,0 0,-0.0887 0.04435,-0.13305c0,-0.04435 0,-0.0887 0.04435,-0.13305c0,0 0,-0.0887 0.04435,-0.13305zM153.3887,134.94122c0.2661,-0.13305 0.48785,-0.31045 0.57655,-0.62089c0.0887,-0.2661 0.0887,-0.5322 0,-0.84265c-0.0887,-0.1774 -0.22175,-0.3548 -0.39914,-0.4435c-0.1774,-0.0887 -0.39915,-0.1774 -0.62091,-0.1774c-0.13305,0 -0.2661,0 -0.4435,0.0887c-0.62091,0.2661 -1.19745,0.75395 -1.72966,1.37485c-0.5322,0.62091 -1.02005,1.33051 -1.46355,2.08446c-0.4435,0.79829 -0.84265,1.5966 -1.19746,2.43926c-0.3548,0.84265 -0.66525,1.68531 -0.88701,2.43926c-0.2661,0.75395 -0.4435,1.46355 -0.62091,2.0401c-0.1774,0.57655 -0.2661,1.02005 -0.31045,1.28616c-0.04435,0.31045 0,0.57655 0.1774,0.79829c0.1774,0.22175 0.39915,0.39915 0.70961,0.4435c0.31045,0 0.57655,-0.04435 0.79831,-0.1774c0.22175,-0.13305 0.39915,-0.3548 0.4435,-0.70961c0.0887,-0.39915 0.1774,-0.93135 0.35479,-1.5079c0.1774,-0.62091 0.3548,-1.24181 0.62091,-1.9514c0.2661,-0.70959 0.5322,-1.37486 0.84265,-2.08446c0.31045,-0.70959 0.62089,-1.37485 0.97571,-1.9514c0.3548,-0.62091 0.70961,-1.1531 1.06441,-1.5966c0.3548,-0.4435 0.75395,-0.75395 1.10876,-0.93135zM176.93862,143.36775c0.13305,-0.2661 0.13305,-0.5322 0,-0.79831c-0.0887,-0.2661 -0.31045,-0.48785 -0.57655,-0.62089c-0.13305,-0.04435 -0.26609,-0.0887 -0.44349,-0.0887c-0.1774,0 -0.39915,0.04435 -0.57655,0.1774c-0.1774,0.13305 -0.31045,0.2661 -0.39915,0.4435c-0.13305,0.3548 -0.22174,0.57655 -0.26609,0.70961c0,0.13305 -0.0887,0.22175 -0.0887,0.3548c0,0.31045 0.0887,0.57655 0.31045,0.75395c0.22175,0.22175 0.48785,0.31045 0.75395,0.31045c0.2661,0 0.48785,-0.0887 0.70959,-0.22175c0.1774,-0.1774 0.31045,-0.3548 0.3548,-0.62091l0.1774,-0.39914zM182.12759,135.42908c0.2661,-0.0887 0.48785,-0.26609 0.62089,-0.5322c0.13305,-0.2661 0.1774,-0.5322 0.0887,-0.84265c-0.0887,-0.31045 -0.2661,-0.5322 -0.5322,-0.66525c-0.2661,-0.13305 -0.5322,-0.13305 -0.84265,-0.04435c-0.66525,0.22175 -1.28615,0.57655 -1.8627,1.10876c-0.57655,0.5322 -1.10876,1.10875 -1.55226,1.72966c-0.4435,0.62091 -0.84265,1.28616 -1.19746,1.90706c-0.31045,0.62091 -0.57655,1.1531 -0.70961,1.5966c-0.0887,0.2661 -0.0887,0.57655 0,0.84265c0.13305,0.2661 0.3548,0.4435 0.62091,0.5322c0.04435,0 0.0887,0.04435 0.1774,0.04435h0.1774c0.22175,0 0.4435,-0.04435 0.62089,-0.1774c0.1774,-0.13305 0.31045,-0.31045 0.39915,-0.5322c0.13305,-0.4435 0.35479,-0.93135 0.62089,-1.46355c0.2661,-0.5322 0.62091,-1.02005 0.97571,-1.50791c0.3548,-0.48785 0.75395,-0.93135 1.10876,-1.28615c0.3548,-0.3548 0.79831,-0.62091 1.19746,-0.75395z" fill="#ff38b1"/><path d="M242.70989,165.79679c0.97569,1.99576 1.72966,4.08021 2.2175,6.25337c0.5322,2.17316 0.75395,4.34631 0.79831,6.51948c0,2.17316 -0.1774,4.34631 -0.62091,6.51947c-0.4435,2.17316 -1.1531,4.21327 -2.08446,6.20902c-1.10876,2.39491 -2.48361,4.34631 -4.08021,5.89858c-1.59661,1.55226 -3.28191,2.83841 -5.10027,3.76976c-1.81836,0.97571 -3.68106,1.6853 -5.58811,2.1288c-1.90706,0.4435 -3.68106,0.75395 -5.36637,0.88701c-4.74547,0 -8.82569,-1.0644 -12.24064,-3.23757c-3.41496,-2.17316 -6.12032,-5.32202 -8.07173,-9.49094c-0.93135,-1.99576 -1.5966,-4.08022 -2.08446,-6.20902c-0.48785,-2.1288 -0.66525,-4.34631 -0.66525,-6.51947c0,-2.17316 0.31045,-4.34631 0.79831,-6.51947c0.48785,-2.17316 1.24181,-4.25762 2.2175,-6.25338c0.88701,-1.8627 2.0401,-3.50366 3.41496,-4.96721c1.37486,-1.46356 2.92711,-2.74971 4.65677,-3.76976c1.72966,-1.02005 3.59236,-1.81836 5.58811,-2.39491c1.99576,-0.57655 4.08021,-0.84265 6.29772,-0.84265c2.17316,0 4.25761,0.3548 6.29772,0.93135c2.0401,0.57655 3.90281,1.37486 5.63247,2.43926c1.72966,1.0644 3.28191,2.30621 4.65677,3.76976c1.37486,1.46356 2.48361,3.06016 3.3706,4.87851zM208.02808,172.40496c0.13305,-0.2661 0.1774,-0.5322 0.0887,-0.84265c-0.0887,-0.2661 -0.2661,-0.48785 -0.5322,-0.62089c-0.13305,-0.0887 -0.31044,-0.13305 -0.53219,-0.13305c-0.1774,0 -0.3548,0 -0.5322,0.13305c-0.1774,0.13305 -0.31045,0.22175 -0.39915,0.39914c-0.0887,0.0887 -0.13305,0.22175 -0.1774,0.3548c0,0.13305 -0.08869,0.31045 -0.13304,0.48785c-0.0887,0.2661 -0.0887,0.57655 0,0.84265c0.13305,0.2661 0.35479,0.4435 0.62089,0.57655c0.13305,0 0.2661,0.04434 0.3548,0.04434c0.22175,0 0.4435,-0.0887 0.62089,-0.1774c0.1774,-0.0887 0.31045,-0.31045 0.39915,-0.5322c0,0 0,0 0,-0.0887c0,0 0,-0.04435 0,-0.0887c0,0 0,-0.0887 0.04435,-0.1774c0,-0.0887 0,-0.13305 0.0887,-0.1774zM217.1642,161.84963c0.2661,-0.0887 0.5322,-0.2661 0.70961,-0.4435c0.1774,-0.22175 0.2661,-0.48785 0.22175,-0.79829c-0.04435,-0.31045 -0.1774,-0.5322 -0.4435,-0.70959c-0.22175,-0.1774 -0.53219,-0.22175 -0.79829,-0.1774c-1.10876,0.1774 -2.17316,0.57655 -3.19321,1.19746c-1.02005,0.62091 -1.90706,1.33051 -2.7497,2.1288c-0.79829,0.79829 -1.5079,1.64096 -2.08446,2.57231c-0.57655,0.93135 -1.02005,1.72966 -1.28616,2.48361c-0.0887,0.2661 -0.0887,0.57655 0,0.84265c0.13305,0.2661 0.31045,0.4435 0.62091,0.5322c0.13305,0.04435 0.26609,0.0887 0.35479,0.0887c0.48785,0 0.84265,-0.22175 1.02005,-0.70961c0.04435,-0.13305 0.1774,-0.3548 0.3548,-0.70961c0.1774,-0.31045 0.4435,-0.70959 0.75395,-1.1531c0.31045,-0.4435 0.66525,-0.93135 1.10876,-1.41921c0.4435,-0.48785 0.93135,-0.97571 1.46355,-1.46356c0.5322,-0.48785 1.15311,-0.88701 1.81836,-1.28615c0.66525,-0.39915 1.37486,-0.70959 2.08446,-0.88699zM226.87689,178.96879c0,-0.70959 -0.0887,-1.46355 -0.2661,-2.1288c-0.1774,-0.70959 -0.4435,-1.33051 -0.79831,-1.8627c-0.3548,-0.5322 -0.75395,-0.97571 -1.28615,-1.33051c-0.48785,-0.3548 -1.10876,-0.48785 -1.77401,-0.48785c-0.75395,0 -1.4192,0.1774 -1.9514,0.57655c-0.5322,0.39915 -0.93135,0.84265 -1.28615,1.41921c-0.31045,0.57655 -0.57655,1.19746 -0.70961,1.90706c-0.13305,0.70959 -0.22175,1.3305 -0.22175,1.9514c0,0.79829 0.0887,1.55226 0.31045,2.26186c0.1774,0.70959 0.4435,1.28615 0.79829,1.77401c0.3548,0.48785 0.75395,0.88699 1.24181,1.1531c0.48785,0.2661 1.02005,0.39915 1.5966,0.39915c0.79829,0 1.46355,-0.1774 1.99576,-0.5322c0.5322,-0.3548 0.97569,-0.79831 1.3305,-1.33051c0.3548,-0.5322 0.57655,-1.1531 0.75395,-1.81836c0.1774,-0.66525 0.22175,-1.33051 0.22175,-1.99576z" fill="#ff38b1"/><path d="M298.41368,132.94546c1.02005,2.57231 1.774,5.41071 2.26186,8.51523c0.48785,3.10451 0.75395,6.34208 0.70961,9.71268c0,3.37061 -0.31045,6.78557 -0.84265,10.28924c-0.5322,3.50367 -1.33051,6.87427 -2.39491,10.15618c-0.3548,1.10876 -0.84265,2.08446 -1.4192,3.01581c-0.62091,0.93135 -1.28616,1.6853 -2.12882,2.35056c-0.79829,0.66525 -1.72966,1.1531 -2.74971,1.55225c-1.02005,0.3548 -2.1288,0.5322 -3.28191,0.5322c-1.0644,0 -2.1288,-0.13305 -3.14885,-0.4435c-1.02005,-0.31045 -2.04012,-0.75395 -2.97146,-1.33051c-0.93135,-0.57655 -1.81836,-1.28615 -2.66101,-2.1288c-0.84265,-0.84265 -1.55225,-1.81836 -2.17316,-2.88276c-0.84265,-1.41921 -1.72966,-2.92711 -2.57231,-4.43501c-0.88701,-1.5079 -1.6853,-3.01581 -2.48361,-4.43501c-0.5322,-0.97571 -1.10876,-1.9514 -1.6853,-2.92711c-0.57655,-0.97571 -1.0644,-1.8627 -1.55225,-2.66101v0.13305c0,0.75395 0.0887,1.55226 0.0887,2.48361c0,0.88701 0.04435,1.8627 0.04435,2.83841c0,0.97571 0.00001,2.0401 -0.08869,3.06016c-0.0887,1.0644 -0.1774,2.08446 -0.3548,3.10451c-0.22175,1.33051 -0.62089,2.57231 -1.19745,3.76976c-0.57655,1.1531 -1.33051,2.17316 -2.26186,3.06015c-0.93135,0.88701 -1.9514,1.55226 -3.14887,2.04012c-1.19745,0.48785 -2.48361,0.75395 -3.85847,0.75395c-1.0644,0 -2.08446,-0.1774 -3.06015,-0.48785c-0.97569,-0.3548 -1.81836,-0.79829 -2.61666,-1.4192c-0.79829,-0.62091 -1.46356,-1.37486 -2.04012,-2.26186c-0.57655,-0.88701 -1.02005,-1.90706 -1.3305,-3.01581c-0.4435,-1.55226 -0.75395,-3.28191 -1.02005,-5.27767c-0.2661,-1.9514 -0.4435,-4.03587 -0.48785,-6.20902c-0.04435,-2.17316 0,-4.39067 0.0887,-6.65253c0.13305,-2.26186 0.35479,-4.47936 0.70959,-6.69687c0.3548,-2.2175 0.79831,-4.25762 1.37486,-6.25337c0.57655,-1.99576 1.24181,-3.76977 2.0401,-5.36637c0.79829,-1.5966 1.72966,-2.97146 2.79406,-4.08022c1.0644,-1.10876 2.2175,-1.8627 3.548,-2.30621c0.70961,-0.22175 1.37486,-0.39914 1.99576,-0.48785c0.62091,-0.0887 1.2418,-0.13305 1.81836,-0.13305c1.19745,0 2.26186,0.1774 3.23757,0.57655c0.97569,0.39915 1.8627,0.88699 2.66101,1.5079c0.79829,0.62091 1.50791,1.37486 2.17316,2.17316c0.66525,0.84265 1.2418,1.68531 1.774,2.61666c0.5322,0.88701 1.02005,1.77401 1.41921,2.70536c0.39915,0.88701 0.79831,1.72966 1.15311,2.52796l0.48785,1.1531c0,0 0.1774,0.4435 0.31045,0.70961c0.13305,0.2661 0.22175,0.57655 0.39914,0.88701c0.13305,0.3548 0.31045,0.79831 0.5322,1.33051c0.22175,0.5322 0.44349,1.0644 0.70959,1.6853c0.2661,0.57655 0.5322,1.19746 0.79831,1.77401c0.2661,0.62091 0.53219,1.1531 0.79829,1.6853c0,-0.1774 0,-0.39915 0,-0.57655c0,-0.1774 0,-0.3548 0,-0.57655c0,-0.75395 0.0887,-1.5966 0.0887,-2.48361c0,-0.88701 0.0887,-1.774 0.1774,-2.7497c0.0887,-0.97571 0.1774,-1.90706 0.2661,-2.92711c0.0887,-0.97571 0.26609,-1.9514 0.44349,-2.92711c0.22175,-1.33051 0.62091,-2.57231 1.19746,-3.72542c0.57655,-1.1531 1.28615,-2.1288 2.2175,-2.97145c0.93135,-0.84265 1.90706,-1.50791 3.06016,-1.95142c1.15311,-0.48785 2.43926,-0.70959 3.81411,-0.70959c0.88701,0 1.77401,0.0887 2.61666,0.31045c0.84265,0.22175 1.64096,0.5322 2.35056,0.97571c0.70961,0.4435 1.37485,0.93135 1.9514,1.5079c0.57655,0.57655 1.02005,1.28616 1.37486,1.99576zM256.50279,145.94006c0.0887,-0.31045 0.04435,-0.57655 -0.0887,-0.84265c-0.13305,-0.2661 -0.39914,-0.39914 -0.70959,-0.48785c-0.04435,0 -0.13305,0 -0.22175,0c-0.4435,0 -0.75395,0.17739 -0.93135,0.53219c-0.1774,0.3548 -0.2661,0.75395 -0.2661,1.15311c0,0.31045 0.0887,0.57655 0.31045,0.79831c0.22175,0.22175 0.48785,0.35479 0.75395,0.35479c0.2661,0 0.5322,-0.0887 0.75395,-0.31045c0.22175,-0.22175 0.31045,-0.4435 0.31045,-0.75395l0.0887,-0.39914zM260.53865,135.73952c0.22175,-0.1774 0.35479,-0.4435 0.39914,-0.70961c0.04435,-0.2661 0,-0.5322 -0.22175,-0.79831c-0.22175,-0.2661 -0.53219,-0.4435 -0.84265,-0.4435c-0.22175,0 -0.4435,0.0887 -0.66525,0.22175c-0.3548,0.2661 -0.70959,0.66525 -1.1531,1.28615c-0.4435,0.57655 -0.84265,1.24181 -1.24181,1.9514c-0.39915,0.70959 -0.75395,1.50791 -1.06441,2.30621c-0.31045,0.79829 -0.48785,1.59661 -0.57655,2.30621c0,0.31045 0,0.57655 0.22175,0.79829c0.1774,0.22175 0.44349,0.3548 0.75395,0.39915c0,0 0.04435,0 0.13305,0c0.2661,0 0.48785,-0.0887 0.70959,-0.2661c0.22175,-0.1774 0.31045,-0.39914 0.3548,-0.66525c0.0887,-0.62091 0.22175,-1.28616 0.5322,-1.9514c0.2661,-0.66525 0.57655,-1.3305 0.88699,-1.9514c0.31045,-0.62091 0.66525,-1.1531 1.02005,-1.5966c0.3548,-0.4435 0.62091,-0.75395 0.84265,-0.93135zM285.37473,143.5008c0,-0.31045 -0.0887,-0.57655 -0.31045,-0.75395c-0.22175,-0.1774 -0.48785,-0.31045 -0.75395,-0.31045c-0.2661,0 -0.57655,0.0887 -0.75395,0.31045c-0.22175,0.22175 -0.31045,0.48785 -0.31045,0.75395v0.44349c0,0.31045 0.0887,0.57655 0.31045,0.75395c0.22175,0.22175 0.48785,0.31045 0.75395,0.31045c0.2661,0 0.57655,-0.0887 0.75395,-0.31045c0.22175,-0.22175 0.31045,-0.48785 0.31045,-0.75395zM287.94704,135.20732c0.2661,-0.1774 0.39914,-0.39914 0.48785,-0.66525c0.04435,-0.31045 0,-0.57655 -0.1774,-0.79831c-0.22175,-0.31045 -0.53219,-0.48785 -0.88699,-0.48785c-0.22175,0 -0.39915,0.04435 -0.57655,0.1774c-0.93135,0.62091 -1.6853,1.5079 -2.21752,2.66101c-0.5322,1.1531 -0.84265,2.4836 -0.88699,3.94716c0,0.31045 0.0887,0.57655 0.2661,0.75395c0.22175,0.22175 0.4435,0.31044 0.75395,0.35479c0.31045,0 0.57655,-0.0887 0.75395,-0.31045c0.1774,-0.22175 0.31045,-0.4435 0.3548,-0.75395c0,-1.10876 0.2661,-2.1288 0.62091,-2.97145c0.3548,-0.84265 0.88701,-1.50791 1.5079,-1.95142z" fill="#ff38b1"/><path d="M339.52627,186.71081c0.57655,1.10876 0.97571,2.26186 1.10876,3.41497c0.1774,1.1531 0.13305,2.30621 -0.13305,3.4593c-0.2661,1.1531 -0.70961,2.21752 -1.33051,3.28191c-0.66525,1.0644 -1.46356,1.99576 -2.52796,2.88275c-1.15311,0.97571 -2.5723,1.72966 -4.16891,2.2175c-1.59661,0.48785 -3.32626,0.75395 -5.18897,0.75395c-1.64096,0 -3.32627,-0.1774 -5.01157,-0.57655c-1.72966,-0.3548 -3.41497,-0.93135 -5.10027,-1.72966c-2.1288,-0.97571 -4.03586,-2.17316 -5.72116,-3.6367c-1.6853,-1.41921 -3.10451,-3.06016 -4.25762,-4.83417c-1.15311,-1.77401 -2.0401,-3.7254 -2.66101,-5.80986c-0.62091,-2.08446 -0.93135,-4.25762 -0.93135,-6.47513c0,-2.88276 0.31044,-5.54376 0.93135,-7.98302c0.62091,-2.43926 1.46356,-4.61242 2.48361,-6.60817c1.0644,-1.99576 2.30621,-3.72542 3.76977,-5.27767c1.46355,-1.55226 3.01581,-2.8384 4.70111,-3.94716c1.6853,-1.10876 3.4593,-1.9514 5.32202,-2.61666c1.86272,-0.66525 3.72542,-1.10876 5.63247,-1.28615c0.3548,0 0.66525,-0.04435 0.97569,-0.0887c0.31045,-0.04435 0.62089,0 0.93135,0c2.26186,0 4.30196,0.4435 6.07598,1.37485c1.77401,0.93135 3.19321,2.26186 4.25761,4.03586c0.57655,0.93135 0.97569,1.9514 1.28615,3.01581c0.2661,1.0644 0.4435,2.1288 0.4435,3.23757c0,1.10876 -0.13304,2.1288 -0.4435,3.14887c-0.31045,1.02005 -0.70961,1.9514 -1.28615,2.83841c-0.2661,0.39915 -0.62089,0.84265 -1.0644,1.28615c-0.4435,0.48785 -0.97571,0.93135 -1.64096,1.33051c-0.66525,0.39915 -1.41921,0.75395 -2.26186,1.02005c-0.84265,0.2661 -1.8627,0.39914 -3.01581,0.39914c-0.3548,0 -0.70961,0 -1.0644,0c-0.3548,0 -0.75395,-0.0887 -1.15311,-0.13305c-0.4435,-0.0887 -0.88701,-0.13304 -1.28615,-0.1774c-0.39915,0 -0.79831,0 -1.15311,0c-0.75395,0 -1.46355,0.0887 -2.08446,0.26609c-0.62091,0.1774 -1.1531,0.4435 -1.64096,0.79831c-0.4435,0.3548 -0.79831,0.84265 -1.06441,1.41921c-0.2661,0.57655 -0.39915,1.28616 -0.4435,2.08446c0,0.66525 0.13305,1.3305 0.39915,1.90706c0.2661,0.62091 0.66525,1.10876 1.19745,1.5079c0.79829,0.62091 1.77401,0.97571 2.97146,0.97571c0.66525,0 1.37485,-0.0887 2.08446,-0.31045c0.5322,-0.13305 1.0644,-0.2661 1.55226,-0.31045c0.5322,-0.0887 1.02005,-0.0887 1.5079,-0.0887c1.0644,0 2.0401,0.13305 2.97146,0.4435c0.93135,0.31045 1.77401,0.66525 2.52796,1.1531c0.75395,0.48785 1.46355,1.0644 2.0401,1.72966c0.57655,0.66525 1.10876,1.33051 1.46355,2.08446zM316.86334,163.51568c0.2661,-0.1774 0.39915,-0.39914 0.4435,-0.70959c0.04435,-0.31045 0,-0.57655 -0.1774,-0.79831c-0.22175,-0.31045 -0.48785,-0.4435 -0.88699,-0.4435c-0.2661,0 -0.57655,0.13305 -0.84265,0.3548c-0.2661,0.22175 -0.4435,0.48785 -0.5322,0.70959c-0.0887,0.2661 -0.0887,0.57655 0.04435,0.84265c0.13305,0.2661 0.31044,0.4435 0.62089,0.5322c0.0887,0 0.13305,0 0.1774,0c0.04435,0 0.0887,0 0.1774,0c0.3548,0 0.62089,-0.13305 0.84265,-0.39915l0.0887,-0.0887c0,0 0,0 0.04435,0zM319.16956,161.60862c0.2661,0 0.5322,-0.0887 0.70961,-0.2661c0.39915,-0.3548 0.93135,-0.70959 1.5079,-1.02005c0.62091,-0.31045 1.28615,-0.62089 1.99576,-0.84265c0.70961,-0.22175 1.46355,-0.4435 2.2175,-0.57655c0.75395,-0.13305 1.50791,-0.22175 2.21752,-0.22175c0.48785,0 0.97569,0.04435 1.46355,0.13305c0.31045,0.04435 0.57655,0 0.79831,-0.1774c0.22175,-0.1774 0.39914,-0.39914 0.48785,-0.70959c0.04435,-0.31045 0,-0.57655 -0.1774,-0.79831c-0.1774,-0.22175 -0.39915,-0.39914 -0.70961,-0.4435c-0.57655,-0.0887 -1.19746,-0.1774 -1.8627,-0.1774c-0.79829,0 -1.64096,0.0887 -2.48361,0.22175c-0.84265,0.13305 -1.68531,0.35479 -2.52796,0.66525c-0.84265,0.2661 -1.59661,0.62091 -2.35056,1.02005c-0.75395,0.39915 -1.4192,0.84265 -1.9514,1.28615c-0.22175,0.1774 -0.3548,0.4435 -0.39915,0.75395c-0.04435,0.31045 0.04435,0.57655 0.2661,0.79831c0.22175,0.2661 0.48785,0.3548 0.84265,0.3548z" fill="#ff38b1"/><path d="M384.54167,140.75109c0.97569,1.99576 1.72966,4.08021 2.2175,6.25337c0.48785,2.17316 0.75395,4.34631 0.79831,6.51948c0,2.17316 -0.1774,4.34631 -0.62091,6.51947c-0.4435,2.17316 -1.15311,4.21327 -2.08446,6.20902c-1.10876,2.39491 -2.48361,4.34631 -4.08021,5.89858c-1.59661,1.55226 -3.2819,2.83841 -5.10027,3.76976c-1.81836,0.97571 -3.68107,1.6853 -5.58812,2.1288c-1.90706,0.4435 -3.68106,0.75395 -5.36637,0.88701c-4.74547,0 -8.82567,-1.0644 -12.24064,-3.23757c-3.41496,-2.1288 -6.12032,-5.32202 -8.07173,-9.49094c-0.93135,-1.99576 -1.5966,-4.08022 -2.08446,-6.20902c-0.4435,-2.17316 -0.66525,-4.34631 -0.66525,-6.51947c0,-2.17316 0.31045,-4.34631 0.79831,-6.51947c0.48785,-2.17316 1.2418,-4.25762 2.2175,-6.25338c0.88701,-1.8627 2.0401,-3.50366 3.41497,-4.96721c1.37486,-1.46356 2.92711,-2.74971 4.65677,-3.76976c1.72966,-1.02005 3.59237,-1.81836 5.58812,-2.39491c1.99576,-0.57655 4.08021,-0.84265 6.29772,-0.84265c2.17316,0 4.25761,0.3548 6.29772,0.93135c2.0401,0.57655 3.90281,1.37486 5.63246,2.43926c1.72966,1.0644 3.28191,2.30621 4.65677,3.76976c1.37486,1.46356 2.48361,3.06016 3.37061,4.87851zM349.85985,147.35926c0.13305,-0.2661 0.1774,-0.5322 0.0887,-0.84265c-0.0887,-0.2661 -0.2661,-0.48785 -0.5322,-0.62089c-0.13305,-0.0887 -0.31045,-0.13305 -0.5322,-0.13305c-0.1774,0 -0.3548,0 -0.5322,0.13305c-0.1774,0.13305 -0.31045,0.22175 -0.39915,0.39914c-0.0887,0.0887 -0.13304,0.22175 -0.1774,0.3548c0,0.13305 -0.0887,0.31045 -0.13305,0.48785c-0.0887,0.2661 -0.0887,0.57655 0,0.84265c0.13305,0.2661 0.35479,0.4435 0.62089,0.57655c0.13305,0 0.2661,0.04434 0.3548,0.04434c0.22175,0 0.4435,-0.0887 0.62089,-0.1774c0.1774,-0.0887 0.31045,-0.31045 0.39915,-0.5322c0,0 0,0 0,-0.0887c0,0 0,-0.04435 0,-0.0887c0,0 0,-0.0887 0.04435,-0.1774c0.04435,-0.0887 0,-0.13305 0.0887,-0.1774zM358.99599,136.80393c0.2661,-0.0887 0.53219,-0.2661 0.70959,-0.4435c0.1774,-0.22175 0.2661,-0.48785 0.22175,-0.79829c-0.04435,-0.31045 -0.1774,-0.5322 -0.4435,-0.70959c-0.22175,-0.1774 -0.48785,-0.22175 -0.79829,-0.1774c-1.10876,0.1774 -2.17316,0.57655 -3.19321,1.19746c-1.02005,0.62091 -1.90706,1.33051 -2.74971,2.1288c-0.79829,0.79829 -1.5079,1.64096 -2.08446,2.57231c-0.57655,0.88701 -1.02005,1.72966 -1.28615,2.48361c-0.0887,0.2661 -0.0887,0.57655 0,0.84265c0.13305,0.2661 0.31045,0.4435 0.62091,0.5322c0.13305,0.04435 0.26609,0.0887 0.35479,0.0887c0.48785,0 0.84265,-0.22175 1.02005,-0.70961c0.04435,-0.13305 0.1774,-0.3548 0.35479,-0.70961c0.1774,-0.31045 0.4435,-0.70959 0.75395,-1.1531c0.31045,-0.4435 0.66525,-0.93135 1.10875,-1.41921c0.4435,-0.48785 0.93135,-0.97571 1.46356,-1.46356c0.5322,-0.48785 1.1531,-0.88701 1.81836,-1.28615c0.66525,-0.39915 1.37486,-0.70959 2.08446,-0.88699zM368.70867,153.92309c0,-0.70959 -0.0887,-1.46355 -0.2661,-2.1288c-0.1774,-0.70959 -0.4435,-1.33051 -0.79829,-1.8627c-0.3548,-0.5322 -0.75395,-0.97571 -1.28615,-1.33051c-0.48785,-0.3548 -1.10876,-0.48785 -1.77401,-0.48785c-0.75395,0 -1.4192,0.1774 -1.90706,0.57655c-0.5322,0.39915 -0.93135,0.84265 -1.28615,1.41921c-0.31045,0.57655 -0.57655,1.19746 -0.70961,1.90706c-0.13305,0.70959 -0.22175,1.3305 -0.22175,1.9514c0,0.79829 0.0887,1.55226 0.31045,2.26186c0.1774,0.70959 0.48785,1.28615 0.79831,1.77401c0.3548,0.48785 0.75395,0.88699 1.2418,1.1531c0.48785,0.2661 1.02005,0.39915 1.5966,0.39915c0.79829,0 1.46355,-0.1774 1.99576,-0.5322c0.5322,-0.3548 0.97569,-0.79831 1.3305,-1.33051c0.3548,-0.5322 0.57655,-1.1531 0.75395,-1.81836c0.1774,-0.66525 0.22175,-1.33051 0.22175,-1.99576z" fill="#ff38b1"/><path d="M424.44718,187.51874c0.57655,1.10876 0.97571,2.26186 1.10876,3.41497c0.1774,1.1531 0.13305,2.30621 -0.13305,3.4593c-0.2661,1.1531 -0.70959,2.21752 -1.3305,3.28191c-0.66525,1.0644 -1.46356,1.99576 -2.52796,2.88275c-1.15311,0.97571 -2.57231,1.72966 -4.16891,2.2175c-1.59661,0.48785 -3.32627,0.75395 -5.18897,0.75395c-1.64096,0 -3.32626,-0.1774 -5.01157,-0.57655c-1.72966,-0.3548 -3.41497,-0.93135 -5.10027,-1.72966c-2.1288,-0.97571 -4.03586,-2.17316 -5.72116,-3.6367c-1.6853,-1.41921 -3.10451,-3.06016 -4.25762,-4.83417c-1.15311,-1.77401 -2.0401,-3.7254 -2.66101,-5.80986c-0.62091,-2.08446 -0.93135,-4.25762 -0.93135,-6.47513c0,-2.88276 0.31044,-5.54376 0.93135,-7.98302c0.62091,-2.43926 1.46356,-4.61242 2.48361,-6.60817c1.0644,-1.99576 2.30621,-3.72542 3.76976,-5.27767c1.46355,-1.55226 3.01581,-2.8384 4.70112,-3.94716c1.6853,-1.10876 3.4593,-1.9514 5.32201,-2.61666c1.86272,-0.66525 3.72542,-1.10876 5.63247,-1.28615c0.3548,0 0.66525,-0.04435 0.97571,-0.0887c0.31045,-0.04435 0.62089,0 0.93135,0c2.26186,0 4.30196,0.4435 6.07598,1.37485c1.77401,0.93135 3.19321,2.26186 4.25761,4.03586c0.57655,0.93135 0.97569,1.9514 1.28615,3.01581c0.2661,1.0644 0.4435,2.1288 0.4435,3.23757c0,1.10876 -0.13305,2.1288 -0.4435,3.14887c-0.31045,1.02005 -0.70961,1.9514 -1.28615,2.83841c-0.2661,0.39915 -0.62089,0.84265 -1.0644,1.28615c-0.4435,0.48785 -0.97571,0.93135 -1.64096,1.33051c-0.66525,0.39915 -1.4192,0.75395 -2.26186,1.02005c-0.84265,0.2661 -1.8627,0.39914 -3.01581,0.39914c-0.3548,0 -0.70961,0 -1.0644,0c-0.3548,0 -0.75395,-0.0887 -1.15311,-0.13305c-0.4435,-0.0887 -0.88701,-0.13304 -1.28615,-0.1774c-0.39915,0 -0.79831,0 -1.15311,0c-0.75395,0 -1.46355,0.0887 -2.08446,0.26609c-0.62091,0.1774 -1.15311,0.4435 -1.64096,0.79831c-0.4435,0.3548 -0.79829,0.84265 -1.0644,1.41921c-0.2661,0.57655 -0.39915,1.28616 -0.4435,2.08446c0,0.66525 0.13305,1.3305 0.39915,1.90706c0.2661,0.62091 0.66525,1.10876 1.19745,1.5079c0.79829,0.62091 1.77401,0.97571 2.97146,0.97571c0.66525,0 1.37486,-0.0887 2.08446,-0.31045c0.5322,-0.13305 1.0644,-0.2661 1.55226,-0.31045c0.5322,-0.0887 1.02005,-0.0887 1.5079,-0.0887c1.0644,0 2.0401,0.13305 2.97145,0.4435c0.93135,0.31045 1.77401,0.66525 2.52796,1.1531c0.75395,0.48785 1.46355,1.0644 2.0401,1.72966c0.57655,0.66525 1.10876,1.33051 1.46355,2.08446zM401.78426,164.32361c0.2661,-0.1774 0.39915,-0.39914 0.4435,-0.70959c0.04435,-0.31045 0,-0.57655 -0.1774,-0.79831c-0.22175,-0.31045 -0.48785,-0.4435 -0.88701,-0.4435c-0.2661,0 -0.57655,0.13305 -0.84265,0.3548c-0.2661,0.22175 -0.4435,0.48785 -0.5322,0.70959c-0.0887,0.2661 -0.0887,0.57655 0.04435,0.84265c0.13305,0.2661 0.31045,0.4435 0.62091,0.5322c0.0887,0 0.13304,0 0.1774,0c0.04435,0 0.0887,0 0.1774,0c0.3548,0 0.62091,-0.13305 0.84265,-0.39915l0.0887,-0.0887c0,0 -0.00001,0 0.04434,0zM404.09046,162.41655c0.2661,0 0.5322,-0.0887 0.70961,-0.2661c0.39915,-0.3548 0.93135,-0.70959 1.5079,-1.02005c0.62091,-0.31045 1.28615,-0.62089 1.99576,-0.84265c0.70961,-0.22175 1.46356,-0.4435 2.2175,-0.57655c0.75395,-0.13305 1.50791,-0.22175 2.21752,-0.22175c0.48785,0 0.97569,0.04435 1.46355,0.13305c0.31045,0.04435 0.57655,0 0.79831,-0.1774c0.22175,-0.1774 0.39914,-0.39914 0.48785,-0.70959c0.04435,-0.31045 0,-0.57655 -0.1774,-0.79831c-0.1774,-0.22175 -0.39915,-0.39914 -0.70961,-0.4435c-0.57655,-0.0887 -1.19745,-0.1774 -1.8627,-0.1774c-0.79829,0 -1.64096,0.0887 -2.48361,0.22175c-0.84265,0.13305 -1.68531,0.35479 -2.52796,0.66525c-0.84265,0.2661 -1.59661,0.62091 -2.35056,1.02005c-0.75395,0.39915 -1.4192,0.84265 -1.9514,1.28615c-0.22175,0.1774 -0.3548,0.4435 -0.39915,0.75395c-0.04435,0.31045 0.04435,0.57655 0.2661,0.79831c0.22175,0.2661 0.48785,0.3548 0.84265,0.3548z" fill="#ff38b1"/><path d="M467.91995,164.87757c0.62091,0.70959 1.02005,1.5079 1.1531,2.39491c0.13305,0.88701 0.0887,1.77401 -0.13305,2.70536c-0.22175,0.93135 -0.62091,1.81836 -1.1531,2.74971c-0.5322,0.88701 -1.15311,1.72966 -1.8627,2.48361c-0.5322,0.5322 -1.0644,1.0644 -1.68531,1.55226c-0.62091,0.48785 -1.24181,0.88701 -1.90706,1.28615c-0.66525,0.3548 -1.33051,0.66525 -2.0401,0.84265c-0.70961,0.22175 -1.37486,0.31045 -2.08446,0.31045c-0.62091,0 -1.19746,-0.0887 -1.77401,-0.2661c-0.57655,-0.1774 -1.1531,-0.48785 -1.6853,-0.88701c-0.79829,-0.62091 -1.50791,-1.37485 -2.08446,-2.26186c-0.57655,-0.88701 -1.19745,-1.90706 -1.81836,-3.01581c-0.2661,-0.4435 -0.5322,-0.93135 -0.79831,-1.37486c-0.2661,-0.48785 -0.57655,-0.93135 -0.88701,-1.46355c-0.22175,1.5966 -0.62091,3.01581 -1.28615,4.21326c-0.66525,1.19746 -1.41921,2.12882 -2.35056,2.92711c-0.93135,0.79829 -1.90706,1.3305 -3.01581,1.6853c-1.06441,0.3548 -2.17316,0.5322 -3.28191,0.5322c-1.10875,0 -2.1288,-0.1774 -3.23755,-0.57655c-1.10876,-0.39915 -2.1288,-0.93135 -3.01581,-1.72966c-0.88701,-0.79829 -1.72966,-1.77401 -2.35056,-2.92711c-0.66525,-1.19746 -1.0644,-2.57231 -1.2418,-4.21326c-0.0887,-0.88701 -0.1774,-2.1288 -0.2661,-3.68106c-0.0887,-1.55226 -0.13305,-3.23757 -0.1774,-5.10027c0,-1.8627 -0.0887,-3.81412 -0.0887,-5.89858c0,-2.08446 0,-4.08022 0.04435,-6.07598c0,-1.9514 0.13305,-3.81411 0.22175,-5.54377c0.0887,-1.72966 0.22175,-3.23757 0.3548,-4.43501c0.1774,-1.41921 0.53219,-2.79406 1.0644,-4.12456c0.5322,-1.33051 1.2418,-2.48361 2.08446,-3.4593c0.88701,-0.97571 1.90706,-1.774 3.14887,-2.35056c1.2418,-0.57655 2.61666,-0.88701 4.16891,-0.88701c1.0644,0 2.1288,0.2661 3.23757,0.66525c1.06441,0.4435 2.08446,1.06441 2.97146,1.9514c0.88699,0.88701 1.68531,1.90706 2.35056,3.1932c0.66525,1.28615 1.0644,2.79406 1.2418,4.52372c0.4435,-0.62091 0.84265,-1.24181 1.19746,-1.81836c0.3548,-0.57655 0.75395,-1.1531 1.10876,-1.72966c0.70959,-1.10876 1.3305,-2.1288 1.90706,-2.97145c0.57655,-0.88701 1.24181,-1.59661 1.9514,-2.12882c1.19746,-0.93135 2.52796,-1.4192 3.90282,-1.4192c0.93135,0 1.8627,0.22175 2.79406,0.62089c0.93135,0.4435 1.774,1.06441 2.61666,1.9514c0.79831,0.79829 1.46356,1.774 1.99576,2.8384c0.57655,1.0644 0.93135,2.17316 1.1531,3.28191c0.22175,1.10876 0.2661,2.2175 0.0887,3.28191c-0.1774,1.0644 -0.62091,1.99576 -1.28615,2.83841c-0.5322,0.62091 -1.15311,1.28615 -1.81836,1.9514c-0.66525,0.66525 -1.37486,1.28616 -2.17316,1.9514c-0.79831,0.66525 -1.55225,1.28615 -2.35056,1.9514c-0.79829,0.62091 -1.64096,1.28615 -2.43926,1.90706c-0.3548,0.31045 -0.75395,0.57655 -1.10875,0.88701c-0.3548,0.31045 -0.70961,0.57655 -1.06441,0.84265c-0.0887,0.0887 -0.0887,0.13305 -0.0887,0.22175c0,0.3548 0.22175,0.75395 0.62091,1.28616c0.39915,0.5322 0.93135,1.10875 1.55225,1.72966c0.62091,0.62091 1.33051,1.24181 2.0401,1.90706c0.75395,0.66525 1.46356,1.28615 2.1288,1.8627c0.97569,0.84265 1.9514,1.6853 2.92711,2.57231c0.97571,0.88701 1.77401,1.6853 2.48361,2.43926zM435.14519,147.49231c0,-0.31045 -0.08869,-0.57655 -0.31044,-0.75395c-0.22175,-0.22175 -0.4435,-0.31045 -0.75395,-0.31045c-0.31045,0 -0.57655,0.0887 -0.75395,0.31045c-0.22175,0.22175 -0.31045,0.48785 -0.31045,0.75395v0.84265c0,0.31045 0.0887,0.57655 0.31045,0.75395c0.22175,0.1774 0.48785,0.31045 0.75395,0.31045c0.2661,0 0.5322,-0.0887 0.75395,-0.31045c0.22175,-0.22175 0.31044,-0.48785 0.31044,-0.75395zM437.7175,135.47342c0.2661,-0.13305 0.4435,-0.3548 0.5322,-0.66525c0.0887,-0.31045 0.04435,-0.57655 -0.0887,-0.79831c-0.0887,-0.1774 -0.22175,-0.3548 -0.39915,-0.4435c-0.1774,-0.0887 -0.35479,-0.13305 -0.57655,-0.13305c-0.1774,0 -0.3548,0 -0.48785,0.0887c-0.66525,0.3548 -1.19745,0.88701 -1.6853,1.5966c-0.4435,0.70959 -0.84265,1.55226 -1.10876,2.48361c-0.2661,0.93135 -0.48785,1.9514 -0.62089,3.01581c-0.13305,1.0644 -0.1774,2.1288 -0.13305,3.14887c0,0.31045 0.0887,0.5322 0.31045,0.75395c0.22175,0.22175 0.48785,0.31045 0.75395,0.31045c0.2661,0 0.57655,-0.0887 0.75395,-0.31045c0.22175,-0.22175 0.31045,-0.48785 0.31045,-0.75395c0,-1.02005 0,-1.9514 0.13305,-2.8384c0.13305,-0.88701 0.2661,-1.64096 0.4435,-2.35056l0.22175,-0.75395c0.22175,-0.62091 0.48785,-1.10876 0.75395,-1.5079c0.2661,-0.39915 0.5322,-0.66525 0.84265,-0.84265z" fill="#ff38b1"/><path d="M368.27791,217.55381c0.72046,1.33008 1.27466,2.71556 1.60716,4.15648c0.33252,1.44091 0.49878,2.93724 0.44336,4.37816c0,1.44091 -0.27711,2.8264 -0.72046,4.15648c-0.44336,1.33008 -1.05297,2.49389 -1.88426,3.54686c-1.93968,2.43846 -4.489,3.6577 -7.5925,3.6577c-1.16382,0 -2.43846,-0.16626 -3.76854,-0.5542c-1.27466,-0.33252 -2.49389,-0.5542 -3.60228,-0.5542c-1.10839,0 -1.99511,0.16626 -2.77098,0.44336c-0.77588,0.27711 -1.3855,0.66504 -1.77342,1.05297c-0.27711,0.27711 -0.44336,0.49878 -0.49878,0.72046c-0.05542,0.22167 -0.11084,0.33252 -0.05542,0.38794c0,0.05542 0.16626,0.11084 0.44336,0.22167c0.27711,0.05542 0.66504,0.11084 1.16382,0.11084c0.38794,0 0.88672,0 1.44091,-0.11084c0.5542,-0.05542 1.21924,-0.16626 1.99511,-0.38794c0.27711,-0.05542 0.49878,-0.11084 0.77588,-0.11084c0.27711,0 0.44336,0 0.66504,0c0.5542,0 1.05297,0.05542 1.44091,0.22167c0.38794,0.16626 0.72046,0.33252 0.94213,0.5542c0.49878,0.38794 0.8313,0.88672 1.10839,1.55175c0.27711,0.60962 0.38794,1.33008 0.33252,2.10594c0,0.60962 -0.11084,1.16382 -0.27711,1.718c-0.16626,0.5542 -0.44336,0.99756 -0.8313,1.44091c-0.38794,0.44336 -0.77588,0.77588 -1.27466,0.99756c-0.49878,0.22167 -1.05297,0.38794 -1.718,0.38794c-0.38794,0 -0.77588,0 -1.10839,-0.11084c-0.5542,-0.16626 -1.10839,-0.27711 -1.60716,-0.33252c-0.49878,-0.05542 -0.94213,-0.11084 -1.3855,-0.11084c-1.10839,0 -1.77342,0.11084 -1.93968,0.38794c0,0.16626 0,0.38794 0.11084,0.72046c0.11084,0.33252 0.22167,0.72046 0.33252,1.21924c0.16626,0.5542 0.33252,1.21924 0.49878,1.93968c0.16626,0.77588 0.38794,1.66259 0.5542,2.71556c0.16626,1.05297 0.27711,2.2722 0.38794,3.6577c0.11084,1.3855 0.11084,2.99267 0.05542,4.76609c0,1.88426 -0.33252,3.60228 -0.99756,4.98776c-0.66504,1.44091 -1.49634,2.60472 -2.5493,3.60228c-1.05297,0.99756 -2.21678,1.718 -3.54686,2.21678c-1.33008,0.49878 -2.66015,0.8313 -4.04564,0.88672c-0.11084,0 -0.27711,0 -0.38794,0h-0.38794c-1.33008,0 -2.71556,-0.22167 -4.04564,-0.60962c-1.33008,-0.44336 -2.60472,-1.05297 -3.76854,-1.93968c-1.16382,-0.88672 -2.16137,-1.99511 -2.93724,-3.38061c-0.8313,-1.3855 -1.3855,-2.99267 -1.60716,-4.87693c-0.11084,-0.94213 -0.27711,-2.10594 -0.44336,-3.49144c-0.16626,-1.3855 -0.27711,-2.8264 -0.44336,-4.43358c-0.16626,-1.60716 -0.22167,-3.32518 -0.27711,-5.09861c-0.05542,-1.82884 -0.11084,-3.6577 -0.11084,-5.48655c0,-1.82884 0,-3.71312 0.11084,-5.48655c0.11084,-1.82884 0.22167,-3.54686 0.44336,-5.20945c0.44336,-3.32518 1.10839,-6.207 2.05053,-8.59005c0.88672,-2.38304 1.99511,-4.37816 3.26976,-5.98533c1.27466,-1.60716 2.66015,-2.88183 4.26732,-3.87938c1.55175,-0.99756 3.26976,-1.77342 5.04319,-2.32762c1.77342,-0.5542 3.6577,-0.99756 5.59739,-1.27466c1.93968,-0.27711 3.9348,-0.5542 5.92991,-0.77588c0.49878,0 0.99756,-0.11084 1.44091,-0.16626c0.49878,0 0.94213,-0.11084 1.44091,-0.16626c0.38794,0 0.77588,-0.05542 1.16382,-0.11084c0.38794,0 0.77588,0 1.10839,0c2.66015,0 5.04319,0.60962 7.09372,1.77342c2.05053,1.16382 3.76854,2.88183 5.04319,5.09861zM332.25512,236.83987c0.38794,0 0.66504,-0.11084 0.94213,-0.38794c0.27711,-0.27711 0.38794,-0.5542 0.38794,-0.94213v-0.88672c0,-0.38794 0,-0.72046 -0.27711,-0.99756c-0.22167,-0.27711 -0.5542,-0.44336 -0.94213,-0.49878c-0.38794,-0.05542 -0.72046,0 -0.99756,0.27711c-0.27711,0.22167 -0.44336,0.5542 -0.49878,0.94213v1.10839c0,0.38794 0.11084,0.72046 0.38794,0.94213c0.27711,0.27711 0.5542,0.38794 0.94213,0.38794v0zM340.56808,221.65487c0.38794,-0.11084 0.66504,-0.27711 0.88672,-0.5542c0.22167,-0.27711 0.27711,-0.60962 0.22167,-0.99756c-0.05542,-0.38794 -0.22167,-0.66504 -0.5542,-0.88672c-0.27711,-0.22167 -0.66504,-0.27711 -0.99756,-0.22167c-0.99756,0.16626 -2.05053,0.60962 -3.04808,1.21924c-1.05297,0.66504 -1.99511,1.44091 -2.8264,2.43846c-0.8313,0.99756 -1.55175,2.16137 -2.10594,3.43602c-0.5542,1.27466 -0.88672,2.66015 -0.94213,4.10106c0,0.38794 0.11084,0.72046 0.33252,0.99756c0.27711,0.27711 0.5542,0.44336 0.94213,0.44336h0.05542c0.38794,0 0.66504,-0.11084 0.94213,-0.38794c0.27711,-0.27711 0.38794,-0.5542 0.44336,-0.94213c0,-0.11084 0,-0.44336 0.11084,-0.8313c0.11084,-0.44336 0.22167,-0.94213 0.38794,-1.55175c0.16626,-0.60962 0.44336,-1.21924 0.77588,-1.88426c0.33252,-0.66504 0.72046,-1.27466 1.21924,-1.88426c0.49878,-0.60962 1.05297,-1.16382 1.718,-1.60716c0.66504,-0.44336 1.44091,-0.77588 2.32762,-0.99756z" fill="#9f5fff"/><path d="M415.55964,265.49732c0.77588,0.94213 1.44091,1.99511 1.88426,3.21434c0.44336,1.21924 0.77588,2.38304 0.88672,3.6577c0.11084,1.27466 0.11084,2.5493 -0.11084,3.82396c-0.22167,1.27466 -0.60962,2.5493 -1.16382,3.71312c-1.27466,2.77098 -3.32518,4.87693 -6.04074,6.37327c-2.71556,1.49634 -5.98533,2.2722 -9.75386,2.2722h-1.55175c-0.49878,0 -0.99756,0 -1.55175,0h-2.8264c-1.82884,0 -3.60228,0 -5.32028,-0.16626c-1.718,-0.16626 -3.32518,-0.38794 -4.87693,-0.77588c-1.55175,-0.44336 -2.93724,-1.05297 -4.26732,-1.82884c-1.33008,-0.77588 -2.49389,-1.88426 -3.49144,-3.26976c-0.99756,-1.3855 -1.88426,-3.1035 -2.60472,-5.15403c-0.72046,-2.05053 -1.27466,-4.489 -1.60716,-7.37082c-0.16626,-1.60716 -0.33252,-3.38061 -0.38794,-5.37571c-0.11084,-1.99511 -0.16626,-4.04564 -0.16626,-6.207c0,-2.16137 0,-4.32274 0,-6.53952c0,-2.21678 0.11084,-4.32274 0.22167,-6.31784c0.11084,-1.99511 0.22167,-3.82396 0.33252,-5.48655c0.11084,-1.66259 0.27711,-3.04808 0.44336,-4.15648c0.27711,-1.88426 0.8313,-3.49144 1.60716,-4.87693c0.77588,-1.3855 1.77342,-2.49389 2.88183,-3.38061c1.10839,-0.88672 2.32762,-1.55175 3.6577,-1.93968c1.33008,-0.44336 2.66015,-0.60962 3.9348,-0.60962c1.718,0 3.26976,0.27711 4.71067,0.88672c1.44091,0.60962 2.66015,1.44091 3.6577,2.49389c0.99756,1.05297 1.77342,2.32762 2.38304,3.76854c0.5542,1.44091 0.88672,2.99267 0.88672,4.71067c0,2.21678 0,4.32274 -0.11084,6.42869c-0.11084,2.10594 -0.27711,4.04564 -0.49878,5.92991c-0.22167,1.88426 -0.44336,3.54686 -0.66504,5.04319c-0.22167,1.49634 -0.44336,2.77098 -0.5542,3.76854c-0.16626,0.88672 -0.27711,1.55175 -0.27711,1.93968c-0.11084,0.99756 0.16626,1.718 0.72046,2.21678c0.66504,0.5542 1.718,0.8313 3.21434,0.8313c0.66504,0 1.3855,-0.05542 2.21678,-0.16626c0.8313,-0.11084 1.718,-0.27711 2.60472,-0.5542c1.21924,-0.33252 2.32762,-0.44336 3.43602,-0.44336c1.66259,0 3.15892,0.33252 4.54442,0.94213c1.3855,0.60962 2.60472,1.55175 3.6577,2.8264zM379.9802,248.81601c0,-0.38794 -0.11084,-0.72046 -0.38794,-0.94213c-0.27711,-0.27711 -0.60962,-0.38794 -0.94213,-0.38794c-0.33252,0 -0.72046,0.11084 -0.94213,0.38794c-0.27711,0.27711 -0.38794,0.60962 -0.38794,0.94213v1.05297c0,0.38794 0.11084,0.72046 0.38794,0.94213c0.27711,0.22167 0.60962,0.38794 0.94213,0.38794c0.33252,0 0.72046,-0.11084 0.94213,-0.38794c0.27711,-0.27711 0.38794,-0.60962 0.38794,-0.94213zM382.86204,233.46474c0.33252,-0.16626 0.5542,-0.44336 0.66504,-0.77588c0.11084,-0.33252 0.05542,-0.72046 -0.11084,-1.05297c-0.22167,-0.49878 -0.66504,-0.72046 -1.21924,-0.72046c-0.22167,0 -0.38794,0.05542 -0.60962,0.16626c-0.8313,0.44336 -1.49634,1.10839 -2.05053,2.05053c-0.5542,0.94213 -0.99756,1.99511 -1.33008,3.21434c-0.33252,1.21924 -0.5542,2.49389 -0.66504,3.87938c-0.11084,1.3855 -0.16626,2.71556 -0.11084,3.99022c0,0.38794 0.11084,0.66504 0.44336,0.94213c0.27711,0.22167 0.60962,0.38794 0.99756,0.38794c0.38794,0 0.66504,-0.11084 0.94213,-0.38794c0.27711,-0.27711 0.38794,-0.60962 0.33252,-0.94213c0,-1.33008 0,-2.5493 0.11084,-3.71312c0.11084,-1.16382 0.27711,-2.2722 0.5542,-3.21434c0.27711,-0.94213 0.5542,-1.77342 0.88672,-2.43846c0.33252,-0.66504 0.72046,-1.10839 1.16382,-1.33008z" fill="#9f5fff"/><path d="M466.92495,214.50573c1.66259,1.93968 2.66015,4.37816 3.1035,7.31541c0.44336,2.93724 0.22167,6.09617 -0.60962,9.42135c-0.5542,2.21678 -1.33008,4.26732 -2.32762,6.26242c-0.99756,1.99511 -2.21678,3.82396 -3.60228,5.54196c-1.3855,1.66259 -2.93724,3.21434 -4.65526,4.54442c-1.718,1.33008 -3.60228,2.43846 -5.59739,3.32518c0.33252,1.55175 0.5542,3.15892 0.66504,4.8215c0.11084,1.718 0.11084,3.38061 -0.05542,5.04319c-0.16626,1.66259 -0.49878,3.26976 -1.05297,4.87693c-0.49878,1.55175 -1.27466,2.99267 -2.21678,4.21191c-2.32762,2.93724 -5.54196,4.43358 -9.69845,4.43358c-1.82884,0 -3.49144,-0.33252 -4.98776,-1.05297c-1.49634,-0.72046 -2.77098,-1.77342 -3.87938,-3.1035c-0.94213,-1.21924 -1.718,-2.60472 -2.21678,-4.15648c-0.5542,-1.55175 -0.94213,-3.21434 -1.10839,-4.87693c-0.16626,-1.66259 -0.22167,-3.43602 -0.16626,-5.15403c0.11084,-1.718 0.33252,-3.38061 0.66504,-4.98776c-1.99511,-0.88672 -3.87938,-1.99511 -5.59739,-3.32518c-1.718,-1.33008 -3.32518,-2.8264 -4.71067,-4.54442c-1.3855,-1.66259 -2.60472,-3.49144 -3.60228,-5.48655c-0.99756,-1.99511 -1.77342,-4.10106 -2.32762,-6.31784c-0.44336,-1.66259 -0.66504,-3.26976 -0.77588,-4.87693c-0.11084,-1.60716 0,-3.1035 0.16626,-4.54442c0.22167,-1.44091 0.5542,-2.77098 1.10839,-4.04564c0.49878,-1.27466 1.16382,-2.38304 1.99511,-3.32518c1.33008,-1.60716 2.8264,-2.8264 4.489,-3.60228c1.66259,-0.8313 3.38061,-1.21924 5.15403,-1.21924c1.88426,0 3.71312,0.44336 5.43112,1.3855c1.05297,0.5542 2.05053,1.27466 2.99267,2.21678c0.94213,0.94213 1.718,1.99511 2.2722,3.21434c0.60962,1.21924 0.94213,2.60472 1.10839,4.10106c0.16626,1.49634 0,3.1035 -0.44336,4.76609c-0.38794,1.33008 -0.44336,2.66015 -0.22167,3.99022c0.22167,1.33008 0.72046,2.43846 1.49634,3.43602c0.44336,0.5542 0.99756,1.05297 1.55175,1.33008c0.5542,0.27711 1.10839,0.49878 1.718,0.49878c0.77588,0 1.44091,-0.22167 2.10594,-0.72046c0.66504,-0.44336 1.21924,-0.99756 1.60716,-1.55175c0.72046,-0.99756 1.16382,-2.05053 1.33008,-3.26976c0.16626,-1.21924 0.11084,-2.43846 -0.22167,-3.71312c-0.44336,-1.66259 -0.60962,-3.26976 -0.44336,-4.76609c0.16626,-1.49634 0.49878,-2.88183 1.10839,-4.10106c0.60962,-1.21924 1.33008,-2.2722 2.2722,-3.21434c0.94213,-0.94213 1.93968,-1.66259 2.99267,-2.21678c1.77342,-0.94213 3.60228,-1.3855 5.43112,-1.3855c1.82884,0 3.54686,0.38794 5.20945,1.21924c1.66259,0.8313 3.15892,2.05053 4.489,3.60228zM421.70249,219.7706c0.33252,-0.16626 0.60962,-0.38794 0.72046,-0.72046c0.11084,-0.33252 0.11084,-0.66504 0,-1.05297c-0.11084,-0.27711 -0.27711,-0.44336 -0.49878,-0.60962c-0.22167,-0.16626 -0.44336,-0.22167 -0.72046,-0.22167c-0.16626,0 -0.33252,0 -0.5542,0.11084c-0.77588,0.33252 -1.44091,0.88672 -1.93968,1.60716c-0.49878,0.72046 -0.94213,1.55175 -1.16382,2.49389c-0.27711,0.94213 -0.38794,1.88426 -0.44336,2.93724c0,0.99756 0.05542,1.99511 0.27711,2.93724c0.05542,0.33252 0.22167,0.5542 0.44336,0.77588c0.22167,0.22167 0.49878,0.27711 0.8313,0.27711c0.11084,0 0.22167,0 0.27711,0c0.38794,-0.11084 0.66504,-0.27711 0.88672,-0.5542c0.22167,-0.27711 0.27711,-0.66504 0.16626,-0.99756c-0.16626,-0.72046 -0.22167,-1.49634 -0.22167,-2.21678c0,-0.72046 0.11084,-1.44091 0.27711,-2.05053c0.16626,-0.60962 0.38794,-1.16382 0.66504,-1.66259c0.27711,-0.49878 0.60962,-0.77588 0.99756,-0.94213zM420.15074,232.57254c0.38794,-0.11084 0.66504,-0.33252 0.8313,-0.66504c0.16626,-0.33252 0.22167,-0.66504 0.11084,-0.99756l-0.16626,-0.60962c-0.11084,-0.33252 -0.33252,-0.60962 -0.66504,-0.77588c-0.33252,-0.16626 -0.66504,-0.22167 -1.05297,-0.11084c-0.33252,0.11084 -0.60962,0.33252 -0.77588,0.66504c-0.16626,0.33252 -0.22167,0.66504 -0.11084,1.05297l0.16626,0.5542c0.11084,0.33252 0.27711,0.5542 0.49878,0.72046c0.22167,0.16626 0.49878,0.22167 0.77588,0.22167c0.16626,0 0.33252,0 0.38794,-0.05542zM454.123,218.32969c0.38794,0 0.66504,-0.22167 0.94213,-0.49878c0.22167,-0.27711 0.33252,-0.60962 0.27711,-0.99756c0,-0.38794 -0.22167,-0.66504 -0.44336,-0.88672c-0.27711,-0.22167 -0.5542,-0.33252 -0.88672,-0.33252c-0.5542,0 -1.05297,0.16626 -1.55175,0.49878c-0.49878,0.33252 -0.88672,0.66504 -1.21924,1.10839c-0.5542,0.72046 -0.88672,1.55175 -1.10839,2.60472c-0.22167,1.05297 -0.22167,1.99511 0,2.93724c0.05542,0.33252 0.22167,0.5542 0.49878,0.77588c0.27711,0.22167 0.5542,0.33252 0.8313,0.33252h0.11084h0.11084c0.38794,-0.11084 0.66504,-0.27711 0.88672,-0.5542c0.22167,-0.27711 0.27711,-0.66504 0.16626,-0.99756c-0.11084,-0.5542 -0.11084,-1.16382 0,-1.82884c0.11084,-0.66504 0.33252,-1.16382 0.60962,-1.60716c0.22167,-0.27711 0.44336,-0.44336 0.72046,-0.49878zM453.07003,226.2547c0,-0.38794 -0.11084,-0.72046 -0.38794,-0.94213c-0.27711,-0.22167 -0.60962,-0.38794 -0.94213,-0.38794c-0.33252,0 -0.72046,0.11084 -0.94213,0.38794c-0.27711,0.27711 -0.38794,0.60962 -0.38794,0.94213v0.44336c0,0.38794 0.11084,0.66504 0.38794,0.94213c0.27711,0.27711 0.60962,0.38794 0.94213,0.38794c0.33252,0 0.72046,-0.11084 0.94213,-0.38794c0.27711,-0.27711 0.38794,-0.5542 0.38794,-0.94213z" fill="#9f5fff"/></g></g></svg>