<svg version="1.1" xmlns="http://www.w3.org/2000/svg" xmlns:xlink="http://www.w3.org/1999/xlink" width="48.27151" height="54.5074" viewBox="0,0,48.27151,54.5074"><g transform="translate(-220.86424,-157.74631)"><g data-paper-data="{&quot;isPaintingLayer&quot;:true}" fill-rule="nonzero" stroke-linecap="butt" stroke-linejoin="miter" stroke-miterlimit="10" stroke-dasharray="" stroke-dashoffset="0" style="mix-blend-mode: normal"><path d="M244.71574,201.15371c0,0 2.23412,2.28389 2.01824,3.08056c-0.21588,0.79667 -0.87851,0.17999 -1.56169,0.32443c-0.68366,0.14291 -2.02473,1.29421 -2.57827,0.53511c0,0 -1.69681,0.85329 -1.98836,-0.33743c-0.29106,-1.18919 -0.18288,-1.58677 0.72483,-2.90036z" fill="#72c2d4" stroke="#643f26" stroke-width="3.1"/><g stroke="none" stroke-width="1"><path d="M246.44324,201.21658c-0.49249,0.15742 -1.00088,0.29136 -1.51146,0.39744c-9.79135,2.03248 -20.13687,-6.0225 -23.06018,-17.95408c-2.72853,-11.1435 2.07984,-22.09309 10.94763,-24.92771c0.49249,-0.15742 1.00088,-0.29136 1.51146,-0.39744c4.74343,-0.98522 9.75494,0.34029 14.10963,3.73272c4.3542,3.39091 7.53366,8.44292 8.94952,14.22337c2.73006,11.14301 -2.07984,22.09309 -10.94763,24.92771v0z" fill="#f389b7"/><path d="M232.90256,158.99295c-8.74885,2.79661 -13.55037,13.43647 -10.81117,24.61857c2.8925,11.80363 13.08858,19.74336 22.77436,17.73286c0.51107,-0.10455 1.0083,-0.2366 1.49316,-0.39159c8.74885,-2.79661 13.55037,-13.43647 10.81117,-24.61857c-2.8925,-11.80363 -13.08705,-19.74384 -22.77436,-17.73286c-0.51107,0.10455 -1.0083,0.2366 -1.49316,0.39159M232.73545,158.46491v0c0.49858,-0.15937 1.01204,-0.29325 1.52872,-0.40127c9.91315,-2.05628 20.38602,6.09746 23.34496,18.1773c1.35172,5.52199 0.95363,11.14788 -1.12527,15.84229c-2.0664,4.6652 -5.60115,8.00162 -9.95727,9.39408v0c-0.50011,0.15986 -1.01509,0.29423 -1.53024,0.40176c-9.91265,2.05781 -20.38602,-6.09746 -23.34496,-18.1773c-1.35172,-5.52199 -0.95363,-11.14788 1.12577,-15.84077c2.0664,-4.6652 5.60115,-8.00162 9.95727,-9.39408v0l0.16815,0.52603l-0.16815,-0.52603z" fill="#643f26"/></g><path d="M223.88122,166.75689c-0.20087,3.88234 1.18897,8.40904 4.95577,10.29879c4.37556,2.19596 2.91469,5.79037 7.34089,9.62208c4.42621,3.83171 5.69938,-0.18165 7.41964,-1.53987c1.71923,-1.3562 4.29474,-0.89052 6.05183,-1.25557c1.75709,-0.36504 1.15654,-4.48864 3.32795,-8.18918c0.84085,-1.43338 2.11471,-1.98006 3.35965,-2.11249c0.32055,0.8924 0.60383,1.81016 0.83515,2.75461c2.89097,11.80411 -2.61605,23.00223 -12.30384,25.01169c-9.68579,2.01049 -19.88187,-5.92924 -22.77436,-17.73286c-1.51848,-6.20138 -0.71595,-12.23385 1.78933,-16.85616v0z" fill="#df71a7" stroke="none" stroke-width="1"/><path d="M237.02804,160.00174c0,0 7.24162,0.24797 9.26674,4.32792c2.02512,4.07995 -0.82664,6.67205 -4.12646,6.60594c-3.29781,-0.06506 -8.71688,-0.3629 -9.31798,-6.03911c-0.59957,-5.67671 4.17818,-4.89323 4.17818,-4.89323v0z" fill="#ffffff" stroke="none" stroke-width="1"/><path d="M248.90567,167.91315c0,0 3.13148,-0.64977 3.96715,2.80041c0.46531,1.9183 -0.63977,4.0865 -2.69155,2.4098c-2.05179,-1.67669 -3.25223,-3.26085 -1.27559,-5.21021z" fill="#ffffff" stroke="none" stroke-width="1"/><g><path d="M252.05108,207.69239c0,0 1.45839,2.58564 1.08767,3.17132c-0.3712,0.58416 -0.82,-0.13112 -1.4576,-0.23317c-0.63712,-0.10052 -2.08879,0.41561 -2.40644,-0.3836c0,0 -1.69683,0.15924 -1.68412,-0.91027c0.01272,-1.06951 0.19856,-1.36083 1.30125,-2.14856l3.15875,0.50275z" fill="#72c2d4" stroke="#643f26" stroke-width="2.78"/><g stroke="none" stroke-width="1"><path d="M258.42908,207.69377c-2.00348,0.64042 -4.12036,0.78941 -6.29289,0.44363c-9.13518,-1.45596 -16.46696,-11.36496 -16.34353,-22.08746c0.09146,-7.93102 4.21261,-14.35377 10.49903,-16.36326c2.00348,-0.64042 4.12036,-0.78941 6.29289,-0.44363c4.42487,0.7047 8.5625,3.3918 11.65009,7.56234c3.08656,4.17255 4.75361,9.3299 4.69496,14.52463c-0.09146,7.93102 -4.21261,14.35377 -10.49903,16.36326v0z" fill="#96d8e9"/><path d="M246.36725,169.92302c-5.99673,1.91688 -10.27777,8.12858 -10.37048,16.16084c-0.12151,10.6076 7.10421,20.37406 16.14188,21.81413c2.19423,0.35061 4.29319,0.1771 6.21586,-0.4375c5.9952,-1.91639 10.27625,-8.1281 10.36896,-16.16035c0.12352,-10.60657 -7.10268,-20.37454 -16.14036,-21.81462c-2.19271,-0.35109 -4.29167,-0.17758 -6.21434,0.43701M246.21914,169.45444v0c2.02788,-0.64822 4.1711,-0.79891 6.3704,-0.44824c4.47993,0.71399 8.66829,3.4336 11.7927,7.65623c3.12441,4.22263 4.81193,9.44401 4.75198,14.70302c-0.09216,8.02872 -4.26493,14.53183 -10.62911,16.56617c-2.02788,0.64822 -4.1711,0.79891 -6.3704,0.44824c-9.24989,-1.47307 -16.67127,-11.50468 -16.5467,-22.3603c0.09216,-8.02872 4.26493,-14.53183 10.62911,-16.56617v0z" fill="#643f26"/></g><path d="M241.41436,172.82376c-1.05915,3.12149 -0.85793,7.27863 2.04826,10.02998c3.37653,3.19759 1.26471,5.68088 4.31413,10.2367c3.04942,4.55582 5.08928,1.66868 6.92174,1.10309c1.83094,-0.5651 4.00703,0.63828 5.64501,0.89949c1.6395,0.26073 2.04567,-3.31585 4.80929,-5.65793c1.07078,-0.90861 2.32319,-0.94932 3.45512,-0.66247c0.08182,0.83427 0.12455,1.67767 0.11355,2.52649c-0.12151,10.6076 -7.54665,18.03944 -16.58433,16.59937c-9.03768,-1.44007 -16.26339,-11.20653 -16.14188,-21.81413c0.06382,-5.57283 2.14627,-10.26668 5.41759,-13.26009v0z" fill="#7fc4d3" stroke="none" stroke-width="1"/><path d="M254.59614,171.47206c0,0 6.35709,2.51204 7.22399,6.50681c0.86641,3.99324 -2.24982,5.21119 -5.15658,4.10356c-2.90627,-1.1061 -7.63846,-3.07714 -6.8799,-7.92759c0.75752,-4.84844 4.8125,-2.68277 4.8125,-2.68277z" fill="#ffffff" stroke="none" stroke-width="1"/><path d="M263.31747,181.75361c0,0 2.92178,0.46591 2.87843,3.56351c-0.02384,1.72343 -1.49537,3.15002 -2.93277,1.11897c-1.43691,-2.02953 -2.13951,-3.71233 0.05434,-4.68248z" fill="#ffffff" stroke="none" stroke-width="1"/></g></g></g></svg>