<?xml version="1.0" encoding="UTF-8"?>
<svg id="Layer_3" data-name="Layer 3" xmlns="http://www.w3.org/2000/svg" viewBox="0 0 700 1070.7">
  <defs>
    <style>
      .cls-1 {
        fill: #fff;
      }

      .cls-2 {
        fill: #f49568;
      }

      .cls-3 {
        isolation: isolate;
        opacity: .19;
      }

      .cls-3, .cls-4 {
        fill: #231f20;
      }

      .cls-5 {
        fill: #6c948c;
      }

      .cls-6 {
        fill: #ff9331;
      }

      .cls-6, .cls-7, .cls-8 {
        stroke: #231f20;
        stroke-miterlimit: 10;
      }

      .cls-6, .cls-8 {
        stroke-width: 4.96px;
      }

      .cls-7 {
        fill: #75002d;
        stroke-width: 3.31px;
      }

      .cls-9, .cls-8 {
        fill: #ff50bc;
      }

      .cls-10 {
        fill: #77228c;
      }
    </style>
  </defs>
  <g>
    <path class="cls-5" d="m421.97,712.44c-.06.05-.12.11-.18.16h.09c.03-.05.06-.11.09-.16h0Z"/>
    <path class="cls-5" d="m433.65,307.29c.2-.07.44-.23.21-.13-.1.05-.19.11-.29.16.03-.01.06-.02.09-.03h0Z"/>
    <path class="cls-5" d="m420.91,808.43c-.21.09-.11.19,0,0h0Z"/>
    <path class="cls-5" d="m433.39,307.4c.06-.04.12-.06.18-.09h-.01c-.05.03-.1.05-.16.09h0Z"/>
    <path class="cls-5" d="m493.68,576.64c.29.2.25-.11,0,0h0Z"/>
    <path class="cls-5" d="m483.96,581.17h-.05c-.3.05-.25.43.05,0Z"/>
    <path class="cls-5" d="m431.61,307.51h0c-.07-.04-.13-.07-.18-.11-.02,0-.03,0-.05-.01.08.04.15.07.22.11h0Z"/>
    <path class="cls-5" d="m279.07,808.43c.11.19.21.09,0,0h0Z"/>
    <path class="cls-5" d="m216.07,581.17h-.05c.3.43.35.05.05,0Z"/>
    <path class="cls-5" d="m206.3,576.64c-.25-.11-.29.2,0,0h0Z"/>
    <path class="cls-5" d="m430.52,306.7l.02.02c-.15-.18-.31-.35-.02-.02Z"/>
    <path class="cls-5" d="m431.11,307.24c-.12-.05.06.09.26.15h.02s-.09-.05-.14-.07-.09-.06-.13-.08h0Z"/>
    <path class="cls-5" d="m430.68,306.93s-.04-.07-.09-.14c.05.07.09.13.09.14Z"/>
    <path class="cls-5" d="m278.19,712.59c-.06-.05-.12-.11-.18-.16.03.05.06.11.09.16h.09Z"/>
    <path class="cls-9" d="m287.57,173.9c1.43,8.52,3.62,16.9,6.58,25,5.05,13.8,12.39,27.06,21.77,38.4,8.7,10.52,19.66,19.7,33.27,22.71.3.06.56.17.8.29.24-.12.5-.22.8-.29,13.61-3.01,24.57-12.2,33.27-22.71,9.38-11.34,16.72-24.6,21.77-38.4,2.59-7.08,4.56-14.37,5.97-21.77-5.81.23-11.63.03-17.43-.68-1.79-.22-3.32-1.35-3.32-3.32,0-1.64,1.54-3.55,3.32-3.32,19.8,2.41,39.58-1.21,58.4-7.38,14.4-4.71,28.8-10.48,41.62-18.65,11.24-7.15,21.62-16.83,26.53-29.5,3.16-8.16,4.05-16.94,4.26-25.62.19-7.77-.26-16.03-4.16-22.95-5.85-10.4-18.48-16.56-30.27-14.67.51,8.33-.86,16.84-3.5,24.64-8.08,23.88-28.11,43.28-52.45,50.08-4.13,1.16-5.88-5.26-1.77-6.41,12.22-3.42,23.22-10.28,31.94-19.46,7.7-8.1,13.57-17.98,16.73-28.72,3.16-10.77,3.74-22.87-.62-33.41-4.99-12.03-17.09-18.39-29.28-21.12-11.69-2.63-24.64-.43-32.98,8.48,3.2,6.04,5.3,12.7,6.3,19.37,2.51,16.76-.93,34.11-9.88,48.53-2.25,3.63-8.01.29-5.74-3.36,8.87-14.29,12.09-32.02,8.25-48.45-3.11-13.29-11.08-25.94-24.16-31.18-7.04-2.82-14.68-3.66-22.22-3.31-7.47.35-14.89,2.02-21.4,5.78-11.23,6.48-19.07,18.03-22.06,30.54-3.6,15.04-.34,31.09,6.75,44.63,1.09.87,2.11,1.86,3.04,2.98,3.97,4.8,5.97,10.56,6.59,16.71.67,6.59-.37,13.39-1.85,19.82-1.45,6.37-3.67,12.54-6.43,18.46-.76,1.64-3.11,2.03-4.55,1.19-1.65-.96-1.95-2.92-1.19-4.55,2.82-6.04,4.88-12.41,6.2-18.94,1.28-6.29,2.07-13.04.57-19.36-1.02-4.29-3.21-8.54-6.73-11.32-.19-.11-.37-.25-.54-.4-4.25-3.03-9.74-3.3-14.78-3.01-5.12.3-9.56,2.18-13.23,5.77-3.59,3.5-6.14,7.9-8.23,12.42-9.36,20.23-8.26,43.56-6.49,65.26.28.34.47.74.55,1.19h-.01Zm96.5-55.65c2.87-6.18,7.51-11.38,12.07-16.36,2.9-3.17,7.59,1.55,4.7,4.7-4.08,4.46-8.13,9.02-10.79,14.51-2.8,5.78-3.12,12.32-3.46,18.62-.23,4.26-6.88,4.28-6.65,0,.4-7.36.99-14.69,4.13-21.47h0Z"/>
    <path class="cls-3" d="m521.02,65.71c-5.85-10.4-18.49-16.56-30.28-14.67.52,8.33-.85,16.84-3.5,24.63-3.59,10.65-9.59,20.42-17.28,28.57,12.67,12.22,23.65,24.87,31.51,34.56,8.37-6.48,15.59-14.58,19.43-24.51,3.17-8.15,4.06-16.93,4.27-25.62.19-7.77-.27-16.03-4.16-22.96h0Zm-39.94-27.95c-4.99-12.04-17.09-18.4-29.28-21.14-11.69-2.62-24.65-.43-32.99,8.49,3.21,6.04,5.31,12.7,6.31,19.37,1.29,8.61,1.01,17.37-.78,25.82,14.17,6.93,28.2,17.75,40.81,29.39,7.63-8.06,13.43-17.87,16.56-28.53,3.17-10.76,3.75-22.86-.62-33.4h0Zm-87.49-27.74c-7.04-2.82-14.68-3.66-22.23-3.3-7.46.34-14.89,2.02-21.4,5.77-11.23,6.49-19.07,18.03-22.06,30.54-3.59,15.04-.34,31.1,6.76,44.63,1.09.88,2.1,1.86,3.03,2.98,3.97,4.8,5.97,10.56,6.6,16.72.67,6.58-.39,13.38-1.85,19.8-1.45,6.37-3.67,12.55-6.42,18.46-.76,1.64-3.11,2.03-4.55,1.2-1.65-.97-1.96-2.93-1.2-4.55,2.82-6.04,4.88-12.41,6.2-18.94,1.29-6.29,2.07-13.04.57-19.35-1.02-4.3-3.21-8.54-6.73-11.32-.2-.11-.37-.24-.54-.41-4.25-3.03-9.74-3.3-14.78-3.01-5.12.3-9.57,2.2-13.23,5.77-3.59,3.51-6.13,7.9-8.23,12.42-9.35,20.23-8.26,43.56-6.49,65.25.28.34.48.75.56,1.2,1.43,8.52,3.62,16.89,6.58,24.99,5.04,13.81,12.38,27.07,21.77,38.4,2.34,2.83,4.84,5.56,7.52,8.09,5.41-24.06,30.4-44.23,41.5-79.45,17.24-54.71-28.73-98.52,25.9-103.31,8.85-.77,18.06,1.13,27.31,4.88,1.69-8.66,1.62-17.65-.4-26.3-3.11-13.29-11.08-25.93-24.17-31.18h-.01Z"/>
    <path class="cls-5" d="m268.59,307.39h.02c.19-.06.37-.19.26-.15-.05.03-.09.06-.13.08-.05.02-.09.05-.14.07h0Z"/>
    <path class="cls-5" d="m268.36,307.51h0c.07-.04.15-.08.22-.11-.02,0-.03,0-.05.01-.05.03-.11.06-.18.11h0Z"/>
    <path class="cls-5" d="m266.59,307.4c-.06-.04-.11-.06-.16-.09h-.01c.06.03.12.06.18.09h0Z"/>
    <path class="cls-1" d="m355.22,324.91c1.27,8.23,3.25,16.5,6.8,24.06,3.13,6.66,7.36,12.66,12.62,17.82,10.55,10.37,24.38,16.9,38.91,19.32,16.96,2.83,34.63-.08,50.48-6.42,7.47-2.99,14.54-7.06,19.79-13.27,5.03-5.96,8.18-13.38,10.61-20.72,5.39-16.37,7.84-34.26,4.1-51.26-3.13-14.23-10.69-27.01-21.32-36.93-10.63-9.93-23.96-16.55-38.29-19.06-15.41-2.7-31.82-.55-46.16,5.65-2.46,1.06-4.86,2.27-7.21,3.56-4.08,5.06-8.87,9.41-13.68,13.79-5.05,4.6-10.17,9.33-13.7,15.24-3.15,5.29-4.43,11.18-4.84,17.2.22,3.59.18,7.2.01,10.8.26,6.76.86,13.56,1.89,20.23h0Zm68.62-23.47c.87-2.16,2.39-4,4.56-4.97,1.53-.68,3.21-1.05,4.88-.95.39-.04.8-.04,1.22.05,3.62.7,6.68,4.08,7.28,7.69.35,2.13.13,4.23-.95,6.14-.88,1.55-2.33,2.92-3.94,3.69-3.58,1.71-7.98,1.48-10.87-1.48-2.5-2.56-3.53-6.79-2.17-10.16h0Z"/>
    <path class="cls-3" d="m498.51,294.44c-3.14-14.23-10.69-27.02-21.32-36.94-10.64-9.93-23.97-16.56-38.3-19.06-15.42-2.7-31.82-.56-46.16,5.65-2.46,1.06-4.87,2.26-7.21,3.56-3.95,4.89-8.57,9.12-13.22,13.37,13.02-4.59,27.36-5.97,40.92-3.6,14.33,2.51,27.67,9.14,38.3,19.06,10.63,9.92,18.2,22.71,21.32,36.94,3.74,17,1.29,34.89-4.09,51.26-1.81,5.48-4.03,11-7.14,15.93.81-.3,1.61-.61,2.41-.93,7.48-2.99,14.55-7.06,19.79-13.28,5.04-5.96,8.18-13.38,10.6-20.72,5.4-16.36,7.85-34.25,4.11-51.25h0Z"/>
    <path class="cls-4" d="m430.02,305.65c.04.13.08.26.12.39.04.08.07.15.09.19.06.12.13.25.21.36.01.02.06.09.11.15.07.08.15.15.22.22.05.04.13.12.22.21.04.02.08.05.11.07.05.02.15.07.32.16.18.06.36.09.54.13.25.01.5.01.75,0,.15-.03.3-.05.45-.09.13-.04.25-.08.38-.12.14-.08.25-.13.31-.16.09-.05.19-.09.29-.15.08-.05.15-.1.22-.15.18-.17.35-.34.52-.53.05-.08.1-.15.15-.23.04-.06.07-.13.11-.2.06-.19.1-.39.14-.58,0-.2,0-.4,0-.6-.04-.16-.06-.33-.1-.48-.03-.11-.06-.2-.1-.31-.12-.23-.24-.47-.39-.7-.01-.02-.04-.06-.06-.11-.01-.02-.02-.02-.04-.04-.18-.2-.38-.39-.58-.57-.05-.03-.09-.06-.14-.09-.02,0-.04,0-.06-.01-.3-.11-.61-.17-.92-.23-.23-.01-.46,0-.7,0-.19.04-.39.07-.57.13-.04.01-.1.02-.16.04-.01,0-.01,0-.02.01-.24.12-.46.26-.69.4-.09.08-.18.16-.26.25-.02.02-.06.06-.11.1-.11.18-.21.36-.31.54-.02.08-.05.15-.08.23-.04.13-.05.26-.08.4-.02.3-.02.61,0,.92.03.16.05.31.09.47h.01Z"/>
    <path class="cls-5" d="m269.47,306.7c.3-.33.13-.16-.02.02,0,0,.01-.01.02-.02Z"/>
    <path class="cls-5" d="m269.09,307.1c.21-.14.3-.3.11-.15-.07.06-.14.13-.21.2.04-.02.06-.04.1-.06h0Z"/>
    <path class="cls-5" d="m268.87,307.29s.08-.08.13-.12c0,0-.01,0-.01,0-.04.04-.07.07-.11.12h0Z"/>
    <path class="cls-10" d="m358.08,265.7c.38-.43.78-.85,1.17-1.27-2.18.81-4.4,1.5-6.69,2.01-1.02.23-1.89.01-2.57-.45-.68.46-1.55.68-2.57.45-2.28-.51-4.51-1.19-6.69-2.01.39.42.79.84,1.17,1.27,3.39,3.85,6.14,8.05,8.08,12.64,1.94-4.59,4.7-8.8,8.08-12.64h.01Z"/>
    <path class="cls-1" d="m341.84,276.68c-3.53-5.91-8.66-10.64-13.7-15.24-4.81-4.38-9.6-8.73-13.68-13.79-2.35-1.3-4.74-2.5-7.21-3.56-14.34-6.21-30.75-8.35-46.16-5.65-14.33,2.51-27.66,9.13-38.29,19.06-10.63,9.92-18.19,22.71-21.32,36.93-3.74,17-1.29,34.89,4.1,51.26,2.42,7.34,5.57,14.76,10.61,20.72,5.24,6.21,12.32,10.28,19.79,13.27,15.85,6.35,33.52,9.25,50.48,6.42,14.53-2.42,28.36-8.95,38.91-19.32,5.25-5.16,9.48-11.16,12.62-17.82,3.55-7.56,5.54-15.83,6.8-24.06,1.03-6.66,1.62-13.46,1.89-20.23-.17-3.6-.21-7.21.01-10.8-.4-6.02-1.68-11.91-4.84-17.2h0Zm-67.85,34.92c-2.89,2.96-7.29,3.19-10.87,1.48-1.61-.77-3.06-2.14-3.94-3.69-1.08-1.91-1.3-4.01-.95-6.14.59-3.6,3.66-6.98,7.28-7.69.42-.08.83-.09,1.22-.05,1.66-.1,3.35.27,4.88.95,2.17.96,3.69,2.81,4.56,4.97,1.36,3.38.33,7.59-2.17,10.16h0Z"/>
    <path class="cls-5" d="m69.87,625.92c.01.18.06.08,0,0h0Z"/>
    <path class="cls-2" d="m136.86,969.07c-5.89.13-11.82.42-17.64,1.37-9.4,1.52-18.91,4.58-26.28,10.82-5.2,4.4-9.5,10.17-11.25,16.77,22.98-6.25,46.58-10.17,70.35-11.69,3.8-.24,4.46,5.64.88,6.53-5.07,1.26-9.89,3.19-14.41,5.79-7.9,4.55-14.75,10.94-19.76,18.56-2.5,3.8-4.6,7.88-6.09,12.18-.79,2.27-2.1,5.68-1.57,8.33,3.76-2.76,7.57-5.45,11.49-7.97,17.08-10.98,35.69-19.58,55.09-25.57,3.24-1,5.5,3.25,3.24,5.56-7.82,7.96-15.77,16.28-20.31,26.64-3.38,7.7-4.49,16.84-1.62,24.8,2.53-3.12,5.12-6.2,7.81-9.19,12.83-14.22,27.44-26.8,43.31-37.52-13.35-4.63-26.27-10.45-38.38-17.72-12.82-7.7-24.34-17.16-34.86-27.68h0Z"/>
    <path class="cls-2" d="m528.27,996.76c-12.11,7.28-25.03,13.1-38.38,17.72,15.87,10.72,30.48,23.3,43.31,37.52,2.69,2.98,5.28,6.07,7.81,9.19,2.86-7.96,1.76-17.1-1.62-24.8-4.54-10.35-12.49-18.68-20.31-26.64-2.27-2.31,0-6.56,3.24-5.56,19.4,5.99,38.01,14.59,55.09,25.57,3.92,2.52,7.74,5.2,11.49,7.97.53-2.66-.78-6.06-1.57-8.33-1.5-4.3-3.59-8.38-6.09-12.18-5.01-7.62-11.87-14.01-19.76-18.56-4.53-2.6-9.34-4.53-14.41-5.79-3.57-.89-2.91-6.77.88-6.53,23.77,1.52,47.37,5.44,70.35,11.69-1.76-6.6-6.04-12.37-11.25-16.77-7.38-6.24-16.88-9.29-26.28-10.82-5.83-.95-11.75-1.24-17.64-1.37-10.51,10.52-22.04,19.99-34.86,27.68h0Z"/>
    <path class="cls-4" d="m269.89,303.64c-.1-.18-.2-.36-.31-.54-.04-.04-.08-.08-.11-.1-.08-.09-.18-.16-.26-.25-.23-.14-.45-.29-.69-.4-.01,0-.01,0-.02-.01-.06-.01-.12-.03-.16-.04-.19-.06-.38-.09-.57-.13-.23-.01-.46-.02-.7,0-.31.06-.62.13-.92.23-.02,0-.04,0-.06.01-.05.03-.09.06-.14.09-.2.19-.4.37-.58.57-.02.02-.02.02-.04.04-.02.05-.05.09-.06.11-.15.23-.26.47-.39.7-.04.1-.07.2-.1.31-.05.16-.07.33-.1.48-.01.2-.01.4,0,.6.04.19.09.39.14.58.04.06.07.13.11.2.05.08.09.15.15.23.17.18.34.35.52.53.08.05.15.1.22.15.09.06.19.11.29.15.06.03.16.08.31.16.13.04.25.08.38.12.15.04.3.06.45.09.25.02.5.02.75,0,.18-.04.36-.07.54-.13.17-.09.27-.15.32-.16.04-.02.08-.05.11-.07.09-.1.17-.17.22-.21.08-.07.15-.14.22-.22.05-.06.09-.13.11-.15.08-.12.15-.24.21-.36.02-.04.06-.12.09-.19.04-.13.08-.26.12-.39.04-.15.06-.31.09-.47.02-.3.02-.61,0-.92-.03-.13-.05-.26-.08-.4-.02-.08-.05-.15-.08-.23h.01Z"/>
    <path class="cls-5" d="m430.89,307.1s.06.04.1.06c-.07-.07-.14-.14-.21-.2-.19-.16-.1,0,.11.15Z"/>
    <path class="cls-5" d="m266.33,307.29s.06.02.09.03c-.1-.05-.19-.11-.29-.16-.23-.11,0,.06.21.13h0Z"/>
    <path class="cls-5" d="m431.11,307.29s-.08-.08-.11-.12c0,0-.01,0-.01,0,.04.04.09.08.13.12h0Z"/>
    <path class="cls-5" d="m377.53,984.69s.09-.11.2-.26c-.13.04-.22.11-.2.26Z"/>
    <path class="cls-5" d="m504.94,720.26c.05-.02.1-.02.15-.03-.02,0-.04-.01-.06-.02-.03.02-.06.03-.09.05h0Z"/>
    <path class="cls-5" d="m544.29,823.68c.23,0,.21-.16,0,0h0Z"/>
    <path class="cls-5" d="m478.66,909.96c.23,0,.36-.56,0,0h0Z"/>
    <path class="cls-5" d="m524.48,715.57s.05,0,.08-.01c.02-.01.04-.03.05-.05-.05,0-.11.02-.13.06h0Z"/>
    <path class="cls-5" d="m269.39,306.79c-.06.07-.1.13-.09.14,0,0,.04-.07.09-.14Z"/>
    <path class="cls-10" d="m677.15,609.42c-5.67-19.58-12.74-38.78-21.6-57.15-4.42-9.17-9.27-18.14-14.58-26.83-4.73-7.75-9.98-15.59-17.26-21.2-1.75-1.35-3.63-2.51-5.58-3.55-.85-.45-1.32-1.09-1.52-1.78-1.58-.11-3.11-1.16-3.18-3.19-.94-26.81-4.1-53.5-9.46-79.78-5.38-26.38-12.92-52.31-22.5-77.45-9.52-24.97-21.12-49.15-34.62-72.21-6.68-11.42-13.72-22.7-21.62-33.33-7.7-10.37-16.53-20.2-26.99-27.84-20.84-15.23-46.35-21.87-71.47-25.88-2.79-.44-5.58-.85-8.37-1.24-2.76,14.97-7.94,29.5-15.28,42.84-3.05,5.54-6.46,10.97-10.28,16.11,26.27-10.22,57.05-7.94,80.39,8.78,12.5,8.95,22.4,21.15,28.17,35.45,6.82,16.9,6.75,35.87,2.94,53.47-3.66,16.94-10.27,34.81-25.29,44.79-7.39,4.92-16.08,8.15-24.59,10.52-8.93,2.49-18.25,3.86-27.52,3.86-16.63,0-33.27-4.59-47-14.09-6.58-4.55-12.35-10.04-17.13-16.45-5.01-6.72-8.53-14.45-10.9-22.46-.74-2.5-1.36-5.03-1.9-7.58-.54,2.55-1.16,5.08-1.9,7.58-2.38,8.01-5.9,15.74-10.9,22.46-4.78,6.41-10.55,11.9-17.13,16.45-13.74,9.5-30.38,14.1-47,14.09-9.27,0-18.59-1.38-27.52-3.86-8.51-2.37-17.2-5.6-24.59-10.52-15.02-9.98-21.63-27.85-25.29-44.79-3.81-17.61-3.88-36.57,2.94-53.47,5.76-14.29,15.66-26.49,28.17-35.45,23.34-16.71,54.12-18.99,80.39-8.78-3.82-5.13-7.24-10.57-10.28-16.11-7.34-13.35-12.52-27.87-15.28-42.84-2.79.39-5.58.79-8.37,1.24-25.13,4.01-50.64,10.66-71.47,25.88-10.47,7.65-19.3,17.47-26.99,27.84-7.89,10.63-14.93,21.91-21.62,33.33-13.5,23.06-25.1,47.24-34.62,72.21-9.59,25.15-17.12,51.09-22.5,77.45-5.36,26.28-8.53,52.98-9.46,79.78-.07,2.03-1.61,3.08-3.18,3.19-.2.7-.68,1.33-1.52,1.78-1.94,1.03-3.83,2.2-5.58,3.55-7.28,5.61-12.52,13.44-17.26,21.2-5.31,8.69-10.16,17.66-14.58,26.83-8.86,18.37-15.93,37.57-21.6,57.15-5.68,19.64-9.95,39.68-13.13,59.87-1.72,10.93-3,21.92-3.07,33-.06,10.93.85,21.88,2.9,32.62,2.56,13.39,7.34,27.71,17.22,37.45-.46-2.21-.9-4.42-1.34-6.61-1.51-7.55-2.71-15.17-3.43-22.85-1.43-15.19-.77-30.66,3.32-45.41,1.14-4.12,7.56-2.37,6.41,1.77-4.25,15.33-4.51,31.34-2.72,47.07.79,6.96,2.02,13.87,3.48,20.73,1.37,6.47,2.58,13.35,5.2,19.45,2.14,4.99,5.67,9.14,10.72,11.31,4.67,2,10.22,2.13,14.67-.48.95-.56,1.85-1.24,2.67-2,.32-1.02.99-1.85,1.97-2.22,1.57-2.11,2.65-4.58,2.9-7.17.6-6.04-3.56-11.11-6.2-16.16-6.3-12.04-9.41-25.66-8.97-39.24.14-4.28,6.79-4.28,6.65,0-.26,8.04.76,15.99,3.09,23.68,1.13,3.74,2.56,7.39,4.3,10.9,1.4,2.8,3.08,5.46,4.53,8.23.4-.4.89-.72,1.45-.95,12.62-5.03,23.17-15.6,28.06-28.28,2.69-6.99,3.99-14.43,4.94-21.83,1.02-7.99,1.75-16.01,2.24-24.05.97-15.97.98-32,.45-47.99-1.06-32.31-4-64.57-6.44-96.8-.13-1.8,1.63-3.32,3.32-3.32,1.89,0,3.19,1.54,3.32,3.32,1.41,18.64,2.87,37.28,4.19,55.94,2.32,32.9,3.91,66.01,1.05,98.94-1.32,15.18-2.59,31.5-10.15,45.06-6.46,11.6-16.94,20.53-29.23,25.43-.29.12-.58.15-.88.15,1.43,5.01,1.07,10.11-1.4,15.02-.79,1.57-1.8,3.03-2.96,4.37-.21,2.38-.39,4.77-.48,7.16-1.07,25.24,4.05,50.33,13.31,73.75,9.3,23.51,22.81,45.44,38.76,65.01,8.6,10.55,17.89,20.69,28.1,29.7,9.79,8.63,20.7,15.91,32.23,21.99,23.45,12.38,49.33,19.58,75.44,23.64,29.49,4.59,59.44,5.19,89.22,5.51.55,0,1.02.12,1.43.32.41-.19.88-.31,1.43-.32,29.79-.33,59.74-.92,89.22-5.51,26.11-4.06,51.98-11.27,75.44-23.64,11.53-6.09,22.44-13.37,32.23-21.99,10.22-9.01,19.51-19.15,28.1-29.7,15.96-19.57,29.46-41.5,38.76-65.01,9.26-23.43,14.38-48.51,13.31-73.75-.1-2.39-.27-4.78-.48-7.16-1.16-1.34-2.17-2.8-2.96-4.37-2.47-4.91-2.82-10.01-1.4-15.02-.3,0-.59-.04-.88-.15-12.29-4.89-22.77-13.84-29.23-25.43-7.56-13.57-8.82-29.89-10.15-45.06-2.87-32.93-1.28-66.04,1.05-98.94,1.32-18.65,2.79-37.29,4.19-55.94.13-1.79,1.43-3.32,3.32-3.32,1.69,0,3.46,1.52,3.32,3.32-2.44,32.23-5.38,64.48-6.44,96.8-.53,15.99-.51,32.01.45,47.99.48,8.04,1.21,16.06,2.24,24.05.95,7.4,2.25,14.85,4.94,21.83,4.89,12.69,15.44,23.26,28.06,28.28.55.22,1.05.55,1.45.95,1.45-2.77,3.14-5.43,4.53-8.23,1.75-3.5,3.17-7.15,4.3-10.9,2.33-7.7,3.35-15.65,3.09-23.68-.14-4.28,6.51-4.28,6.65,0,.44,13.58-2.67,27.19-8.97,39.24-2.64,5.05-6.8,10.12-6.2,16.16.26,2.59,1.33,5.06,2.9,7.17.98.37,1.66,1.2,1.97,2.22.82.77,1.72,1.44,2.67,2,4.44,2.62,10,2.49,14.67.48,5.06-2.17,8.59-6.32,10.72-11.31,2.62-6.11,3.82-12.98,5.2-19.45,1.45-6.85,2.69-13.77,3.47-20.73,1.79-15.73,1.52-31.74-2.72-47.07-1.14-4.13,5.27-5.89,6.41-1.77,4.09,14.76,4.75,30.23,3.32,45.41-.72,7.67-1.92,15.3-3.43,22.85-.44,2.18-.88,4.39-1.34,6.61,9.88-9.74,14.66-24.06,17.22-37.45,2.05-10.73,2.97-21.69,2.9-32.62-.07-11.08-1.34-22.06-3.07-33-3.18-20.19-7.45-40.23-13.13-59.87h.04Zm-585.54,44.92c-1.57.43-3.84-.54-4.09-2.32-.64-4.65-1.55-9.28-2.78-13.81-1.24,1.05-2.59,2.08-4.23,2.36-2.01.34-4.31-.87-4.21-3.21.12-2.76-.06-5.46-.49-8.15-1.57.68-3.15,1.36-4.74,1.99-2.98,1.19-6.45.32-7.5-2.99-.78-2.46-.21-5.25-.74-7.79-.26-1.22-.62-2.38-1.06-3.52-2.64,2.68-5.49,5.13-8.53,7.38-1.92,1.41-5.3-.47-5.01-2.87,1.61-13.03,4.5-25.83,8.82-38.24.59-1.71,2.26-2.83,4.09-2.32,1.65.46,2.91,2.39,2.32,4.09-3.19,9.19-5.67,18.63-7.34,28.22,1.43-1.41,2.81-2.87,4.11-4.4,1.44-1.69,4.16-1.01,5.22.67,1.72,2.73,3.02,5.78,3.72,8.93.37,1.68.61,3.41.68,5.13.02.36.04.74.05,1.12.68-.31,1.38-.69,1.76-.85,1.63-.69,3.26-1.39,4.89-2.08,1.92-.82,4.28-.29,4.88,1.99.67,2.52,1.1,5.08,1.33,7.67,2.11-1.21,4.63-1.13,6.41.69,2.03,2.06,2.42,5.96,3.03,8.68.71,3.15,1.27,6.34,1.72,9.54.25,1.79-.4,3.56-2.32,4.09h0Zm373.64-80.6c3.78-.23,7.67.34,11.21,1.72,1.78.7,3.5,1.51,5.11,2.56.84.55,1.64,1.16,2.42,1.78.13.11.29.27.47.44.21-.46.39-.92.55-1.4.51-1.48.96-3.06,1.79-4.4,1.59-2.58,4.41-4.65,7.55-4.39,3.59.3,5.3,3.48,7.09,6.17.6.89,1.19,1.78,1.78,2.67.12-.48.23-.96.35-1.45.64-2.67,1.07-5.52,2.07-8.09,2.2-5.68,9.01-5.92,12.78-1.65,1.65,1.86,2.69,4.17,3.95,6.28,1.33,2.21,2.76,4.35,4.3,6.42,1.52,2.04,3.17,3.99,4.91,5.85-.4-9.85-1.63-19.65-3.73-29.3-.91-4.17,5.5-5.96,6.41-1.77,2.79,12.83,4.19,25.94,4.12,39.06-.02,3.01-3.56,4.21-5.68,2.35-6.8-5.97-12.63-13.1-17.09-20.98-.74-1.31-1.48-3.34-2.89-4.1-1.14-.62-1.01.47-1.26,1.47-1.25,4.97-2.41,9.97-3.61,14.95-.71,2.94-4.57,3.06-6.08.79-1.44-2.16-2.87-4.3-4.31-6.46-.72-1.07-1.44-2.16-2.16-3.23-.51-.77-.99-1.76-1.68-2.39-.06.04-.14.09-.23.19-.54.63-.95.97-1.3,1.76-.96,2.19-1.38,4.51-2.84,6.47-1.61,2.16-4.32,3.46-6.88,1.97-1.84-1.07-3.26-2.76-5.12-3.85-3.67-2.16-7.8-3.06-12.04-2.8-4.28.26-4.26-6.4,0-6.65h.02Zm-45.13,132.44c1.99-.39,3.8.66,4.84,2.34,1.23,1.99,1.96,5.41,3.33,7.73,3.86-10.94,8.87-21.46,14.96-31.33,2.24-3.64,8-.3,5.74,3.36-6.66,10.79-11.98,22.3-15.84,34.37-.54,1.67-2.31,2.87-4.09,2.32-3-.92-5.16-3.06-6.62-5.79-.69-1.29-1.23-2.66-1.78-4.02-.13-.32-.27-.73-.41-1.15-.75.69-1.51,1.38-2.27,2.06-1.49,1.35-2.98,2.71-4.47,4.07-1.98,1.8-4.64.88-5.56-1.47-2.37-6.01-6.16-14.14-14.08-12.17-4.15,1.03-5.93-5.38-1.77-6.41,5.45-1.36,11.08.16,15.08,4.13,2.28,2.27,3.88,5.04,5.2,7.94,1.31-1.2,2.63-2.39,3.94-3.59,1.16-1.06,2.2-2.1,3.79-2.41h0Zm-34.83,119.28c-1.4.82-3.28.58-4.42-.57-1.32-1.32-1.41-3.28-.69-4.9,1.13-2.55,2.86-4.86,4.06-7.4,1.21-2.56,2.17-5.22,2.97-7.94.86-2.93,4.44-3.05,6.08-.79,2.27,3.13,4.53,6.25,6.8,9.39.26.36.65.77.96,1.19.25-.37.58-.77.71-1,.32-.56.61-1.14.89-1.72,2.35-4.88,4.22-10.13,9.87-11.96,1.28-.41,3.17.25,3.76,1.53.78,1.7,1.73,3.3,3.01,4.68.56.61,1.17,1.2,1.82,1.72.16-.62.47-1.27.65-1.85.4-1.24.8-2.47,1.2-3.71.73-2.27,1.46-4.53,2.19-6.8,1.31-4.06,7.73-2.32,6.41,1.77-1.06,3.3-2.13,6.59-3.19,9.89-.84,2.6-1.55,5.88-4.17,7.3-3.17,1.72-6.17-.37-8.48-2.48-1.34-1.22-2.5-2.64-3.5-4.16-.08.1-.16.18-.25.29-.62.81-1.35,2.28-1.87,3.39-1.31,2.78-2.39,5.77-4.43,8.12-1.4,1.61-3.53,2.66-5.69,2.2-2.04-.43-3.32-1.87-4.51-3.47-1.36-1.83-2.7-3.69-4.04-5.54-.34.84-.7,1.68-1.07,2.5-.58,1.28-1.21,2.54-1.89,3.77-.39.71-.78,1.4-1.2,2.09-.03.05-.08.13-.13.24.26,1.56-.44,3.4-1.86,4.23h0Zm-128.54-140.55c6.09,9.88,11.1,20.39,14.96,31.33,1.38-2.32,2.11-5.75,3.33-7.73,1.04-1.68,2.84-2.73,4.84-2.34,1.58.31,2.63,1.35,3.79,2.41,1.31,1.2,2.63,2.39,3.94,3.59,1.33-2.9,2.93-5.68,5.2-7.94,3.99-3.97,9.62-5.5,15.08-4.13,4.16,1.03,2.38,7.45-1.77,6.41-7.92-1.97-11.72,6.16-14.08,12.17-.92,2.34-3.58,3.27-5.56,1.47-1.49-1.35-2.98-2.71-4.47-4.07-.75-.69-1.51-1.38-2.27-2.06-.15.42-.29.83-.41,1.15-.55,1.35-1.09,2.73-1.78,4.02-1.45,2.73-3.62,4.86-6.62,5.79-1.78.55-3.56-.65-4.09-2.32-3.86-12.07-9.19-23.58-15.84-34.37-2.25-3.66,3.5-6.99,5.74-3.36h0Zm55.97,136.08c-.41-.69-.81-1.38-1.2-2.09-.67-1.23-1.3-2.49-1.89-3.77-.37-.83-.73-1.66-1.07-2.5-1.34,1.85-2.67,3.7-4.04,5.54-1.19,1.61-2.46,3.04-4.51,3.47-2.16.46-4.29-.59-5.69-2.2-2.04-2.36-3.12-5.34-4.43-8.12-.52-1.11-1.24-2.58-1.87-3.39-.08-.11-.16-.19-.25-.29-1,1.52-2.16,2.94-3.5,4.16-2.31,2.11-5.31,4.2-8.48,2.48-2.62-1.43-3.33-4.7-4.17-7.3-1.06-3.3-2.13-6.59-3.19-9.89-1.32-4.09,5.1-5.82,6.41-1.77.73,2.27,1.46,4.53,2.19,6.8.4,1.24.8,2.48,1.2,3.71.19.58.49,1.23.65,1.85.65-.52,1.26-1.11,1.82-1.72,1.28-1.38,2.23-2.98,3.01-4.68.59-1.28,2.48-1.94,3.76-1.53,5.65,1.83,7.52,7.07,9.87,11.96.28.58.57,1.16.89,1.72.13.23.46.63.71,1,.32-.41.71-.82.96-1.19,2.27-3.13,4.53-6.25,6.8-9.39,1.64-2.25,5.22-2.14,6.08.79.8,2.72,1.75,5.37,2.97,7.94,1.2,2.53,2.94,4.85,4.06,7.4.72,1.62.62,3.59-.69,4.9-1.15,1.15-3.02,1.39-4.42.57-1.42-.83-2.12-2.67-1.86-4.23-.05-.11-.1-.19-.13-.24h0Zm-118.37-251.64c.99,2.56,1.43,5.42,2.07,8.09.12.48.23.96.35,1.45.6-.89,1.19-1.78,1.78-2.67,1.79-2.69,3.5-5.87,7.09-6.17,3.14-.26,5.96,1.82,7.55,4.39.83,1.34,1.28,2.92,1.79,4.4.16.48.34.95.55,1.4.18-.18.34-.34.47-.44.78-.62,1.58-1.23,2.42-1.78,1.61-1.05,3.33-1.86,5.11-2.56,3.53-1.38,7.42-1.95,11.21-1.72,4.26.26,4.28,6.91,0,6.65-4.23-.26-8.37.64-12.04,2.8-1.86,1.1-3.28,2.78-5.12,3.85-2.56,1.48-5.27.19-6.88-1.97-1.46-1.96-1.87-4.28-2.84-6.47-.35-.79-.76-1.13-1.3-1.76-.09-.11-.16-.16-.23-.19-.69.64-1.17,1.64-1.68,2.39-.72,1.07-1.44,2.16-2.16,3.23-1.44,2.16-2.87,4.3-4.31,6.46-1.51,2.27-5.37,2.14-6.08-.79-1.2-4.98-2.36-9.98-3.61-14.95-.25-1-.12-2.09-1.26-1.47-1.41.76-2.14,2.79-2.89,4.1-4.46,7.88-10.28,15.01-17.09,20.98-2.12,1.86-5.66.67-5.68-2.35-.07-13.12,1.33-26.23,4.12-39.06.91-4.19,7.32-2.41,6.41,1.77-2.1,9.65-3.33,19.45-3.73,29.3,1.74-1.86,3.39-3.81,4.91-5.85,1.54-2.07,2.97-4.21,4.3-6.42,1.27-2.11,2.31-4.42,3.95-6.28,3.78-4.28,10.59-4.02,12.78,1.65h.02Zm-70.11-74.74c-1.1-.44-2.18-1.76-2.04-3.04,1.2-11.57,3.62-22.95,7.35-33.96,1.37-4.04,7.79-2.3,6.41,1.77-2.66,7.84-4.7,15.89-6.03,24.05,4.19-3.79,8.17-7.81,11.88-12.08,1.52-1.75,5.22-.99,5.56,1.47.45,3.22,1.31,6.3,2.6,9.2,2.73-3.62,5.82-6.94,9.29-9.87,1.97-1.66,4.69-1,5.56,1.47,1.03,2.91,2.32,5.7,3.87,8.37.08.13.86,1.21,1.32,1.88.02-.02.04-.04.06-.05.48-.48.89-1.02,1.34-1.52,3.81-4.26,9.06-7.22,14.64-8.4,4.18-.88,5.95,5.53,1.77,6.41-3.21.68-6.24,1.96-8.85,3.98-2.48,1.92-4.16,5.18-7.21,6.26-4.09,1.44-6.82-1.79-8.67-4.94-1.03-1.74-1.94-3.55-2.76-5.39-2.97,2.97-5.61,6.23-7.85,9.82-1.35,2.17-4.37,2.11-5.74,0-1.89-2.91-3.38-6.07-4.42-9.37-4.5,4.75-9.33,9.18-14.45,13.26-1.09.87-2.3,1.23-3.63.69h0Zm7.33,231.27c3.19-9.92,6.37-19.83,9.56-29.75,1.31-4.06,7.73-2.32,6.41,1.77-2.01,6.25-4.02,12.51-6.03,18.77,2.04-1.52,4.13-2.99,6.3-4.32,2.81-1.71,6.1-2.32,8.69.15,1.9,1.82,2.88,4.42,4.44,6.51.97,1.29,2.81,2.89,4.26,2.27,1.19-.51,2-2.46,2.66-3.97,1.75-3.96,4.13-9.75,9.6-8.09,1.97.6,3.26,2.24,4.43,3.83.17.23.3.41.43.58,1.43-2.14,3.12-4.11,5.06-5.79,1.59-1.37,4.09-1.3,5.22.67,1.96,3.42,4.15,6.79,5.89,10.31.94,1.9,1.23,4.04.03,5.9-1.12,1.73-3.28,2.55-5.25,1.94-2.84-.87-2.86-4.23-1.23-5.78-.16-.27-.32-.55-.47-.83-.48-.85-.98-1.69-1.46-2.55-.35-.61-.7-1.22-1.05-1.83-1.13,1.4-2.1,2.9-2.91,4.57-.65,1.34-2.41,1.84-3.76,1.53-2.28-.53-3.83-2.18-5.19-3.98-.29-.37-.57-.76-.84-1.14-.02-.04-.2-.27-.27-.36-.06-.08-.15-.19-.15-.18-.04-.04-.08-.08-.11-.12-.16.37-.48.77-.65,1.09-.41.84-.78,1.7-1.14,2.56-.81,1.87-1.64,3.67-2.96,5.24-3.48,4.18-9.2,3.78-13.15.52-2.01-1.66-3.35-3.98-4.7-6.17-.34-.56-.71-1.11-1.07-1.66-.04-.05-.06-.09-.09-.13-.73.53-1.81,1.17-2.67,1.73-4.43,2.89-8.51,6.21-12.29,9.91-2.3,2.24-6.6,0-5.56-3.24h0Zm54.46,104.78c-.13-.06-.2-.1-.25-.13-.02.02-.09.03-.24.04h.13c.14-.01.21,0,0,0-.1,0-.23.02-.31.05-.02,0-.02,0-.04.01-.15.08-.29.15-.43.24-.14.1-.2.14-.25.16-.04.04-.07.06-.13.12-.54.47-1.03.99-1.51,1.52-.92,1-1.79,2.06-2.8,2.98-3,2.73-6.71,3.81-10.54,2.07-3.96-1.8-6.93-5.79-9.71-9.02-1.37-1.59-2.74-3.19-4.07-4.81-.07-.08-.12-.13-.18-.18-.34.06-.61.22-.88.43-.51.38-.95.93-1.31,1.44-2.27,3.13-3.91,6.99-8.17,7.74-4.82.86-8.7-3.15-9.44-7.65-.4-2.44-.15-4.86.03-7.31.19-2.51.38-5.02.57-7.53.13-1.8,1.41-3.32,3.32-3.32,1.7,0,3.46,1.53,3.32,3.32-.22,2.93-.44,5.86-.66,8.79-.15,1.92-.75,4.89.58,6.54.99,1.23,1.79.38,2.61-.65,1.43-1.8,2.3-3.93,3.94-5.6,1.64-1.65,3.79-2.87,6.16-2.82,2.39.05,4.33,1.47,5.81,3.22,2.96,3.52,5.85,7.66,9.49,10.53.6.47,1.36,1.03,2.15,1.14.54.07.36.02.78-.08.1-.02.16-.04.22-.04.03-.03.09-.08.24-.16.81-.47,1.71-1.38,2.58-2.34,2.24-2.46,4.58-5.22,8.17-5.42,1.86-.11,3.64.56,5.13,1.64.79.58,1.51,1.27,2.3,1.85.3.22.81.49.85.48.71-.16,1.33-1.01,1.8-1.5.64-.66,1.26-1.33,1.92-1.97,1.68-1.64,3.48-3.15,5.34-4.58,1.93-1.48,3.96-2.84,6.07-4.06,1.67-.96,3.6-2.18,5.48-2.62,3.05-.72,6.42,2.24,4.68,5.37-.91,1.62-2.83,2.25-4.48,1.75-.45.23-.9.46-1.34.7-1.07.58-2.12,1.2-3.15,1.86-1.9,1.21-3.71,2.53-5.41,4.01-3.49,3-6.9,8.56-12.2,7.56-1.94-.37-3.43-1.59-4.91-2.82-.4-.33-.98-.78-1.29-.93h0Zm89.59,97.85c-2.55-1.15-4.31-3.43-6.79-4.67-2.21-1.11-4.82-.96-7.15-.35-5.17,1.35-9.29,5.03-13.54,8.09-4.15,2.98-10.8,7.52-15.65,3.38-2.02-1.73-2.62-4.39-3.41-6.82-.95-2.89-2.01-5.75-3.17-8.57-1.12-2.74-2.35-5.46-3.71-8.09-.23-.46-.49-.9-.75-1.34-.04-.06-.06-.09-.09-.14-.59.49-1.13,1.13-1.64,1.72-4.12,4.79-8.19,9.64-12.31,14.43-1.85,2.15-4.33,3.73-7.24,2.76-2.44-.81-3.85-3.1-4.7-5.38-.96-2.58-1.27-5.51-1.75-8.21-.54-3.13-1-6.28-1.4-9.43-.78-6.14-1.24-12.32-1.41-18.51-.12-4.29,6.53-4.27,6.65,0,.18,6.53.67,13.06,1.54,19.54.43,3.17.95,6.34,1.55,9.48.27,1.45.51,2.94.91,4.36.04.12.31.78.56,1.31.15-.15.31-.28.38-.36,1-1.15,1.98-2.32,2.97-3.49,1.91-2.24,3.82-4.48,5.73-6.72,3.09-3.63,7.34-10.46,13.02-7.54,2.32,1.19,3.46,3.63,4.55,5.87,1.27,2.62,2.44,5.29,3.55,7.98,1.07,2.62,2.07,5.28,2.97,7.97.39,1.17.61,2.65,1.23,3.72.3.53.29.4.74.45.91.11,2.24-.77,3.01-1.2,1.07-.6,2.11-1.25,3.12-1.94,2.11-1.44,4.12-3.03,6.21-4.52,4.29-3.07,9.01-5.48,14.36-5.88,2.58-.19,5.17.28,7.53,1.34,2.17.98,3.78,2.69,5.72,4.02,4.02,2.76,8.08-1.06,10.97-3.81,3.1-2.95,7.81,1.75,4.7,4.7-4.58,4.35-10.73,8.77-17.25,5.83h-.01Zm57.12,56.88c-1.53.87-3.07,1.75-4.6,2.62s-3.05,1.93-4.7,2.55c-3.17,1.19-5.82-.68-7.32-3.4-1.4-2.52-2.63-5.16-3.95-7.73-.69-1.35-1.33-2.76-2.11-4.05-.32-.53-.22-.62-.67-.48-1.68.49-2.63,2.74-3.36,4.13-.99,1.89-2.11,3.82-3.76,5.22-4.43,3.76-9.93,1.76-12.95-2.64-2.31-3.38-2.12-8.56-5.45-11.17-1.43-1.12-1.15-3.55,0-4.7,1.38-1.38,3.29-1.1,4.7,0,2.09,1.63,3.24,4.05,4.09,6.49.71,2.03,1.09,4.25,2.39,6.02.61.82,1.52,1.65,2.31,1.34,1.38-.54,2.25-2.66,2.91-3.92,2-3.83,5.45-8.1,10.31-7.39,2.7.4,4.5,2.35,5.71,4.66,1.3,2.48,2.55,4.99,3.82,7.48.59,1.16,1.13,2.36,1.79,3.49h0c2.48-1.44,4.98-2.83,7.47-4.25,3.73-2.13,7.08,3.63,3.36,5.74h0Zm83.41-14.96c-3.33,2.6-3.14,7.79-5.45,11.17-3.01,4.4-8.52,6.4-12.95,2.64-1.65-1.4-2.77-3.32-3.76-5.22-.72-1.39-1.68-3.64-3.36-4.13-.45-.13-.35-.04-.67.48-.79,1.3-1.42,2.7-2.11,4.05-1.31,2.57-2.55,5.2-3.95,7.73-1.51,2.72-4.15,4.6-7.32,3.4-1.65-.62-3.18-1.68-4.7-2.55-1.53-.87-3.07-1.75-4.6-2.62-3.72-2.12-.37-7.87,3.36-5.74,2.49,1.42,4.99,2.81,7.47,4.25h0c.65-1.13,1.19-2.33,1.79-3.49,1.27-2.49,2.52-5.01,3.82-7.48,1.21-2.31,3.02-4.26,5.71-4.66,4.87-.71,8.3,3.56,10.31,7.39.66,1.26,1.53,3.39,2.91,3.92.78.3,1.71-.52,2.31-1.34,1.3-1.77,1.68-3.99,2.39-6.02.86-2.44,2.01-4.86,4.09-6.49,1.41-1.1,3.32-1.38,4.7,0,1.15,1.15,1.43,3.59,0,4.7h0Zm91.54-64.53c-.4,3.15-.86,6.3-1.4,9.43-.47,2.7-.78,5.63-1.75,8.21-.85,2.28-2.27,4.57-4.7,5.38-2.91.97-5.4-.61-7.24-2.76-4.12-4.8-8.19-9.64-12.31-14.43-.51-.59-1.05-1.23-1.64-1.72-.03.05-.05.08-.09.14-.26.44-.51.89-.75,1.34-1.36,2.63-2.59,5.35-3.71,8.09-1.16,2.82-2.21,5.68-3.17,8.57-.79,2.42-1.39,5.09-3.41,6.82-4.85,4.14-11.5-.4-15.65-3.38-4.25-3.05-8.36-6.74-13.54-8.09-2.34-.61-4.94-.76-7.15.35-2.48,1.24-4.24,3.52-6.79,4.67-6.52,2.94-12.67-1.48-17.25-5.83-3.11-2.96,1.6-7.65,4.7-4.7,2.9,2.75,6.94,6.56,10.97,3.81,1.94-1.33,3.55-3.04,5.72-4.02,2.35-1.06,4.94-1.54,7.53-1.34,5.34.4,10.07,2.81,14.36,5.88,2.08,1.49,4.09,3.08,6.21,4.52,1.02.69,2.05,1.35,3.12,1.94.77.43,2.1,1.31,3.01,1.2.44-.05.43.08.74-.45.62-1.07.84-2.55,1.23-3.72.9-2.69,1.89-5.35,2.97-7.97,1.1-2.69,2.28-5.36,3.55-7.98,1.09-2.24,2.23-4.68,4.55-5.87,5.69-2.92,9.93,3.91,13.02,7.54,1.91,2.24,3.82,4.48,5.73,6.72.99,1.16,1.97,2.34,2.97,3.49.07.08.22.22.38.36.25-.53.53-1.19.56-1.31.39-1.43.62-2.91.91-4.36.6-3.15,1.12-6.31,1.55-9.48.88-6.48,1.36-13,1.54-19.54.12-4.27,6.77-4.29,6.65,0-.17,6.19-.63,12.37-1.41,18.51h-.01Zm56.41-80.23c-.74,4.5-4.62,8.51-9.44,7.65-4.26-.76-5.9-4.61-8.17-7.74-.37-.51-.81-1.06-1.31-1.44-.27-.2-.54-.37-.88-.43-.05.04-.11.09-.18.18-1.33,1.62-2.71,3.22-4.07,4.81-2.77,3.22-5.75,7.22-9.71,9.02-3.83,1.75-7.54.66-10.54-2.07-1.01-.92-1.88-1.97-2.8-2.98-.48-.53-.97-1.05-1.51-1.52-.06-.05-.09-.08-.13-.12-.04-.02-.11-.07-.25-.16-.14-.09-.28-.16-.43-.24-.02,0-.02,0-.04-.01-.08-.03-.21-.05-.31-.05-.21,0-.14-.01,0,0h.13c-.15,0-.21-.02-.24-.04-.05.03-.12.07-.25.13-.32.15-.89.6-1.29.93-1.48,1.23-2.97,2.45-4.91,2.82-5.3,1-8.71-4.56-12.2-7.56-1.71-1.47-3.52-2.79-5.41-4.01-1.03-.65-2.07-1.27-3.15-1.86-.44-.24-.89-.47-1.34-.7-1.65.51-3.57-.12-4.48-1.75-1.75-3.12,1.63-6.09,4.68-5.37,1.89.44,3.81,1.67,5.48,2.62,2.11,1.21,4.13,2.58,6.07,4.06,1.86,1.43,3.66,2.93,5.34,4.58.65.64,1.28,1.31,1.92,1.97.47.49,1.09,1.34,1.8,1.5.04,0,.54-.26.85-.48.79-.57,1.51-1.27,2.3-1.85,1.48-1.08,3.28-1.75,5.13-1.64,3.59.2,5.93,2.96,8.17,5.42.87.96,1.77,1.87,2.58,2.34.15.09.21.13.24.16.05,0,.12.02.22.04.42.1.24.15.78.08.79-.11,1.55-.67,2.15-1.14,3.64-2.87,6.53-7,9.49-10.53,1.48-1.76,3.42-3.18,5.81-3.22,2.38-.05,4.53,1.17,6.16,2.82,1.65,1.66,2.52,3.79,3.94,5.6.82,1.03,1.61,1.88,2.61.65,1.34-1.65.73-4.61.58-6.54-.22-2.93-.44-5.86-.66-8.79-.13-1.79,1.62-3.32,3.32-3.32,1.91,0,3.19,1.52,3.32,3.32.19,2.51.38,5.02.57,7.53.18,2.45.43,4.86.03,7.31h0Zm-1.22-96.54c-3.78-3.69-7.86-7.03-12.29-9.91-.86-.56-1.94-1.2-2.67-1.73-.03.04-.05.07-.09.13-.37.55-.72,1.1-1.07,1.66-1.35,2.2-2.68,4.51-4.7,6.17-3.95,3.26-9.68,3.66-13.15-.52-1.31-1.58-2.15-3.38-2.96-5.24-.37-.86-.73-1.72-1.14-2.56-.16-.32-.49-.73-.65-1.09-.04.04-.08.08-.11.12,0,0-.09.11-.15.18-.06.08-.24.33-.27.36-.27.38-.55.77-.84,1.14-1.35,1.79-2.91,3.45-5.19,3.98-1.35.32-3.1-.19-3.76-1.53-.81-1.67-1.79-3.18-2.91-4.57-.35.61-.7,1.22-1.05,1.83-.48.85-.98,1.69-1.46,2.55-.16.27-.32.55-.47.83,1.62,1.55,1.61,4.91-1.23,5.78-1.97.61-4.13-.2-5.25-1.94-1.2-1.86-.91-4,.03-5.9,1.74-3.53,3.93-6.9,5.89-10.31,1.13-1.97,3.63-2.04,5.22-.67,1.95,1.68,3.64,3.64,5.06,5.79.12-.17.26-.36.43-.58,1.17-1.58,2.46-3.23,4.43-3.83,5.47-1.65,7.84,4.13,9.6,8.09.67,1.51,1.48,3.46,2.66,3.97,1.45.61,3.28-.99,4.26-2.27,1.57-2.08,2.54-4.68,4.44-6.51,2.59-2.48,5.88-1.86,8.69-.15,2.17,1.33,4.26,2.79,6.3,4.32-2.01-6.25-4.02-12.51-6.03-18.77-1.31-4.08,5.1-5.83,6.41-1.77,3.19,9.92,6.37,19.83,9.56,29.75,1.04,3.24-3.26,5.48-5.56,3.24h0Zm12.89-234.5c-1.34.54-2.54.19-3.63-.69-5.13-4.08-9.95-8.52-14.45-13.26-1.04,3.3-2.53,6.46-4.42,9.37-1.37,2.11-4.39,2.17-5.74,0-2.24-3.59-4.88-6.86-7.85-9.82-.82,1.85-1.73,3.65-2.76,5.39-1.85,3.14-4.58,6.38-8.67,4.94-3.04-1.07-4.73-4.34-7.21-6.26-2.61-2.02-5.64-3.3-8.85-3.98-4.19-.88-2.41-7.29,1.77-6.41,5.58,1.17,10.83,4.14,14.64,8.4.45.5.86,1.05,1.34,1.52.02.02.04.04.06.05.46-.67,1.24-1.74,1.32-1.88,1.55-2.67,2.84-5.45,3.87-8.37.87-2.46,3.59-3.14,5.56-1.47,3.47,2.93,6.56,6.26,9.29,9.87,1.29-2.91,2.16-5.98,2.6-9.2.34-2.45,4.04-3.22,5.56-1.47,3.71,4.28,7.69,8.29,11.88,12.08-1.33-8.16-3.37-16.21-6.03-24.05-1.38-4.06,5.04-5.81,6.41-1.77,3.74,11.01,6.16,22.39,7.35,33.96.13,1.28-.94,2.59-2.04,3.04h0Zm70.99,129.68c-3.04-2.25-5.89-4.7-8.53-7.38-.44,1.13-.8,2.3-1.06,3.52-.53,2.53.04,5.33-.74,7.79-1.05,3.31-4.52,4.18-7.5,2.99-1.59-.63-3.17-1.31-4.74-1.99-.43,2.69-.61,5.39-.49,8.15.1,2.34-2.2,3.55-4.21,3.21-1.64-.28-2.98-1.31-4.23-2.36-1.23,4.54-2.14,9.16-2.78,13.81-.25,1.78-2.52,2.75-4.09,2.32-1.92-.53-2.57-2.31-2.32-4.09.44-3.2,1-6.38,1.72-9.54.61-2.72,1-6.62,3.03-8.68,1.78-1.81,4.29-1.9,6.41-.69.24-2.59.67-5.16,1.33-7.67.6-2.28,2.97-2.81,4.88-1.99,1.63.69,3.26,1.39,4.89,2.08.37.16,1.08.54,1.76.85,0-.38.03-.75.05-1.12.08-1.72.32-3.45.68-5.13.7-3.15,2-6.2,3.72-8.93,1.06-1.68,3.78-2.37,5.22-.67,1.3,1.53,2.68,2.99,4.11,4.4-1.67-9.58-4.15-19.03-7.34-28.22-.59-1.69.67-3.64,2.32-4.09,1.83-.5,3.5.62,4.09,2.32,4.32,12.4,7.21,25.2,8.82,38.24.3,2.41-3.09,4.29-5.01,2.87h0Z"/>
    <path class="cls-5" d="m630.12,625.92c-.06.08-.01.18,0,0h0Z"/>
    <path class="cls-5" d="m524.59,715.55c.11-.02.09-.04.04-.04-.01.02-.02.02-.04.04Z"/>
    <path class="cls-5" d="m547.96,717.39c.16-.12.3-.42,0,0h0Z"/>
    <path class="cls-5" d="m152.02,717.39c-.3-.42-.16-.12,0,0h0Z"/>
    <path class="cls-5" d="m194.95,720.22s-.04.01-.06.02c.05.01.1.01.15.03-.03-.02-.06-.03-.09-.05h0Z"/>
    <path class="cls-5" d="m175.35,715.51c-.05,0-.07.01.04.04t-.04-.04Z"/>
    <path class="cls-5" d="m155.69,823.68c-.21-.16-.23,0,0,0h0Z"/>
    <path class="cls-5" d="m322.25,984.43c.11.15.2.27.2.26.02-.15-.06-.22-.2-.26Z"/>
    <path class="cls-5" d="m221.32,909.96c-.36-.56-.23,0,0,0h0Z"/>
    <path class="cls-5" d="m175.5,715.57s-.08-.05-.13-.06c.02.02.04.03.05.05.02,0,.05,0,.08.01Z"/>
    <path class="cls-4" d="m502.43,887.37c-.18,6.53-.67,13.06-1.54,19.54-.43,3.17-.95,6.34-1.55,9.48-.27,1.45-.51,2.94-.91,4.36-.04.12-.31.78-.56,1.31-.15-.15-.31-.28-.38-.36-1-1.15-1.98-2.32-2.97-3.49-1.91-2.24-3.82-4.48-5.73-6.72-3.09-3.63-7.34-10.46-13.02-7.54-2.32,1.19-3.46,3.63-4.55,5.87-1.27,2.62-2.44,5.29-3.55,7.98-1.07,2.62-2.07,5.28-2.97,7.97-.39,1.17-.61,2.65-1.23,3.72-.3.53-.29.4-.74.45-.91.11-2.24-.77-3.01-1.2-1.07-.6-2.11-1.25-3.12-1.94-2.11-1.44-4.12-3.03-6.21-4.52-4.29-3.07-9.01-5.48-14.36-5.88-2.58-.19-5.17.28-7.53,1.34-2.17.98-3.78,2.69-5.72,4.02-4.02,2.76-8.08-1.06-10.97-3.81-3.1-2.95-7.81,1.75-4.7,4.7,4.58,4.35,10.73,8.77,17.25,5.83,2.55-1.15,4.31-3.43,6.79-4.67,2.21-1.11,4.82-.96,7.15-.35,5.17,1.35,9.29,5.03,13.54,8.09,4.15,2.98,10.8,7.52,15.65,3.38,2.02-1.73,2.62-4.39,3.41-6.82.95-2.89,2.01-5.75,3.17-8.57,1.12-2.74,2.35-5.46,3.71-8.09.23-.46.49-.9.75-1.34.04-.06.06-.09.09-.14.59.49,1.13,1.13,1.64,1.72,4.12,4.79,8.19,9.64,12.31,14.43,1.85,2.15,4.33,3.73,7.24,2.76,2.44-.81,3.85-3.1,4.7-5.38.96-2.58,1.27-5.51,1.75-8.21.54-3.13,1-6.28,1.4-9.43.78-6.14,1.24-12.32,1.41-18.51.12-4.29-6.53-4.27-6.65,0h.01Zm-23.76,22.58c.36-.56.23,0,0,0h0Z"/>
    <path class="cls-4" d="m411.42,965.71c-2.09,1.63-3.24,4.05-4.09,6.49-.71,2.03-1.09,4.25-2.39,6.02-.61.82-1.52,1.65-2.31,1.34-1.38-.54-2.25-2.66-2.91-3.92-2-3.83-5.45-8.1-10.31-7.39-2.7.4-4.5,2.35-5.71,4.66-1.3,2.48-2.55,4.99-3.82,7.48-.59,1.16-1.13,2.36-1.79,3.49h0c-2.48-1.44-4.98-2.83-7.47-4.25-3.73-2.13-7.08,3.63-3.36,5.74,1.53.87,3.07,1.75,4.6,2.62s3.05,1.93,4.7,2.55c3.17,1.19,5.82-.68,7.32-3.4,1.4-2.52,2.63-5.16,3.95-7.73.69-1.35,1.33-2.76,2.11-4.05.32-.53.22-.62.67-.48,1.68.49,2.63,2.74,3.36,4.13.99,1.89,2.11,3.82,3.76,5.22,4.43,3.76,9.93,1.76,12.95-2.64,2.31-3.38,2.12-8.56,5.45-11.17,1.43-1.12,1.15-3.55,0-4.7-1.38-1.38-3.29-1.1-4.7,0h0Zm-33.89,18.98c-.02-.15.06-.22.2-.26-.11.15-.2.27-.2.26Z"/>
    <path class="cls-4" d="m514.32,830.56c-.14-.01-.21,0,0,0h0Z"/>
    <path class="cls-4" d="m563.48,810.81c-.13-1.8-1.41-3.32-3.32-3.32-1.7,0-3.46,1.53-3.32,3.32.22,2.93.44,5.86.66,8.79.15,1.92.75,4.89-.58,6.54-.99,1.23-1.79.38-2.61-.65-1.43-1.8-2.3-3.93-3.94-5.6-1.64-1.65-3.79-2.87-6.16-2.82-2.39.05-4.33,1.47-5.81,3.22-2.96,3.52-5.85,7.66-9.49,10.53-.6.47-1.36,1.03-2.15,1.14-.54.07-.36.02-.78-.08-.1-.02-.16-.04-.22-.04-.03-.03-.09-.08-.24-.16-.81-.47-1.71-1.38-2.58-2.34-2.24-2.46-4.58-5.22-8.17-5.42-1.86-.11-3.64.56-5.13,1.64-.79.58-1.51,1.27-2.3,1.85-.3.22-.81.49-.85.48-.71-.16-1.33-1.01-1.8-1.5-.64-.66-1.26-1.33-1.92-1.97-1.68-1.64-3.48-3.15-5.34-4.58-1.93-1.48-3.96-2.84-6.07-4.06-1.67-.96-3.6-2.18-5.48-2.62-3.05-.72-6.42,2.24-4.68,5.37.91,1.62,2.83,2.25,4.48,1.75.45.23.9.46,1.34.7,1.07.58,2.12,1.2,3.15,1.86,1.9,1.21,3.71,2.53,5.41,4.01,3.49,3,6.9,8.56,12.2,7.56,1.94-.37,3.43-1.59,4.91-2.82.4-.33.98-.78,1.29-.93.13-.06.2-.1.25-.13.02.02.09.03.24.04h-.13c.1,0,.23.02.31.05.02,0,.02,0,.04.01.15.08.29.15.43.24.14.1.2.14.25.16.04.04.07.06.13.12.54.47,1.03.99,1.51,1.52.92,1,1.79,2.06,2.8,2.98,3,2.73,6.71,3.81,10.54,2.07,3.96-1.8,6.93-5.79,9.71-9.02,1.37-1.59,2.74-3.19,4.07-4.81.07-.08.12-.13.18-.18.34.06.61.22.88.43.51.38.95.93,1.31,1.44,2.27,3.13,3.91,6.99,8.17,7.74,4.82.86,8.7-3.15,9.44-7.65.4-2.44.15-4.86-.03-7.31-.19-2.51-.38-5.02-.57-7.53h0Zm-19.19,12.87c.21-.16.23,0,0,0h0Z"/>
    <path class="cls-4" d="m388.47,818.91c.67-1.23,1.3-2.49,1.89-3.77.37-.83.73-1.66,1.07-2.5,1.34,1.85,2.67,3.7,4.04,5.54,1.19,1.61,2.46,3.04,4.51,3.47,2.16.46,4.29-.59,5.69-2.2,2.04-2.36,3.12-5.34,4.43-8.12.52-1.11,1.24-2.58,1.87-3.39.08-.11.16-.19.25-.29,1,1.52,2.16,2.94,3.5,4.16,2.31,2.11,5.31,4.2,8.48,2.48,2.62-1.43,3.33-4.7,4.17-7.3,1.06-3.3,2.13-6.59,3.19-9.89,1.32-4.09-5.1-5.82-6.41-1.77-.73,2.27-1.46,4.53-2.19,6.8-.4,1.24-.8,2.48-1.2,3.71-.19.58-.49,1.23-.65,1.85-.65-.52-1.26-1.11-1.82-1.72-1.28-1.38-2.23-2.98-3.01-4.68-.59-1.28-2.48-1.94-3.76-1.53-5.65,1.83-7.52,7.07-9.87,11.96-.28.58-.57,1.16-.89,1.72-.13.23-.46.63-.71,1-.32-.41-.71-.82-.96-1.19-2.27-3.13-4.53-6.25-6.8-9.39-1.64-2.25-5.22-2.14-6.08.79-.8,2.72-1.75,5.37-2.97,7.94-1.2,2.53-2.94,4.85-4.06,7.4-.72,1.62-.62,3.59.69,4.9,1.15,1.15,3.02,1.39,4.42.57,1.42-.83,2.12-2.67,1.86-4.23.05-.11.1-.19.13-.24.41-.69.81-1.38,1.2-2.09h0Zm32.44-10.47c-.11.19-.21.09,0,0h0Z"/>
    <path class="cls-4" d="m558.86,696.12c-1.31-4.06-7.73-2.32-6.41,1.77,2.01,6.25,4.02,12.51,6.03,18.77-2.04-1.52-4.13-2.99-6.3-4.32-2.81-1.71-6.1-2.32-8.69.15-1.9,1.82-2.88,4.42-4.44,6.51-.97,1.29-2.81,2.89-4.26,2.27-1.19-.51-2-2.46-2.66-3.97-1.75-3.96-4.13-9.75-9.6-8.09-1.97.6-3.26,2.24-4.43,3.83-.17.23-.3.41-.43.58-1.43-2.14-3.12-4.11-5.06-5.79-1.59-1.37-4.09-1.3-5.22.67-1.96,3.42-4.15,6.79-5.89,10.31-.94,1.9-1.23,4.04-.03,5.9,1.12,1.73,3.28,2.55,5.25,1.94,2.84-.87,2.86-4.23,1.23-5.78.16-.27.32-.55.47-.83.48-.85.98-1.69,1.46-2.55.35-.61.7-1.22,1.05-1.83,1.13,1.4,2.1,2.9,2.91,4.57.65,1.34,2.41,1.84,3.76,1.53,2.28-.53,3.83-2.18,5.19-3.98.29-.37.57-.76.84-1.14.02-.04.2-.27.27-.36.06-.08.15-.19.15-.18.04-.04.08-.08.11-.12.16.37.48.77.65,1.09.41.84.78,1.7,1.14,2.56.81,1.87,1.64,3.67,2.96,5.24,3.48,4.18,9.2,3.78,13.15.52,2.01-1.66,3.35-3.98,4.7-6.17.34-.56.71-1.11,1.07-1.66.04-.05.06-.09.09-.13.73.53,1.81,1.17,2.67,1.73,4.43,2.89,8.51,6.21,12.29,9.91,2.3,2.24,6.6,0,5.56-3.24-3.19-9.92-6.37-19.83-9.56-29.75h0Zm-53.92,24.13s.06-.03.09-.05c.02,0,.04.01.06.02-.05.01-.1.01-.15.03h0Zm19.54-4.69s.08-.05.13-.06c-.02.02-.04.03-.05.05-.02,0-.05,0-.08.01h0Zm.11-.02s.02-.02.04-.04c.05,0,.07.01-.04.04Zm23.37,1.84c.3-.42.16-.12,0,0h0Z"/>
    <path class="cls-4" d="m407.18,704.23c-3.99-3.97-9.62-5.5-15.08-4.13-4.16,1.03-2.38,7.45,1.77,6.41,7.92-1.97,11.72,6.16,14.08,12.17.92,2.34,3.58,3.27,5.56,1.47,1.49-1.35,2.98-2.71,4.47-4.07.75-.69,1.51-1.38,2.27-2.06.15.42.29.83.41,1.15.55,1.35,1.09,2.73,1.78,4.02,1.45,2.73,3.62,4.86,6.62,5.79,1.78.55,3.56-.65,4.09-2.32,3.86-12.07,9.19-23.58,15.84-34.37,2.25-3.66-3.5-6.99-5.74-3.36-6.09,9.88-11.1,20.39-14.96,31.33-1.38-2.32-2.11-5.75-3.33-7.73-1.04-1.68-2.84-2.73-4.84-2.34-1.58.31-2.63,1.35-3.79,2.41-1.31,1.2-2.63,2.39-3.94,3.59-1.33-2.9-2.93-5.68-5.2-7.94h0Zm14.79,8.21c-.03.05-.06.11-.09.16h-.09c.06-.05.12-.11.18-.16h0Z"/>
    <path class="cls-4" d="m642.93,583.18c-.59-1.71-2.26-2.83-4.09-2.32-1.65.46-2.91,2.39-2.32,4.09,3.19,9.19,5.67,18.63,7.34,28.22-1.43-1.41-2.81-2.87-4.11-4.4-1.44-1.69-4.16-1.01-5.22.67-1.72,2.73-3.02,5.78-3.72,8.93-.37,1.68-.61,3.41-.68,5.13-.02.36-.04.74-.05,1.12-.68-.31-1.38-.69-1.76-.85-1.63-.69-3.26-1.39-4.89-2.08-1.92-.82-4.28-.29-4.88,1.99-.67,2.52-1.1,5.08-1.33,7.67-2.11-1.21-4.63-1.13-6.41.69-2.03,2.06-2.42,5.96-3.03,8.68-.71,3.15-1.27,6.34-1.72,9.54-.25,1.79.4,3.56,2.32,4.09,1.57.43,3.84-.54,4.09-2.32.64-4.65,1.55-9.28,2.78-13.81,1.24,1.05,2.59,2.08,4.23,2.36,2.01.34,4.31-.87,4.21-3.21-.12-2.76.06-5.46.49-8.15,1.57.68,3.15,1.36,4.74,1.99,2.98,1.19,6.45.32,7.5-2.99.78-2.46.21-5.25.74-7.79.26-1.22.62-2.38,1.06-3.52,2.64,2.68,5.49,5.13,8.53,7.38,1.92,1.41,5.3-.47,5.01-2.87-1.61-13.03-4.5-25.83-8.82-38.24h0Zm-12.81,42.73c-.01.18-.06.08,0,0h0Z"/>
    <path class="cls-4" d="m564.03,459.38c2.66,7.84,4.7,15.89,6.03,24.05-4.19-3.79-8.17-7.81-11.88-12.08-1.52-1.75-5.22-.99-5.56,1.47-.45,3.22-1.31,6.3-2.6,9.2-2.73-3.62-5.82-6.94-9.29-9.87-1.97-1.66-4.69-1-5.56,1.47-1.03,2.91-2.32,5.7-3.87,8.37-.08.13-.86,1.21-1.32,1.88-.02-.02-.04-.04-.06-.05-.48-.48-.89-1.02-1.34-1.52-3.81-4.26-9.06-7.22-14.64-8.4-4.18-.88-5.95,5.53-1.77,6.41,3.21.68,6.24,1.96,8.85,3.98,2.48,1.92,4.16,5.18,7.21,6.26,4.09,1.44,6.82-1.79,8.67-4.94,1.03-1.74,1.94-3.55,2.76-5.39,2.97,2.97,5.61,6.23,7.85,9.82,1.35,2.17,4.37,2.11,5.74,0,1.89-2.91,3.38-6.07,4.42-9.37,4.5,4.75,9.33,9.18,14.45,13.26,1.09.87,2.3,1.23,3.63.69,1.1-.44,2.18-1.76,2.04-3.04-1.2-11.57-3.62-22.95-7.35-33.96-1.37-4.04-7.79-2.3-6.41,1.77h0Z"/>
    <path class="cls-4" d="m465.25,580.4c4.23-.26,8.37.64,12.04,2.8,1.86,1.1,3.28,2.78,5.12,3.85,2.56,1.48,5.27.19,6.88-1.97,1.46-1.96,1.87-4.28,2.84-6.47.35-.79.76-1.13,1.3-1.76.09-.11.16-.16.23-.19.69.64,1.17,1.64,1.68,2.39.72,1.07,1.44,2.16,2.16,3.23,1.44,2.16,2.87,4.3,4.31,6.46,1.51,2.27,5.37,2.14,6.08-.79,1.2-4.98,2.36-9.98,3.61-14.95.25-1,.12-2.09,1.26-1.47,1.41.76,2.14,2.79,2.89,4.1,4.46,7.88,10.28,15.01,17.09,20.98,2.12,1.86,5.66.67,5.68-2.35.07-13.12-1.33-26.23-4.12-39.06-.91-4.19-7.32-2.41-6.41,1.77,2.1,9.65,3.33,19.45,3.73,29.3-1.74-1.86-3.39-3.81-4.91-5.85-1.54-2.07-2.97-4.21-4.3-6.42-1.27-2.11-2.31-4.42-3.95-6.28-3.78-4.28-10.59-4.02-12.78,1.65-.99,2.56-1.43,5.42-2.07,8.09-.12.48-.23.96-.35,1.45-.6-.89-1.19-1.78-1.78-2.67-1.79-2.69-3.5-5.87-7.09-6.17-3.14-.26-5.96,1.82-7.55,4.39-.83,1.34-1.28,2.92-1.79,4.4-.16.48-.34.95-.55,1.4-.18-.18-.34-.34-.47-.44-.78-.62-1.58-1.23-2.42-1.78-1.61-1.05-3.33-1.86-5.11-2.56-3.53-1.38-7.42-1.95-11.21-1.72-4.26.26-4.28,6.91,0,6.65h-.02Zm28.43-3.76c.25-.11.29.2,0,0h0Zm-9.76,4.54h.05c-.3.43-.35.05-.05,0Z"/>
    <path class="cls-4" d="m430.99,307.16s.01,0,.01,0c-.09-.1-.17-.17-.22-.21.07.06.14.13.21.2Z"/>
    <path class="cls-4" d="m436.88,313.08c1.61-.77,3.06-2.14,3.94-3.69,1.08-1.91,1.3-4.01.95-6.14-.59-3.6-3.66-6.98-7.28-7.69-.42-.08-.83-.09-1.22-.05-1.66-.1-3.35.27-4.88.95-2.17.96-3.69,2.81-4.56,4.97-1.36,3.38-.33,7.59,2.17,10.16,2.89,2.96,7.29,3.19,10.87,1.48h0Zm-6.36-6.39c-.3-.33-.13-.16.02.02l-.02-.02Zm.08.09c.06.07.1.13.09.14,0,0-.04-.07-.09-.14Zm-.58-2.93c.02-.08.05-.15.08-.23.1-.18.2-.36.31-.54.04-.04.08-.08.11-.1.08-.09.18-.16.26-.25.23-.14.45-.29.69-.4.01,0,.01,0,.02-.01.06-.01.12-.03.16-.04.19-.06.38-.09.57-.13.23-.01.46-.02.7,0,.31.06.62.13.92.23.02,0,.04,0,.06.01.05.03.09.06.14.09.2.19.4.37.58.57.02.02.02.02.04.04.02.05.05.09.06.11.15.23.26.47.39.7.04.1.07.2.1.31.05.16.07.33.1.48.01.2.01.4,0,.6-.04.19-.09.39-.14.58-.04.06-.07.13-.11.2-.05.08-.09.15-.15.23-.17.18-.34.35-.52.53-.08.05-.15.1-.22.15-.09.06-.19.11-.29.15.23-.11,0,.06-.21.13-.03.01-.06.02-.09.03-.06.03-.12.06-.18.09.06-.04.11-.06.16-.09-.13.04-.25.08-.38.12-.15.04-.3.06-.45.09-.25.02-.5.02-.75,0-.18-.04-.36-.07-.54-.13.05.03.11.06.18.11h0c-.07-.04-.15-.08-.22-.11h-.02c-.19-.06-.37-.19-.26-.15-.04-.02-.08-.05-.11-.07.04.04.07.07.11.12-.04-.04-.08-.08-.13-.12-.04-.02-.06-.04-.1-.06-.21-.14-.3-.3-.11-.15-.08-.07-.15-.14-.22-.22-.05-.06-.09-.13-.11-.15-.08-.12-.15-.24-.21-.36-.02-.04-.06-.12-.09-.19-.04-.13-.08-.26-.12-.39-.04-.15-.06-.31-.09-.47-.02-.3-.02-.61,0-.92.03-.13.05-.26.08-.4h0Z"/>
    <path class="cls-4" d="m431.25,307.32s.09.05.14.07c.02,0,.03,0,.05.01-.17-.09-.27-.15-.32-.16.05.03.09.06.13.08Z"/>
    <path class="cls-4" d="m433.56,307.31c.1-.05.19-.11.29-.16-.06.03-.16.08-.31.16h.02Z"/>
    <path class="cls-4" d="m695.79,661.92c-3.5-20.83-8.19-41.49-14.44-61.67-6.22-20.1-14-39.77-23.61-58.5-4.7-9.16-9.74-18.25-15.57-26.75-5.47-7.98-12.02-15.45-20.67-20.04-.5-.27-1-.39-1.47-.41-.11-2.92-.23-5.84-.39-8.75-1.51-27.36-5.33-54.61-11.34-81.34-6-26.64-14.2-52.79-24.49-78.07-10.3-25.29-22.6-49.74-36.93-72.99-14.01-22.73-29.86-45.19-53.12-59.25-17.74-10.72-37.82-16.43-58.13-20.12,4.98-1.07,9.91-2.37,14.76-3.85,15.74-4.8,31.61-10.96,45.69-19.58,12.61-7.72,24.21-18.13,30.21-31.92,3.71-8.54,5.05-17.75,5.47-26.99.41-9.01.05-18.26-3.63-26.63-6.33-14.39-22.82-22.8-38.16-20.59-.43-2.25-1.01-4.49-1.77-6.66-2.09-5.99-5.45-11.59-10.22-15.83-5.72-5.07-13.02-8.45-20.28-10.66-14.33-4.38-31.5-2.86-42.45,7.96-3.59-5.06-8.09-9.43-13.51-12.62-7.35-4.31-15.88-6.24-24.33-6.59-8.8-.37-17.83.83-25.96,4.31-13.6,5.82-23.71,18.12-28.48,31.95-5.29,15.3-3.54,32.13,2.43,47.01-.99-.22-1.98-.41-3-.54-6.3-.75-13.12-.23-18.82,2.73-5.01,2.6-8.94,6.95-11.98,11.62-6.67,10.24-9.84,22.6-11.32,34.6-1.63,13.19-1,26.54.05,39.76-25.59,3.55-51.66,9.13-74.02,22.64-23.26,14.06-39.11,36.53-53.12,59.25-14.33,23.24-26.64,47.7-36.93,72.99-10.3,25.29-18.5,51.44-24.49,78.07-6.02,26.73-9.84,53.98-11.34,81.34-.16,2.91-.28,5.83-.39,8.75-.47.02-.96.14-1.47.41-8.66,4.6-15.2,12.07-20.67,20.04-5.83,8.5-10.87,17.59-15.57,26.75-9.61,18.73-17.39,38.39-23.61,58.5-6.25,20.19-10.94,40.84-14.44,61.67-1.89,11.23-3.57,22.54-4.06,33.93-.5,11.56.19,23.14,1.92,34.58,2.66,17.64,8.31,36.9,22.42,48.89,1.56,1.33,3.21,2.54,4.92,3.66.44,1.43.9,2.84,1.43,4.23,2.4,6.33,6.21,11.86,12.17,15.3,5.41,3.11,11.99,4.3,18.08,2.76,1.34-.34,2.64-.84,3.88-1.45-1.2,23.2,2.62,46.54,10.19,68.47,8.54,24.73,21.52,47.81,37.34,68.6,5.72,7.51,11.76,14.81,18.19,21.74-9.44.49-18.94,1.78-27.75,5.26-9.53,3.77-18.04,10.02-23.5,18.81-2.99,4.82-4.75,10.23-5.19,15.89-.16,2.17,2.26,3.77,4.21,3.21,17.56-5.05,35.49-8.71,53.61-10.93-11.9,7.79-21.26,19.46-25.91,32.99-1.87,5.43-3.33,12.71,1.59,17.04,1,.88,2.83,1.43,4.03.52,15.79-11.98,33.18-21.91,51.62-29.19,1.24-.49,2.49-.96,3.73-1.43-9.6,11.16-17.47,24.05-16.38,39.32.38,5.28,1.83,10.4,4.59,14.93.99,1.64,3.86,2.42,5.22.67,11.97-15.37,25.86-29.3,41.3-41.19,4.42-3.4,8.96-6.62,13.6-9.69.85-.56,1.29-1.31,1.45-2.1,9.8,3.07,19.79,5.52,29.84,7.43,29.81,5.69,60.21,7,90.49,7.47,3.77.06,7.53.11,11.3.15.55,0,1.02-.1,1.43-.29.41.19.88.29,1.43.29,3.77-.04,7.53-.09,11.3-.15,30.28-.47,60.68-1.79,90.49-7.47,10.05-1.92,20.04-4.37,29.84-7.43.16.79.6,1.54,1.45,2.1,4.64,3.07,9.19,6.29,13.6,9.69,15.44,11.89,29.32,25.83,41.3,41.19,1.36,1.75,4.23.97,5.22-.67,2.76-4.54,4.21-9.65,4.59-14.93,1.1-15.27-6.77-28.16-16.38-39.32,1.25.47,2.49.94,3.73,1.43,18.44,7.28,35.84,17.21,51.62,29.19,1.2.91,3.03.36,4.03-.52,4.92-4.33,3.46-11.6,1.59-17.04-4.65-13.53-14.01-25.21-25.91-32.99,18.12,2.23,36.05,5.88,53.61,10.93,1.95.56,4.37-1.04,4.21-3.21-.43-5.65-2.2-11.06-5.19-15.89-5.45-8.8-13.96-15.04-23.5-18.81-8.81-3.48-18.3-4.77-27.75-5.26,6.42-6.93,12.47-14.23,18.19-21.74,15.82-20.79,28.8-43.87,37.34-68.6,7.58-21.94,11.39-45.27,10.19-68.47,1.25.61,2.55,1.12,3.88,1.45,6.09,1.55,12.68.36,18.08-2.76,5.96-3.43,9.77-8.97,12.17-15.3.53-1.38.99-2.8,1.43-4.23,1.71-1.12,3.36-2.34,4.92-3.66,14.1-11.98,19.75-31.24,22.42-48.89,1.73-11.44,2.42-23.02,1.92-34.58-.49-11.39-2.17-22.7-4.06-33.93h0ZM293.51,107.45c2.09-4.53,4.64-8.92,8.23-12.42,3.67-3.58,8.11-5.47,13.23-5.77,5.05-.3,10.54-.03,14.78,3.01.17.16.35.3.54.4,3.53,2.77,5.71,7.02,6.73,11.32,1.51,6.33.71,13.06-.57,19.36-1.33,6.52-3.39,12.9-6.2,18.94-.76,1.63-.46,3.59,1.19,4.55,1.44.84,3.79.44,4.55-1.19,2.76-5.92,4.97-12.08,6.43-18.46,1.47-6.42,2.51-13.22,1.85-19.82-.62-6.16-2.63-11.91-6.59-16.71-.93-1.12-1.94-2.11-3.04-2.98-7.09-13.54-10.34-29.58-6.75-44.63,2.99-12.51,10.83-24.05,22.06-30.54,6.52-3.76,13.94-5.43,21.4-5.78,7.53-.35,15.18.48,22.22,3.31,13.08,5.24,21.05,17.89,24.16,31.18,3.84,16.43.62,34.16-8.25,48.45-2.26,3.64,3.49,6.99,5.74,3.36,8.95-14.42,12.39-31.78,9.88-48.53-1-6.66-3.1-13.33-6.3-19.37,8.34-8.91,21.29-11.1,32.98-8.48,12.18,2.74,24.28,9.1,29.28,21.12,4.37,10.54,3.79,22.64.62,33.41-3.15,10.74-9.02,20.62-16.73,28.72-8.73,9.18-19.72,16.04-31.94,19.46-4.12,1.15-2.37,7.57,1.77,6.41,24.33-6.8,44.36-26.2,52.45-50.08,2.64-7.8,4.01-16.31,3.5-24.64,11.79-1.89,24.42,4.28,30.27,14.67,3.9,6.93,4.35,15.18,4.16,22.95-.21,8.68-1.1,17.46-4.26,25.62-4.9,12.67-15.29,22.35-26.53,29.5-12.83,8.16-27.22,13.94-41.62,18.65-18.81,6.16-38.59,9.79-58.4,7.38-1.79-.22-3.32,1.68-3.32,3.32,0,1.98,1.54,3.11,3.32,3.32,5.8.71,11.62.9,17.43.68-1.41,7.4-3.38,14.69-5.97,21.77-5.05,13.8-12.39,27.06-21.77,38.4-8.7,10.52-19.66,19.7-33.27,22.71-.3.06-.56.17-.8.29-.24-.12-.5-.22-.8-.29-13.61-3.01-24.57-12.2-33.27-22.71-9.38-11.34-16.72-24.6-21.77-38.4-2.97-8.11-5.16-16.49-6.58-25-.08-.45-.27-.85-.55-1.19-1.78-21.7-2.86-45.03,6.49-65.26h.01Zm59.81,186.43c.4-6.02,1.68-11.91,4.84-17.2,3.53-5.91,8.66-10.64,13.7-15.24,4.81-4.38,9.6-8.73,13.68-13.79,2.35-1.3,4.74-2.5,7.21-3.56,14.34-6.21,30.75-8.35,46.16-5.65,14.33,2.51,27.66,9.13,38.29,19.06,10.63,9.92,18.19,22.71,21.32,36.93,3.74,17,1.29,34.89-4.1,51.26-2.42,7.34-5.57,14.76-10.61,20.72-5.24,6.21-12.32,10.28-19.79,13.27-15.85,6.35-33.52,9.25-50.48,6.42-14.53-2.42-28.36-8.95-38.91-19.32-5.25-5.16-9.48-11.16-12.62-17.82-3.55-7.56-5.54-15.83-6.8-24.06-1.03-6.66-1.62-13.46-1.89-20.23.17-3.6.21-7.21-.01-10.8h0Zm-6.66,10.8c-.26,6.76-.86,13.56-1.89,20.23-1.27,8.23-3.25,16.5-6.8,24.06-3.13,6.66-7.36,12.66-12.62,17.82-10.55,10.37-24.38,16.9-38.91,19.32-16.96,2.83-34.63-.08-50.48-6.42-7.47-2.99-14.54-7.06-19.79-13.27-5.03-5.96-8.18-13.38-10.61-20.72-5.39-16.37-7.84-34.26-4.1-51.26,3.13-14.23,10.69-27.01,21.32-36.93,10.63-9.93,23.96-16.55,38.29-19.06,15.41-2.7,31.82-.55,46.16,5.65,2.46,1.06,4.86,2.27,7.21,3.56,4.08,5.06,8.87,9.41,13.68,13.79,5.05,4.6,10.17,9.33,13.7,15.24,3.15,5.29,4.43,11.18,4.84,17.2-.22,3.59-.18,7.2-.01,10.8h0Zm-4.75-38.99c-.38-.43-.78-.85-1.17-1.27,2.18.81,4.4,1.5,6.69,2.01,1.02.23,1.89.01,2.57-.45.68.46,1.55.68,2.57.45,2.28-.51,4.51-1.19,6.69-2.01-.39.42-.79.84-1.17,1.27-3.39,3.85-6.14,8.05-8.08,12.64-1.94-4.59-4.7-8.8-8.08-12.64h-.01Zm-175.12,786.3c-2.69,2.98-5.28,6.07-7.81,9.19-2.86-7.96-1.76-17.1,1.62-24.8,4.54-10.35,12.49-18.68,20.31-26.64,2.27-2.31,0-6.56-3.24-5.56-19.4,5.99-38.01,14.59-55.09,25.57-3.92,2.52-7.74,5.2-11.49,7.97-.53-2.66.78-6.06,1.57-8.33,1.5-4.3,3.59-8.38,6.09-12.18,5.01-7.62,11.87-14.01,19.76-18.56,4.53-2.6,9.34-4.53,14.41-5.79,3.57-.89,2.91-6.77-.88-6.53-23.77,1.52-47.37,5.44-70.35,11.69,1.76-6.6,6.04-12.37,11.25-16.77,7.38-6.24,16.88-9.29,26.28-10.82,5.83-.95,11.75-1.24,17.64-1.37,10.51,10.52,22.04,19.99,34.86,27.68,12.11,7.28,25.03,13.1,38.38,17.72-15.87,10.72-30.48,23.3-43.31,37.52h0Zm413.98-81.55c9.4,1.52,18.91,4.58,26.28,10.82,5.2,4.4,9.5,10.17,11.25,16.77-22.98-6.25-46.58-10.17-70.35-11.69-3.8-.24-4.46,5.64-.88,6.53,5.07,1.26,9.89,3.19,14.41,5.79,7.9,4.55,14.75,10.94,19.76,18.56,2.5,3.8,4.6,7.88,6.09,12.18.79,2.27,2.1,5.68,1.57,8.33-3.76-2.76-7.57-5.45-11.49-7.97-17.08-10.98-35.69-19.58-55.09-25.57-3.24-1-5.5,3.25-3.24,5.56,7.82,7.96,15.77,16.28,20.31,26.64,3.38,7.7,4.49,16.84,1.62,24.8-2.53-3.12-5.12-6.2-7.81-9.19-12.83-14.22-27.44-26.8-43.31-37.52,13.35-4.63,26.27-10.45,38.38-17.72,12.82-7.7,24.34-17.16,34.86-27.68,5.89.13,11.82.42,17.64,1.37h0Zm109.69-235.53c-2.56,13.39-7.34,27.71-17.22,37.45.46-2.21.9-4.42,1.34-6.61,1.51-7.55,2.71-15.17,3.43-22.85,1.43-15.19.77-30.66-3.32-45.41-1.14-4.12-7.56-2.37-6.41,1.77,4.25,15.33,4.51,31.34,2.72,47.07-.79,6.96-2.02,13.87-3.47,20.73-1.37,6.47-2.58,13.35-5.2,19.45-2.14,4.99-5.67,9.14-10.72,11.31-4.67,2-10.22,2.13-14.67-.48-.95-.56-1.85-1.24-2.67-2-.32-1.02-.99-1.85-1.97-2.22-1.57-2.11-2.65-4.58-2.9-7.17-.6-6.04,3.56-11.11,6.2-16.16,6.3-12.04,9.41-25.66,8.97-39.24-.14-4.28-6.79-4.28-6.65,0,.26,8.04-.76,15.99-3.09,23.68-1.13,3.74-2.56,7.39-4.3,10.9-1.4,2.8-3.08,5.46-4.53,8.23-.4-.4-.89-.72-1.45-.95-12.62-5.03-23.17-15.6-28.06-28.28-2.69-6.99-3.99-14.43-4.94-21.83-1.02-7.99-1.75-16.01-2.24-24.05-.97-15.97-.98-32-.45-47.99,1.06-32.31,4-64.57,6.44-96.8.13-1.8-1.63-3.32-3.32-3.32-1.89,0-3.19,1.54-3.32,3.32-1.41,18.64-2.87,37.28-4.19,55.94-2.32,32.9-3.91,66.01-1.05,98.94,1.32,15.18,2.59,31.5,10.15,45.06,6.46,11.6,16.94,20.53,29.23,25.43.29.12.58.15.88.15-1.43,5.01-1.07,10.11,1.4,15.02.79,1.57,1.8,3.03,2.96,4.37.21,2.38.39,4.77.48,7.16,1.07,25.24-4.05,50.33-13.31,73.75-9.3,23.51-22.81,45.44-38.76,65.01-8.6,10.55-17.89,20.69-28.1,29.7-9.79,8.63-20.7,15.91-32.23,21.99-23.45,12.38-49.33,19.58-75.44,23.64-29.49,4.59-59.44,5.19-89.22,5.51-.55,0-1.02.12-1.43.32-.41-.19-.88-.31-1.43-.32-29.79-.33-59.74-.92-89.22-5.51-26.11-4.06-51.98-11.27-75.44-23.64-11.53-6.09-22.44-13.37-32.23-21.99-10.22-9.01-19.51-19.15-28.1-29.7-15.96-19.57-29.46-41.5-38.76-65.01-9.26-23.43-14.38-48.51-13.31-73.75.1-2.39.27-4.78.48-7.16,1.16-1.34,2.17-2.8,2.96-4.37,2.47-4.91,2.82-10.01,1.4-15.02.3,0,.59-.04.88-.15,12.29-4.89,22.77-13.84,29.23-25.43,7.56-13.57,8.82-29.89,10.15-45.06,2.87-32.93,1.28-66.04-1.05-98.94-1.32-18.65-2.79-37.29-4.19-55.94-.13-1.79-1.43-3.32-3.32-3.32-1.69,0-3.46,1.52-3.32,3.32,2.44,32.23,5.38,64.48,6.44,96.8.53,15.99.51,32.01-.45,47.99-.48,8.04-1.21,16.06-2.24,24.05-.95,7.4-2.25,14.85-4.94,21.83-4.89,12.69-15.44,23.26-28.06,28.28-.55.22-1.05.55-1.45.95-1.45-2.77-3.14-5.43-4.53-8.23-1.75-3.5-3.17-7.15-4.3-10.9-2.33-7.7-3.35-15.65-3.09-23.68.14-4.28-6.51-4.28-6.65,0-.44,13.58,2.67,27.19,8.97,39.24,2.64,5.05,6.8,10.12,6.2,16.16-.26,2.59-1.33,5.06-2.9,7.17-.98.37-1.66,1.2-1.97,2.22-.82.77-1.72,1.44-2.67,2-4.44,2.62-10,2.49-14.67.48-5.06-2.17-8.59-6.32-10.72-11.31-2.62-6.11-3.82-12.98-5.2-19.45-1.45-6.85-2.69-13.77-3.48-20.73-1.79-15.73-1.52-31.74,2.72-47.07,1.14-4.13-5.27-5.89-6.41-1.77-4.09,14.76-4.75,30.23-3.32,45.41.72,7.67,1.92,15.3,3.43,22.85.44,2.18.88,4.39,1.34,6.61-9.88-9.74-14.66-24.06-17.22-37.45-2.05-10.73-2.97-21.69-2.9-32.62.07-11.08,1.34-22.06,3.07-33,3.18-20.19,7.45-40.23,13.13-59.87,5.67-19.58,12.74-38.78,21.6-57.15,4.42-9.17,9.27-18.14,14.58-26.83,4.73-7.75,9.98-15.59,17.26-21.2,1.75-1.35,3.63-2.51,5.58-3.55.85-.45,1.32-1.09,1.52-1.78,1.58-.11,3.11-1.16,3.18-3.19.94-26.81,4.1-53.5,9.46-79.78,5.38-26.38,12.92-52.31,22.5-77.45,9.52-24.97,21.12-49.15,34.62-72.21,6.68-11.42,13.72-22.7,21.62-33.33,7.7-10.37,16.53-20.2,26.99-27.84,20.84-15.23,46.35-21.87,71.47-25.88,2.79-.44,5.58-.85,8.37-1.24,2.76,14.97,7.94,29.5,15.28,42.84,3.05,5.54,6.46,10.97,10.28,16.11-26.27-10.22-57.05-7.94-80.39,8.78-12.5,8.95-22.4,21.15-28.17,35.45-6.82,16.9-6.75,35.87-2.94,53.47,3.66,16.94,10.27,34.81,25.29,44.79,7.39,4.92,16.08,8.15,24.59,10.52,8.93,2.49,18.25,3.86,27.52,3.86,16.63,0,33.27-4.59,47-14.09,6.58-4.55,12.35-10.04,17.13-16.45,5.01-6.72,8.53-14.45,10.9-22.46.74-2.5,1.36-5.03,1.9-7.58.54,2.55,1.16,5.08,1.9,7.58,2.38,8.01,5.9,15.74,10.9,22.46,4.78,6.41,10.55,11.9,17.13,16.45,13.74,9.5,30.38,14.1,47,14.09,9.27,0,18.59-1.38,27.52-3.86,8.51-2.37,17.2-5.6,24.59-10.52,15.02-9.98,21.63-27.85,25.29-44.79,3.81-17.61,3.88-36.57-2.94-53.47-5.76-14.29-15.66-26.49-28.17-35.45-23.34-16.71-54.12-18.99-80.39-8.78,3.82-5.13,7.24-10.57,10.28-16.11,7.34-13.35,12.52-27.87,15.28-42.84,2.79.39,5.58.79,8.37,1.24,25.13,4.01,50.64,10.66,71.47,25.88,10.47,7.65,19.3,17.47,26.99,27.84,7.89,10.63,14.93,21.91,21.62,33.33,13.5,23.06,25.1,47.24,34.62,72.21,9.59,25.15,17.12,51.09,22.5,77.45,5.36,26.28,8.53,52.98,9.46,79.78.07,2.03,1.61,3.08,3.18,3.19.2.7.68,1.33,1.52,1.78,1.94,1.03,3.83,2.2,5.58,3.55,7.28,5.61,12.52,13.44,17.26,21.2,5.31,8.69,10.16,17.66,14.58,26.83,8.86,18.37,15.93,37.57,21.6,57.15,5.68,19.64,9.95,39.68,13.13,59.87,1.72,10.93,3,21.92,3.07,33,.06,10.93-.85,21.88-2.9,32.62h-.04Z"/>
    <path class="cls-4" d="m288.16,917.96c-2.9,2.75-6.94,6.56-10.97,3.81-1.94-1.33-3.55-3.04-5.72-4.02-2.35-1.06-4.94-1.54-7.53-1.34-5.34.4-10.07,2.81-14.36,5.88-2.08,1.49-4.09,3.08-6.21,4.52-1.02.69-2.05,1.35-3.12,1.94-.77.43-2.1,1.31-3.01,1.2-.44-.05-.43.08-.74-.45-.62-1.07-.84-2.55-1.23-3.72-.9-2.69-1.89-5.35-2.97-7.97-1.1-2.69-2.28-5.36-3.55-7.98-1.09-2.24-2.23-4.68-4.55-5.87-5.69-2.92-9.93,3.91-13.02,7.54-1.91,2.24-3.82,4.48-5.73,6.72-.99,1.16-1.97,2.34-2.97,3.49-.07.08-.22.22-.38.36-.25-.53-.53-1.19-.56-1.31-.39-1.43-.62-2.91-.91-4.36-.6-3.15-1.12-6.31-1.55-9.48-.88-6.48-1.36-13-1.54-19.54-.12-4.27-6.77-4.29-6.65,0,.17,6.19.63,12.37,1.41,18.51.4,3.15.86,6.3,1.4,9.43.47,2.7.78,5.63,1.75,8.21.85,2.28,2.27,4.57,4.7,5.38,2.91.97,5.4-.61,7.24-2.76,4.12-4.8,8.19-9.64,12.31-14.43.51-.59,1.05-1.23,1.64-1.72.03.05.05.08.09.14.26.44.51.89.75,1.34,1.36,2.63,2.59,5.35,3.71,8.09,1.16,2.82,2.21,5.68,3.17,8.57.79,2.42,1.39,5.09,3.41,6.82,4.85,4.14,11.5-.4,15.65-3.38,4.25-3.05,8.36-6.74,13.54-8.09,2.34-.61,4.94-.76,7.15.35,2.48,1.24,4.24,3.52,6.79,4.67,6.52,2.94,12.67-1.48,17.25-5.83,3.11-2.96-1.6-7.65-4.7-4.7h.01Zm-66.83-8.01c-.23,0-.36-.56,0,0h0Z"/>
    <path class="cls-4" d="m329.37,979.63c-2.49,1.42-4.99,2.81-7.47,4.25h0c-.65-1.13-1.19-2.33-1.79-3.49-1.27-2.49-2.52-5.01-3.82-7.48-1.21-2.31-3.02-4.26-5.71-4.66-4.87-.71-8.3,3.56-10.31,7.39-.66,1.26-1.53,3.39-2.91,3.92-.78.3-1.71-.52-2.31-1.34-1.3-1.77-1.68-3.99-2.39-6.02-.86-2.44-2.01-4.86-4.09-6.49-1.41-1.1-3.32-1.38-4.7,0-1.15,1.15-1.43,3.59,0,4.7,3.33,2.6,3.14,7.79,5.45,11.17,3.01,4.4,8.52,6.4,12.95,2.64,1.65-1.4,2.77-3.32,3.76-5.22.72-1.39,1.68-3.64,3.36-4.13.45-.13.35-.04.67.48.79,1.3,1.42,2.7,2.11,4.05,1.31,2.57,2.55,5.2,3.95,7.73,1.51,2.72,4.15,4.6,7.32,3.4,1.65-.62,3.18-1.68,4.7-2.55,1.53-.87,3.07-1.75,4.6-2.62,3.72-2.12.37-7.87-3.36-5.74h0Zm-7.11,4.79c.13.04.22.11.2.26,0,.02-.09-.11-.2-.26Z"/>
    <path class="cls-4" d="m185.66,830.56c.21,0,.14-.01,0,0h0Z"/>
    <path class="cls-4" d="m204.42,826.84c1.71-1.47,3.52-2.79,5.41-4.01,1.03-.65,2.07-1.27,3.15-1.86.44-.24.89-.47,1.34-.7,1.65.51,3.57-.12,4.48-1.75,1.75-3.12-1.63-6.09-4.68-5.37-1.89.44-3.81,1.67-5.48,2.62-2.11,1.21-4.13,2.58-6.07,4.06-1.86,1.43-3.66,2.93-5.34,4.58-.65.64-1.28,1.31-1.92,1.97-.47.49-1.09,1.34-1.8,1.5-.04,0-.54-.26-.85-.48-.79-.57-1.51-1.27-2.3-1.85-1.48-1.08-3.28-1.75-5.13-1.64-3.59.2-5.93,2.96-8.17,5.42-.87.96-1.77,1.87-2.58,2.34-.15.09-.21.13-.24.16-.05,0-.12.02-.22.04-.42.1-.24.15-.78.08-.79-.11-1.55-.67-2.15-1.14-3.64-2.87-6.53-7-9.49-10.53-1.48-1.76-3.42-3.18-5.81-3.22-2.38-.05-4.53,1.17-6.16,2.82-1.65,1.66-2.52,3.79-3.94,5.6-.82,1.03-1.61,1.88-2.61.65-1.34-1.65-.73-4.61-.58-6.54.22-2.93.44-5.86.66-8.79.13-1.79-1.62-3.32-3.32-3.32-1.91,0-3.19,1.52-3.32,3.32-.19,2.51-.38,5.02-.57,7.53-.18,2.45-.43,4.86-.03,7.31.74,4.5,4.62,8.51,9.44,7.65,4.26-.76,5.9-4.61,8.17-7.74.37-.51.81-1.06,1.31-1.44.27-.2.54-.37.88-.43.05.04.11.09.18.18,1.33,1.62,2.71,3.22,4.07,4.81,2.77,3.22,5.75,7.22,9.71,9.02,3.83,1.75,7.54.66,10.54-2.07,1.01-.92,1.88-1.97,2.8-2.98.48-.53.97-1.05,1.51-1.52.06-.05.09-.08.13-.12.04-.02.11-.07.25-.16.14-.09.28-.16.43-.24.02,0,.02,0,.04-.01.08-.03.21-.05.31-.05h-.13c.15,0,.21-.02.24-.04.05.03.12.07.25.13.32.15.89.6,1.29.93,1.48,1.23,2.97,2.45,4.91,2.82,5.3,1,8.71-4.56,12.2-7.56h0Zm-48.73-3.17c-.23,0-.21-.16,0,0h0Z"/>
    <path class="cls-4" d="m314.7,825.47c1.4.82,3.28.58,4.42-.57,1.32-1.32,1.41-3.28.69-4.9-1.13-2.55-2.86-4.86-4.06-7.4-1.21-2.56-2.17-5.22-2.97-7.94-.86-2.93-4.44-3.05-6.08-.79-2.27,3.13-4.53,6.25-6.8,9.39-.26.36-.65.77-.96,1.19-.25-.37-.58-.77-.71-1-.32-.56-.61-1.14-.89-1.72-2.35-4.88-4.22-10.13-9.87-11.96-1.28-.41-3.17.25-3.76,1.53-.78,1.7-1.73,3.3-3.01,4.68-.56.61-1.17,1.2-1.82,1.72-.16-.62-.47-1.27-.65-1.85-.4-1.24-.8-2.47-1.2-3.71-.73-2.27-1.46-4.53-2.19-6.8-1.31-4.06-7.73-2.32-6.41,1.77,1.06,3.3,2.13,6.59,3.19,9.89.84,2.6,1.55,5.88,4.17,7.3,3.17,1.72,6.17-.37,8.48-2.48,1.34-1.22,2.5-2.64,3.5-4.16.08.1.16.18.25.29.62.81,1.35,2.28,1.87,3.39,1.31,2.78,2.39,5.77,4.43,8.12,1.4,1.61,3.53,2.66,5.69,2.2,2.04-.43,3.32-1.87,4.51-3.47,1.36-1.83,2.7-3.69,4.04-5.54.34.84.7,1.68,1.07,2.5.58,1.28,1.21,2.54,1.89,3.77.39.71.78,1.4,1.2,2.09.03.05.08.13.13.24-.26,1.56.44,3.4,1.86,4.23h0Zm-35.63-17.04c.21.09.11.19,0,0h0Z"/>
    <path class="cls-4" d="m149.41,719.21c.86-.56,1.94-1.2,2.67-1.73.03.04.05.07.09.13.37.55.72,1.1,1.07,1.66,1.35,2.2,2.68,4.51,4.7,6.17,3.95,3.26,9.68,3.66,13.15-.52,1.31-1.58,2.15-3.38,2.96-5.24.37-.86.73-1.72,1.14-2.56.16-.32.49-.73.65-1.09.04.04.08.08.11.12,0,0,.09.11.15.18.06.08.24.33.27.36.27.38.55.77.84,1.14,1.35,1.79,2.91,3.45,5.19,3.98,1.35.32,3.1-.19,3.76-1.53.81-1.67,1.79-3.18,2.91-4.57.35.61.7,1.22,1.05,1.83.48.85.98,1.69,1.46,2.55.16.27.32.55.47.83-1.62,1.55-1.61,4.91,1.23,5.78,1.97.61,4.13-.2,5.25-1.94,1.2-1.86.91-4-.03-5.9-1.74-3.53-3.93-6.9-5.89-10.31-1.13-1.97-3.63-2.04-5.22-.67-1.95,1.68-3.64,3.64-5.06,5.79-.12-.17-.26-.36-.43-.58-1.17-1.58-2.46-3.23-4.43-3.83-5.47-1.65-7.84,4.13-9.6,8.09-.67,1.51-1.48,3.46-2.66,3.97-1.45.61-3.28-.99-4.26-2.27-1.57-2.08-2.54-4.68-4.44-6.51-2.59-2.48-5.88-1.86-8.69-.15-2.17,1.33-4.26,2.79-6.3,4.32,2.01-6.25,4.02-12.51,6.03-18.77,1.31-4.08-5.1-5.83-6.41-1.77-3.19,9.92-6.37,19.83-9.56,29.75-1.04,3.24,3.26,5.48,5.56,3.24,3.78-3.69,7.86-7.03,12.29-9.91h0Zm45.55,1.01s.06.03.09.05c-.05-.02-.1-.02-.15-.03.02,0,.04-.01.06-.02h0Zm-19.45-4.64s-.05,0-.08-.01c-.02-.01-.04-.03-.05-.05.05,0,.11.02.13.06Zm-.15-.06s.02.02.04.04c-.11-.02-.09-.04-.04-.04Zm-23.33,1.88c-.16-.12-.3-.42,0,0h0Z"/>
    <path class="cls-4" d="m266.84,722.65c.54,1.67,2.31,2.87,4.09,2.32,3-.92,5.16-3.06,6.62-5.79.69-1.29,1.23-2.66,1.78-4.02.13-.32.27-.73.41-1.15.75.69,1.51,1.38,2.27,2.06,1.49,1.35,2.98,2.71,4.47,4.07,1.98,1.8,4.64.88,5.56-1.47,2.37-6.01,6.16-14.14,14.08-12.17,4.15,1.03,5.93-5.38,1.77-6.41-5.45-1.36-11.08.16-15.08,4.13-2.28,2.27-3.88,5.04-5.2,7.94-1.31-1.2-2.63-2.39-3.94-3.59-1.16-1.06-2.2-2.1-3.79-2.41-1.99-.39-3.8.66-4.84,2.34-1.23,1.99-1.96,5.41-3.33,7.73-3.86-10.94-8.87-21.46-14.96-31.33-2.24-3.64-8-.3-5.74,3.36,6.66,10.79,11.98,22.3,15.84,34.37h0Zm11.35-10.05h-.09c-.03-.05-.06-.11-.09-.16.06.05.12.11.18.16Z"/>
    <path class="cls-4" d="m92.22,640.72c-.61-2.72-1-6.62-3.03-8.68-1.78-1.81-4.29-1.9-6.41-.69-.24-2.59-.67-5.16-1.33-7.67-.6-2.28-2.97-2.81-4.88-1.99-1.63.69-3.26,1.39-4.89,2.08-.37.16-1.08.54-1.76.85,0-.38-.03-.75-.05-1.12-.08-1.72-.32-3.45-.68-5.13-.7-3.15-2-6.2-3.72-8.93-1.06-1.68-3.78-2.37-5.22-.67-1.3,1.53-2.68,2.99-4.11,4.4,1.67-9.58,4.15-19.03,7.34-28.22.59-1.69-.67-3.64-2.32-4.09-1.83-.5-3.5.62-4.09,2.32-4.32,12.4-7.21,25.2-8.82,38.24-.3,2.41,3.09,4.29,5.01,2.87,3.04-2.25,5.89-4.7,8.53-7.38.44,1.13.8,2.3,1.06,3.52.53,2.53-.04,5.33.74,7.79,1.05,3.31,4.52,4.18,7.5,2.99,1.59-.63,3.17-1.31,4.74-1.99.43,2.69.61,5.39.49,8.15-.1,2.34,2.2,3.55,4.21,3.21,1.64-.28,2.98-1.31,4.23-2.36,1.23,4.54,2.14,9.16,2.78,13.81.25,1.78,2.52,2.75,4.09,2.32,1.92-.53,2.57-2.31,2.32-4.09-.44-3.2-1-6.38-1.72-9.54h0Zm-22.35-14.79c.06.08.01.18,0,0h0Z"/>
    <path class="cls-4" d="m142.32,480.66c1.04,3.3,2.53,6.46,4.42,9.37,1.37,2.11,4.39,2.17,5.74,0,2.24-3.59,4.88-6.86,7.85-9.82.82,1.85,1.73,3.65,2.76,5.39,1.85,3.14,4.58,6.38,8.67,4.94,3.04-1.07,4.73-4.34,7.21-6.26,2.61-2.02,5.64-3.3,8.85-3.98,4.19-.88,2.41-7.29-1.77-6.41-5.58,1.17-10.83,4.14-14.64,8.4-.45.5-.86,1.05-1.34,1.52-.02.02-.04.04-.06.05-.46-.67-1.24-1.74-1.32-1.88-1.55-2.67-2.84-5.45-3.87-8.37-.87-2.46-3.59-3.14-5.56-1.47-3.47,2.93-6.56,6.26-9.29,9.87-1.29-2.91-2.16-5.98-2.6-9.2-.34-2.45-4.04-3.22-5.56-1.47-3.71,4.28-7.69,8.29-11.88,12.08,1.33-8.16,3.37-16.21,6.03-24.05,1.38-4.06-5.04-5.81-6.41-1.77-3.74,11.01-6.16,22.39-7.35,33.96-.13,1.28.94,2.59,2.04,3.04,1.34.54,2.54.19,3.63-.69,5.13-4.08,9.95-8.52,14.45-13.26h0Z"/>
    <path class="cls-4" d="m181.55,567.71c-1.65,1.86-2.69,4.17-3.95,6.28-1.33,2.21-2.76,4.35-4.3,6.42-1.52,2.04-3.17,3.99-4.91,5.85.4-9.85,1.63-19.65,3.73-29.3.91-4.17-5.5-5.96-6.41-1.77-2.79,12.83-4.19,25.94-4.12,39.06.02,3.01,3.56,4.21,5.68,2.35,6.8-5.97,12.63-13.1,17.09-20.98.74-1.31,1.48-3.34,2.89-4.1,1.14-.62,1.01.47,1.26,1.47,1.25,4.97,2.41,9.97,3.61,14.95.71,2.94,4.57,3.06,6.08.79,1.44-2.16,2.87-4.3,4.31-6.46.72-1.07,1.44-2.16,2.16-3.23.51-.77.99-1.76,1.68-2.39.06.04.14.09.23.19.54.63.95.97,1.3,1.76.96,2.19,1.38,4.51,2.84,6.47,1.61,2.16,4.32,3.46,6.88,1.97,1.84-1.07,3.26-2.76,5.12-3.85,3.67-2.16,7.8-3.06,12.04-2.8,4.28.26,4.26-6.4,0-6.65-3.78-.23-7.67.34-11.21,1.72-1.78.7-3.5,1.51-5.11,2.56-.84.55-1.64,1.16-2.42,1.78-.13.11-.29.27-.47.44-.21-.46-.39-.92-.55-1.4-.51-1.48-.96-3.06-1.79-4.4-1.59-2.58-4.41-4.65-7.55-4.39-3.59.3-5.3,3.48-7.09,6.17-.6.89-1.19,1.78-1.78,2.67-.12-.48-.23-.96-.35-1.45-.64-2.67-1.07-5.52-2.07-8.09-2.2-5.68-9.01-5.92-12.78-1.65h-.02Zm34.52,13.47c.3.05.25.43-.05,0h.05Zm-9.76-4.54c-.29.2-.25-.11,0,0h0Z"/>
    <path class="cls-4" d="m268.59,307.39s.09-.05.14-.07.09-.06.13-.08c-.05.02-.15.07-.32.16.02,0,.03,0,.05-.01Z"/>
    <path class="cls-4" d="m271.59,296.47c-1.53-.68-3.21-1.05-4.88-.95-.39-.04-.8-.04-1.22.05-3.62.7-6.68,4.08-7.28,7.69-.35,2.13-.13,4.23.95,6.14.88,1.55,2.33,2.92,3.94,3.69,3.58,1.71,7.98,1.48,10.87-1.48,2.5-2.56,3.53-6.79,2.17-10.16-.87-2.16-2.39-4-4.56-4.97h0Zm-2.3,10.46s.04-.07.09-.14c-.05.07-.09.13-.09.14Zm.17-.24s-.01.01-.02.02c.15-.18.31-.35.02-.02Zm.58-1.51c-.03.16-.05.31-.09.47-.04.13-.08.26-.12.39-.04.08-.07.15-.09.19-.06.12-.13.25-.21.36-.01.02-.06.09-.11.15-.07.08-.15.15-.22.22.19-.16.1,0-.11.15-.03.02-.06.04-.1.06-.04.04-.09.08-.13.12.04-.05.08-.08.11-.12-.04.02-.08.05-.11.07.12-.05-.06.09-.26.15h-.02c-.08.04-.15.07-.22.11h0c.07-.04.13-.07.18-.11-.18.06-.36.09-.54.13-.25.01-.5.01-.75,0-.15-.03-.3-.05-.45-.09-.13-.04-.25-.08-.38-.12.05.03.1.05.16.09-.06-.04-.12-.06-.18-.09-.03-.01-.06-.02-.09-.03-.2-.07-.44-.23-.21-.13-.09-.05-.19-.09-.29-.15-.08-.05-.15-.1-.22-.15-.18-.17-.35-.34-.52-.53-.05-.08-.1-.15-.15-.23-.04-.06-.07-.13-.11-.2-.06-.19-.1-.39-.14-.58,0-.2,0-.4,0-.6.04-.16.06-.33.1-.48.03-.11.06-.2.1-.31.12-.23.24-.47.39-.7.01-.02.04-.06.06-.11.01-.02.02-.02.04-.04.18-.2.38-.39.58-.57.05-.03.09-.06.14-.09.02,0,.04,0,.06-.01.3-.11.61-.17.92-.23.23-.01.46,0,.7,0,.19.04.39.07.57.13.04.01.1.02.16.04.01,0,.01,0,.02.01.24.12.46.26.69.4.09.08.18.16.26.25.02.02.06.06.11.1.11.18.21.36.31.54.02.08.05.15.08.23.04.13.05.26.08.4.02.3.02.61,0,.92h0Z"/>
    <path class="cls-4" d="m268.99,307.16c.07-.07.14-.14.21-.2-.05.04-.13.12-.22.21,0,0,.01,0,.01,0h0Z"/>
    <path class="cls-4" d="m266.42,307.31h.01c-.14-.08-.25-.13-.31-.16.1.05.19.11.29.16h0Z"/>
    <path class="cls-4" d="m386.59,139.72c.34-6.3.67-12.84,3.46-18.62,2.66-5.48,6.7-10.05,10.79-14.51,2.89-3.15-1.8-7.87-4.7-4.7-4.56,4.98-9.2,10.18-12.07,16.36-3.14,6.77-3.73,14.1-4.13,21.47-.23,4.28,6.42,4.26,6.65,0h0Z"/>
    <path class="cls-3" d="m690.72,670.04c-3.18-20.19-7.45-40.23-13.13-59.87-5.67-19.58-12.74-38.78-21.6-57.15-4.42-9.17-9.27-18.13-14.58-26.83-4.73-7.75-9.98-15.59-17.26-21.19-1.75-1.35-3.63-2.51-5.58-3.55-.85-.45-1.32-1.09-1.52-1.78-1.58-.11-3.11-1.16-3.18-3.19-.93-26.81-4.1-53.5-9.46-79.78-5.38-26.38-12.92-52.31-22.5-77.45-9.52-24.97-21.12-49.15-34.62-72.21-6.68-11.42-13.72-22.7-21.62-33.33-7.7-10.37-16.53-20.2-26.99-27.84-5.58-4.08-11.52-7.53-17.67-10.5,29.96,57.74,84.08,180.26,66.88,284.23.89,1.03,1.76,2.09,2.58,3.18,1.29-2.91,2.16-5.98,2.6-9.2.34-2.45,4.04-3.22,5.56-1.47,3.71,4.28,7.69,8.29,11.88,12.08-1.33-8.16-3.37-16.21-6.03-24.05-1.38-4.06,5.04-5.81,6.41-1.77,3.74,11.01,6.16,22.39,7.35,33.96.13,1.28-.94,2.59-2.04,3.04-1.34.54-2.54.19-3.63-.69-5.13-4.08-9.95-8.52-14.45-13.26-1.04,3.3-2.53,6.46-4.42,9.37-1.37,2.11-4.39,2.17-5.74,0-.54-.86-1.1-1.7-1.68-2.52-2.59,12.5-6.26,24.7-11.2,36.44-6.48,15.38-11.45,30.36-15.27,44.94,1.14,1.61,2.03,3.41,3.04,5.1,1.33,2.21,2.76,4.35,4.3,6.42,1.52,2.04,3.17,3.99,4.91,5.85-.4-9.85-1.63-19.65-3.73-29.3-.91-4.17,5.5-5.96,6.41-1.77,2.79,12.83,4.19,25.94,4.12,39.06-.02,3.01-3.56,4.21-5.68,2.35-6.1-5.35-11.39-11.63-15.64-18.55-11.12,47.95-10,91.26-8.38,129.21,1.23-.61,2.78-.39,3.9.58,1.95,1.68,3.64,3.64,5.06,5.79.12-.17.26-.36.43-.58,1.17-1.58,2.46-3.23,4.43-3.83,5.47-1.65,7.84,4.13,9.6,8.09.67,1.51,1.48,3.46,2.66,3.97,1.45.61,3.28-.99,4.26-2.27,1.57-2.08,2.54-4.68,4.44-6.51,2.59-2.48,5.88-1.86,8.69-.15,2.17,1.33,4.26,2.79,6.3,4.32-2.01-6.25-4.02-12.51-6.03-18.77-1.31-4.08,5.1-5.83,6.41-1.77,3.19,9.92,6.37,19.83,9.56,29.75,1.04,3.24-3.26,5.48-5.56,3.24-3.78-3.69-7.86-7.03-12.29-9.91-.86-.56-1.94-1.2-2.67-1.73-.03.04-.05.07-.09.13-.37.55-.72,1.1-1.07,1.66-1.35,2.2-2.68,4.51-4.7,6.17-3.95,3.26-9.68,3.66-13.15-.52-1.31-1.58-2.15-3.38-2.96-5.24-.37-.86-.73-1.72-1.14-2.56-.16-.32-.49-.73-.65-1.09-.04.04-.08.08-.11.12,0,0-.09.11-.15.18-.06.08-.24.33-.27.36-.27.38-.55.77-.84,1.14-1.35,1.79-2.91,3.45-5.19,3.98-1.35.32-3.1-.19-3.76-1.53-.81-1.67-1.79-3.18-2.91-4.57-.35.61-.7,1.22-1.05,1.83-.23.39-.45.79-.68,1.18,1.75,40.31,2.63,74.12-12.68,100.49.3.22.61.42.9.64,1.86,1.43,3.66,2.93,5.34,4.58.65.64,1.28,1.31,1.92,1.97.47.49,1.09,1.34,1.8,1.5.04.01.54-.26.85-.48.79-.57,1.51-1.27,2.3-1.85,1.48-1.08,3.28-1.75,5.13-1.64,3.59.2,5.93,2.96,8.17,5.42.87.96,1.77,1.87,2.58,2.34.15.09.21.13.24.16.05,0,.12.02.22.04.42.1.24.15.78.08.79-.11,1.55-.67,2.15-1.14,3.64-2.87,6.53-7,9.49-10.53,1.48-1.76,3.42-3.18,5.81-3.22,2.38-.05,4.53,1.17,6.16,2.82,1.65,1.66,2.52,3.79,3.94,5.6.82,1.03,1.61,1.88,2.61.65,1.34-1.65.73-4.61.58-6.54-.22-2.93-.44-5.86-.66-8.79-.13-1.79,1.62-3.32,3.32-3.32,1.91,0,3.19,1.52,3.32,3.32.19,2.51.38,5.02.57,7.53.18,2.45.43,4.86.03,7.31-.74,4.5-4.62,8.51-9.44,7.65-4.26-.76-5.9-4.61-8.17-7.74-.37-.51-.81-1.06-1.31-1.44-.27-.2-.54-.37-.88-.43-.05.04-.11.09-.18.18-1.33,1.62-2.71,3.22-4.07,4.81-2.77,3.22-5.75,7.22-9.71,9.02-3.83,1.75-7.54.66-10.54-2.07-1.01-.92-1.88-1.97-2.8-2.98-.48-.53-.97-1.05-1.51-1.52-.06-.05-.09-.08-.13-.12-.04-.02-.11-.07-.25-.16-.14-.09-.28-.16-.43-.24-.02,0-.02,0-.04-.01-.08-.03-.21-.05-.31-.05-.21,0-.14-.01,0,0h.13c-.15,0-.21-.02-.24-.04-.05.03-.12.07-.25.13-.32.15-.89.6-1.29.93-1.48,1.23-2.97,2.45-4.91,2.82-5.3,1-8.71-4.56-12.2-7.56-.84-.72-1.71-1.41-2.6-2.07-3.41,4.87-7.45,9.47-12.25,13.78-31.11,27.89-105.79,64.81-187.51,79.97.88,1.18,1.04,2.83-.34,4.14-4.58,4.35-10.73,8.77-17.25,5.83-2.55-1.15-4.31-3.43-6.79-4.67-2.21-1.11-4.82-.96-7.15-.35-5.17,1.35-9.29,5.03-13.54,8.09-4.15,2.98-10.8,7.52-15.65,3.38-2.02-1.73-2.62-4.39-3.41-6.82-.3-.92-.63-1.82-.95-2.73-6.66.13-13.3.07-19.91-.2-.26.31-.53.62-.79.93-1.85,2.15-4.33,3.73-7.24,2.76-2.1-.69-3.45-2.5-4.32-4.44-38.51-3.15-75.4-13.83-106.83-35.28,8.97,19.78,20.86,38.31,34.55,55.11,8.6,10.55,17.89,20.69,28.1,29.7,9.79,8.63,20.7,15.91,32.23,21.99,23.45,12.38,49.33,19.58,75.44,23.64,29.49,4.59,59.44,5.19,89.22,5.51.55,0,1.02.12,1.43.32.41-.19.88-.31,1.43-.32,29.79-.33,59.74-.92,89.22-5.51,26.11-4.06,51.98-11.27,75.44-23.64,11.53-6.09,22.44-13.37,32.23-21.99,10.22-9.01,19.51-19.15,28.1-29.7,15.96-19.57,29.46-41.5,38.76-65.01,9.26-23.43,14.38-48.51,13.31-73.75-.1-2.39-.27-4.78-.48-7.16-1.16-1.34-2.17-2.8-2.96-4.37-2.47-4.91-2.82-10.01-1.4-15.02-.3,0-.59-.04-.88-.15-12.29-4.89-22.77-13.84-29.23-25.43-7.56-13.57-8.82-29.89-10.15-45.06-2.87-32.93-1.28-66.04,1.05-98.94,1.32-18.65,2.79-37.29,4.19-55.94.13-1.79,1.43-3.32,3.32-3.32,1.69,0,3.46,1.52,3.32,3.32-2.44,32.23-5.38,64.48-6.44,96.8-.53,15.99-.51,32.01.45,47.99.48,8.04,1.21,16.06,2.24,24.05.95,7.4,2.25,14.85,4.94,21.83,4.89,12.69,15.44,23.26,28.06,28.28.55.22,1.05.55,1.45.95,1.45-2.77,3.14-5.43,4.53-8.23,1.75-3.5,3.17-7.15,4.3-10.89,2.33-7.7,3.35-15.65,3.09-23.68-.14-4.28,6.51-4.28,6.65,0,.44,13.58-2.67,27.19-8.97,39.24-2.64,5.05-6.8,10.13-6.2,16.16.26,2.59,1.33,5.06,2.9,7.17.98.37,1.66,1.2,1.97,2.22.82.77,1.72,1.44,2.67,2,4.44,2.62,10,2.49,14.67.48,5.06-2.17,8.59-6.32,10.72-11.31,2.62-6.11,3.82-12.98,5.2-19.45,1.45-6.85,2.69-13.77,3.47-20.73,1.79-15.73,1.52-31.74-2.72-47.07-1.14-4.13,5.27-5.89,6.41-1.77,4.09,14.76,4.75,30.23,3.32,45.41-.72,7.67-1.92,15.3-3.43,22.85-.44,2.18-.88,4.39-1.34,6.61,9.88-9.74,14.66-24.06,17.22-37.45,2.05-10.73,2.97-21.69,2.9-32.62-.07-11.08-1.34-22.06-3.07-33h.02Zm-357.57,316.08c-1.53.87-3.07,1.75-4.6,2.62s-3.05,1.93-4.7,2.55c-3.17,1.19-5.82-.68-7.32-3.4-1.4-2.52-2.63-5.16-3.95-7.73-.69-1.35-1.33-2.76-2.11-4.05-.32-.53-.22-.62-.67-.48-1.68.49-2.63,2.74-3.36,4.13-.99,1.89-2.11,3.82-3.76,5.22-4.43,3.76-9.93,1.76-12.95-2.64-2.31-3.38-2.12-8.57-5.45-11.17-1.43-1.11-1.15-3.55,0-4.7,1.38-1.38,3.29-1.1,4.7,0,2.09,1.63,3.24,4.05,4.09,6.49.71,2.03,1.09,4.25,2.39,6.02.61.82,1.52,1.65,2.31,1.34,1.38-.54,2.25-2.66,2.91-3.92,2-3.83,5.45-8.1,10.31-7.39,2.7.4,4.5,2.35,5.71,4.66,1.3,2.48,2.55,4.99,3.82,7.48.59,1.16,1.13,2.36,1.79,3.49h0c2.48-1.44,4.98-2.83,7.47-4.25,3.73-2.13,7.08,3.63,3.36,5.74h0Zm83.41-14.96c-3.33,2.6-3.14,7.79-5.45,11.17-3.01,4.4-8.52,6.4-12.95,2.64-1.65-1.4-2.77-3.32-3.76-5.22-.72-1.39-1.68-3.64-3.36-4.13-.45-.13-.35-.04-.67.48-.79,1.3-1.42,2.7-2.11,4.05-1.31,2.57-2.55,5.2-3.95,7.73-1.51,2.72-4.15,4.6-7.32,3.4-1.65-.62-3.18-1.68-4.7-2.55-1.53-.87-3.07-1.75-4.6-2.62-3.72-2.12-.37-7.87,3.36-5.74,2.49,1.42,4.99,2.81,7.47,4.25h0c.65-1.13,1.2-2.33,1.79-3.49,1.27-2.49,2.52-5.01,3.82-7.48,1.21-2.31,3.02-4.26,5.71-4.66,4.87-.71,8.3,3.56,10.31,7.39.66,1.26,1.53,3.39,2.91,3.92.78.3,1.71-.52,2.31-1.34,1.3-1.77,1.68-3.99,2.39-6.02.86-2.44,2.01-4.86,4.09-6.49,1.41-1.1,3.32-1.38,4.7,0,1.15,1.15,1.43,3.59,0,4.7h0Zm91.54-64.53c-.4,3.15-.86,6.3-1.4,9.43-.47,2.7-.78,5.63-1.75,8.21-.85,2.28-2.27,4.57-4.7,5.38-2.91.97-5.4-.61-7.24-2.76-4.12-4.8-8.19-9.64-12.31-14.43-.51-.59-1.05-1.23-1.64-1.72-.03.05-.05.08-.09.14-.26.44-.51.89-.75,1.34-1.36,2.63-2.59,5.35-3.71,8.09-1.16,2.82-2.21,5.68-3.17,8.57-.79,2.42-1.39,5.09-3.41,6.82-4.85,4.14-11.5-.4-15.65-3.38-4.25-3.05-8.36-6.74-13.54-8.09-2.34-.61-4.94-.76-7.15.35-2.48,1.24-4.24,3.52-6.79,4.67-6.52,2.94-12.67-1.48-17.25-5.83-3.11-2.96,1.6-7.65,4.7-4.7,2.9,2.75,6.94,6.56,10.97,3.81,1.94-1.33,3.55-3.04,5.72-4.02,2.35-1.06,4.94-1.54,7.53-1.34,5.34.4,10.07,2.81,14.36,5.88,2.08,1.49,4.09,3.08,6.21,4.52,1.02.69,2.05,1.35,3.12,1.94.77.43,2.1,1.31,3.01,1.2.44-.05.43.08.74-.45.62-1.07.84-2.55,1.23-3.72.9-2.69,1.89-5.35,2.97-7.97,1.1-2.69,2.28-5.36,3.55-7.98,1.09-2.24,2.23-4.68,4.55-5.87,5.69-2.92,9.93,3.91,13.02,7.54,1.91,2.24,3.82,4.48,5.73,6.72.99,1.16,1.97,2.34,2.97,3.49.07.08.22.22.38.36.25-.53.53-1.19.56-1.31.39-1.43.62-2.91.91-4.36.6-3.15,1.12-6.31,1.55-9.48.88-6.48,1.36-13,1.54-19.54.12-4.27,6.77-4.29,6.65,0-.17,6.19-.63,12.37-1.41,18.51h-.01Zm139.07-281.59c-3.04-2.25-5.89-4.7-8.53-7.38-.44,1.13-.8,2.3-1.06,3.52-.53,2.53.04,5.33-.74,7.79-1.05,3.31-4.52,4.18-7.5,2.99-1.59-.63-3.17-1.31-4.74-1.99-.43,2.69-.61,5.39-.49,8.15.1,2.34-2.2,3.55-4.21,3.21-1.64-.28-2.98-1.31-4.23-2.36-1.23,4.54-2.14,9.16-2.78,13.81-.25,1.78-2.52,2.75-4.09,2.32-1.92-.53-2.57-2.31-2.32-4.09.44-3.2,1-6.38,1.72-9.54.61-2.72,1-6.62,3.03-8.68,1.78-1.81,4.29-1.9,6.41-.69.24-2.59.67-5.16,1.33-7.67.6-2.28,2.97-2.81,4.88-1.99,1.63.69,3.26,1.39,4.89,2.08.37.16,1.08.54,1.76.85,0-.38.03-.75.05-1.12.08-1.72.32-3.45.68-5.13.7-3.15,2-6.2,3.72-8.93,1.06-1.68,3.78-2.37,5.22-.67,1.3,1.53,2.68,2.99,4.11,4.4-1.67-9.58-4.15-19.03-7.34-28.22-.59-1.69.67-3.64,2.32-4.09,1.83-.5,3.5.62,4.09,2.32,4.32,12.4,7.21,25.2,8.82,38.24.3,2.41-3.09,4.29-5.01,2.87h0Z"/>
    <path class="cls-8" d="m367.71,585.48c2.5,2.69,6.31,2.76,9.71,1.28,4.03-1.76,6.26-5.52,7.27-9.69,1.2-4.96.77-10.35-.09-15.33-.86-5.03-2.32-10.2-5.8-14.08-2.29-2.56-.03-6.17,3.24-5.56,5.62,1.05,12.03,2.31,17.23-.82,4.92-2.96,4.53-8.66,3.91-13.67-1.61-13-4.48-25.88-8.33-38.39-1.34-4.35-2.81-8.65-4.4-12.91-.5-1.33-2.23-1.64-3.18-.58-2,2.2-3.36,6.2-6.24,6.18-56.69-.27-43.35-5.1-55.5-.67,0,0,23.47,6.45,23.46,6.45-.65.23-1.33-.33-1.28-1.03.95-14.19,4.11-4.27,3.67-4.43-12.14-4.44,26.53.13-26.25-3.78-2.87-.21-17.05-.54-19.05-2.73-.96-1.06-2.69-.73-3.19.61-1.59,4.25-3.05,8.54-4.39,12.88-3.85,12.51-6.73,25.4-8.33,38.39-.62,5.01-1.02,10.71,3.91,13.67,5.2,3.12,11.62,1.87,17.23.82,3.26-.61,5.52,3,3.24,5.56-3.48,3.88-4.94,9.04-5.8,14.08-.85,4.98-1.28,10.37-.09,15.33,1.01,4.16,3.24,7.93,7.27,9.69,3.4,1.49,7.21,1.42,9.71-1.28,1.99-2.14,5.68-.44,5.68,2.35,0,6.37-.17,13.43,2.86,19.25,2.38,4.57,6.77,8.31,12.15,7.92.12-.01.23.01.36.02.12,0,.23-.03.36-.02,5.38.4,9.78-3.35,12.15-7.92,3.03-5.82,2.85-12.88,2.86-19.25,0-2.8,3.69-4.5,5.68-2.35h0Z"/>
  </g>
  <ellipse class="cls-6" cx="353.66" cy="458.01" rx="127.05" ry="30.87"/>
  <ellipse class="cls-7" cx="351.64" cy="456.88" rx="107.14" ry="19.89"/>
</svg>